<?xml version="1.0" encoding="utf-8"?>
<!-- Generator: Adobe Illustrator 19.0.0, SVG Export Plug-In . SVG Version: 6.00 Build 0)  -->
<svg version="1.1" id="Layer_1" xmlns="http://www.w3.org/2000/svg" xmlns:xlink="http://www.w3.org/1999/xlink" x="0px" y="0px"
	 viewBox="-14 87.3 470.8 327.7" style="enable-background:new -14 87.3 470.8 327.7;" xml:space="preserve">
<style type="text/css">
	.st0{fill:#20170C;}
	.st1{fill:#E8DDBB;}
</style>
<g id="XMLID_456_">
	<path id="XMLID_478_" class="st0" d="M174.289,208.288c0-10.077-3.917-18.924-11.75-26.543
		c-7.834-7.619-17.127-11.428-27.879-11.428h-29.4v75.942h29.216c11.551,0,21.075-3.518,28.571-10.553
		C170.541,228.671,174.289,219.531,174.289,208.288z M150.649,223.172c-3.594,3.165-8.955,4.747-16.083,4.747v-39.169
		c14.316,0,21.474,6.513,21.474,19.539C156.041,215.047,154.243,220.008,150.649,223.172z"/>
	<polygon id="XMLID_477_" class="st0" points="275.075,246.259 275.075,252.65 284.91,246.259 304.199,233.725 304.199,217.135 
		326.042,170.317 309.728,170.317 295.075,204.325 282.264,170.317 251.942,170.317 275.075,217.135 	"/>
	<polygon id="XMLID_476_" class="st0" points="130.841,273.737 150.472,273.737 150.472,331.983 179.964,331.983 179.964,273.737 
		199.595,273.737 199.595,256.041 130.841,256.041 	"/>
	<path id="XMLID_473_" class="st0" d="M263.094,299.818c2.766-4.546,4.147-9.523,4.147-14.93c0-19.231-12.043-28.847-36.128-28.847
		h-25.16v75.942h29.031v-16.866l13.087,16.866h22.027l-17.972-23.133C256.673,307.376,260.329,304.365,263.094,299.818z
		 M237.288,293.367h-1.105c-0.369,0-0.769-0.03-1.198-0.092v-19.354c0.368-0.062,0.768-0.092,1.198-0.092h1.198
		c7.926,0,11.889,3.349,11.889,10.045C249.269,290.203,245.275,293.367,237.288,293.367z"/>
	<polygon id="XMLID_472_" class="st0" points="275.075,331.983 304.199,331.983 304.199,248.69 275.075,267.615 	"/>
	
		<rect id="XMLID_471_" x="291.651" y="229.332" transform="matrix(-0.5449 -0.8385 0.8385 -0.5449 250.4015 629.0794)" class="st1" width="8.548" height="34.504"/>
	
		<rect id="XMLID_470_" x="267.834" y="256.341" transform="matrix(0.8385 -0.5449 0.5449 0.8385 -97.7027 191.5621)" class="st0" width="12.997" height="8.548"/>
	<path id="XMLID_466_" class="st0" d="M216.315,246.259c15.123,0,25.403-5.157,30.858-15.454c5.653-0.444,10.177-2.246,13.432-4.831
		c3.759-2.988,5.84-7.006,5.852-10.983c0-1.351-0.249-2.695-0.77-3.947c-0.774-1.881-2.187-3.534-4.063-4.633
		c-1.875-1.108-4.163-1.674-6.721-1.673c-0.99,0-2.028,0.094-3.106,0.263v-8.503c-25.757,0-46.119,0-71.149,0v13.08
		c0,12.412,2.888,21.628,8.663,27.649C195.086,243.248,204.088,246.259,216.315,246.259z M251.748,211.108
		c1.188-0.254,2.247-0.371,3.155-0.371c1.124,0,2.029,0.164,2.738,0.412c1.066,0.378,1.702,0.909,2.139,1.528
		c0.43,0.622,0.672,1.382,0.676,2.314c0.011,1.809-1.022,4.255-3.582,6.284c-1.682,1.335-4.038,2.481-7.118,3.116
		C250.91,220.486,251.577,216.06,251.748,211.108z M234.381,208.472v-5.975h11.416v5.975c0,17.564-5.812,27.346-18.545,30.572
		C234.372,231.917,234.381,217.385,234.381,208.472z"/>
	<path id="XMLID_465_" class="st1" d="M315.591,220.802c-0.511-1.146-0.794-2.071-0.793-3.002c0.006-0.809,0.187-1.718,0.901-3.015
		l-4.719-2.625c-1.089,1.943-1.589,3.867-1.582,5.64c-0.001,1.366,0.282,2.603,0.654,3.68c0.565,1.619,1.298,2.923,1.8,4.06
		c0.254,0.567,0.456,1.086,0.589,1.568c0.133,0.483,0.201,0.924,0.202,1.376c-0.002,0.486-0.075,0.994-0.294,1.619
		c-0.202,0.574-0.544,1.252-1.08,2.04c-0.046,0.068-0.085,0.132-0.134,0.202l0.49,0.346l3.92,2.771v0
		c0.856-1.211,1.484-2.393,1.897-3.564c0.414-1.168,0.603-2.326,0.601-3.414c0.001-1.354-0.285-2.579-0.657-3.646
		C316.82,223.235,316.091,221.941,315.591,220.802z"/>
	<path id="XMLID_464_" class="st1" d="M322.091,206.855c-0.511-1.146-0.794-2.071-0.793-3.002c0.006-0.809,0.187-1.718,0.901-3.015
		l-4.719-2.625c-1.089,1.943-1.589,3.867-1.582,5.64c-0.001,1.366,0.282,2.603,0.654,3.68c0.565,1.619,1.298,2.923,1.8,4.06
		c0.254,0.567,0.456,1.086,0.589,1.568c0.133,0.483,0.201,0.924,0.202,1.376c-0.002,0.486-0.075,0.994-0.294,1.619
		c-0.22,0.623-0.593,1.364-1.214,2.242l4.41,3.117v0c0.856-1.211,1.484-2.393,1.897-3.564c0.414-1.168,0.603-2.326,0.601-3.414
		c0.001-1.354-0.285-2.579-0.657-3.646C323.32,209.287,322.591,207.994,322.091,206.855z"/>
	<path id="XMLID_463_" class="st1" d="M328.59,192.907c-0.511-1.146-0.794-2.071-0.793-3.002c0.006-0.809,0.187-1.718,0.901-3.015
		l-4.719-2.625c-1.089,1.943-1.589,3.867-1.582,5.64c-0.001,1.366,0.282,2.603,0.654,3.68c0.565,1.619,1.298,2.923,1.8,4.06
		c0.254,0.567,0.456,1.086,0.589,1.568c0.133,0.483,0.201,0.924,0.202,1.376c-0.002,0.486-0.075,0.994-0.294,1.619
		c-0.22,0.623-0.593,1.364-1.213,2.242l4.41,3.117l0,0c0.856-1.211,1.484-2.393,1.897-3.564c0.413-1.168,0.603-2.326,0.601-3.414
		c0.001-1.354-0.285-2.579-0.657-3.646C329.82,195.34,329.091,194.046,328.59,192.907z"/>
	<path id="XMLID_462_" class="st1" d="M337.542,186.641c0.001-1.354-0.285-2.579-0.657-3.646c-0.565-1.603-1.294-2.896-1.794-4.035
		c-0.511-1.146-0.794-2.071-0.793-3.002c0.006-0.809,0.187-1.718,0.901-3.015l-4.719-2.625c-1.089,1.943-1.589,3.867-1.582,5.64
		c-0.001,1.366,0.282,2.603,0.654,3.68c0.565,1.619,1.298,2.923,1.8,4.06c0.254,0.567,0.456,1.086,0.589,1.568
		c0.133,0.483,0.201,0.924,0.202,1.376c-0.002,0.486-0.075,0.994-0.294,1.619c-0.22,0.623-0.593,1.364-1.213,2.242l4.41,3.117l0,0
		c0.856-1.211,1.484-2.393,1.897-3.564C337.354,188.886,337.543,187.729,337.542,186.641z"/>
	<path id="XMLID_461_" class="st1" d="M241.987,183.697c0.254,0.567,0.456,1.086,0.589,1.568c0.133,0.483,0.201,0.924,0.202,1.376
		c-0.002,0.486-0.075,0.994-0.294,1.619c-0.22,0.623-0.593,1.364-1.214,2.242l4.41,3.117l0,0c0.856-1.211,1.484-2.393,1.897-3.564
		c0.413-1.168,0.603-2.326,0.601-3.414c0.001-1.354-0.285-2.579-0.657-3.646c-0.565-1.603-1.294-2.896-1.794-4.035
		c-0.511-1.146-0.794-2.071-0.793-3.002c0.006-0.809,0.187-1.718,0.901-3.015l-4.719-2.625c-1.089,1.943-1.589,3.867-1.582,5.64
		c-0.001,1.366,0.282,2.603,0.654,3.68C240.752,181.256,241.485,182.56,241.987,183.697z"/>
	<path id="XMLID_460_" class="st1" d="M223.565,183.697c0.254,0.567,0.456,1.086,0.589,1.568c0.133,0.483,0.201,0.924,0.202,1.376
		c-0.002,0.486-0.075,0.994-0.294,1.619c-0.22,0.623-0.593,1.364-1.214,2.242l4.41,3.117v0c0.856-1.211,1.484-2.393,1.897-3.564
		c0.414-1.168,0.603-2.326,0.601-3.414c0.001-1.354-0.285-2.579-0.657-3.646c-0.565-1.603-1.294-2.896-1.794-4.035
		c-0.511-1.146-0.794-2.071-0.793-3.002c0.006-0.809,0.187-1.718,0.901-3.015l-4.719-2.625c-1.089,1.943-1.589,3.867-1.582,5.64
		c-0.001,1.366,0.282,2.603,0.654,3.68C222.33,181.256,223.063,182.56,223.565,183.697z"/>
	<path id="XMLID_459_" class="st1" d="M205.143,183.697c0.254,0.567,0.456,1.086,0.589,1.568c0.133,0.483,0.201,0.924,0.202,1.376
		c-0.002,0.486-0.075,0.994-0.294,1.619c-0.22,0.623-0.593,1.364-1.214,2.242l4.41,3.117v0c0.856-1.211,1.484-2.393,1.897-3.564
		c0.414-1.168,0.603-2.326,0.601-3.414c0.001-1.354-0.285-2.579-0.657-3.646c-0.565-1.603-1.294-2.896-1.795-4.035
		c-0.511-1.146-0.794-2.071-0.793-3.002c0.006-0.809,0.187-1.718,0.901-3.015l-4.719-2.625c-1.089,1.943-1.589,3.867-1.582,5.64
		c-0.001,1.366,0.282,2.603,0.654,3.68C203.908,181.256,204.641,182.56,205.143,183.697z"/>
	<path id="XMLID_458_" class="st1" d="M186.721,183.697c0.254,0.567,0.456,1.086,0.589,1.568c0.133,0.483,0.201,0.924,0.202,1.376
		c-0.002,0.486-0.075,0.994-0.294,1.619c-0.22,0.623-0.593,1.364-1.214,2.242l4.41,3.117l0,0c0.856-1.211,1.484-2.393,1.897-3.564
		c0.414-1.168,0.603-2.326,0.601-3.414c0.001-1.354-0.285-2.579-0.657-3.646c-0.565-1.603-1.294-2.896-1.794-4.035
		c-0.511-1.146-0.794-2.071-0.793-3.002c0.006-0.809,0.187-1.718,0.901-3.015l-4.719-2.625c-1.089,1.943-1.589,3.867-1.582,5.64
		c-0.001,1.366,0.282,2.603,0.654,3.68C185.486,181.256,186.219,182.56,186.721,183.697z"/>
	<path id="XMLID_457_" class="st1" d="M234.381,208.472v-5.975h11.416v5.975c0,17.564-5.812,27.346-18.545,30.572
		C234.372,231.917,234.381,217.385,234.381,208.472z"/>
</g>
</svg>
