<?xml version="1.0" encoding="utf-8"?>
<!-- Generator: Adobe Illustrator 19.0.0, SVG Export Plug-In . SVG Version: 6.00 Build 0)  -->
<svg version="1.1" id="Layer_1" xmlns="http://www.w3.org/2000/svg" xmlns:xlink="http://www.w3.org/1999/xlink" x="0px" y="0px"
	 viewBox="0 0 232.283 161.667" style="enable-background:new 0 0 232.283 161.667;" xml:space="preserve">
<style type="text/css">
	.st0{fill:#21180C;}
	.st1{fill:#E8DEBC;}
</style>
<g id="XMLID_456_">
	<path id="XMLID_478_" class="st0" d="M69.03,37.971c0-10.077-3.917-18.924-11.75-26.543C49.446,3.81,40.153,0,29.4,0H0v75.942
		h29.216c11.551,0,21.075-3.518,28.571-10.553C65.282,58.354,69.03,49.215,69.03,37.971z M45.391,52.855
		c-3.594,3.165-8.955,4.747-16.083,4.747V18.433c14.316,0,21.474,6.513,21.474,19.539C50.782,44.73,48.985,49.691,45.391,52.855z"/>
	<polygon id="XMLID_477_" class="st0" points="169.817,75.942 169.817,82.333 179.652,75.942 198.941,63.408 198.941,46.819 
		220.784,0 204.47,0 189.817,34.008 177.005,0 146.684,0 169.817,46.819 	"/>
	<polygon id="XMLID_476_" class="st0" points="25.582,103.42 45.213,103.42 45.213,161.667 74.705,161.667 74.705,103.42 
		94.336,103.42 94.336,85.725 25.582,85.725 	"/>
	<path id="XMLID_473_" class="st0" d="M157.835,129.502c2.766-4.546,4.147-9.523,4.147-14.93c0-19.231-12.043-28.847-36.128-28.847
		h-25.16v75.942h29.031v-16.866l13.087,16.866h22.027l-17.972-23.133C151.414,137.059,155.071,134.049,157.835,129.502z
		 M132.03,123.051h-1.105c-0.369,0-0.769-0.03-1.198-0.092v-19.354c0.368-0.062,0.768-0.092,1.198-0.092h1.198
		c7.926,0,11.889,3.349,11.889,10.045C144.011,119.886,140.017,123.051,132.03,123.051z"/>
	<polygon id="XMLID_472_" class="st0" points="169.817,161.667 198.941,161.667 198.941,78.373 169.817,97.298 	"/>
	
		<rect id="XMLID_471_" x="186.392" y="59.015" transform="matrix(-0.5449 -0.8385 0.8385 -0.5449 230.6042 277.7007)" class="st1" width="8.548" height="34.504"/>
	
		<rect id="XMLID_470_" x="162.576" y="86.024" transform="matrix(0.8385 -0.5449 0.5449 0.8385 -21.8987 106.7061)" class="st0" width="12.997" height="8.548"/>
	<path id="XMLID_466_" class="st0" d="M111.057,75.942c15.123,0,25.403-5.157,30.858-15.454c5.653-0.444,10.177-2.246,13.432-4.831
		c3.759-2.988,5.84-7.006,5.852-10.983c0-1.351-0.249-2.695-0.77-3.947c-0.774-1.881-2.187-3.534-4.063-4.633
		c-1.875-1.108-4.163-1.674-6.721-1.673c-0.99,0-2.028,0.094-3.106,0.263v-8.503c-25.757,0-46.119,0-71.149,0v13.08
		c0,12.412,2.888,21.628,8.663,27.649C89.828,72.932,98.83,75.942,111.057,75.942z M146.49,40.792
		c1.188-0.254,2.247-0.371,3.155-0.371c1.124,0,2.029,0.164,2.738,0.412c1.066,0.378,1.702,0.909,2.139,1.528
		c0.43,0.622,0.672,1.382,0.676,2.314c0.011,1.809-1.022,4.255-3.582,6.284c-1.682,1.335-4.038,2.481-7.118,3.116
		C145.652,50.169,146.318,45.744,146.49,40.792z M129.123,38.155v-5.975h11.416v5.975c0,17.564-5.812,27.346-18.545,30.572
		C129.113,61.601,129.123,47.068,129.123,38.155z"/>
	<path id="XMLID_465_" class="st1" d="M210.333,50.486c-0.511-1.146-0.794-2.071-0.793-3.002c0.006-0.809,0.187-1.718,0.901-3.015
		l-4.719-2.625c-1.089,1.943-1.589,3.867-1.582,5.64c-0.001,1.366,0.282,2.603,0.654,3.68c0.565,1.619,1.298,2.923,1.8,4.06
		c0.254,0.567,0.456,1.086,0.589,1.568c0.133,0.483,0.201,0.924,0.202,1.376c-0.002,0.486-0.075,0.994-0.294,1.619
		c-0.202,0.574-0.544,1.252-1.08,2.04c-0.046,0.068-0.085,0.132-0.134,0.202l0.49,0.346l3.92,2.771v0
		c0.856-1.211,1.484-2.393,1.897-3.564c0.414-1.168,0.603-2.326,0.601-3.414c0.001-1.354-0.285-2.579-0.657-3.646
		C211.562,52.918,210.833,51.625,210.333,50.486z"/>
	<path id="XMLID_464_" class="st1" d="M216.832,36.538c-0.511-1.146-0.794-2.071-0.793-3.002c0.006-0.809,0.187-1.718,0.901-3.015
		l-4.719-2.625c-1.089,1.943-1.589,3.867-1.582,5.64c-0.001,1.366,0.282,2.603,0.654,3.68c0.565,1.619,1.298,2.923,1.8,4.06
		c0.254,0.567,0.456,1.086,0.589,1.568c0.133,0.483,0.201,0.924,0.202,1.376c-0.002,0.486-0.075,0.994-0.294,1.619
		c-0.22,0.623-0.593,1.364-1.214,2.242l4.41,3.117v0c0.856-1.211,1.484-2.393,1.897-3.564c0.414-1.168,0.603-2.326,0.601-3.414
		c0.001-1.354-0.285-2.579-0.657-3.646C218.062,38.971,217.333,37.677,216.832,36.538z"/>
	<path id="XMLID_463_" class="st1" d="M223.332,22.59c-0.511-1.146-0.794-2.071-0.793-3.002c0.006-0.809,0.187-1.718,0.901-3.015
		l-4.719-2.625c-1.089,1.943-1.589,3.867-1.582,5.64c-0.001,1.366,0.282,2.603,0.654,3.68c0.565,1.619,1.298,2.923,1.8,4.06
		c0.254,0.567,0.456,1.086,0.589,1.568c0.133,0.483,0.201,0.924,0.202,1.376c-0.002,0.486-0.075,0.994-0.294,1.619
		c-0.22,0.623-0.593,1.364-1.214,2.242l4.41,3.117l0,0c0.856-1.211,1.484-2.393,1.897-3.564c0.413-1.168,0.603-2.326,0.601-3.414
		c0.001-1.354-0.285-2.579-0.657-3.646C224.561,25.023,223.833,23.73,223.332,22.59z"/>
	<path id="XMLID_462_" class="st1" d="M232.283,16.324c0.001-1.354-0.285-2.579-0.657-3.646c-0.565-1.603-1.294-2.896-1.794-4.035
		c-0.511-1.146-0.794-2.071-0.793-3.002c0.006-0.809,0.187-1.718,0.901-3.015L225.221,0c-1.089,1.943-1.589,3.867-1.582,5.64
		c-0.001,1.366,0.282,2.603,0.654,3.68c0.565,1.619,1.298,2.923,1.8,4.06c0.254,0.567,0.456,1.086,0.589,1.568
		c0.133,0.483,0.201,0.924,0.202,1.376c-0.002,0.486-0.075,0.994-0.294,1.619c-0.22,0.623-0.593,1.364-1.214,2.242l4.41,3.117l0,0
		c0.856-1.211,1.484-2.393,1.897-3.564C232.096,18.57,232.285,17.413,232.283,16.324z"/>
	<path id="XMLID_461_" class="st1" d="M136.729,13.38c0.254,0.567,0.456,1.086,0.589,1.568c0.133,0.483,0.201,0.924,0.202,1.376
		c-0.002,0.486-0.075,0.994-0.294,1.619c-0.22,0.623-0.593,1.364-1.214,2.242l4.41,3.117l0,0c0.856-1.211,1.484-2.393,1.897-3.564
		c0.413-1.168,0.603-2.326,0.601-3.414c0.001-1.354-0.285-2.579-0.657-3.646c-0.565-1.603-1.294-2.896-1.794-4.035
		c-0.511-1.146-0.794-2.071-0.793-3.002c0.006-0.809,0.187-1.718,0.901-3.015L135.857,0c-1.089,1.943-1.589,3.867-1.582,5.64
		c-0.001,1.366,0.282,2.603,0.654,3.68C135.494,10.939,136.227,12.244,136.729,13.38z"/>
	<path id="XMLID_460_" class="st1" d="M118.307,13.38c0.254,0.567,0.456,1.086,0.589,1.568c0.133,0.483,0.201,0.924,0.202,1.376
		c-0.002,0.486-0.075,0.994-0.294,1.619c-0.22,0.623-0.593,1.364-1.214,2.242l4.41,3.117v0c0.856-1.211,1.484-2.393,1.897-3.564
		c0.414-1.168,0.603-2.326,0.601-3.414c0.001-1.354-0.285-2.579-0.657-3.646c-0.565-1.603-1.294-2.896-1.794-4.035
		c-0.511-1.146-0.794-2.071-0.793-3.002c0.006-0.809,0.187-1.718,0.901-3.015L117.435,0c-1.089,1.943-1.589,3.867-1.582,5.64
		c-0.001,1.366,0.282,2.603,0.654,3.68C117.072,10.94,117.805,12.244,118.307,13.38z"/>
	<path id="XMLID_459_" class="st1" d="M99.885,13.38c0.254,0.567,0.456,1.086,0.589,1.568c0.133,0.483,0.201,0.924,0.202,1.376
		c-0.002,0.486-0.075,0.994-0.294,1.619c-0.22,0.623-0.593,1.364-1.214,2.242l4.41,3.117v0c0.856-1.211,1.484-2.393,1.897-3.564
		c0.414-1.168,0.603-2.326,0.601-3.414c0.001-1.354-0.285-2.579-0.657-3.646c-0.565-1.603-1.294-2.896-1.795-4.035
		c-0.511-1.146-0.794-2.071-0.793-3.002c0.006-0.809,0.187-1.718,0.901-3.015L99.013,0c-1.089,1.943-1.589,3.867-1.582,5.64
		c-0.001,1.366,0.282,2.603,0.654,3.68C98.65,10.94,99.383,12.244,99.885,13.38z"/>
	<path id="XMLID_458_" class="st1" d="M81.463,13.38c0.254,0.567,0.456,1.086,0.589,1.568c0.133,0.483,0.201,0.924,0.202,1.376
		c-0.002,0.486-0.075,0.994-0.294,1.619c-0.22,0.623-0.593,1.364-1.214,2.242l4.41,3.117l0,0c0.856-1.211,1.484-2.393,1.897-3.564
		c0.414-1.168,0.603-2.326,0.601-3.414c0.001-1.354-0.285-2.579-0.657-3.646c-0.565-1.603-1.294-2.896-1.794-4.035
		c-0.511-1.146-0.794-2.071-0.793-3.002c0.006-0.809,0.187-1.718,0.901-3.015L80.591,0c-1.089,1.943-1.589,3.867-1.582,5.64
		c-0.001,1.366,0.282,2.603,0.654,3.68C80.228,10.939,80.961,12.244,81.463,13.38z"/>
	<path id="XMLID_457_" class="st1" d="M129.123,38.155v-5.975h11.416v5.975c0,17.564-5.812,27.346-18.545,30.572
		C129.113,61.601,129.123,47.068,129.123,38.155z"/>
</g>
</svg>
