<?xml version="1.0" encoding="utf-8"?>
<!-- Generator: Adobe Illustrator 19.0.0, SVG Export Plug-In . SVG Version: 6.00 Build 0)  -->
<svg version="1.1" id="Layer_1" xmlns="http://www.w3.org/2000/svg" xmlns:xlink="http://www.w3.org/1999/xlink" x="0px" y="0px"
	 viewBox="-173 199.173 151.146 103.43" style="enable-background:new -173 199.173 151.146 103.43;" xml:space="preserve">
<style type="text/css">
	.st0{fill:#FEF9D4;}
</style>
<g id="XMLID_80_">
	<path id="XMLID_93_" class="st0" d="M-124.757,264.185l-17.69-19.666v2.797c0,6.799,0.056,10.973,0.167,12.522
		c0.122,1.521,0.365,2.493,0.73,2.918c0.192,0.224,0.567,0.426,1.124,0.609h0.015l0.015,0.015h0.031
		c0.03,0.01,0.056,0.02,0.076,0.031v0.151c-0.912-0.04-1.794-0.061-2.644-0.061c-0.771,0-1.591,0.021-2.463,0.061v-0.151
		c0.557-0.204,0.923-0.396,1.095-0.579c0.364-0.375,0.607-1.225,0.729-2.552c0.132-1.449,0.198-5.35,0.198-11.702v-1.292v-6.885
		h0.213l17.629,19.59v-2.782c0-6.91-0.071-11.174-0.213-12.795c-0.121-1.459-0.37-2.392-0.744-2.797
		c-0.193-0.193-0.563-0.38-1.11-0.563c-0.04-0.01-0.071-0.02-0.091-0.03v-0.152c0.912,0.041,1.793,0.061,2.644,0.061
		s1.712-0.02,2.584-0.061v0.152c-0.578,0.192-0.958,0.37-1.14,0.532c-0.385,0.344-0.643,1.135-0.775,2.371
		c-0.152,1.439-0.228,5.182-0.228,11.231v1.869v7.158L-124.757,264.185L-124.757,264.185z"/>
	<path id="XMLID_90_" class="st0" d="M-120.384,250.197c0.146-0.147,0.303-0.287,0.471-0.419c1.029-0.81,2.227-1.216,3.595-1.216
		c3.049,0,4.574,1.348,4.574,4.043v8.192c0,0.648,0.066,1.101,0.197,1.36c0.132,0.258,0.365,0.388,0.7,0.388
		c0.354,0,0.699-0.158,1.033-0.472l0.061,0.152c-0.669,1.054-1.419,1.58-2.25,1.58c-0.546,0-0.972-0.182-1.276-0.546
		c-0.304-0.365-0.456-0.836-0.456-1.414c-0.628,0.608-1.342,1.086-2.143,1.436c-0.8,0.35-1.636,0.524-2.507,0.524
		c-1.257,0-2.235-0.332-2.933-0.995c-0.7-0.664-1.049-1.471-1.049-2.424c0-1.115,0.458-2.051,1.375-2.811
		c0.917-0.761,2.131-1.141,3.64-1.141c0.648,0,1.3,0.092,1.953,0.275c0.653,0.181,1.208,0.435,1.664,0.76v-5.259
		c0-1.024-0.223-1.793-0.668-2.31c-0.446-0.517-1.171-0.775-2.174-0.775c-0.588,0-1.142,0.136-1.664,0.41
		c-0.522,0.273-0.968,0.715-1.337,1.322c-0.37,0.608-0.571,1.338-0.601,2.189h-0.205 M-113.735,258.031
		c-0.324-0.314-0.755-0.561-1.292-0.737c-0.537-0.178-1.104-0.267-1.702-0.267c-1.054,0-1.882,0.319-2.485,0.958
		c-0.603,0.638-0.904,1.378-0.904,2.219c0,0.75,0.246,1.393,0.737,1.93c0.492,0.537,1.188,0.805,2.09,0.805
		c1.378,0,2.563-0.572,3.556-1.717V258.031L-113.735,258.031z"/>
	<path id="XMLID_87_" class="st0" d="M-98.801,250.197c0.146-0.147,0.303-0.287,0.471-0.419c1.029-0.81,2.227-1.216,3.595-1.216
		c3.049,0,4.574,1.348,4.574,4.043v8.192c0,0.648,0.066,1.101,0.197,1.36c0.132,0.258,0.365,0.388,0.7,0.388
		c0.354,0,0.699-0.158,1.033-0.472l0.061,0.152c-0.669,1.054-1.419,1.58-2.25,1.58c-0.546,0-0.972-0.182-1.276-0.546
		c-0.304-0.365-0.456-0.836-0.456-1.414c-0.628,0.608-1.342,1.086-2.143,1.436c-0.8,0.35-1.636,0.524-2.507,0.524
		c-1.257,0-2.235-0.332-2.933-0.995c-0.7-0.664-1.049-1.471-1.049-2.424c0-1.115,0.458-2.051,1.375-2.811
		c0.917-0.761,2.131-1.141,3.64-1.141c0.648,0,1.3,0.092,1.953,0.275c0.653,0.181,1.208,0.435,1.664,0.76v-5.259
		c0-1.024-0.223-1.793-0.668-2.31c-0.446-0.517-1.171-0.775-2.174-0.775c-0.588,0-1.142,0.136-1.664,0.41
		c-0.522,0.273-0.968,0.715-1.337,1.322c-0.37,0.608-0.571,1.338-0.601,2.189h-0.205 M-92.152,258.031
		c-0.324-0.314-0.755-0.561-1.292-0.737c-0.537-0.178-1.104-0.267-1.702-0.267c-1.054,0-1.882,0.319-2.485,0.958
		c-0.603,0.638-0.904,1.378-0.904,2.219c0,0.75,0.246,1.393,0.737,1.93c0.492,0.537,1.188,0.805,2.09,0.805
		c1.378,0,2.563-0.572,3.556-1.717C-92.152,261.222-92.152,258.031-92.152,258.031z"/>
	<path id="XMLID_86_" class="st0" d="M-101.574,261.359c-0.334,0.82-0.811,1.434-1.429,1.839c-0.618,0.405-1.337,0.607-2.158,0.607
		c-0.385,0-0.711-0.02-0.98-0.06c-0.268-0.04-0.552-0.132-0.851-0.274c-0.299-0.141-0.542-0.341-0.729-0.6
		c-0.188-0.258-0.343-0.62-0.464-1.087c-0.122-0.466-0.182-1.023-0.182-1.671v-9.499c0-0.639-0.092-1.057-0.274-1.254
		c-0.183-0.197-0.598-0.352-1.246-0.464v-0.151c0.942,0,1.745-0.385,2.409-1.156c0.663-0.769,1.127-1.752,1.39-2.948h0.182
		c-0.314,1.834-0.471,3.192-0.471,4.073h2.553c0.832,0,1.394-0.038,1.688-0.114c0.293-0.076,0.552-0.296,0.774-0.661l0.183,0.183
		c-0.071,0.111-0.213,0.319-0.426,0.623c-0.212,0.303-0.382,0.569-0.509,0.798c-0.127,0.227-0.24,0.494-0.341,0.797h-0.244
		c0.041-0.122,0.061-0.238,0.061-0.349c0-0.253-0.109-0.426-0.327-0.517c-0.217-0.092-0.605-0.136-1.162-0.136h-2.25v10.713
		c0,1.065,0.17,1.812,0.51,2.243c0.339,0.43,0.909,0.645,1.71,0.645c0.607,0,1.099-0.127,1.474-0.38
		c0.374-0.253,0.693-0.683,0.957-1.292L-101.574,261.359z"/>
	<path id="XMLID_85_" class="st0" d="M-79.478,239.915c-0.628,2.969-1.474,7.093-2.538,12.371c-1.064,5.278-1.596,8.146-1.596,8.602
		c0,0.435,0.101,0.653,0.304,0.653c0.112,0,0.256-0.068,0.433-0.205c0.178-0.137,0.416-0.4,0.714-0.79
		c0.299-0.39,0.621-0.879,0.966-1.467l0.197,0.152c-0.587,1.084-1.334,2.118-2.242,3.101c-0.906,0.982-1.643,1.474-2.211,1.474
		c-0.456,0-0.684-0.309-0.684-0.927c0-0.446,0.127-1.3,0.38-2.561c0.254-1.261,0.811-3.746,1.672-7.455
		c0.699-2.999,1.292-5.896,1.778-8.693c0.162-0.952,0.244-1.545,0.244-1.777c0-0.558-0.29-0.836-0.867-0.836v-0.153
		c0.446,0,1.029-0.184,1.748-0.554c0.719-0.371,1.236-0.717,1.55-1.041L-79.478,239.915z"/>
	<path id="XMLID_84_" class="st0" d="M-77.062,252.986c0.081-0.466,0.122-0.771,0.122-0.912c0-0.284-0.081-0.426-0.244-0.426
		c-0.151,0-0.546,0.198-1.185,0.593l-0.152-0.197c1.956-1.216,3.404-2.376,4.347-3.481l0.136,0.091
		c-0.445,1.864-0.967,4.215-1.565,7.052c-0.598,2.837-0.897,4.564-0.897,5.182c0,0.416,0.102,0.623,0.304,0.623
		c0.487,0,1.196-0.81,2.128-2.431l0.182,0.152c-0.587,1.084-1.334,2.117-2.241,3.101c-0.907,0.982-1.644,1.473-2.211,1.473
		c-0.456,0-0.684-0.308-0.684-0.926c0-0.163,0.015-0.355,0.045-0.578c0.031-0.223,0.079-0.511,0.144-0.866
		c0.066-0.355,0.135-0.689,0.206-1.004c0.071-0.313,0.169-0.772,0.296-1.375c0.127-0.602,0.241-1.132,0.342-1.588L-77.062,252.986z"
		/>
	<path id="XMLID_83_" class="st0" d="M-65.375,239.915c-0.628,2.969-1.474,7.093-2.538,12.371c-1.064,5.278-1.596,8.146-1.596,8.602
		c0,0.435,0.101,0.653,0.304,0.653c0.112,0,0.256-0.068,0.433-0.205c0.178-0.137,0.416-0.4,0.714-0.79
		c0.299-0.39,0.621-0.879,0.966-1.467l0.197,0.152c-0.587,1.084-1.334,2.118-2.242,3.101c-0.906,0.982-1.643,1.474-2.211,1.474
		c-0.456,0-0.684-0.309-0.684-0.927c0-0.446,0.127-1.3,0.38-2.561c0.254-1.261,0.811-3.746,1.672-7.455
		c0.699-2.999,1.292-5.896,1.778-8.693c0.162-0.952,0.244-1.545,0.244-1.777c0-0.558-0.29-0.836-0.867-0.836v-0.153
		c0.446,0,1.029-0.184,1.748-0.554c0.719-0.371,1.236-0.717,1.55-1.041L-65.375,239.915z"/>
	<path id="XMLID_82_" class="st0" d="M-61.173,230.492c-6.689,0-11.365,5.021-12.773,12.113c-0.793-0.1-1.709,0.223-1.915,1.377
		c-0.11,0.62-0.043,0.992-0.123,1.442c-0.099,0.555-0.614,0.323-0.614,0.323s-0.054,0.509,0.499,0.607
		c0.677,0.121,0.965-0.659,0.965-0.659s-0.008,0.83,0.582,0.936c0.589,0.105,0.869-0.677,0.869-0.677s0,0.832,0.677,0.953
		c0.553,0.099,0.678-0.398,0.678-0.398s-0.563,0.041-0.464-0.516c0.08-0.449,0.272-0.774,0.383-1.396
		c0.207-1.155-0.544-1.775-1.324-1.954c1.016-4.989,3.57-9.126,8.158-11.022c-1.224,0.801-2.125,2.055-2.604,3.855
		c-0.793-0.1-1.71,0.223-1.915,1.376c-0.111,0.621-0.044,0.994-0.124,1.443c-0.099,0.555-0.613,0.323-0.613,0.323
		s-0.055,0.509,0.498,0.607c0.678,0.121,0.965-0.659,0.965-0.659s-0.008,0.83,0.582,0.936c0.589,0.105,0.869-0.677,0.869-0.677
		s0,0.832,0.677,0.953c0.553,0.099,0.678-0.398,0.678-0.398s-0.563,0.041-0.464-0.516c0.081-0.449,0.273-0.774,0.383-1.395
		c0.206-1.155-0.543-1.775-1.322-1.955c0.952-3.469,3.739-4.769,6.631-4.769c1.714,0,3.464,0.456,4.892,1.188
		c-2.032-0.617-3.664,0.273-4.181,2.648c-0.792-0.101-1.709,0.222-1.915,1.376c-0.111,0.62-0.043,0.992-0.123,1.442
		c-0.099,0.556-0.614,0.322-0.614,0.322s-0.054,0.51,0.498,0.609c0.678,0.121,0.966-0.66,0.966-0.66s-0.008,0.831,0.581,0.936
		c0.59,0.105,0.869-0.677,0.869-0.677s0,0.832,0.678,0.953c0.553,0.098,0.678-0.399,0.678-0.399s-0.563,0.041-0.464-0.514
		c0.08-0.45,0.273-0.776,0.383-1.396c0.206-1.155-0.544-1.775-1.323-1.954c1.144-5.01,7.431-2.411,9.65,4.311
		c-1.803-2.762-4.964-1.741-5.776,0.92c-0.793-0.101-1.71,0.222-1.916,1.376c-0.111,0.62-0.043,0.993-0.123,1.442
		c-0.099,0.555-0.614,0.323-0.614,0.323s-0.054,0.51,0.498,0.608c0.678,0.122,0.966-0.66,0.966-0.66s-0.008,0.831,0.581,0.936
		c0.59,0.105,0.869-0.677,0.869-0.677s0,0.832,0.678,0.953c0.553,0.099,0.678-0.398,0.678-0.398s-0.563,0.041-0.464-0.515
		c0.08-0.45,0.272-0.775,0.383-1.395c0.206-1.155-0.542-1.775-1.321-1.955c1.07-3.306,6.463-4.241,6.463,5.119
		c0,1.241-0.088,2.493-0.246,3.712c-0.296-4.612-4.622-4.637-5.587-0.91c-0.793-0.1-1.71,0.223-1.916,1.377
		c-0.11,0.62-0.043,0.993-0.123,1.442c-0.099,0.555-0.613,0.323-0.613,0.323s-0.055,0.51,0.498,0.608
		c0.678,0.12,0.965-0.66,0.965-0.66s-0.008,0.831,0.581,0.936c0.59,0.105,0.87-0.677,0.87-0.677s0,0.832,0.677,0.953
		c0.553,0.099,0.679-0.398,0.679-0.398s-0.564,0.041-0.464-0.515c0.08-0.45,0.272-0.775,0.383-1.395
		c0.206-1.156-0.543-1.776-1.323-1.956c1.119-4.026,6.281-3.295,4.788,3.922c-1.251,5.012-3.93,9.815-6.852,14.051
		c0.163-3.797-0.037-9.067-1.154-12.5c-0.35-1.074-0.736-1.985-1.156-2.735c-0.421-0.75-0.805-1.275-1.155-1.573
		c-0.35-0.299-0.65-0.449-0.904-0.449c-0.152,0-0.41,0.084-0.776,0.251c-0.364,0.167-0.754,0.388-1.17,0.661
		c-0.415,0.274-0.78,0.641-1.093,1.102c-0.315,0.461-0.472,0.939-0.472,1.436c0,0.709,0.297,1.429,0.89,2.159
		c0.592,0.729,1.335,1.165,2.226,1.306l0.152-0.227c-0.851-0.213-1.528-0.626-2.029-1.239c-0.502-0.613-0.753-1.28-0.753-1.999
		c0-0.405,0.117-0.734,0.35-0.988c0.233-0.253,0.557-0.38,0.973-0.38c0.618,0,1.188,0.347,1.709,1.041
		c0.522,0.695,0.948,1.563,1.277,2.607c0.329,1.044,0.613,2.204,0.851,3.48c0.238,1.277,0.408,2.478,0.509,3.602
		c0.102,1.125,0.153,2.133,0.153,3.024c0,1.308-0.082,2.316-0.244,3.025c-0.213,0.84-0.829,1.595-1.846,2.264
		c-1.019,0.669-1.938,1.003-2.759,1.003c-0.577,0-1.054-0.119-1.429-0.357c-0.375-0.237-0.561-0.534-0.561-0.889
		c0-0.101,0.009-0.172,0.03-0.213c0.091,0.081,0.253,0.153,0.486,0.213c0.233,0.061,0.446,0.091,0.638,0.091
		c0.345,0,0.61-0.104,0.798-0.312c0.187-0.207,0.281-0.462,0.281-0.767c0-0.364-0.132-0.684-0.394-0.957
		c-0.264-0.274-0.629-0.41-1.095-0.41c-0.496,0-0.932,0.174-1.307,0.524s-0.562,0.838-0.562,1.466c0,0.629,0.217,1.153,0.653,1.573
		c0.436,0.421,1.079,0.631,1.931,0.631c0.79,0,1.597-0.195,2.423-0.585c0.826-0.391,1.604-0.917,2.333-1.581
		c3.035-2.759,7.82-10.643,9.437-17.157l0.005,0.001c0.164-0.824,0.836-3.341,0.836-6.748
		C-49.459,235.262-55.298,230.492-61.173,230.492"/>
</g>
</svg>
