<?xml version="1.0" encoding="utf-8"?>
<!-- Generator: Adobe Illustrator 19.0.0, SVG Export Plug-In . SVG Version: 6.00 Build 0)  -->
<svg version="1.1" id="Layer_1" xmlns="http://www.w3.org/2000/svg" xmlns:xlink="http://www.w3.org/1999/xlink" x="0px" y="0px"
	 viewBox="-139 174.063 220.462 152.95" style="enable-background:new -139 174.063 220.462 152.95;" xml:space="preserve">
<style type="text/css">
	.st0{fill:none;stroke:#FEF9D5;stroke-linecap:round;stroke-linejoin:round;stroke-miterlimit:10;}
</style>
<g>
	<g id="XMLID_29_">
		<path id="XMLID_30_" class="st0" d="M39.856,229.754c0,0,0.149,0.882,0.793,0.882c0.645,0,0.793-0.882,0.793-0.882
			s0.157,0.882,0.898,0.882c0.605,0,0.643-0.55,0.643-0.55s-0.589,0.15-0.589-0.458c0-0.492,0.142-0.873,0.142-1.552
			c0-1.32-0.996-1.83-1.888-1.83c-0.892,0-1.888,0.51-1.888,1.83c0,0.679,0.142,1.06,0.142,1.552c0,0.608-0.589,0.458-0.589,0.458
			s0.039,0.55,0.643,0.55C39.699,230.636,39.856,229.754,39.856,229.754z"/>
	</g>
	<g id="XMLID_27_">
		<path id="XMLID_28_" class="st0" d="M28.34,223.659c0,0,0.186,1.105,0.994,1.105c0.808,0,0.994-1.105,0.994-1.105
			s0.197,1.105,1.126,1.105c0.758,0,0.806-0.69,0.806-0.69s-0.738,0.188-0.738-0.574c0-0.616,0.178-1.094,0.178-1.945
			c0-1.654-1.249-2.294-2.366-2.294c-1.117,0-2.366,0.639-2.366,2.294c0,0.851,0.178,1.329,0.178,1.945
			c0,0.762-0.738,0.574-0.738,0.574s0.049,0.69,0.806,0.69C28.143,224.764,28.34,223.659,28.34,223.659z"/>
	</g>
	<g id="XMLID_23_">
		<path id="XMLID_26_" class="st0" d="M11.22,224.808c0,0,0.234,1.386,1.247,1.386s1.247-1.386,1.247-1.386s0.247,1.386,1.412,1.386
			c0.951,0,1.011-0.865,1.011-0.865s-0.926,0.235-0.926-0.72c0-0.773,0.223-1.372,0.223-2.439c0-2.075-1.566-2.877-2.968-2.877
			s-2.968,0.802-2.968,2.877c0,1.067,0.223,1.666,0.223,2.439c0,0.956-0.926,0.72-0.926,0.72s0.061,0.865,1.011,0.865
			C10.972,226.195,11.22,224.808,11.22,224.808z"/>
	</g>
	<g id="XMLID_21_">
		<path id="XMLID_22_" class="st0" d="M-7.426,232.96c0,0,0.285,1.691,1.521,1.691s1.521-1.691,1.521-1.691s0.301,1.691,1.722,1.691
			c1.159,0,1.234-1.055,1.234-1.055s-1.13,0.287-1.13-0.879c0-0.943,0.272-1.674,0.272-2.975c0-2.531-1.91-3.508-3.619-3.508
			c-1.71,0-3.619,0.978-3.619,3.508c0,1.301,0.272,2.032,0.272,2.975c0,1.165-1.13,0.879-1.13,0.879s0.074,1.055,1.234,1.055
			C-7.727,234.651-7.426,232.96-7.426,232.96z"/>
	</g>
	<path id="XMLID_20_" class="st0" d="M-48.768,232.023c0,0-19.179,38.65-41.593,38.65c-6.345,0-10.16-3.869-10.16-9.236"/>
	<path id="XMLID_19_" class="st0" d="M-48.768,232.023l-13.57,38.65c0,0,35.684-60.561,79.172-60.561
		c24.776,0,23.815,16.133,23.815,16.133"/>
	<path id="XMLID_18_" class="st0" d="M-28.855,245.951c0,0-18.731,20.768-13.719,20.768c2.697,0,13.719-12.767,13.719-12.767"/>
	<path id="XMLID_17_" class="st0" d="M-16.115,239.417l-5.893,6.534c0,0-18.731,20.768-13.719,20.768
		c2.697,0,13.719-12.767,13.719-12.767"/>
	<path id="XMLID_15_" class="st0" d="M13.39,232.023L0.829,245.95c0,0-18.731,20.768-13.719,20.768
		c3.854,0,14.851-12.767,14.851-12.767"/>
	<path id="XMLID_14_" class="st0" d="M-35.306,253.479c4.237-4.939,3.969-7.529,2.111-7.529c-8.13,0-22.355,20.768-17.005,20.768
		C-46.486,266.719-37.607,256.16-35.306,253.479z"/>
	<path id="XMLID_13_" class="st0" d="M-6.018,245.951c0,0-18.731,20.768-13.719,20.768c2.697,0,13.719-12.767,13.719-12.767"/>
	<path id="XMLID_12_" class="st0" d="M8.798,245.951c0,0-18.731,20.768-13.719,20.768c4.706,0,14.858-12.767,14.858-12.767"/>
	<path id="XMLID_10_" class="st0" d="M29.334,232.023L16.773,245.95c0,0-18.731,20.768-13.719,20.768
		c4.323,0,14.865-12.767,14.865-12.767"/>
	<path id="XMLID_9_" class="st0" d="M24.754,245.951c0,0-18.731,20.768-13.719,20.768c4.441,0,18.721-16.269,18.721-16.269"/>
	<path id="XMLID_8_" class="st0" d="M-12.47,253.479c4.237-4.939,3.969-7.529,2.111-7.529c-8.13,0-22.355,20.768-17.005,20.768
		C-23.65,266.719-14.77,256.16-12.47,253.479z"/>
	<path id="XMLID_7_" class="st0" d="M33.914,245.951c-17.278,17.278-27.755,45.013-47.629,45.013c-8.989,0-11.892-7.664-9.24-12.31"
		/>
	<line id="XMLID_6_" class="st0" x1="-25.9" y1="245.951" x2="-17.586" y2="245.951"/>
	<line id="XMLID_5_" class="st0" x1="10.551" y1="243.937" x2="11.466" y2="242.893"/>
	<path id="XMLID_4_" class="st0" d="M-48.768,232.023c-31.222,0-42.196,34.696-25.516,34.696c7.462,0,11.062-7.312,11.062-7.312"/>
	<path id="XMLID_3_" class="st0" d="M29.334,219.261c0-4.578-4.578-9.149-12.5-9.149"/>
	<path id="XMLID_2_" class="st0" d="M12.467,219.293c0-5.273-7.458-8.41-17.823-4.166"/>
	<path id="XMLID_1_" class="st0" d="M-5.905,226.234c0-5.681-10.211-5.936-21.051,2.73"/>
</g>
</svg>
