<?xml version="1.0" encoding="utf-8"?>
<!-- Generator: Adobe Illustrator 19.0.0, SVG Export Plug-In . SVG Version: 6.00 Build 0)  -->
<svg version="1.1" id="Layer_1" xmlns="http://www.w3.org/2000/svg" xmlns:xlink="http://www.w3.org/1999/xlink" x="0px" y="0px"
	 viewBox="0 0 144.505 81.851" style="enable-background:new 0 0 144.505 81.851;" xml:space="preserve">
<style type="text/css">
	.st0{fill:none;stroke:#FEF9D5;stroke-linecap:round;stroke-linejoin:round;stroke-miterlimit:10;}
</style>
<g id="XMLID_87_">
	<g id="XMLID_74_">
		<path id="XMLID_75_" class="st0" d="M140.876,20.141c0,0,0.149,0.882,0.793,0.882c0.645,0,0.793-0.882,0.793-0.882
			s0.157,0.882,0.898,0.882c0.605,0,0.643-0.55,0.643-0.55s-0.589,0.15-0.589-0.458c0-0.492,0.142-0.873,0.142-1.552
			c0-1.32-0.996-1.83-1.888-1.83c-0.892,0-1.888,0.51-1.888,1.83c0,0.679,0.142,1.06,0.142,1.552c0,0.608-0.589,0.458-0.589,0.458
			s0.039,0.55,0.643,0.55C140.719,21.023,140.876,20.141,140.876,20.141z"/>
	</g>
	<g id="XMLID_72_">
		<path id="XMLID_73_" class="st0" d="M129.36,14.046c0,0,0.186,1.105,0.994,1.105c0.808,0,0.994-1.105,0.994-1.105
			s0.197,1.105,1.126,1.105c0.758,0,0.806-0.69,0.806-0.69s-0.738,0.188-0.738-0.574c0-0.616,0.178-1.094,0.178-1.945
			c0-1.654-1.249-2.294-2.366-2.294c-1.118,0-2.366,0.639-2.366,2.294c0,0.851,0.178,1.329,0.178,1.945
			c0,0.762-0.738,0.574-0.738,0.574s0.049,0.69,0.806,0.69C129.163,15.152,129.36,14.046,129.36,14.046z"/>
	</g>
	<g id="XMLID_55_">
		<path id="XMLID_56_" class="st0" d="M112.24,15.196c0,0,0.234,1.386,1.247,1.386s1.247-1.386,1.247-1.386s0.247,1.386,1.412,1.386
			c0.951,0,1.011-0.865,1.011-0.865s-0.926,0.235-0.926-0.72c0-0.773,0.223-1.372,0.223-2.439c0-2.075-1.566-2.877-2.968-2.877
			s-2.968,0.802-2.968,2.877c0,1.067,0.223,1.666,0.223,2.439c0,0.956-0.926,0.72-0.926,0.72s0.061,0.865,1.011,0.865
			C111.993,16.582,112.24,15.196,112.24,15.196z"/>
	</g>
	<g id="XMLID_53_">
		<path id="XMLID_54_" class="st0" d="M93.595,23.347c0,0,0.285,1.691,1.521,1.691c1.236,0,1.521-1.691,1.521-1.691
			s0.301,1.691,1.722,1.691c1.159,0,1.234-1.055,1.234-1.055s-1.13,0.287-1.13-0.879c0-0.943,0.272-1.674,0.272-2.975
			c0-2.531-1.91-3.508-3.619-3.508s-3.619,0.978-3.619,3.508c0,1.301,0.272,2.032,0.272,2.975c0,1.165-1.13,0.879-1.13,0.879
			s0.074,1.055,1.234,1.055C93.293,25.038,93.595,23.347,93.595,23.347z"/>
	</g>
	<path id="XMLID_49_" class="st0" d="M52.252,22.411c0,0-19.179,38.65-41.593,38.65c-6.345,0-10.16-3.869-10.16-9.236"/>
	<path id="XMLID_48_" class="st0" d="M52.252,22.411l-13.57,38.65c0,0,35.684-60.561,79.172-60.561
		c24.776,0,23.815,16.133,23.815,16.133"/>
	<path id="XMLID_47_" class="st0" d="M72.165,36.338c0,0-18.731,20.768-13.719,20.768c2.697,0,13.719-12.767,13.719-12.767"/>
	<path id="XMLID_46_" class="st0" d="M84.905,29.804l-5.893,6.534c0,0-18.731,20.768-13.719,20.768
		c2.697,0,13.719-12.767,13.719-12.767"/>
	<path id="XMLID_45_" class="st0" d="M114.41,22.411l-12.561,13.927c0,0-18.731,20.768-13.719,20.768
		c3.854,0,14.851-12.767,14.851-12.767"/>
	<path id="XMLID_44_" class="st0" d="M65.714,43.867c4.237-4.939,3.969-7.529,2.111-7.529c-8.13,0-22.355,20.768-17.005,20.768
		C54.534,57.106,63.414,46.548,65.714,43.867z"/>
	<path id="XMLID_43_" class="st0" d="M95.002,36.338c0,0-18.731,20.768-13.719,20.768c2.697,0,13.719-12.767,13.719-12.767"/>
	<path id="XMLID_42_" class="st0" d="M109.818,36.338c0,0-18.731,20.768-13.719,20.768c4.706,0,14.858-12.767,14.858-12.767"/>
	<path id="XMLID_41_" class="st0" d="M130.355,22.411l-12.561,13.927c0,0-18.731,20.768-13.719,20.768
		c4.323,0,14.865-12.767,14.865-12.767"/>
	<path id="XMLID_40_" class="st0" d="M125.775,36.338c0,0-18.731,20.768-13.719,20.768c4.441,0,18.721-16.269,18.721-16.269"/>
	<path id="XMLID_39_" class="st0" d="M88.551,43.867c4.237-4.939,3.969-7.529,2.111-7.529c-8.13,0-22.355,20.768-17.005,20.768
		C77.371,57.106,86.25,46.548,88.551,43.867z"/>
	<path id="XMLID_25_" class="st0" d="M134.935,36.338c-17.278,17.278-27.755,45.013-47.629,45.013c-8.989,0-11.892-7.664-9.24-12.31
		"/>
	<line id="XMLID_24_" class="st0" x1="75.12" y1="36.338" x2="83.434" y2="36.338"/>
	<line id="XMLID_16_" class="st0" x1="111.571" y1="34.324" x2="112.486" y2="33.28"/>
	<path id="XMLID_11_" class="st0" d="M52.252,22.411c-31.222,0-42.196,34.696-25.516,34.696c7.462,0,11.062-7.312,11.062-7.312"/>
	<path id="XMLID_50_" class="st0" d="M130.355,9.649c0-4.578-4.578-9.149-12.5-9.149"/>
	<path id="XMLID_51_" class="st0" d="M113.487,9.681c0-5.273-7.458-8.41-17.823-4.166"/>
	<path id="XMLID_52_" class="st0" d="M95.116,16.621c0-5.681-10.211-5.936-21.051,2.73"/>
</g>
</svg>
