<?xml version="1.0" encoding="utf-8"?>
<!-- Generator: Adobe Illustrator 19.0.0, SVG Export Plug-In . SVG Version: 6.00 Build 0)  -->
<svg version="1.1" id="Layer_1" xmlns="http://www.w3.org/2000/svg" xmlns:xlink="http://www.w3.org/1999/xlink" x="0px" y="0px"
	 viewBox="0 0 95.937 40.792" style="enable-background:new 0 0 95.937 40.792;" xml:space="preserve">
<style type="text/css">
	.st0{fill:#FEF9D4;}
</style>
<g>
	<path class="st0" d="M17.706,10.381v0.152c0.02,0.01,0.051,0.02,0.091,0.03c0.547,0.183,0.917,0.37,1.11,0.563
		c0.374,0.405,0.623,1.338,0.744,2.797c0.142,1.621,0.213,5.885,0.213,12.795V29.5L2.235,9.91H2.022v6.885v1.292
		c0,6.352-0.066,10.253-0.198,11.702c-0.122,1.327-0.365,2.177-0.729,2.552C0.923,32.524,0.557,32.716,0,32.92v0.151
		c0.872-0.04,1.692-0.061,2.463-0.061c0.85,0,1.732,0.021,2.644,0.061V32.92c-0.02-0.011-0.046-0.021-0.076-0.031H5l-0.015-0.015
		H4.97c-0.557-0.183-0.932-0.385-1.124-0.609c-0.365-0.425-0.608-1.397-0.73-2.918c-0.111-1.549-0.167-5.723-0.167-12.522v-2.797
		l17.69,19.666h0.152v-7.158v-1.869c0-6.049,0.076-9.792,0.228-11.231c0.132-1.236,0.39-2.027,0.775-2.371
		c0.182-0.162,0.562-0.34,1.14-0.532v-0.152c-0.872,0.041-1.733,0.061-2.584,0.061S18.618,10.422,17.706,10.381z"/>
	<path class="st0" d="M34.548,32.054c-0.335,0-0.568-0.13-0.7-0.388c-0.131-0.259-0.197-0.712-0.197-1.36v-8.192
		c0-2.695-1.525-4.043-4.574-4.043c-1.368,0-2.566,0.406-3.595,1.216c-0.168,0.132-0.325,0.272-0.471,0.419v2.849h0.205
		c0.03-0.851,0.231-1.581,0.601-2.189c0.369-0.607,0.815-1.049,1.337-1.322c0.522-0.274,1.076-0.41,1.664-0.41
		c1.003,0,1.728,0.258,2.174,0.775c0.445,0.517,0.668,1.286,0.668,2.31v5.259c-0.456-0.325-1.011-0.579-1.664-0.76
		c-0.653-0.183-1.305-0.275-1.953-0.275c-1.509,0-2.723,0.38-3.64,1.141c-0.917,0.76-1.375,1.696-1.375,2.811
		c0,0.953,0.349,1.76,1.049,2.424c0.698,0.663,1.676,0.995,2.933,0.995c0.871,0,1.707-0.174,2.507-0.524
		c0.801-0.35,1.515-0.828,2.143-1.436c0,0.578,0.152,1.049,0.456,1.414c0.304,0.364,0.73,0.546,1.276,0.546
		c0.831,0,1.581-0.526,2.25-1.58l-0.061-0.152C35.247,31.896,34.902,32.054,34.548,32.054z M31.66,30.731
		c-0.993,1.145-2.178,1.717-3.556,1.717c-0.902,0-1.598-0.268-2.09-0.805c-0.491-0.537-0.737-1.18-0.737-1.93
		c0-0.841,0.301-1.581,0.904-2.219c0.603-0.639,1.431-0.958,2.485-0.958c0.598,0,1.165,0.089,1.702,0.267
		c0.537,0.176,0.968,0.423,1.292,0.737V30.731z"/>
	<path class="st0" d="M56.131,32.054c-0.335,0-0.568-0.13-0.7-0.388c-0.131-0.259-0.197-0.712-0.197-1.36v-8.192
		c0-2.695-1.525-4.043-4.574-4.043c-1.368,0-2.566,0.406-3.595,1.216c-0.168,0.132-0.325,0.272-0.471,0.419v2.849h0.205
		c0.03-0.851,0.231-1.581,0.601-2.189c0.369-0.607,0.815-1.049,1.337-1.322c0.522-0.274,1.076-0.41,1.664-0.41
		c1.003,0,1.728,0.258,2.174,0.775c0.445,0.517,0.668,1.286,0.668,2.31v5.259c-0.456-0.325-1.011-0.579-1.664-0.76
		c-0.653-0.183-1.305-0.275-1.953-0.275c-1.509,0-2.723,0.38-3.64,1.141c-0.917,0.76-1.375,1.696-1.375,2.811
		c0,0.953,0.349,1.76,1.049,2.424c0.698,0.663,1.676,0.995,2.933,0.995c0.871,0,1.707-0.174,2.507-0.524
		c0.801-0.35,1.515-0.828,2.143-1.436c0,0.578,0.152,1.049,0.456,1.414c0.304,0.364,0.73,0.546,1.276,0.546
		c0.831,0,1.581-0.526,2.25-1.58l-0.061-0.152C56.83,31.896,56.485,32.054,56.131,32.054z M53.243,30.731
		c-0.993,1.145-2.178,1.717-3.556,1.717c-0.902,0-1.598-0.268-2.09-0.805c-0.491-0.537-0.737-1.18-0.737-1.93
		c0-0.841,0.301-1.581,0.904-2.219c0.603-0.639,1.431-0.958,2.485-0.958c0.598,0,1.165,0.089,1.702,0.267
		c0.537,0.176,0.968,0.423,1.292,0.737V30.731z"/>
	<path class="st0" d="M42.94,19.849c0.101-0.303,0.214-0.57,0.341-0.797c0.127-0.229,0.297-0.495,0.509-0.798
		c0.213-0.304,0.355-0.512,0.426-0.623l-0.183-0.183c-0.222,0.365-0.481,0.585-0.774,0.661c-0.294,0.076-0.856,0.114-1.688,0.114
		h-2.553c0-0.881,0.157-2.239,0.471-4.073h-0.182c-0.263,1.196-0.727,2.179-1.39,2.948c-0.664,0.771-1.467,1.156-2.409,1.156v0.151
		c0.648,0.112,1.063,0.267,1.246,0.464c0.182,0.197,0.274,0.615,0.274,1.254v9.499c0,0.648,0.06,1.205,0.182,1.671
		c0.121,0.467,0.276,0.829,0.464,1.087c0.187,0.259,0.43,0.459,0.729,0.6c0.299,0.142,0.583,0.234,0.851,0.274
		c0.269,0.04,0.595,0.06,0.98,0.06c0.821,0,1.54-0.202,2.158-0.607c0.618-0.405,1.095-1.019,1.429-1.839l-0.152-0.092
		c-0.264,0.609-0.583,1.039-0.957,1.292c-0.375,0.253-0.867,0.38-1.474,0.38c-0.801,0-1.371-0.215-1.71-0.645
		c-0.34-0.431-0.51-1.178-0.51-2.243V18.847h2.25c0.557,0,0.945,0.044,1.162,0.136c0.218,0.091,0.327,0.264,0.327,0.517
		c0,0.111-0.02,0.227-0.061,0.349H42.94z"/>
	<path class="st0" d="M65.917,9.424l-0.152-0.106c-0.314,0.324-0.831,0.67-1.55,1.041c-0.719,0.37-1.302,0.554-1.748,0.554v0.153
		c0.577,0,0.867,0.278,0.867,0.836c0,0.232-0.082,0.825-0.244,1.777c-0.486,2.797-1.079,5.694-1.778,8.693
		c-0.861,3.709-1.418,6.194-1.672,7.455c-0.253,1.261-0.38,2.115-0.38,2.561c0,0.618,0.228,0.927,0.684,0.927
		c0.568,0,1.305-0.492,2.211-1.474c0.908-0.983,1.655-2.017,2.242-3.101L64.2,28.588c-0.345,0.588-0.667,1.077-0.966,1.467
		c-0.298,0.39-0.536,0.653-0.714,0.79c-0.177,0.137-0.321,0.205-0.433,0.205c-0.203,0-0.304-0.218-0.304-0.653
		c0-0.456,0.532-3.324,1.596-8.602C64.443,16.517,65.289,12.393,65.917,9.424z"/>
	<path class="st0" d="M69.199,31.019c-0.202,0-0.304-0.207-0.304-0.623c0-0.618,0.299-2.345,0.897-5.182s1.12-5.188,1.565-7.052
		l-0.136-0.091c-0.943,1.105-2.391,2.265-4.347,3.481l0.152,0.197c0.639-0.395,1.034-0.593,1.185-0.593
		c0.163,0,0.244,0.142,0.244,0.426c0,0.141-0.041,0.446-0.122,0.912l-0.927,4.483c-0.101,0.456-0.215,0.986-0.342,1.588
		c-0.127,0.603-0.225,1.062-0.296,1.375c-0.071,0.315-0.14,0.649-0.206,1.004c-0.065,0.355-0.113,0.643-0.144,0.866
		c-0.03,0.223-0.045,0.415-0.045,0.578c0,0.618,0.228,0.926,0.684,0.926c0.567,0,1.304-0.491,2.211-1.473
		c0.907-0.984,1.654-2.017,2.241-3.101l-0.182-0.152C70.395,30.209,69.686,31.019,69.199,31.019z"/>
	<path class="st0" d="M78.304,28.588c-0.345,0.588-0.667,1.077-0.966,1.467c-0.298,0.39-0.536,0.653-0.714,0.79
		c-0.177,0.137-0.321,0.205-0.433,0.205c-0.203,0-0.304-0.218-0.304-0.653c0-0.456,0.532-3.324,1.596-8.602
		c1.064-5.278,1.91-9.402,2.538-12.371l-0.152-0.106c-0.314,0.324-0.831,0.67-1.55,1.041c-0.719,0.37-1.302,0.554-1.748,0.554v0.153
		c0.577,0,0.867,0.278,0.867,0.836c0,0.232-0.082,0.825-0.244,1.777c-0.486,2.797-1.079,5.694-1.778,8.693
		c-0.861,3.709-1.418,6.194-1.672,7.455c-0.253,1.261-0.38,2.115-0.38,2.561c0,0.618,0.228,0.927,0.684,0.927
		c0.568,0,1.305-0.492,2.211-1.474c0.908-0.983,1.655-2.017,2.242-3.101L78.304,28.588z"/>
	<path class="st0" d="M84.222,0c-6.689,0-11.365,5.021-12.773,12.113c-0.793-0.1-1.709,0.223-1.915,1.377
		c-0.11,0.62-0.043,0.992-0.123,1.442c-0.099,0.555-0.614,0.323-0.614,0.323s-0.054,0.509,0.499,0.607
		c0.677,0.121,0.965-0.659,0.965-0.659s-0.008,0.83,0.582,0.936c0.589,0.105,0.869-0.677,0.869-0.677s0,0.832,0.677,0.953
		c0.553,0.099,0.678-0.398,0.678-0.398s-0.563,0.041-0.464-0.516c0.08-0.449,0.272-0.774,0.383-1.396
		c0.207-1.155-0.544-1.775-1.324-1.954c1.016-4.989,3.57-9.126,8.158-11.022c-1.224,0.801-2.125,2.055-2.604,3.855
		c-0.793-0.1-1.71,0.223-1.915,1.376c-0.111,0.621-0.044,0.994-0.124,1.443c-0.099,0.555-0.613,0.323-0.613,0.323
		s-0.055,0.509,0.498,0.607c0.678,0.121,0.965-0.659,0.965-0.659s-0.008,0.83,0.582,0.936c0.589,0.105,0.869-0.677,0.869-0.677
		s0,0.832,0.677,0.953c0.553,0.099,0.678-0.398,0.678-0.398s-0.563,0.041-0.464-0.516c0.081-0.449,0.273-0.774,0.383-1.395
		c0.206-1.155-0.543-1.775-1.322-1.955c0.952-3.469,3.739-4.769,6.631-4.769c1.714,0,3.464,0.456,4.892,1.188
		c-2.032-0.617-3.664,0.273-4.181,2.648c-0.792-0.101-1.709,0.222-1.915,1.376c-0.111,0.62-0.043,0.992-0.123,1.442
		c-0.099,0.556-0.614,0.322-0.614,0.322s-0.054,0.51,0.498,0.609c0.678,0.121,0.966-0.66,0.966-0.66s-0.008,0.831,0.581,0.936
		c0.59,0.105,0.869-0.677,0.869-0.677s0,0.832,0.678,0.953c0.553,0.098,0.678-0.399,0.678-0.399s-0.563,0.041-0.464-0.514
		c0.08-0.45,0.273-0.776,0.383-1.396c0.206-1.155-0.544-1.775-1.323-1.954c1.144-5.01,7.431-2.411,9.65,4.311
		c-1.803-2.762-4.964-1.741-5.776,0.92c-0.793-0.101-1.71,0.222-1.916,1.376c-0.111,0.62-0.043,0.993-0.123,1.442
		c-0.099,0.555-0.614,0.323-0.614,0.323s-0.054,0.51,0.498,0.608c0.678,0.122,0.966-0.66,0.966-0.66s-0.008,0.831,0.581,0.936
		c0.59,0.105,0.869-0.677,0.869-0.677s0,0.832,0.678,0.953c0.553,0.099,0.678-0.398,0.678-0.398s-0.563,0.041-0.464-0.515
		c0.08-0.45,0.272-0.775,0.383-1.395c0.206-1.155-0.542-1.775-1.321-1.955c1.07-3.306,6.463-4.241,6.463,5.119
		c0,1.241-0.088,2.493-0.246,3.712c-0.296-4.612-4.622-4.637-5.587-0.91c-0.793-0.1-1.71,0.223-1.916,1.377
		c-0.11,0.62-0.043,0.993-0.123,1.442c-0.099,0.555-0.613,0.323-0.613,0.323s-0.055,0.51,0.498,0.608
		c0.678,0.12,0.965-0.66,0.965-0.66s-0.008,0.831,0.581,0.936c0.59,0.105,0.87-0.677,0.87-0.677s0,0.832,0.677,0.953
		c0.553,0.099,0.679-0.398,0.679-0.398s-0.564,0.041-0.464-0.515c0.08-0.45,0.272-0.775,0.383-1.395
		c0.206-1.156-0.543-1.776-1.323-1.956c1.119-4.026,6.281-3.295,4.788,3.922c-1.251,5.012-3.93,9.914-6.852,14.15
		c0.163-3.797-0.037-9.166-1.154-12.599c-0.35-1.074-0.736-1.985-1.156-2.735c-0.421-0.75-0.805-1.275-1.155-1.573
		c-0.35-0.299-0.65-0.449-0.904-0.449c-0.152,0-0.41,0.084-0.776,0.251c-0.364,0.167-0.754,0.388-1.17,0.661
		c-0.415,0.274-0.78,0.641-1.093,1.102c-0.315,0.461-0.472,0.939-0.472,1.436c0,0.709,0.297,1.429,0.89,2.159
		c0.592,0.729,1.335,1.165,2.226,1.306l0.152-0.227c-0.851-0.213-1.528-0.626-2.029-1.239c-0.502-0.613-0.753-1.28-0.753-1.999
		c0-0.405,0.117-0.734,0.35-0.988c0.233-0.253,0.557-0.38,0.973-0.38c0.618,0,1.188,0.347,1.709,1.041
		c0.522,0.695,0.948,1.563,1.277,2.607c0.329,1.044,0.613,2.204,0.851,3.48c0.238,1.277,0.408,2.478,0.509,3.602
		c0.102,1.125,0.153,2.133,0.153,3.024c0,1.308-0.082,2.316-0.244,3.025c-0.213,0.84-0.829,1.595-1.846,2.264
		c-1.019,0.669-1.938,1.003-2.759,1.003c-0.577,0-1.054-0.119-1.429-0.357c-0.375-0.237-0.561-0.534-0.561-0.889
		c0-0.101,0.009-0.172,0.03-0.213c0.091,0.081,0.253,0.153,0.486,0.213c0.233,0.061,0.446,0.091,0.638,0.091
		c0.345,0,0.61-0.104,0.798-0.312c0.187-0.207,0.281-0.462,0.281-0.767c0-0.364-0.132-0.684-0.394-0.957
		c-0.264-0.274-0.629-0.41-1.095-0.41c-0.496,0-0.932,0.174-1.307,0.524s-0.562,0.838-0.562,1.466c0,0.629,0.217,1.153,0.653,1.573
		c0.436,0.421,1.079,0.631,1.931,0.631c0.79,0,1.597-0.195,2.423-0.585c0.826-0.391,1.604-0.917,2.333-1.581
		c3.035-2.759,7.82-10.643,9.437-17.157l0.005,0.001c0.164-0.824,0.836-3.341,0.836-6.748C95.937,4.771,90.098,0,84.222,0z"/>
</g>
</svg>
