<?xml version="1.0" encoding="utf-8"?>
<!-- Generator: Adobe Illustrator 19.0.0, SVG Export Plug-In . SVG Version: 6.00 Build 0)  -->
<svg version="1.1" id="Layer_1" xmlns="http://www.w3.org/2000/svg" xmlns:xlink="http://www.w3.org/1999/xlink" x="0px" y="0px"
	 viewBox="0 0 500 500" style="enable-background:new 0 0 500 500;" xml:space="preserve">
<style type="text/css">
	.st0{fill:#224F84;}
	.st1{fill:#5891BF;}
</style>
<g id="XMLID_190_">
	<polygon id="XMLID_191_" class="st0" points="95.7,224 81.8,199.3 72.1,199.3 72.1,237.7 80.9,237.7 80.9,213.6 94.8,237.7 
		104.5,237.7 104.5,199.3 95.7,199.3 	"/>
	<polygon id="XMLID_345_" class="st0" points="167,199.3 160,211.2 153.3,199.3 142.7,199.3 154.7,218.5 142.7,237.7 153.3,237.7 
		160,225.7 167,237.7 177.5,237.7 165.2,218.5 177.5,199.3 	"/>
	<polygon id="XMLID_346_" class="st0" points="180.7,206.3 190.1,206.3 190.1,237.7 199,237.7 199,206.3 208.3,206.3 208.3,199.3 
		180.7,199.3 	"/>
	<path id="XMLID_347_" class="st0" d="M216.1,204.4c-3.7,3.7-5.5,8.5-5.5,14.3c0,5.8,1.9,10.5,5.7,14.1c3.8,3.6,8.5,5.5,14.1,5.5
		c4.4,0,7.7-0.7,10-2.2v-8.6c-2.6,1.8-5.6,2.7-9.2,2.7c-3.3,0-6-1-8.1-3.1c-2.1-2.1-3.1-4.9-3.1-8.4c0-3.6,1-6.5,3.1-8.6
		c2.1-2.2,4.7-3.2,7.8-3.2c3.5,0,6.7,0.9,9.5,2.6V201c-2.3-1.4-5.6-2.2-10-2.2C224.6,198.9,219.8,200.7,216.1,204.4z"/>
	<polygon id="XMLID_348_" class="st0" points="269.9,215 255.8,215 255.8,199.4 247,199.4 247,237.8 255.8,237.8 255.8,222.5 
		269.9,222.5 269.9,237.8 278.8,237.8 278.8,199.4 269.9,199.4 	"/>
	<path id="XMLID_351_" class="st0" d="M296.6,199.4l-12.8,38.5h9.2l2.3-7.9h13.5l2.3,7.9h9.4l-12.8-38.5L296.6,199.4L296.6,199.4z
		 M297.4,222.9l4.6-15.9l4.6,15.9H297.4z"/>
	<path id="XMLID_354_" class="st0" d="M353.2,211.7c0-3.7-1.3-6.6-3.9-8.9c-2.6-2.3-6.1-3.4-10.4-3.4h-13.3v38.5h8.8v-13.4h2.7
		l8.3,13.4h10.5l-9.8-14.8C350.8,221,353.2,217.2,353.2,211.7z M338.5,217.3h-4.2v-10.8h4.3c1.7,0,3.1,0.5,4.1,1.4
		c1,0.9,1.5,2.2,1.5,3.9C344.3,215.5,342.3,217.3,338.5,217.3z"/>
	<path id="XMLID_355_" class="st0" d="M379,222.4h6.2v7.3c-1.6,0.5-3.2,0.7-4.9,0.7c-3.6,0-6.5-1.1-8.6-3.2c-2.1-2.1-3.1-5-3.1-8.6
		c0-3.6,1.1-6.4,3.2-8.6c2.1-2.2,5-3.2,8.6-3.2c3.8,0,7.6,1,11.2,3.1v-8.8c-3.2-1.6-6.9-2.4-11.2-2.4c-6.2,0-11.3,1.8-15.3,5.4
		c-4,3.6-6,8.4-6,14.4c0,6.1,1.9,10.9,5.8,14.4c3.8,3.5,8.8,5.3,15,5.3c5.6,0,10.2-1.3,13.8-4v-19.4H379L379,222.4L379,222.4z"/>
	<path id="XMLID_356_" class="st0" d="M115.7,204.3c-3.7,3.7-5.5,8.5-5.5,14.3c0,5.8,1.9,10.5,5.7,14.1c3.8,3.6,8.5,5.5,14.1,5.5
		c4.4,0,7.7-0.7,10-2.2v-8.6c-2.6,1.8-5.6,2.7-9.2,2.7c-3.3,0-6-1-8.1-3.1c-1.4-1.4-2.3-3.1-2.7-5.1h8.8v3.5l11.3-7l-11.3-7v3.5
		h-8.7c0.5-2,1.3-3.7,2.7-5c2.1-2.2,4.7-3.2,7.8-3.2c3.5,0,6.7,0.9,9.5,2.6v-8.5c-2.3-1.4-5.6-2.2-10-2.2
		C124.2,198.8,119.4,200.6,115.7,204.3z"/>
	<path id="XMLID_357_" class="st0" d="M420.4,206.8c3.5,0,6.7,0.9,9.5,2.6v-8.5c-2.3-1.4-5.6-2.2-10-2.2c-5.9,0-10.7,1.8-14.4,5.5
		c-2.5,2.5-4.1,5.6-4.9,9.2h-3.5v3.5h3c0,0.5-0.1,1.1-0.1,1.6c0,0.5,0.1,0.9,0.1,1.4h-3v3.5h3.5c0.8,3.6,2.5,6.7,5.1,9.3
		c3.8,3.6,8.5,5.5,14.1,5.5c4.4,0,7.7-0.7,10-2.2v-8.6c-2.5,1.8-5.6,2.7-9.2,2.7c-3.3,0-6-1-8.1-3.1c-1-1-1.8-2.2-2.3-3.6h14.4
		l0.7-3.5h-15.8c0-0.5-0.1-0.9-0.1-1.4c0-0.6,0.1-1.1,0.1-1.6H426l0.7-3.5h-16.3c0.5-1.3,1.3-2.5,2.2-3.5
		C414.7,207.8,417.3,206.8,420.4,206.8z"/>
</g>
<g id="XMLID_271_">
	<polygon id="XMLID_272_" class="st0" points="89.5,107.3 75.6,82.5 65.9,82.5 65.9,121 74.7,121 74.7,96.9 88.7,121 98.3,121 
		98.3,82.5 89.5,82.5 	"/>
	<polygon id="XMLID_317_" class="st0" points="114.6,114 114.6,105.3 153.9,105.3 153.9,110.9 159.6,101.8 153.9,92.6 153.9,98.3 
		114.6,98.3 114.6,89.6 153.9,89.6 153.9,82.5 105.7,82.5 105.7,121 153.9,121 153.9,114 	"/>
	<polygon id="XMLID_318_" class="st0" points="178.2,82.5 171.3,94.5 164.5,82.5 153.9,82.5 165.9,101.8 153.9,121 164.5,121 
		171.3,109 178.2,121 188.7,121 176.4,101.8 188.7,82.5 	"/>
	<polygon id="XMLID_333_" class="st0" points="191.9,89.6 201.3,89.6 201.3,121 210.2,121 210.2,89.6 219.6,89.6 219.6,82.5 
		191.9,82.5 	"/>
	<path id="XMLID_334_" class="st0" d="M227.3,87.6c-3.7,3.7-5.5,8.5-5.5,14.3c0,5.8,1.9,10.5,5.7,14.1c3.8,3.6,8.5,5.5,14.1,5.5
		c4.4,0,7.7-0.7,10-2.2v-8.6c-2.6,1.8-5.6,2.7-9.2,2.7c-3.3,0-6-1-8.1-3.1c-2.1-2.1-3.1-4.9-3.1-8.4c0-3.6,1-6.5,3.1-8.6
		c2.1-2.2,4.7-3.2,7.8-3.2c3.5,0,6.7,0.9,9.5,2.6v-8.5c-2.3-1.4-5.6-2.2-10-2.2C235.8,82,231,83.9,227.3,87.6z"/>
	<polygon id="XMLID_335_" class="st0" points="281.1,98.2 267,98.2 267,82.5 258.2,82.5 258.2,121 267,121 267,105.7 281.1,105.7 
		281.1,121 290,121 290,82.5 281.1,82.5 	"/>
	<path id="XMLID_409_" class="st0" d="M364.4,94.9c0-3.7-1.3-6.6-3.9-8.9c-2.6-2.3-6.1-3.4-10.4-3.4h-13.3V121h8.8v-13.4h2.7
		l8.3,13.4h10.5l-9.8-14.8C362,104.1,364.4,100.3,364.4,94.9z M349.8,100.5h-4.2V89.7h4.3c1.7,0,3.1,0.5,4.1,1.4
		c1,0.9,1.5,2.2,1.5,3.9C355.5,98.7,353.6,100.5,349.8,100.5z"/>
	<path id="XMLID_410_" class="st0" d="M390.2,105.5h6.2v7.2c-1.6,0.5-3.2,0.7-4.9,0.7c-3.6,0-6.5-1.1-8.6-3.2
		c-2.1-2.1-3.1-5-3.1-8.6c0-3.6,1.1-6.4,3.2-8.6c2.1-2.2,5-3.2,8.6-3.2c3.8,0,7.6,1,11.2,3.1v-8.8c-3.2-1.6-6.9-2.4-11.2-2.4
		c-6.2,0-11.3,1.8-15.3,5.4c-4,3.6-6,8.4-6,14.4c0,6.1,1.9,10.9,5.8,14.4c3.8,3.5,8.8,5.3,15,5.3c5.6,0,10.2-1.3,13.8-4V98.1h-14.8
		L390.2,105.5L390.2,105.5z"/>
	<polygon id="XMLID_411_" class="st0" points="421,114 421,105.3 434.2,105.3 434.2,98.3 421,98.3 421,89.6 435.8,89.6 435.8,82.5 
		412.1,82.5 412.1,121 436.1,121 436.1,114 	"/>
	<path id="XMLID_414_" class="st0" d="M307.9,82.5L295,121h9.2l2.3-7.9H320l2.3,7.9h9.4l-12.8-38.5H307.9z M308.6,106.1l4.6-15.9
		l4.6,15.9H308.6z"/>
</g>
<g id="XMLID_1_">
	<path id="XMLID_189_" class="st0" d="M378.6,334.4c4,0,7.5,1.7,9.8,4.5v-13.3c-2.9-1.3-6.3-2-9.8-2c-3.9,0-7.6,0.9-10.8,2.4v14.7
		C369.9,336.9,373.7,334.4,378.6,334.4z"/>
	<path id="XMLID_188_" class="st1" d="M378.6,377.7l13.9-11.5l-13.9-11.5v4.2v1.8c-7.5,0-12.6-5.8-12.6-13.1v-30
		c0-9.6-7.4-17.3-16.6-17.3c-4.7,0-9.1,1.8-12.4,5.1v-4.2h-11.9v46.3H337v-28.5c0.1-4.7,3.8-8.3,8.7-8.3c4.7,0,8.4,3.4,8.4,8.3v28.5
		c0,13.4,10.6,24.1,24.5,24.1v1.8V377.7z"/>
	<g id="XMLID_168_">
		<path id="XMLID_186_" class="st1" d="M296.5,387c-1.4,0-2.6,0.5-3.6,1.5v-1.2h-3.4v13.4h3.4v-8.2c0-1.4,1.1-2.4,2.5-2.4
			c1.4,0,2.4,1,2.4,2.4v8.2h3.5V392C301.3,389.3,299.2,387,296.5,387z"/>
		<path id="XMLID_183_" class="st1" d="M310.8,387c-4.1,0-7.1,3.1-7.1,7c0,3.9,2.9,7,7.2,7c2.8,0,5.1-1.4,6.2-3.6l-2.8-1.1
			c-0.7,1.3-2,1.9-3.4,1.9c-2,0-3.5-1.4-3.8-3.6h10.6l0-0.7C317.6,389.8,314.7,387,310.8,387z M307.4,392c0.6-1.4,1.8-2.2,3.4-2.2
			c1.6,0,2.6,0.9,3.2,2.2H307.4z"/>
		<polygon id="XMLID_182_" class="st1" points="329.4,387.3 325.8,391.7 322.3,387.3 318.1,387.3 323.7,394 318.1,400.7 
			322.3,400.7 325.8,396.4 329.4,400.7 333.5,400.7 327.9,394 333.5,387.3 		"/>
		<polygon id="XMLID_181_" class="st1" points="340.2,382.5 336.8,382.5 336.8,387.3 334.1,387.3 334.1,390.1 336.8,390.1 
			336.8,400.7 340.2,400.7 340.2,390.1 342.8,390.1 342.8,387.3 340.2,387.3 		"/>
		<path id="XMLID_180_" class="st0" d="M343.8,394c0,3.9,3.1,7,7.1,7c1,0,2-0.2,2.8-0.6v-3.9c-0.7,0.8-1.7,1.3-2.8,1.3
			c-2.2,0-3.8-1.7-3.8-3.8c0-2.1,1.6-3.8,3.8-3.8c1.2,0,2.2,0.5,2.8,1.3v-3.9c-0.9-0.4-1.8-0.6-2.8-0.6
			C346.9,387,343.8,390.1,343.8,394z"/>
		<path id="XMLID_179_" class="st0" d="M363.8,387c-1.4,0-2.6,0.6-3.5,1.5v-8.3h-3.4v20.5h3.4v-8.3c0-1.3,1.1-2.3,2.6-2.3
			c1.3,0,2.4,1,2.4,2.3v8.3h3.5V392C368.7,389.3,366.6,387,363.8,387z"/>
		<path id="XMLID_176_" class="st0" d="M382.1,388.8c-1-1.1-2.4-1.8-4.4-1.8c-3.6,0-6.6,3.1-6.6,7c0,3.9,3,7,6.6,7
			c2,0,3.5-0.7,4.5-2l0.1,1.7h3.2v-13.4h-3.5L382.1,388.8L382.1,388.8z M378.4,397.8c-2.2,0-3.8-1.7-3.8-3.9c0-2.1,1.7-3.8,3.8-3.8
			c2.1,0,3.8,1.7,3.8,3.8C382.2,396.1,380.5,397.8,378.4,397.8z"/>
		<path id="XMLID_175_" class="st0" d="M392.6,389.2v-1.9h-3.4v13.4h3.4v-5.9c0-3.9,2-4.7,4.1-4.3v-3.4l-0.5,0
			C394.5,387,393.4,387.8,392.6,389.2z"/>
		<path id="XMLID_172_" class="st0" d="M408.9,388.9c-1-1.1-2.4-1.8-4.3-1.8c-3.8,0-6.8,3.1-6.8,7c0,3.9,3,6.8,6.9,6.8
			c1.8,0,3.2-0.6,4.2-1.7v0.8c0,2.5-1.7,4.1-4,4.1c-1.7,0-3.3-0.9-4.3-2.4l-2.2,2.2c1.5,2.2,4.2,3.3,6.6,3.3c4.2,0,7.4-2.8,7.4-7.2
			v-12.6h-3.5L408.9,388.9L408.9,388.9z M405.2,397.9c-2.2,0-3.8-1.7-3.8-3.9c0-2.2,1.7-3.9,3.8-3.9c2.1,0,3.9,1.7,3.9,3.9
			C409.1,396.1,407.3,397.9,405.2,397.9z"/>
		<path id="XMLID_169_" class="st0" d="M422.1,387c-4.1,0-7.1,3.1-7.1,7c0,3.9,2.9,7,7.2,7c2.8,0,5.1-1.4,6.2-3.6l-2.8-1.1
			c-0.7,1.3-2,1.9-3.4,1.9c-2,0-3.5-1.4-3.8-3.6h10.6l0-0.7C428.9,389.8,425.9,387,422.1,387z M418.7,392c0.6-1.4,1.8-2.2,3.4-2.2
			c1.6,0,2.6,0.9,3.2,2.2H418.7z"/>
	</g>
</g>
<polygon id="XMLID_166_" class="st1" points="169.6,332.1 150,320.9 150,346 169.6,334.7 169.6,346 174,346 174,320.9 169.6,320.9 
	"/>
<path id="XMLID_165_" class="st0" d="M159,300.4c-18.5,0-33.4,14.5-33.4,32.9c0,18.4,14.8,33.1,33.4,33.1c5.4,0,10.2-1.3,15-3.8
	v-13.5c-4.6,4.3-8.8,6.3-15.2,6.3c-12.5,0-22.1-9.8-22.1-22c0-12.4,9.9-22,22.2-22c6,0,10.4,1.9,15.1,6.2v-13.5
	C169.2,301.7,164.4,300.4,159,300.4z"/>
<g id="XMLID_384_">
	<polygon id="XMLID_163_" class="st1" points="83.2,394.1 70.5,380.6 70.5,402.2 74.1,402.2 74.1,389.2 86.7,402.8 86.7,381.1 
		83.2,381.1 	"/>
	<polygon id="XMLID_162_" class="st1" points="90.6,402.2 103.7,402.2 103.7,398.6 94.2,398.6 94.2,393.4 102.6,393.4 102.6,389.9 
		94.2,389.9 94.2,384.7 103.7,384.7 103.7,381.1 90.6,381.1 	"/>
	<polygon id="XMLID_161_" class="st1" points="118.8,381.1 113.9,389 109.1,381.1 104.8,381.1 111.4,391.8 104.9,402.2 109.1,402.2 
		113.9,394.5 118.7,402.2 122.9,402.2 116.5,391.8 123,381.1 	"/>
	<polygon id="XMLID_160_" class="st1" points="124.1,384.7 129.5,384.7 129.5,402.2 133,402.2 133,384.7 138.4,384.7 138.4,381.1 
		124.1,381.1 	"/>
</g>
<g id="XMLID_149_">
	<path id="XMLID_159_" class="st0" d="M137.8,391.6c0,6,4.8,10.8,10.9,10.8c1.8,0,3.3-0.4,4.9-1.2v-4.4c-1.5,1.4-2.9,2-5,2
		c-4.1,0-7.2-3.2-7.2-7.2c0-4,3.2-7.2,7.3-7.2c2,0,3.4,0.6,4.9,2v-4.4c-1.6-0.8-3.1-1.2-4.9-1.2
		C142.7,380.9,137.8,385.6,137.8,391.6z"/>
	<polygon id="XMLID_158_" class="st0" points="168.2,389.9 160.5,389.9 160.5,381.1 157,381.1 157,402.2 160.5,402.2 160.5,393.4 
		168.2,393.4 168.2,402.2 171.8,402.2 171.8,381.1 168.2,381.1 	"/>
	<path id="XMLID_155_" class="st0" d="M173.7,402.2h4l1.6-3.8h8l1.6,3.8h4l-9.6-21.6L173.7,402.2z M180.7,395l2.6-6.4l2.6,6.4H180.7
		z"/>
	<path id="XMLID_152_" class="st0" d="M209.3,387.7c0-3.9-3-6.6-6.6-6.6h-7.8v21h3.5v-7.8h3.1l4.3,7.8h4.1l-4.8-8.2
		C207.6,393,209.3,390.8,209.3,387.7z M202.4,390.8h-4v-6.1h4c2,0,3.3,1.1,3.3,3.1C205.7,389.7,204.4,390.8,202.4,390.8z"/>
	<polygon id="XMLID_150_" class="st0" points="233.2,402.2 246.3,402.2 246.3,398.6 236.7,398.6 236.7,393.4 245.2,393.4 
		245.2,389.9 236.7,389.9 236.7,384.7 246.3,384.7 246.3,381.1 233.2,381.1 	"/>
</g>
<g>
	<path class="st0" d="M222,389.9v3.5h4.3v4c-1.3,0.9-2.7,1.4-4.3,1.4c-4.1,0-7.2-3.2-7.2-7.2c0-4,3.2-7.2,7.3-7.2
		c1.8,0,3.5,0.7,4.9,2v-4.4c-1.5-0.8-3.2-1.2-4.9-1.2c-6,0-10.9,4.8-10.9,10.8s4.9,10.8,10.9,10.8c2.8,0,5.3-1,7.5-2.8v-9.7H222z"/>
</g>
</svg>
