<?xml version="1.0" encoding="utf-8"?>
<!-- Generator: Adobe Illustrator 19.0.0, SVG Export Plug-In . SVG Version: 6.00 Build 0)  -->
<svg version="1.1" id="Layer_1" xmlns="http://www.w3.org/2000/svg" xmlns:xlink="http://www.w3.org/1999/xlink" x="0px" y="0px"
	 viewBox="0 0 500 500" style="enable-background:new 0 0 500 500;" xml:space="preserve">
<style type="text/css">
	.st0{fill:#224F84;}
	.st1{fill:#5891BF;}
</style>
<g id="XMLID_190_">
	<polygon id="XMLID_191_" class="st0" points="95.692,224.001 81.764,199.25 72.115,199.25 72.115,237.726 80.907,237.726 
		80.907,213.587 94.837,237.726 104.484,237.726 104.484,199.25 95.692,199.25 	"/>
	<polygon id="XMLID_345_" class="st0" points="167.005,199.25 160.041,211.238 153.305,199.25 142.689,199.25 154.669,218.488 
		142.689,237.726 153.305,237.726 160.041,225.737 167.005,237.726 177.453,237.726 165.212,218.488 177.453,199.25 	"/>
	<polygon id="XMLID_346_" class="st0" points="180.71,206.328 190.126,206.328 190.126,237.726 198.976,237.726 198.976,206.328 
		208.337,206.328 208.337,199.25 180.71,199.25 	"/>
	<path id="XMLID_347_" class="st0" d="M216.122,204.386c-3.67,3.693-5.505,8.469-5.505,14.33c0,5.786,1.891,10.495,5.677,14.13
		c3.786,3.633,8.497,5.452,14.127,5.452c4.376,0,7.726-0.722,10.049-2.17v-8.62c-2.55,1.826-5.612,2.739-9.189,2.739
		c-3.312,0-6.016-1.036-8.107-3.11c-2.095-2.074-3.14-4.88-3.14-8.42c0-3.614,1.045-6.497,3.14-8.648
		c2.091-2.151,4.678-3.226,7.763-3.226c3.503,0,6.681,0.876,9.533,2.627v-8.45c-2.323-1.445-5.649-2.167-9.988-2.167
		C224.581,198.851,219.796,200.695,216.122,204.386z"/>
	<polygon id="XMLID_348_" class="st0" points="269.928,215.006 255.828,215.006 255.828,199.364 247.039,199.364 247.039,237.839 
		255.828,237.839 255.828,222.483 269.928,222.483 269.928,237.839 278.778,237.839 278.778,199.364 269.928,199.364 	"/>
	<path id="XMLID_351_" class="st0" d="M296.64,199.364l-12.84,38.475h9.189l2.341-7.877h13.473l2.341,7.877h9.417l-12.845-38.475
		H296.64z M297.44,222.883l4.625-15.864l4.625,15.864H297.44z"/>
	<path id="XMLID_354_" class="st0" d="M353.16,211.694c0-3.654-1.306-6.622-3.912-8.906c-2.606-2.284-6.063-3.424-10.36-3.424
		h-13.301v38.475h8.79v-13.359h2.685l8.334,13.359h10.504l-9.765-14.785C350.818,220.962,353.16,217.173,353.16,211.694z
		 M338.544,217.345h-4.167V206.5h4.339c1.714,0,3.062,0.467,4.051,1.398c0.99,0.934,1.487,2.218,1.487,3.853
		C344.254,215.482,342.349,217.345,338.544,217.345z"/>
	<path id="XMLID_355_" class="st0" d="M379.013,222.369h6.225v7.25c-1.598,0.495-3.219,0.743-4.855,0.743
		c-3.614,0-6.467-1.066-8.562-3.198c-2.091-2.13-3.141-5.003-3.141-8.62c0-3.577,1.069-6.441,3.196-8.59
		c2.133-2.151,5.008-3.226,8.623-3.226c3.842,0,7.591,1.048,11.247,3.14v-8.792c-3.159-1.598-6.908-2.397-11.247-2.397
		c-6.165,0-11.256,1.807-15.27,5.424c-4.014,3.614-6.021,8.43-6.021,14.441c0,6.09,1.919,10.903,5.765,14.443
		c3.842,3.54,8.845,5.31,15.01,5.31c5.556,0,10.165-1.333,13.816-3.998v-19.41h-14.787V222.369z"/>
	<path id="XMLID_356_" class="st0" d="M115.724,204.3c-3.67,3.693-5.505,8.469-5.505,14.33c0,5.786,1.891,10.495,5.677,14.13
		c3.786,3.633,8.497,5.452,14.128,5.452c4.376,0,7.726-0.722,10.048-2.17v-8.62c-2.55,1.826-5.612,2.739-9.189,2.739
		c-3.312,0-6.016-1.036-8.107-3.11c-1.379-1.366-2.258-3.08-2.729-5.08h8.766v3.521l11.259-7.003l-11.259-7.004v3.521H120.1
		c0.485-1.959,1.343-3.657,2.676-5.024c2.091-2.151,4.678-3.227,7.763-3.227c3.503,0,6.68,0.876,9.533,2.627v-8.451
		c-2.323-1.445-5.649-2.167-9.988-2.167C124.184,198.765,119.399,200.609,115.724,204.3z"/>
	<path id="XMLID_357_" class="st0" d="M420.352,206.755c3.503,0,6.681,0.876,9.533,2.627v-8.451
		c-2.323-1.445-5.649-2.167-9.988-2.167c-5.9,0-10.685,1.844-14.36,5.535c-2.533,2.549-4.129,5.65-4.914,9.231h-3.492v3.482h3.034
		c-0.034,0.545-0.133,1.052-0.133,1.617c0,0.485,0.092,0.917,0.119,1.387h-3.02v3.482h3.464c0.793,3.605,2.46,6.713,5.114,9.261
		c3.786,3.633,8.497,5.452,14.128,5.452c4.376,0,7.726-0.722,10.049-2.17v-8.62c-2.55,1.826-5.612,2.739-9.189,2.739
		c-3.312,0-6.016-1.036-8.107-3.11c-1.019-1.008-1.779-2.197-2.302-3.552h14.419l0.678-3.482h-15.828
		c-0.04-0.46-0.108-0.899-0.108-1.387c0-0.568,0.072-1.086,0.123-1.617h16.397l0.678-3.482h-16.304
		c0.522-1.342,1.257-2.534,2.246-3.549C414.68,207.831,417.267,206.755,420.352,206.755z"/>
</g>
<g id="XMLID_271_">
	<polygon id="XMLID_272_" class="st0" points="89.51,107.283 75.583,82.532 65.934,82.532 65.934,121.008 74.726,121.008 
		74.726,96.869 88.656,121.008 98.302,121.008 98.302,82.532 89.51,82.532 	"/>
	<polygon id="XMLID_317_" class="st0" points="114.571,113.986 114.571,105.252 153.902,105.252 153.902,110.949 159.611,101.77 
		153.902,92.602 153.902,98.288 114.571,98.288 114.571,89.554 153.902,89.554 153.902,82.532 105.722,82.532 105.722,121.008 
		153.902,121.008 153.902,113.986 	"/>
	<polygon id="XMLID_318_" class="st0" points="178.217,82.532 171.254,94.521 164.517,82.532 153.902,82.532 165.882,101.77 
		153.902,121.008 164.517,121.008 171.254,109.02 178.217,121.008 188.666,121.008 176.425,101.77 188.666,82.532 	"/>
	<polygon id="XMLID_333_" class="st0" points="191.922,89.61 201.339,89.61 201.339,121.008 210.189,121.008 210.189,89.61 
		219.55,89.61 219.55,82.532 191.922,82.532 	"/>
	<path id="XMLID_334_" class="st0" d="M227.332,87.554c-3.67,3.693-5.505,8.469-5.505,14.33c0,5.786,1.891,10.494,5.677,14.13
		c3.786,3.633,8.497,5.452,14.127,5.452c4.376,0,7.726-0.722,10.049-2.17v-8.62c-2.55,1.826-5.612,2.739-9.189,2.739
		c-3.312,0-6.016-1.036-8.107-3.11c-2.095-2.074-3.141-4.88-3.141-8.42c0-3.614,1.045-6.497,3.141-8.648
		c2.09-2.151,4.678-3.226,7.763-3.226c3.503,0,6.681,0.876,9.533,2.627v-8.451c-2.323-1.445-5.649-2.167-9.988-2.167
		C235.791,82.019,231.006,83.863,227.332,87.554z"/>
	<polygon id="XMLID_335_" class="st0" points="281.138,98.175 267.038,98.175 267.038,82.532 258.248,82.532 258.248,121.008 
		267.038,121.008 267.038,105.652 281.138,105.652 281.138,121.008 289.988,121.008 289.988,82.532 281.138,82.532 	"/>
	<path id="XMLID_409_" class="st0" d="M364.37,94.862c0-3.654-1.305-6.622-3.912-8.906c-2.606-2.283-6.063-3.424-10.36-3.424
		h-13.301v38.476h8.79v-13.359h2.685l8.334,13.359h10.504l-9.765-14.785C362.028,104.13,364.37,100.342,364.37,94.862z
		 M349.754,100.514h-4.167V89.668h4.339c1.714,0,3.062,0.467,4.051,1.398c0.989,0.934,1.486,2.218,1.486,3.854
		C355.464,98.651,353.559,100.514,349.754,100.514z"/>
	<path id="XMLID_410_" class="st0" d="M390.223,105.538h6.225v7.249c-1.598,0.495-3.219,0.743-4.855,0.743
		c-3.614,0-6.467-1.066-8.562-3.199c-2.091-2.13-3.141-5.003-3.141-8.62c0-3.577,1.069-6.441,3.196-8.59
		c2.132-2.151,5.008-3.226,8.622-3.226c3.842,0,7.591,1.048,11.247,3.141v-8.792c-3.159-1.598-6.908-2.397-11.247-2.397
		c-6.165,0-11.257,1.807-15.27,5.424c-4.014,3.614-6.021,8.43-6.021,14.441c0,6.09,1.919,10.903,5.765,14.443
		c3.842,3.54,8.845,5.31,15.01,5.31c5.556,0,10.165-1.333,13.816-3.998v-19.41h-14.787V105.538z"/>
	<polygon id="XMLID_411_" class="st0" points="420.996,113.986 420.996,105.252 434.24,105.252 434.24,98.288 420.996,98.288 
		420.996,89.554 435.839,89.554 435.839,82.532 412.15,82.532 412.15,121.008 436.066,121.008 436.066,113.986 	"/>
	<path id="XMLID_414_" class="st0" d="M307.85,82.532l-12.841,38.476h9.189l2.341-7.877h13.473l2.341,7.877h9.417l-12.845-38.476
		H307.85z M308.649,106.051l4.625-15.864l4.625,15.864H308.649z"/>
</g>
<g id="XMLID_1_">
	<path id="XMLID_189_" class="st0" d="M378.602,334.403c4.044,0,7.535,1.747,9.832,4.504v-13.326c-2.94-1.287-6.341-2.02-9.832-2.02
		c-3.934,0-7.583,0.87-10.817,2.384v14.736C369.879,336.916,373.699,334.403,378.602,334.403z"/>
	<path id="XMLID_188_" class="st1" d="M378.602,377.708l13.872-11.463l-13.872-11.463v4.223v1.772
		c-7.535,0-12.589-5.791-12.589-13.143v-29.953c0-9.648-7.351-17.277-16.633-17.277c-4.684,0-9.098,1.837-12.405,5.144v-4.224
		h-11.852v46.311h11.852v-28.485c0.093-4.688,3.767-8.272,8.732-8.272c4.684,0,8.361,3.401,8.361,8.272v28.485
		c0.001,13.415,10.565,24.076,24.534,24.076v1.772V377.708z"/>
	<g id="XMLID_168_">
		<path id="XMLID_186_" class="st1" d="M296.525,387.046c-1.357,0-2.634,0.533-3.592,1.49v-1.223H289.5v13.409h3.433v-8.247
			c0.028-1.357,1.09-2.395,2.526-2.395c1.357,0,2.423,0.985,2.423,2.395v8.247h3.457v-8.673
			C301.339,389.254,299.211,387.046,296.525,387.046z"/>
		<path id="XMLID_183_" class="st1" d="M310.798,387.046c-4.098,0-7.077,3.087-7.077,6.972c0,3.883,2.928,6.97,7.185,6.97
			c2.821,0,5.081-1.384,6.171-3.592l-2.765-1.144c-0.72,1.251-2.021,1.942-3.433,1.942c-1.969,0-3.513-1.383-3.776-3.565h10.563
			l0.024-0.744C317.636,389.787,314.657,387.046,310.798,387.046z M307.448,391.995c0.585-1.357,1.755-2.208,3.378-2.208
			c1.568,0,2.634,0.851,3.191,2.208H307.448z"/>
		<polygon id="XMLID_182_" class="st1" points="329.383,387.312 325.79,391.702 322.25,387.312 318.1,387.312 323.741,394.018 
			318.1,400.721 322.277,400.721 325.818,396.357 329.355,400.721 333.505,400.721 327.867,394.018 333.505,387.312 		"/>
		<polygon id="XMLID_181_" class="st1" points="340.222,382.496 336.765,382.496 336.765,387.312 334.131,387.312 334.131,390.105 
			336.765,390.105 336.765,400.721 340.222,400.721 340.222,390.105 342.828,390.105 342.828,387.312 340.222,387.312 		"/>
		<path id="XMLID_180_" class="st0" d="M343.797,394.018c0,3.883,3.059,6.97,7.102,6.97c1.011,0,1.997-0.213,2.848-0.585v-3.859
			c-0.664,0.772-1.675,1.277-2.848,1.277c-2.18,0-3.776-1.675-3.776-3.803c0-2.128,1.595-3.831,3.776-3.831
			c1.173,0,2.184,0.505,2.848,1.303v-3.857c-0.851-0.374-1.838-0.587-2.848-0.587C346.857,387.046,343.797,390.133,343.797,394.018z
			"/>
		<path id="XMLID_179_" class="st0" d="M363.815,387.046c-1.412,0-2.609,0.587-3.513,1.49v-8.301h-3.433v20.487h3.433v-8.275
			c0.028-1.303,1.118-2.314,2.582-2.314c1.329,0,2.367,0.985,2.367,2.288v8.301h3.457v-8.673
			C368.708,389.254,366.608,387.046,363.815,387.046z"/>
		<path id="XMLID_176_" class="st0" d="M382.078,388.828c-0.983-1.144-2.447-1.836-4.364-1.836c-3.617,0-6.624,3.113-6.624,6.998
			c0,3.911,3.008,6.998,6.624,6.998c1.997,0,3.513-0.746,4.523-1.995l0.08,1.729h3.222v-13.409h-3.461V388.828z M378.382,397.849
			c-2.156,0-3.831-1.73-3.831-3.859c0-2.128,1.675-3.831,3.831-3.831c2.128,0,3.803,1.703,3.803,3.831
			C382.185,396.118,380.51,397.849,378.382,397.849z"/>
		<path id="XMLID_175_" class="st0" d="M392.602,389.202v-1.89h-3.433v13.409h3.433v-5.934c0-3.911,2.049-4.734,4.098-4.336v-3.378
			l-0.481-0.028C394.516,387.046,393.402,387.844,392.602,389.202z"/>
		<path id="XMLID_172_" class="st0" d="M408.945,388.856c-0.959-1.118-2.367-1.81-4.257-1.81c-3.803,0-6.783,3.087-6.783,6.972
			c0,3.857,2.952,6.837,6.863,6.837c1.838,0,3.219-0.639,4.177-1.729v0.798c0,2.475-1.73,4.096-3.99,4.096
			c-1.651,0-3.274-0.851-4.285-2.393l-2.18,2.182c1.516,2.208,4.177,3.298,6.572,3.298c4.202,0,7.368-2.847,7.368-7.183v-12.611
			h-3.485V388.856z M405.193,397.875c-2.156,0-3.831-1.729-3.831-3.857c0-2.156,1.675-3.859,3.831-3.859
			c2.128,0,3.859,1.703,3.859,3.859C409.052,396.146,407.321,397.875,405.193,397.875z"/>
		<path id="XMLID_169_" class="st0" d="M422.051,387.046c-4.098,0-7.077,3.087-7.077,6.972c0,3.883,2.924,6.97,7.181,6.97
			c2.821,0,5.084-1.384,6.174-3.592l-2.769-1.144c-0.716,1.251-2.021,1.942-3.43,1.942c-1.969,0-3.513-1.383-3.779-3.565h10.563
			l0.028-0.744C428.886,389.787,425.906,387.046,422.051,387.046z M418.697,391.995c0.585-1.357,1.755-2.208,3.378-2.208
			c1.571,0,2.634,0.851,3.194,2.208H418.697z"/>
	</g>
</g>
<polygon id="XMLID_166_" class="st1" points="169.561,332.141 150.012,320.854 150.012,345.974 169.561,334.687 169.561,345.974 
	173.971,345.974 173.971,320.854 169.561,320.854 "/>
<path id="XMLID_165_" class="st0" d="M159.011,300.405c-18.467,0-33.427,14.456-33.427,32.924c0,18.386,14.792,33.093,33.427,33.093
	c5.432,0,10.196-1.253,14.959-3.762v-13.536c-4.596,4.261-8.775,6.266-15.208,6.266c-12.537,0-22.145-9.777-22.145-21.978
	c0-12.367,9.86-21.978,22.229-21.978c6.015,0,10.361,1.922,15.125,6.184v-13.454C169.207,301.659,164.443,300.405,159.011,300.405z"
	/>
<g id="XMLID_384_">
	<polygon id="XMLID_163_" class="st1" points="83.151,394.109 70.512,380.596 70.512,402.162 74.061,402.162 74.061,389.249 
		86.701,402.762 86.701,381.142 83.151,381.142 	"/>
	<polygon id="XMLID_162_" class="st1" points="90.629,402.162 103.732,402.162 103.732,398.613 94.178,398.613 94.178,393.426 
		102.64,393.426 102.64,389.877 94.178,389.877 94.178,384.691 103.732,384.691 103.732,381.142 90.629,381.142 	"/>
	<polygon id="XMLID_161_" class="st1" points="118.826,381.142 113.94,389.031 109.053,381.142 104.849,381.142 111.429,391.761 
		104.931,402.162 109.135,402.162 113.94,394.464 118.744,402.162 122.948,402.162 116.452,391.761 123.031,381.142 	"/>
	<polygon id="XMLID_160_" class="st1" points="124.077,384.691 129.482,384.691 129.482,402.162 133.031,402.162 133.031,384.691 
		138.409,384.691 138.409,381.142 124.077,381.142 	"/>
</g>
<g id="XMLID_149_">
	<path id="XMLID_159_" class="st0" d="M137.849,391.624c0,6.006,4.832,10.811,10.92,10.811c1.775,0,3.331-0.409,4.887-1.229v-4.422
		c-1.501,1.392-2.866,2.047-4.968,2.047c-4.095,0-7.234-3.194-7.234-7.18c0-4.04,3.221-7.18,7.262-7.18
		c1.965,0,3.385,0.628,4.941,2.02v-4.395c-1.556-0.819-3.112-1.228-4.887-1.228C142.736,380.869,137.849,385.592,137.849,391.624z"
		/>
	<polygon id="XMLID_158_" class="st0" points="168.202,389.877 160.531,389.877 160.531,381.142 156.982,381.142 156.982,402.162 
		160.531,402.162 160.531,393.426 168.202,393.426 168.202,402.162 171.75,402.162 171.75,381.142 168.202,381.142 	"/>
	<path id="XMLID_155_" class="st0" d="M173.741,402.162h4.013l1.556-3.821h7.972l1.556,3.821h4.012l-9.554-21.566L173.741,402.162z
		 M180.675,395.01l2.621-6.388l2.621,6.388H180.675z"/>
	<path id="XMLID_152_" class="st0" d="M209.282,387.748c0-3.931-2.976-6.607-6.607-6.607h-7.835v21.02h3.549v-7.78h3.139l4.314,7.78
		h4.095l-4.777-8.217C207.59,393.017,209.282,390.751,209.282,387.748z M202.402,390.833h-4.012v-6.142h4.012
		c1.966,0,3.331,1.092,3.331,3.057C205.733,389.741,204.368,390.833,202.402,390.833z"/>
	<path id="XMLID_151_" class="st0" d="M222.028,393.426h4.258v4.013c-1.256,0.928-2.702,1.392-4.258,1.392
		c-4.068,0-7.234-3.194-7.234-7.18c0-4.04,3.221-7.18,7.261-7.18c1.829,0,3.549,0.655,4.942,1.993l2.539-2.539
		c-2.157-2.048-4.723-3.057-7.48-3.057c-6.005,0-10.865,4.777-10.865,10.783c0,6.006,4.859,10.783,10.892,10.783
		c2.839,0,5.324-1.037,7.507-2.839v-9.719h-7.562V393.426z"/>
	<polygon id="XMLID_150_" class="st0" points="233.19,402.162 246.294,402.162 246.294,398.613 236.739,398.613 236.739,393.426 
		245.202,393.426 245.202,389.877 236.739,389.877 236.739,384.691 246.294,384.691 246.294,381.142 233.19,381.142 	"/>
</g>
</svg>
