<?xml version="1.0" encoding="utf-8"?>
<!-- Generator: Adobe Illustrator 19.0.0, SVG Export Plug-In . SVG Version: 6.00 Build 0)  -->
<svg version="1.1" id="Layer_1" xmlns="http://www.w3.org/2000/svg" xmlns:xlink="http://www.w3.org/1999/xlink" x="0px" y="0px"
	 viewBox="0 0 286.756 467.295" style="enable-background:new 0 0 286.756 467.295;" xml:space="preserve">
<style type="text/css">
	.st0{fill:#FEF9D3;}
	.st1{fill:none;stroke:#FEF9D3;stroke-width:3;stroke-linecap:round;stroke-linejoin:round;stroke-miterlimit:10;}
	.st2{fill:none;stroke:#FEF9D3;stroke-width:2;stroke-linecap:round;stroke-linejoin:round;stroke-miterlimit:10;}
</style>
<g>
	<g>
		<g>
			<g>
				<path class="st0" d="M64.443,463.338c0,0,0.69-2.168,1.897-5.962c0.593-1.899,1.314-4.206,2.2-6.844
					c0.871-2.638,1.853-5.615,2.925-8.862c1.094-3.235,2.28-6.739,3.534-10.446c1.28-3.697,2.63-7.595,4.026-11.627
					c1.413-4.026,2.874-8.186,4.358-12.413c1.512-4.217,3.048-8.5,4.584-12.784c3.038-8.579,6.153-17.129,9.085-25.141
					c2.933-8.011,5.67-15.488,8.016-21.898c4.708-12.815,7.847-21.358,7.847-21.358c0.175-0.475,0.701-0.719,1.176-0.544
					s0.719,0.701,0.544,1.176c-0.002,0.006-0.008,0.021-0.01,0.027c0,0-0.841,2.112-2.312,5.809
					c-1.442,3.708-3.539,8.993-5.95,15.375c-2.41,6.382-5.244,13.82-8.159,21.834c-2.911,8.015-6.005,16.569-9.02,25.15
					c-1.476,4.301-2.953,8.603-4.406,12.837c-1.425,4.243-2.827,8.419-4.185,12.46c-2.685,8.092-5.038,15.692-7.046,22.206
					c-1.015,3.254-1.857,6.257-2.637,8.911c-0.786,2.649-1.424,4.98-1.949,6.901c-1.043,3.842-1.639,6.038-1.639,6.038
					c-0.216,0.8-1.04,1.273-1.84,1.057c-0.8-0.216-1.273-1.04-1.057-1.84C64.43,463.382,64.437,463.357,64.443,463.338z"/>
			</g>
			<g>
				<path class="st0" d="M45.246,456.15c0,0,0.955-2.065,2.625-5.679c0.832-1.809,1.842-4.005,2.942-6.54
					c1.108-2.534,2.393-5.376,3.707-8.521c2.65-6.281,5.733-13.615,8.877-21.54c1.558-3.968,3.168-8.068,4.804-12.235
					c1.608-4.178,3.242-8.422,4.876-12.666c3.206-8.512,6.335-17.053,9.257-25.064c2.918-8.013,5.528-15.533,7.785-21.97
					c2.256-6.438,4.046-11.835,5.325-15.603c1.249-3.777,1.963-5.936,1.963-5.936c0.157-0.481,0.674-0.745,1.155-0.588
					c0.481,0.157,0.745,0.674,0.588,1.155c-0.002,0.006-0.007,0.021-0.009,0.027c0,0-3.087,8.562-7.718,21.405
					c-2.322,6.418-5.032,13.905-7.935,21.927c-2.904,8.022-6.013,16.574-9.201,25.098c-1.577,4.269-3.154,8.537-4.706,12.739
					c-1.58,4.192-3.135,8.317-4.641,12.31c-1.523,3.987-2.994,7.84-4.39,11.495c-1.422,3.646-2.766,7.092-4.007,10.274
					c-1.266,3.176-2.427,6.088-3.456,8.668c-1.017,2.59-1.947,4.821-2.713,6.657c-1.514,3.682-2.379,5.786-2.379,5.786
					c-0.315,0.766-1.192,1.132-1.958,0.817c-0.766-0.315-1.132-1.192-0.817-1.958C45.227,456.192,45.238,456.167,45.246,456.15z"/>
			</g>
			<path class="st1" d="M46.62,456.75c-0.875,2.403,3.456,6.218,7.947,8.131c4.67,1.422,10.44,1.283,11.315-1.12"/>
			<g>
				<path class="st0" d="M60.696,465.482c0,0,0.83-2.884,2.208-7.185c1.366-4.297,3.284-9.987,5.251-15.657
					c3.939-11.339,8.065-22.604,8.065-22.604c0.082-0.226,0.331-0.342,0.556-0.261c0.222,0.08,0.338,0.325,0.264,0.548
					c0,0-3.859,11.357-7.525,22.771c-1.83,5.707-3.61,11.429-4.868,15.737c-1.266,4.298-2.027,7.198-2.027,7.198
					c-0.14,0.534-0.687,0.854-1.221,0.714s-0.854-0.687-0.714-1.221c0.002-0.006,0.003-0.012,0.005-0.018L60.696,465.482z"/>
			</g>
			<g>
				<path class="st0" d="M112.076,325.869l-4.909,11.519c-0.094,0.221-0.35,0.324-0.571,0.23c-0.208-0.089-0.311-0.323-0.243-0.534
					l3.85-11.916c0.17-0.526,0.734-0.815,1.26-0.645c0.526,0.17,0.815,0.734,0.645,1.26
					C112.099,325.812,112.088,325.842,112.076,325.869z"/>
			</g>
			<g>
				<path class="st0" d="M57.089,465.354c0,0,0.163-0.537,0.449-1.478c0.301-0.952,0.733-2.296,1.277-3.892
					c1.081-3.198,2.587-7.43,4.122-11.649c3.069-8.439,6.234-16.836,6.234-16.836c0.084-0.225,0.334-0.339,0.559-0.255
					c0.22,0.082,0.334,0.326,0.259,0.547c0,0-2.898,8.492-5.696,17.013c-1.399,4.26-2.768,8.529-3.742,11.738
					c-0.491,1.605-0.876,2.944-1.137,3.872c-0.255,0.946-0.401,1.487-0.401,1.487l-0.001,0.005
					c-0.144,0.533-0.693,0.849-1.226,0.705c-0.533-0.144-0.849-0.693-0.705-1.226C57.083,465.376,57.087,465.363,57.089,465.354z"/>
			</g>
			<g>
				<path class="st0" d="M109.472,324.99l-6.92,17.165c-0.09,0.223-0.343,0.33-0.566,0.241c-0.214-0.086-0.321-0.325-0.25-0.541
					l5.858-17.555c0.175-0.524,0.742-0.807,1.266-0.632c0.524,0.175,0.807,0.742,0.632,1.266
					C109.487,324.951,109.479,324.972,109.472,324.99z"/>
			</g>
			<g>
				<path class="st0" d="M47.657,460.594l4.899-9.921c0.106-0.215,0.367-0.304,0.583-0.197c0.201,0.099,0.29,0.338,0.214,0.544
					l-3.861,10.372c-0.193,0.518-0.77,0.782-1.288,0.589c-0.518-0.193-0.782-0.77-0.589-1.288c0.012-0.032,0.025-0.063,0.04-0.093
					L47.657,460.594z"/>
			</g>
			<g>
				<path class="st0" d="M101.783,322.01l-16.738,45.13c-0.083,0.225-0.333,0.34-0.558,0.257c-0.222-0.082-0.336-0.327-0.26-0.549
					L99.9,321.338c0.179-0.522,0.748-0.8,1.271-0.621s0.8,0.748,0.621,1.271C101.789,321.993,101.785,322.005,101.783,322.01z"/>
			</g>
			<g>
				<path class="st0" d="M50.501,462.793c0,0,0.127-0.256,0.348-0.705c0.213-0.447,0.516-1.085,0.881-1.851
					c0.721-1.544,1.65-3.626,2.558-5.72c1.816-4.188,3.563-8.413,3.563-8.413c0.092-0.222,0.346-0.327,0.568-0.236
					c0.213,0.088,0.318,0.329,0.245,0.544c0,0-1.483,4.327-3.043,8.634c-0.78,2.154-1.583,4.302-2.215,5.908
					c-0.323,0.804-0.593,1.474-0.782,1.943c-0.193,0.461-0.304,0.725-0.304,0.725c-0.214,0.51-0.8,0.749-1.31,0.536
					c-0.51-0.214-0.749-0.8-0.536-1.31C50.483,462.832,50.493,462.811,50.501,462.793z"/>
			</g>
			<g>
				<path class="st0" d="M104.326,323.062l-12.418,32.78c-0.085,0.224-0.336,0.337-0.56,0.253c-0.22-0.083-0.332-0.326-0.257-0.547
					l11.353-33.163c0.179-0.523,0.747-0.801,1.27-0.623c0.523,0.179,0.801,0.747,0.623,1.27
					C104.334,323.04,104.329,323.053,104.326,323.062z"/>
			</g>
			<g>
				<path class="st0" d="M53.628,464.539l9.28-23.844c0.087-0.224,0.339-0.334,0.563-0.247c0.217,0.085,0.328,0.326,0.254,0.544
					l-8.217,24.23c-0.177,0.523-0.745,0.803-1.269,0.626c-0.523-0.177-0.803-0.745-0.626-1.268
					C53.617,464.568,53.623,464.552,53.628,464.539z"/>
			</g>
			<g>
				<path class="st0" d="M106.889,324.055l-8.941,22.912c-0.087,0.224-0.339,0.334-0.563,0.247
					c-0.217-0.085-0.327-0.326-0.254-0.544l7.878-23.299c0.177-0.523,0.745-0.804,1.268-0.627c0.523,0.177,0.804,0.745,0.627,1.268
					C106.9,324.025,106.894,324.042,106.889,324.055z"/>
			</g>
		</g>
		<g>
			<g>
				<path class="st0" d="M236.296,61.107c-0.019,0.016,0.166-0.477,0.114-0.996c-0.028-0.631-0.345-1.597-1.122-2.71
					c-0.766-1.112-1.953-2.346-3.475-3.593c-1.521-1.249-3.37-2.524-5.46-3.806c-4.184-2.567-9.423-5.008-15.195-7.167
					c-2.881-1.079-5.93-2.053-9.032-2.923c-3.112-0.859-6.314-1.585-9.535-2.064c-3.208-0.488-6.474-0.787-9.544-0.517
					c-1.516,0.142-3.025,0.423-4.16,1.004c-0.564,0.288-0.994,0.647-1.231,1.026c-0.063,0.096-0.092,0.198-0.152,0.296l-0.208,0.554
					l-0.413,1.101c-2.193,5.85-4.33,11.277-6.115,15.946c-1.788,4.668-3.378,8.521-4.444,11.236
					c-1.102,2.702-1.731,4.245-1.731,4.245c-0.121,0.296-0.459,0.438-0.755,0.318c-0.282-0.115-0.423-0.428-0.333-0.714
					c0,0,0.51-1.587,1.403-4.365c0.928-2.765,2.187-6.739,3.818-11.464c1.633-4.724,3.484-10.255,5.565-16.146l0.391-1.109
					l0.197-0.558c0.113-0.256,0.219-0.531,0.365-0.771c0.585-0.987,1.455-1.654,2.304-2.114c1.728-0.913,3.492-1.213,5.224-1.395
					c3.472-0.326,6.897-0.019,10.271,0.463c3.37,0.515,6.674,1.287,9.88,2.187c3.214,0.899,6.289,1.988,9.244,3.139
					c5.895,2.312,11.148,5.088,15.404,7.877c2.133,1.389,3.987,2.836,5.521,4.262c1.537,1.42,2.756,2.829,3.569,4.17
					c0.833,1.326,1.166,2.643,1.137,3.575c-0.054,1.05-0.283,1.334-0.254,1.356c-0.094,0.344-0.449,0.546-0.793,0.452
					C236.404,61.806,236.202,61.451,236.296,61.107z"/>
			</g>
			<g>
				<path class="st0" d="M133.033,173.319c0,0-0.022-0.036-0.064-0.107c-0.046-0.084-0.144-0.247-0.214-0.395
					c-0.16-0.318-0.38-0.778-0.598-1.384c-0.452-1.208-0.941-3.017-1.093-5.338c-0.164-2.315,0.005-5.13,0.715-8.215
					c0.2-0.763,0.404-1.553,0.636-2.356c0.133-0.396,0.267-0.797,0.404-1.204l0.207-0.614l0.104-0.31l0.148-0.356
					c0.684-1.563,1.294-3.203,2.297-4.927c0.877-1.769,2.007-3.388,3.116-5.125c1.228-1.641,2.436-3.393,3.872-5.02
					c2.76-3.356,5.974-6.603,9.43-9.789c3.441-3.208,7.186-6.29,11.053-9.327c3.861-3.048,7.903-5.973,11.962-8.865
					c8.138-5.756,16.449-11.23,24.189-16.415c3.863-2.601,7.601-5.109,11.085-7.564c3.492-2.445,6.752-4.81,9.674-7.097
					c2.952-2.253,5.506-4.488,7.728-6.508c2.149-2.085,3.972-3.963,5.246-5.671c0.325-0.422,0.633-0.822,0.922-1.198
					c0.272-0.386,0.488-0.771,0.71-1.116c0.432-0.698,0.828-1.28,1.026-1.804c0.468-1.018,0.718-1.562,0.718-1.562l0.041-0.089
					c0.15-0.326,0.535-0.469,0.861-0.319c0.323,0.149,0.466,0.53,0.322,0.854c0,0-0.262,0.589-0.754,1.695
					c-0.215,0.573-0.621,1.189-1.071,1.932c-0.23,0.367-0.457,0.779-0.739,1.186c-0.297,0.395-0.612,0.815-0.946,1.258
					c-1.312,1.795-3.159,3.739-5.333,5.893c-2.238,2.08-4.809,4.377-7.762,6.681c-2.926,2.341-6.182,4.756-9.663,7.249
					c-3.475,2.504-7.192,5.058-11.033,7.703c-7.692,5.273-15.933,10.828-23.969,16.641c-4.007,2.92-7.991,5.869-11.781,8.927
					c-3.796,3.047-7.463,6.131-10.807,9.317c-3.361,3.165-6.467,6.372-9.1,9.646c-1.379,1.592-2.513,3.284-3.677,4.87
					c-1.034,1.662-2.113,3.247-2.875,4.836c-0.878,1.506-1.51,3.228-2.169,4.786l-0.095,0.23l-0.093,0.289l-0.185,0.573
					c-0.123,0.379-0.244,0.753-0.364,1.121c-0.206,0.744-0.385,1.472-0.563,2.174c-0.619,2.831-0.733,5.345-0.57,7.364
					c0.154,2.025,0.592,3.547,0.965,4.512c0.18,0.489,0.354,0.834,0.465,1.053c0.06,0.124,0.086,0.153,0.111,0.205
					c0.036,0.06,0.055,0.09,0.055,0.09l0.024,0.039c0.431,0.708,0.206,1.63-0.501,2.061c-0.708,0.431-1.63,0.206-2.061-0.501
					L133.033,173.319z"/>
			</g>
			<g>
				<path class="st0" d="M162.783,91.819c0.032,0.047-0.232-0.324-0.494-0.827c-0.269-0.518-0.597-1.277-0.901-2.261
					c-0.303-0.983-0.537-2.194-0.675-3.581c-0.135-1.389-0.096-2.947,0.053-4.623c0.222-1.661,0.506-3.457,1.064-5.269
					c0.523-1.82,1.17-3.702,2.098-5.572c0.938-1.903,2.072-3.69,3.365-5.422c1.287-1.729,2.728-3.362,4.234-4.916
					c3.018-3.105,6.3-5.891,9.438-8.384c3.136-2.498,6.126-4.724,8.613-6.698c2.491-1.965,4.473-3.702,5.631-5.058
					c0.598-0.669,0.954-1.241,1.188-1.63c0.187-0.397,0.287-0.608,0.287-0.608l0.043-0.092c0.153-0.324,0.539-0.463,0.864-0.311
					c0.319,0.15,0.458,0.527,0.318,0.848c0,0-0.12,0.273-0.344,0.785c-0.265,0.474-0.674,1.157-1.302,1.894
					c-1.229,1.51-3.226,3.338-5.694,5.389c-2.464,2.058-5.394,4.355-8.438,6.906c-3.046,2.546-6.197,5.363-9.039,8.437
					c-1.418,1.537-2.759,3.137-3.933,4.801c-1.174,1.653-2.207,3.393-2.992,5.089c-0.808,1.724-1.377,3.523-1.82,5.225
					c-0.481,1.7-0.69,3.342-0.857,4.845c-0.094,1.506-0.095,2.883,0.053,4.075c0.151,1.189,0.372,2.202,0.639,2.993
					c0.267,0.789,0.537,1.37,0.737,1.733c0.215,0.374,0.268,0.433,0.3,0.479c0.484,0.672,0.332,1.61-0.34,2.094
					S163.267,92.491,162.783,91.819z"/>
			</g>
			<g>
				<path class="st0" d="M155.077,288.023c0,0-0.457,1.437-1.258,3.952c-0.836,2.502-1.962,6.101-3.437,10.375
					c-1.476,4.274-3.141,9.28-5.028,14.607c-0.47,1.332-0.948,2.687-1.432,4.058l-0.182,0.515l-0.023,0.064l-0.068,0.174
					l-0.056,0.125l-0.112,0.25c-0.021,0.063-0.11,0.212-0.189,0.34l-0.25,0.384c-0.172,0.237-0.337,0.395-0.512,0.592
					c-0.72,0.705-1.538,1.144-2.338,1.477c-1.615,0.663-3.221,0.887-4.809,1.039c-1.587,0.126-3.158,0.116-4.714,0.032
					c-6.217-0.41-12.2-1.855-17.652-3.605c-5.451-1.755-10.348-3.914-14.429-5.986c-2.042-1.032-3.857-2.092-5.431-3.086
					c-1.573-0.995-2.913-1.913-3.983-2.72c-1.077-0.795-1.874-1.488-2.417-1.958c-0.534-0.482-0.818-0.739-0.818-0.739
					c-0.237-0.214-0.256-0.58-0.041-0.818c0.202-0.224,0.539-0.253,0.775-0.076l0.019,0.014c0,0,0.296,0.223,0.852,0.641
					c0.56,0.412,1.403,0.989,2.491,1.698c2.173,1.428,5.448,3.214,9.502,5.088c4.05,1.878,8.951,3.708,14.294,5.305
					c2.671,0.797,5.465,1.489,8.318,2.076c2.853,0.573,5.78,1.019,8.689,1.171c2.87,0.159,5.888,0.1,8.232-0.806
					c0.567-0.228,1.067-0.517,1.401-0.844c0.066-0.08,0.172-0.174,0.215-0.234c0.016-0.026,0.034-0.05,0.056-0.072
					c0.022-0.024,0.044-0.022,0.089-0.131l0.117-0.248l0.058-0.124c-0.086,0.209-0.017,0.04-0.033,0.078l0.012-0.032l0.024-0.064
					l0.192-0.511c0.511-1.361,1.015-2.706,1.511-4.029c1.979-5.293,3.921-10.199,5.538-14.422c1.618-4.222,3.069-7.703,4.037-10.157
					c1.003-2.441,1.577-3.836,1.577-3.836c0.136-0.33,0.513-0.488,0.843-0.352C155.02,287.358,155.177,287.706,155.077,288.023z"/>
			</g>
			<g>
				<path class="st0" d="M115.541,201.421c0,0,0.933-2.52,2.565-6.93c0.408-1.103,0.86-2.323,1.352-3.652
					c0.306-0.743,0.509-1.342,0.875-2.11c0.172-0.37,0.348-0.747,0.527-1.13c0.192-0.364,0.387-0.735,0.586-1.111
					c1.613-2.996,3.825-6.107,6.517-9.207c5.379-6.222,12.615-12.424,20.684-18.525c8.074-6.108,17-12.137,25.913-18.142
					c8.91-6.008,17.83-11.99,25.819-18.068c3.985-3.047,7.747-6.108,11.08-9.247c3.328-3.135,6.267-6.331,8.445-9.623
					c1.085-1.644,1.975-3.309,2.603-4.965c0.283-0.807,0.59-1.706,0.83-2.511c0.193-0.818,0.453-1.589,0.568-2.381
					c0.342-1.561,0.413-3.047,0.433-4.41c-0.059-1.359-0.188-2.607-0.496-3.686c-0.567-2.174-1.544-3.679-2.284-4.596
					c-0.379-0.458-0.698-0.782-0.918-0.993c-0.225-0.205-0.341-0.311-0.341-0.311l-0.028-0.026c-0.266-0.242-0.285-0.654-0.043-0.92
					c0.241-0.264,0.65-0.285,0.916-0.046c0,0,0.133,0.119,0.391,0.35c0.251,0.237,0.614,0.599,1.042,1.109
					c0.838,1.019,1.938,2.694,2.581,5.08c0.346,1.186,0.5,2.541,0.573,4.009c-0.006,1.466-0.076,3.059-0.421,4.706
					c-0.116,0.832-0.385,1.674-0.59,2.55c-0.252,0.863-0.518,1.661-0.834,2.589c-0.657,1.788-1.584,3.558-2.701,5.288
					c-2.243,3.463-5.226,6.764-8.582,9.991c-3.361,3.229-7.134,6.361-11.121,9.474c-7.991,6.208-16.876,12.295-25.725,18.393
					c-8.851,6.093-17.686,12.194-25.626,18.327c-7.934,6.123-14.985,12.31-20.101,18.354c-2.562,3.01-4.622,5.984-6.085,8.771
					c-0.18,0.349-0.357,0.693-0.531,1.031c-0.153,0.336-0.303,0.667-0.45,0.991c-0.295,0.612-0.57,1.413-0.8,1.98
					c-0.477,1.334-0.916,2.56-1.312,3.666c-1.584,4.427-2.49,6.957-2.49,6.957c-0.279,0.78-1.138,1.186-1.918,0.907
					s-1.186-1.138-0.907-1.918L115.541,201.421z"/>
			</g>
			<g>
				<path class="st0" d="M133.042,153.339l17.769-48.044l2.321,0.845l-2.466,6.669l-0.617,1.667l-0.308,0.834l-0.154,0.417
					l-0.077,0.208l-0.039,0.104c0.476,0.192-4.199-1.532-2.214-0.817l0.01-0.026l0.019-0.052l1.233-3.334l2.485-6.699l0.334-0.823
					l0.411-0.87c0.283-0.576,0.578-1.11,0.897-1.645c0.625-1.072,1.35-2.064,2.089-3.039c3.025-3.848,6.656-7.047,10.394-10.024
					c3.753-2.969,7.672-5.682,11.629-8.317c7.915-5.266,16.047-10.147,23.817-15.513c3.871-2.693,7.675-5.501,11.058-8.727
					c1.678-1.617,3.255-3.348,4.487-5.277c1.226-1.91,2.116-4.089,1.969-6.288c-0.024-0.365,0.252-0.68,0.617-0.705
					s0.68,0.252,0.705,0.617l0,0.001l0.001,0.013c0.137,2.092-0.478,4.146-1.411,5.921c-0.927,1.797-2.147,3.383-3.453,4.858
					c-2.63,2.946-5.64,5.453-8.711,7.835c-6.177,4.73-12.691,8.916-19.129,13.169c-6.438,4.246-12.872,8.492-18.875,13.221
					c-2.993,2.367-5.874,4.868-8.438,7.611c-2.55,2.734-4.804,5.771-6.011,9.102l-0.009,0.024c-0.282,0.779-1.142,1.182-1.921,0.9
					s-1.182-1.142-0.9-1.921c0.003-0.007,0.008-0.021,0.011-0.028c1.514-3.93,4.065-7.15,6.803-9.998
					c2.762-2.849,5.778-5.367,8.879-7.732c6.216-4.717,12.763-8.867,19.283-13.004c6.517-4.138,13.078-8.194,19.246-12.746
					c3.064-2.289,6.055-4.699,8.621-7.474c1.275-1.387,2.45-2.869,3.323-4.492c0.894-1.611,1.414-3.391,1.37-5.171l1.322-0.074
					c0.124,2.583-0.833,5.033-2.136,7.088c-1.302,2.084-2.928,3.896-4.64,5.582c-1.716,1.688-3.549,3.231-5.416,4.72
					c-1.87,1.486-3.793,2.895-5.734,4.273c-7.777,5.49-15.863,10.457-23.679,15.775c-3.905,2.659-7.759,5.388-11.412,8.34
					c-3.637,2.955-7.133,6.119-9.937,9.767c-1.391,1.847-2.567,3.743-3.366,5.885l-2.391,6.659l-1.199,3.347l-0.019,0.052
					l-0.009,0.026c1.98,0.728-2.709-0.957-2.221-0.798l0.037-0.105l0.075-0.209l0.15-0.418l0.3-0.837l0.599-1.673l2.397-6.694
					l2.321,0.845l-17.27,48.226c-0.279,0.78-1.138,1.186-1.918,0.906s-1.186-1.138-0.906-1.918L133.042,153.339z"/>
			</g>
			<g>
				<path class="st0" d="M155.732,268.515c-0.032-0.047,0.232,0.324,0.494,0.827c0.269,0.517,0.598,1.277,0.902,2.261
					c0.304,0.983,0.537,2.194,0.676,3.582c0.135,1.389,0.097,2.948-0.052,4.624c-0.221,1.661-0.505,3.457-1.063,5.27
					c-0.523,1.821-1.169,3.703-2.097,5.573c-0.938,1.904-2.071,3.691-3.364,5.424c-1.287,1.729-2.728,3.363-4.234,4.918
					c-3.017,3.107-6.299,5.893-9.437,8.388c-3.136,2.499-6.125,4.726-8.611,6.7c-2.49,1.966-4.471,3.703-5.627,5.058
					c-0.597,0.668-0.951,1.24-1.185,1.627c-0.186,0.395-0.285,0.606-0.285,0.606l-0.044,0.094c-0.157,0.334-0.555,0.477-0.889,0.32
					c-0.328-0.154-0.472-0.543-0.327-0.873c0,0,0.12-0.274,0.346-0.787c0.266-0.475,0.676-1.159,1.305-1.897
					c1.231-1.511,3.229-3.339,5.697-5.389c2.465-2.057,5.396-4.354,8.44-6.904c3.046-2.545,6.198-5.361,9.04-8.434
					c1.418-1.536,2.759-3.136,3.934-4.799c1.174-1.652,2.208-3.391,2.993-5.087c0.808-1.723,1.378-3.522,1.821-5.224
					c0.481-1.7,0.691-3.341,0.859-4.844c0.094-1.505,0.096-2.882-0.051-4.075c-0.15-1.189-0.371-2.202-0.638-2.993
					c-0.267-0.789-0.536-1.37-0.736-1.733c-0.215-0.374-0.267-0.433-0.299-0.48c-0.484-0.672-0.332-1.61,0.34-2.094
					C154.31,267.691,155.247,267.843,155.732,268.515z"/>
			</g>
			<g>
				<path class="st0" d="M209.495,132.237l13.148-33.644c0.131-0.335,0.509-0.501,0.844-0.37c0.325,0.127,0.49,0.488,0.38,0.816
					l-11.554,34.224c-0.265,0.785-1.116,1.207-1.902,0.942s-1.207-1.116-0.942-1.901
					C209.478,132.283,209.487,132.257,209.495,132.237z"/>
			</g>
			<g>
				<path class="st0" d="M196.905,177.187c0,0-3.875,10.281-9.688,25.702c-2.877,7.721-6.234,16.729-9.83,26.381
					c-1.787,4.83-3.634,9.82-5.511,14.891c-0.938,2.536-1.884,5.091-2.834,7.657c-0.491,1.297-0.915,2.537-1.462,3.886
					c-0.236,0.601-0.613,1.375-0.947,1.987c-0.34,0.645-0.725,1.258-1.111,1.867c-3.215,4.796-7.454,8.543-11.717,11.945
					c-4.291,3.392-8.725,6.391-13.043,9.224c-8.654,5.636-16.888,10.584-23.619,15.279c-6.735,4.654-11.937,9.196-14.517,13.092
					c-1.297,1.935-1.893,3.65-2.085,4.83c-0.095,0.59-0.133,1.048-0.122,1.354c0,0.307-0.001,0.466-0.001,0.466l0,0.067
					c0,0.359-0.292,0.65-0.651,0.65c-0.357,0-0.646-0.288-0.65-0.644c0,0-0.002-0.185-0.006-0.543
					c-0.014-0.358,0.024-0.89,0.129-1.569c0.209-1.36,0.876-3.287,2.247-5.363c1.363-2.079,3.371-4.303,5.879-6.578
					c2.506-2.283,5.522-4.607,8.872-7.037c6.704-4.857,14.87-9.967,23.374-15.727c4.24-2.892,8.577-5.944,12.712-9.336
					c4.108-3.389,8.128-7.127,10.964-11.544c0.338-0.557,0.675-1.114,0.964-1.69c0.16-0.287,0.284-0.567,0.411-0.845
					c0.13-0.267,0.259-0.562,0.381-0.896c0.465-1.201,0.926-2.557,1.388-3.824c0.923-2.575,1.842-5.141,2.754-7.686
					c1.824-5.09,3.62-10.1,5.357-14.948c3.453-9.704,6.676-18.76,9.439-26.523c5.467-15.547,9.111-25.912,9.111-25.912
					c0.372-1.057,1.53-1.613,2.587-1.241c1.057,0.372,1.613,1.53,1.241,2.587C196.917,177.156,196.909,177.176,196.905,177.187z"/>
			</g>
			<g>
				<g>
					<path class="st0" d="M223.845,82.805c0,0-0.357,0.317-1.027,0.912c-0.167,0.149-0.354,0.315-0.56,0.497
						c-0.219,0.185-0.457,0.388-0.715,0.606c-0.495,0.42-1.065,0.903-1.702,1.444c-1.316,1.081-2.918,2.373-4.776,3.793
						c-1.867,1.415-3.992,2.98-6.315,4.672c-4.648,3.382-10.192,7.132-16.094,11.187c-5.911,4.043-12.187,8.387-18.364,12.861
						c-3.078,2.252-6.118,4.551-9.08,6.851c-2.953,2.311-5.79,4.669-8.484,7.005c-2.678,2.352-5.208,4.693-7.477,7.031
						c-2.281,2.326-4.354,4.6-6.128,6.803c-1.822,2.167-3.272,4.311-4.504,6.228c-0.611,0.962-1.112,1.901-1.613,2.745
						c-0.459,0.866-0.842,1.679-1.209,2.401c-0.71,1.456-1.126,2.658-1.418,3.47c-0.271,0.82-0.415,1.257-0.415,1.257l-0.015,0.045
						c-0.26,0.787-1.109,1.215-1.897,0.955s-1.215-1.109-0.955-1.897c0.01-0.031,0.023-0.065,0.035-0.095
						c0,0,0.186-0.458,0.536-1.317c0.364-0.852,0.92-2.094,1.741-3.609c0.426-0.748,0.877-1.588,1.406-2.475
						c0.569-0.861,1.146-1.818,1.831-2.787c0.712-0.949,1.407-2.008,2.262-3.022c0.412-0.519,0.835-1.051,1.268-1.595
						c0.451-0.527,0.913-1.067,1.385-1.618c1.888-2.202,4.071-4.453,6.456-6.74c2.374-2.302,5.013-4.571,7.735-6.917
						c2.745-2.321,5.661-4.616,8.63-6.935c2.987-2.296,6.051-4.587,9.148-6.828c3.087-2.255,6.191-4.486,9.264-6.655
						c3.066-2.176,6.083-4.318,9.003-6.39c5.84-4.139,11.204-8.115,15.73-11.593c2.267-1.734,4.288-3.392,6.056-4.882
						c1.768-1.497,3.259-2.83,4.473-3.932c0.605-0.576,1.145-1.09,1.614-1.538c0.223-0.217,0.43-0.417,0.62-0.6
						c0.193-0.196,0.368-0.374,0.525-0.534c0.628-0.638,0.963-0.979,0.963-0.979c0.581-0.591,1.532-0.599,2.122-0.017
						c0.591,0.581,0.599,1.532,0.017,2.122C223.896,82.759,223.869,82.784,223.845,82.805z"/>
				</g>
				<g>
					<path class="st0" d="M225.258,85.249c0,0-0.32,0.357-0.92,1.028c-0.3,0.335-0.67,0.748-1.105,1.234
						c-0.109,0.122-0.222,0.247-0.339,0.378l-0.088,0.099l-0.095,0.103l-0.048,0.048l-0.194,0.196
						c-0.262,0.267-0.54,0.55-0.834,0.85c-0.573,0.602-1.256,1.26-2.02,1.97c-0.748,0.725-1.578,1.46-2.467,2.238
						c-1.774,1.565-3.84,3.24-6.095,5.056c-4.533,3.602-10.007,7.525-15.887,11.681c-2.944,2.069-5.986,4.208-9.078,6.381
						c-3.08,2.184-6.208,4.402-9.337,6.62c-3.109,2.243-6.189,4.523-9.2,6.793c-3.012,2.269-5.905,4.59-8.682,6.859
						c-2.758,2.29-5.378,4.559-7.762,6.811c-1.212,1.105-2.331,2.24-3.44,3.309c-1.063,1.113-2.135,2.146-3.081,3.211
						c-0.965,1.049-1.89,2.052-2.704,3.06c-0.845,0.983-1.59,1.957-2.285,2.874c-1.389,1.833-2.513,3.488-3.357,4.891
						c-0.216,0.348-0.42,0.677-0.612,0.987c-0.132,0.224-0.323,0.613-0.465,0.878c-0.301,0.579-0.557,1.071-0.765,1.47
						c-0.415,0.798-0.637,1.224-0.637,1.224c-0.382,0.735-1.289,1.021-2.024,0.639s-1.021-1.289-0.639-2.024
						c0.015-0.029,0.033-0.061,0.05-0.088c0,0,0.25-0.41,0.717-1.178c0.234-0.384,0.522-0.858,0.862-1.415
						c0.186-0.298,0.316-0.534,0.582-0.942c0.218-0.315,0.449-0.65,0.694-1.004c0.96-1.428,2.216-3.091,3.744-4.91
						c0.764-0.91,1.581-1.873,2.496-2.836c0.887-0.99,1.848-1.998,2.868-3.033c0.999-1.057,2.118-2.073,3.233-3.17
						c1.157-1.049,2.327-2.164,3.585-3.243c2.479-2.204,5.199-4.394,7.997-6.672c5.653-4.486,11.824-9.07,18.071-13.538
						c6.22-4.504,12.506-8.908,18.294-13.169c5.808-4.233,11.084-8.369,15.47-12.045c2.185-1.846,4.133-3.599,5.784-5.216
						c0.831-0.805,1.604-1.561,2.274-2.279c0.685-0.703,1.309-1.365,1.863-2.008c0.279-0.314,0.542-0.611,0.791-0.891l0.182-0.207
						l0.044-0.051l0.022-0.025c0.047-0.053-0.052,0.059-0.038,0.042l0.01-0.013l0.082-0.104c0.108-0.138,0.212-0.271,0.312-0.4
						c0.402-0.514,0.743-0.951,1.02-1.306c0.554-0.709,0.85-1.087,0.85-1.087c0.51-0.653,1.454-0.769,2.107-0.259
						c0.653,0.51,0.769,1.454,0.259,2.107C225.303,85.197,225.279,85.225,225.258,85.249z"/>
				</g>
				<g>
					<path class="st0" d="M226.122,87.603c0,0-0.061,0.105-0.18,0.308c-0.126,0.208-0.314,0.516-0.558,0.919
						c-0.505,0.802-1.237,1.924-2.339,3.337c-0.545,0.656-1.066,1.388-1.785,2.174c-0.702,0.784-1.448,1.654-2.294,2.484
						c-1.648,1.731-3.641,3.519-5.807,5.465c-2.204,1.9-4.629,3.905-7.261,5.93c-2.631,2.025-5.441,4.107-8.361,6.235
						c-2.917,2.133-5.971,4.277-9.058,6.474c-3.094,2.185-6.236,4.405-9.379,6.625c-3.131,2.234-6.251,4.48-9.303,6.716
						c-3.061,2.224-6.006,4.499-8.852,6.701c-2.83,2.221-5.525,4.42-8.009,6.582c-2.497,2.147-4.793,4.244-6.854,6.233
						c-2.06,1.989-3.88,3.88-5.399,5.627c-0.771,0.865-1.484,1.679-2.103,2.463c-0.627,0.777-1.226,1.474-1.705,2.146
						c-0.491,0.663-0.929,1.255-1.311,1.771c-0.356,0.533-0.658,0.985-0.903,1.353c-0.499,0.752-0.765,1.153-0.765,1.153
						c-0.458,0.691-1.39,0.879-2.08,0.421c-0.691-0.458-0.879-1.39-0.421-2.08c0.018-0.027,0.039-0.056,0.058-0.082
						c0,0,0.292-0.382,0.84-1.099c0.281-0.365,0.627-0.815,1.035-1.344c0.427-0.513,0.917-1.102,1.466-1.762
						c0.533-0.673,1.186-1.361,1.872-2.129c0.679-0.776,1.452-1.575,2.285-2.421c0.817-0.862,1.728-1.734,2.689-2.651
						c0.946-0.933,1.981-1.865,3.048-2.854c2.153-1.954,4.539-4.003,7.122-6.09c2.57-2.104,5.358-4.217,8.223-6.421
						c5.778-4.346,12.032-8.845,18.32-13.283c6.262-4.475,12.552-8.903,18.295-13.25c5.763-4.317,10.938-8.602,15.147-12.477
						c2.08-1.96,3.938-3.808,5.436-5.556c1.535-1.716,2.694-3.257,3.689-4.664c0.915-1.282,1.542-2.438,1.952-3.188
						c0.199-0.383,0.351-0.676,0.454-0.874c0.103-0.207,0.156-0.313,0.156-0.313c0.368-0.743,1.269-1.046,2.011-0.678
						s1.046,1.269,0.678,2.011C226.157,87.541,226.138,87.575,226.122,87.603z"/>
				</g>
				<g>
					<path class="st0" d="M226.476,89.496c0,0-0.035,0.116-0.103,0.34c-0.075,0.241-0.187,0.6-0.346,1.047
						c-0.315,0.903-0.836,2.208-1.652,3.787c-0.105,0.195-0.213,0.396-0.323,0.602l-0.199,0.352l-0.184,0.294
						c-0.248,0.396-0.507,0.811-0.777,1.243c-0.537,0.859-1.28,1.82-2.004,2.791c-1.52,1.883-3.342,3.889-5.433,5.95
						c-2.111,2.038-4.46,4.168-7.052,6.278c-2.587,2.115-5.364,4.274-8.273,6.449c-5.824,4.346-12.156,8.794-18.5,13.211
						c-3.159,2.226-6.318,4.451-9.427,6.642c-3.111,2.187-6.12,4.409-9.035,6.552c-5.81,4.312-11.068,8.545-15.423,12.323
						c-2.174,1.893-4.105,3.693-5.767,5.333c-1.668,1.635-3.058,3.113-4.194,4.336c-1.111,1.237-1.961,2.251-2.523,2.915
						c-0.57,0.704-0.875,1.08-0.875,1.08c-0.522,0.644-1.467,0.743-2.111,0.222c-0.644-0.522-0.743-1.467-0.222-2.111
						c0.02-0.025,0.044-0.052,0.065-0.076c0,0,0.329-0.355,0.944-1.019c0.645-0.66,1.591-1.627,2.795-2.859
						c1.227-1.197,2.725-2.638,4.503-4.216c1.777-1.58,3.826-3.302,6.068-5.165c2.263-1.836,4.738-3.792,7.407-5.788
						c2.655-2.014,5.516-4.049,8.449-6.186c5.907-4.217,12.26-8.63,18.604-13.043c3.161-2.223,6.315-4.452,9.397-6.675
						c3.092-2.21,6.073-4.465,8.936-6.67c2.874-2.192,5.551-4.433,8.044-6.597c2.498-2.162,4.739-4.325,6.738-6.373
						c1.991-2.057,3.645-4.081,4.992-5.937c0.632-0.951,1.215-1.76,1.716-2.653c0.248-0.445,0.487-0.872,0.714-1.28l0.169-0.302
						l0.12-0.243c0.091-0.191,0.179-0.378,0.265-0.559c0.676-1.459,1.041-2.668,1.275-3.49c0.117-0.416,0.191-0.727,0.242-0.936
						c0.053-0.228,0.08-0.346,0.08-0.346c0.188-0.807,0.994-1.31,1.801-1.122c0.807,0.188,1.31,0.994,1.122,1.802
						C226.494,89.431,226.485,89.466,226.476,89.496z"/>
				</g>
			</g>
			<g>
				<g>
					<path class="st0" d="M156.915,284.667c0,0-0.108,0.186-0.311,0.535c-0.218,0.354-0.46,0.847-0.929,1.528
						c-0.223,0.335-0.469,0.705-0.737,1.109c-0.281,0.378-0.585,0.787-0.909,1.223c-0.666,0.857-1.438,1.804-2.332,2.781
						c-1.777,1.966-3.992,4.096-6.48,6.21c-2.488,2.116-5.232,4.237-8.007,6.293c-5.546,4.108-11.24,7.981-15.014,11.375
						c-1.896,1.68-3.27,3.266-3.928,4.483c-0.177,0.3-0.315,0.572-0.395,0.817c-0.096,0.242-0.187,0.447-0.207,0.617
						c-0.075,0.337-0.115,0.518-0.115,0.518l-0.028,0.128c-0.082,0.37-0.448,0.603-0.818,0.52c-0.361-0.08-0.591-0.433-0.525-0.793
						c0,0,0.045-0.242,0.128-0.695c0.029-0.234,0.129-0.49,0.24-0.795c0.098-0.315,0.253-0.646,0.448-1.002
						c0.743-1.458,2.188-3.19,4.101-4.986c3.816-3.623,9.422-7.659,14.813-11.892c2.696-2.115,5.34-4.28,7.708-6.411
						c2.37-2.129,4.443-4.242,6.074-6.151c0.822-0.951,1.52-1.858,2.118-2.673c0.29-0.413,0.56-0.799,0.811-1.156
						c0.224-0.358,0.43-0.687,0.616-0.984c0.377-0.565,0.649-1.143,0.845-1.48c0.193-0.354,0.296-0.543,0.296-0.543
						c0.383-0.706,1.267-0.969,1.973-0.585c0.706,0.383,0.969,1.267,0.585,1.973C156.93,284.64,156.921,284.657,156.915,284.667z"/>
				</g>
				<g>
					<path class="st0" d="M157.491,280.923c0,0-0.143,0.189-0.41,0.544c-0.28,0.357-0.626,0.871-1.209,1.546
						c-0.281,0.334-0.591,0.703-0.93,1.106c-0.347,0.379-0.723,0.789-1.124,1.227c-0.817,0.858-1.756,1.808-2.82,2.791
						c-2.12,1.977-4.705,4.13-7.559,6.298c-2.853,2.169-5.963,4.37-9.081,6.538c-6.224,4.332-12.532,8.561-16.565,12.426
						c-1.023,0.95-1.85,1.904-2.545,2.77c-0.646,0.889-1.174,1.693-1.442,2.401c-0.074,0.175-0.144,0.341-0.21,0.496
						c-0.042,0.16-0.081,0.31-0.117,0.449c-0.083,0.278-0.14,0.516-0.139,0.71c-0.036,0.388-0.055,0.595-0.055,0.595l-0.012,0.129
						c-0.034,0.368-0.36,0.639-0.728,0.606c-0.361-0.033-0.628-0.347-0.607-0.706c0,0,0.016-0.266,0.045-0.765
						c0-0.254,0.059-0.551,0.15-0.895c0.042-0.173,0.087-0.359,0.135-0.558c0.065-0.19,0.149-0.385,0.23-0.594
						c0.306-0.854,0.872-1.763,1.559-2.756c0.726-0.955,1.59-1.995,2.627-3.008c4.107-4.126,10.352-8.523,16.457-13.002
						c3.056-2.237,6.085-4.496,8.84-6.699c2.756-2.202,5.223-4.364,7.217-6.317c1.002-0.972,1.874-1.901,2.63-2.734
						c0.369-0.423,0.715-0.819,1.034-1.185c0.296-0.37,0.569-0.711,0.814-1.018c0.493-0.59,0.867-1.167,1.127-1.516
						c0.259-0.361,0.397-0.554,0.397-0.554c0.455-0.638,1.342-0.786,1.98-0.331c0.638,0.455,0.786,1.342,0.331,1.98
						C157.508,280.901,157.497,280.915,157.491,280.923z"/>
				</g>
				<g>
					<path class="st0" d="M157.497,277.229c0,0-0.175,0.189-0.502,0.542c-0.339,0.353-0.778,0.872-1.458,1.531
						c-0.656,0.673-1.467,1.449-2.408,2.304c-0.947,0.854-2.028,1.801-3.238,2.786c-4.813,3.992-11.653,8.641-18.496,13.188
						c-6.815,4.564-13.659,9.15-17.91,13.456c-1.077,1.059-1.939,2.123-2.637,3.097c-0.314,0.504-0.651,0.96-0.856,1.422
						c-0.116,0.226-0.227,0.444-0.333,0.651c-0.077,0.215-0.151,0.421-0.221,0.616c-0.165,0.386-0.225,0.744-0.284,1.055
						c-0.032,0.155-0.062,0.299-0.089,0.43c-0.003,0.132-0.006,0.252-0.009,0.359c-0.014,0.43-0.022,0.66-0.022,0.66l-0.004,0.124
						c-0.012,0.371-0.322,0.661-0.693,0.649c-0.364-0.012-0.65-0.312-0.649-0.674c0,0,0.001-0.284,0.003-0.817
						c0.002-0.133,0.004-0.282,0.007-0.446c0.028-0.159,0.058-0.334,0.091-0.522c0.063-0.378,0.133-0.814,0.31-1.264
						c0.078-0.23,0.16-0.472,0.246-0.725c0.114-0.238,0.233-0.487,0.358-0.746c0.229-0.535,0.579-1.036,0.917-1.601
						c0.735-1.077,1.637-2.233,2.735-3.362c4.349-4.59,11.153-9.342,17.876-14.065c6.748-4.697,13.421-9.452,18.021-13.442
						c1.159-0.986,2.185-1.925,3.08-2.768c0.895-0.85,1.644-1.601,2.231-2.228c0.602-0.603,1.067-1.173,1.388-1.522
						c0.32-0.36,0.49-0.553,0.49-0.553c0.508-0.574,1.385-0.628,1.959-0.12c0.574,0.508,0.628,1.385,0.12,1.959
						C157.513,277.211,157.502,277.223,157.497,277.229z"/>
				</g>
				<g>
					<path class="st0" d="M156.847,273.677c0,0-0.202,0.185-0.581,0.532c-0.389,0.345-0.909,0.859-1.67,1.499
						c-0.742,0.651-1.651,1.418-2.703,2.26c-1.055,0.845-2.255,1.784-3.588,2.768c-5.306,3.983-12.706,8.735-20.045,13.498
						c-7.308,4.776-14.594,9.692-19.024,14.384c-1.12,1.155-2.017,2.311-2.719,3.38c-0.331,0.544-0.656,1.049-0.864,1.551
						c-0.112,0.247-0.24,0.479-0.326,0.711c-0.077,0.234-0.151,0.457-0.22,0.669c-0.168,0.419-0.204,0.811-0.27,1.147
						c-0.08,0.336-0.093,0.624-0.084,0.858c-0.009,0.468-0.014,0.717-0.014,0.717l-0.002,0.114
						c-0.007,0.364-0.308,0.654-0.672,0.647c-0.358-0.007-0.644-0.299-0.647-0.655c0,0-0.002-0.298-0.006-0.857
						c-0.012-0.282-0.001-0.625,0.079-1.02c0.067-0.396,0.111-0.863,0.287-1.344c0.076-0.245,0.156-0.503,0.24-0.773
						c0.093-0.266,0.228-0.525,0.348-0.806c0.229-0.572,0.568-1.128,0.92-1.73c0.738-1.176,1.674-2.427,2.818-3.655
						c4.538-4.989,11.799-10.074,19.034-15.016c7.264-4.92,14.524-9.791,19.656-13.806c1.291-0.993,2.446-1.934,3.458-2.778
						c1.016-0.847,1.871-1.598,2.558-2.225c0.696-0.606,1.24-1.162,1.612-1.506c0.372-0.354,0.57-0.543,0.57-0.543
						c0.542-0.517,1.4-0.498,1.918,0.044c0.517,0.542,0.498,1.4-0.044,1.918C156.863,273.662,156.852,273.672,156.847,273.677z"/>
				</g>
			</g>
			<g>
				<g>
					<path class="st0" d="M162.657,71.975c0,0,0.075-0.177,0.215-0.508c0.158-0.341,0.305-0.794,0.647-1.458
						c0.161-0.325,0.34-0.685,0.534-1.077c0.209-0.37,0.435-0.769,0.676-1.196c0.495-0.841,1.083-1.773,1.785-2.734
						c0.686-0.975,1.487-1.982,2.367-3.01c0.875-1.034,1.851-2.067,2.876-3.116c2.07-2.076,4.4-4.137,6.789-6.102
						c4.782-3.924,9.806-7.471,13.29-10.397c1.749-1.453,3.091-2.769,3.856-3.774c0.397-0.495,0.638-0.913,0.783-1.195
						c0.136-0.285,0.209-0.437,0.209-0.437l0.043-0.089c0.154-0.323,0.542-0.461,0.865-0.306c0.315,0.15,0.453,0.523,0.317,0.841
						c0,0-0.085,0.198-0.243,0.568c-0.168,0.361-0.446,0.872-0.868,1.44c-0.826,1.162-2.194,2.587-3.931,4.136
						c-3.464,3.116-8.355,6.828-12.926,10.853c-2.282,2.013-4.482,4.102-6.406,6.168c-0.95,1.042-1.849,2.064-2.644,3.071
						c-0.8,1.003-1.52,1.976-2.126,2.905c-0.624,0.918-1.133,1.794-1.559,2.578c-0.435,0.79-0.753,1.474-0.998,2.034
						c-0.263,0.536-0.434,1.094-0.568,1.41c-0.128,0.336-0.197,0.515-0.197,0.515c-0.295,0.774-1.162,1.163-1.936,0.868
						c-0.774-0.295-1.163-1.162-0.868-1.936C162.643,72.01,162.651,71.989,162.657,71.975z"/>
				</g>
				<g>
					<path class="st0" d="M161.6,75.667c0,0,0.108-0.186,0.311-0.535c0.218-0.354,0.46-0.847,0.929-1.528
						c0.223-0.335,0.469-0.705,0.737-1.109c0.281-0.378,0.585-0.787,0.909-1.223c0.666-0.857,1.439-1.804,2.332-2.781
						c1.777-1.966,3.992-4.096,6.481-6.21c2.488-2.116,5.232-4.237,8.008-6.293c5.546-4.107,11.241-7.981,15.015-11.375
						c1.896-1.68,3.27-3.266,3.928-4.484c0.177-0.3,0.315-0.573,0.395-0.818c0.096-0.242,0.187-0.447,0.207-0.617
						c0.075-0.338,0.115-0.518,0.115-0.518l0.028-0.128c0.082-0.368,0.447-0.601,0.815-0.519c0.36,0.08,0.589,0.431,0.524,0.791
						c0,0-0.044,0.242-0.128,0.695c-0.029,0.234-0.128,0.49-0.239,0.795c-0.098,0.315-0.253,0.646-0.448,1.002
						c-0.743,1.458-2.187,3.19-4.1,4.986c-3.816,3.623-9.422,7.659-14.813,11.894c-2.696,2.116-5.34,4.281-7.708,6.412
						c-2.37,2.129-4.443,4.242-6.074,6.151c-0.822,0.951-1.52,1.859-2.118,2.673c-0.29,0.413-0.561,0.799-0.811,1.156
						c-0.224,0.358-0.43,0.687-0.616,0.984c-0.377,0.565-0.649,1.143-0.845,1.48c-0.193,0.354-0.296,0.543-0.296,0.543
						c-0.383,0.706-1.267,0.969-1.973,0.585c-0.707-0.383-0.969-1.267-0.585-1.973C161.584,75.695,161.594,75.677,161.6,75.667z"/>
				</g>
				<g>
					<path class="st0" d="M161.024,79.412c0,0,0.143-0.189,0.41-0.544c0.28-0.357,0.626-0.871,1.209-1.546
						c0.281-0.334,0.591-0.703,0.93-1.106c0.347-0.379,0.723-0.789,1.124-1.227c0.817-0.858,1.756-1.808,2.82-2.791
						c2.12-1.977,4.705-4.13,7.559-6.298c2.853-2.169,5.963-4.37,9.081-6.538c6.224-4.332,12.532-8.562,16.565-12.427
						c1.022-0.95,1.85-1.905,2.544-2.77c0.645-0.889,1.173-1.693,1.441-2.401c0.074-0.175,0.144-0.341,0.21-0.496
						c0.042-0.16,0.081-0.309,0.117-0.449c0.083-0.278,0.139-0.516,0.138-0.71c0.035-0.388,0.054-0.594,0.054-0.594l0.012-0.13
						c0.034-0.37,0.361-0.642,0.731-0.608c0.362,0.033,0.631,0.348,0.61,0.708c0,0-0.016,0.266-0.045,0.765
						c0,0.255-0.059,0.552-0.15,0.896c-0.042,0.173-0.087,0.36-0.135,0.558c-0.065,0.19-0.149,0.385-0.23,0.595
						c-0.306,0.854-0.872,1.764-1.559,2.757c-0.726,0.956-1.59,1.995-2.627,3.009c-4.107,4.126-10.353,8.523-16.458,13.002
						c-3.056,2.237-6.085,4.495-8.84,6.699c-2.756,2.202-5.223,4.364-7.217,6.317c-1.002,0.972-1.874,1.901-2.631,2.734
						c-0.369,0.423-0.715,0.819-1.034,1.185c-0.296,0.37-0.569,0.711-0.815,1.018c-0.493,0.59-0.867,1.167-1.127,1.516
						c-0.259,0.361-0.397,0.554-0.397,0.554c-0.455,0.638-1.342,0.786-1.98,0.331c-0.638-0.455-0.786-1.342-0.331-1.98
						C161.007,79.434,161.018,79.419,161.024,79.412z"/>
				</g>
				<g>
					<path class="st0" d="M161.018,83.106c0,0,0.175-0.189,0.502-0.542c0.339-0.353,0.778-0.872,1.458-1.531
						c0.656-0.673,1.467-1.45,2.408-2.305c0.947-0.854,2.028-1.801,3.238-2.786c4.813-3.993,11.653-8.642,18.496-13.19
						c6.815-4.565,13.659-9.151,17.909-13.457c1.077-1.059,1.938-2.123,2.636-3.097c0.314-0.504,0.651-0.959,0.855-1.422
						c0.116-0.226,0.226-0.444,0.332-0.651c0.077-0.215,0.151-0.421,0.22-0.615c0.165-0.386,0.225-0.744,0.283-1.054
						c0.032-0.155,0.061-0.298,0.088-0.43c0.003-0.132,0.006-0.252,0.009-0.359c0.014-0.43,0.021-0.659,0.021-0.659l0.004-0.125
						c0.012-0.374,0.325-0.667,0.699-0.655c0.367,0.012,0.656,0.315,0.655,0.679c0,0-0.001,0.284-0.003,0.818
						c-0.002,0.133-0.004,0.282-0.007,0.446c-0.028,0.16-0.058,0.334-0.091,0.522c-0.063,0.378-0.133,0.815-0.31,1.265
						c-0.078,0.23-0.16,0.472-0.246,0.726c-0.114,0.238-0.233,0.487-0.358,0.746c-0.229,0.535-0.579,1.037-0.917,1.601
						c-0.735,1.077-1.637,2.234-2.735,3.363c-4.35,4.59-11.155,9.342-17.878,14.065c-6.749,4.697-13.422,9.451-18.023,13.44
						c-1.159,0.986-2.185,1.925-3.08,2.767c-0.895,0.85-1.645,1.601-2.231,2.228c-0.602,0.603-1.068,1.173-1.388,1.521
						c-0.32,0.36-0.49,0.553-0.49,0.553c-0.508,0.574-1.385,0.628-1.959,0.12s-0.628-1.385-0.12-1.959
						C161.002,83.123,161.013,83.111,161.018,83.106z"/>
				</g>
				<g>
					<path class="st0" d="M161.668,86.658c0,0,0.202-0.185,0.58-0.532c0.389-0.345,0.909-0.859,1.669-1.499
						c0.742-0.651,1.651-1.418,2.703-2.261c1.055-0.846,2.255-1.784,3.588-2.768c5.306-3.984,12.706-8.738,20.044-13.502
						c7.308-4.778,14.593-9.695,19.02-14.387c1.119-1.154,2.016-2.311,2.716-3.379c0.33-0.544,0.655-1.048,0.863-1.55
						c0.112-0.247,0.24-0.479,0.326-0.71c0.077-0.234,0.15-0.456,0.22-0.668c0.168-0.419,0.203-0.81,0.269-1.145
						c0.08-0.336,0.092-0.623,0.084-0.856c0.009-0.467,0.013-0.716,0.013-0.716l0.002-0.116c0.007-0.371,0.313-0.666,0.683-0.659
						c0.365,0.007,0.656,0.304,0.659,0.666c0,0,0.002,0.299,0.006,0.859c0.012,0.282,0.002,0.626-0.079,1.022
						c-0.067,0.397-0.111,0.865-0.288,1.346c-0.076,0.245-0.156,0.503-0.24,0.774c-0.093,0.266-0.228,0.526-0.349,0.807
						c-0.229,0.572-0.569,1.128-0.921,1.732c-0.738,1.177-1.675,2.428-2.819,3.656c-4.54,4.99-11.802,10.074-19.039,15.015
						c-7.265,4.919-14.526,9.789-19.659,13.803c-1.292,0.992-2.447,1.933-3.459,2.777c-1.016,0.846-1.872,1.598-2.558,2.224
						c-0.697,0.606-1.24,1.162-1.612,1.505c-0.372,0.354-0.57,0.543-0.57,0.543c-0.542,0.517-1.401,0.497-1.918-0.044
						c-0.517-0.542-0.497-1.401,0.044-1.918C161.652,86.672,161.663,86.662,161.668,86.658z"/>
				</g>
			</g>
		</g>
		<g>
			<g>
				<path class="st0" d="M59.36,270.98c-0.126-0.152-0.862-1.871-0.446-4.561c0.361-2.715,1.759-6.194,4.069-10.222
					c2.34-4.021,5.71-8.512,9.997-13.221c4.282-4.718,9.455-9.679,15.301-14.831c11.694-10.317,26.215-21.222,41.929-32.633
					c15.723-11.406,32.749-23.195,49.6-35.22c16.799-12.088,33.47-24.379,48.266-36.896c7.395-6.254,14.271-12.625,20.311-19.094
					c6.011-6.471,11.237-13.085,14.693-19.881c1.691-3.393,3.039-6.828,3.263-10.139c0.281-3.302-0.738-6.37-2.763-8.32
					c-2.002-1.983-4.701-2.906-7.195-3.206c-2.521-0.304-4.903-0.016-6.959,0.506c-4.148,1.069-6.948,3.096-8.62,4.579
					c-0.843,0.755-1.427,1.395-1.808,1.835c-0.371,0.448-0.563,0.68-0.563,0.68l-0.046,0.056c-0.528,0.638-1.474,0.727-2.112,0.199
					c-0.638-0.528-0.727-1.474-0.199-2.112c0.006-0.007,0.017-0.02,0.023-0.027c0,0,0.227-0.262,0.668-0.769
					c0.451-0.496,1.141-1.218,2.127-2.059c1.957-1.665,5.198-3.855,9.889-4.984c2.333-0.547,5.025-0.83,7.93-0.429
					c2.866,0.401,6.082,1.515,8.565,4.052c1.227,1.255,2.198,2.858,2.743,4.628c0.551,1.769,0.702,3.674,0.524,5.549
					c-0.347,3.78-1.837,7.392-3.632,10.903c-3.682,7.033-9.083,13.681-15.235,20.159c-6.173,6.48-13.194,12.764-20.621,19.041
					c-14.902,12.509-31.641,24.751-48.496,36.784c-16.826,12.079-33.798,23.943-49.462,35.391
					c-15.668,11.436-29.956,22.584-41.469,32.926c-5.758,5.165-10.786,10.168-14.893,14.879c-4.12,4.698-7.299,9.117-9.445,12.971
					c-2.137,3.852-3.291,7.15-3.5,9.269c-0.128,1.069-0.041,1.838,0.053,2.283c0.047,0.226,0.101,0.362,0.129,0.437
					c0.015,0.033,0.026,0.057,0.011,0.025c-0.017-0.029,0.012,0.024,0.007,0.015c0.397,0.727,0.129,1.638-0.598,2.035
					C60.669,271.975,59.757,271.708,59.36,270.98z"/>
			</g>
			<g>
				<path class="st0" d="M61.844,269.32c0,0,0.158,0.204,0.455,0.585c0.287,0.293,0.761,1.127,1.255,2.136
					c0.168,0.472,0.353,0.996,0.555,1.565c0.155,0.57,0.288,1.186,0.446,1.845c0.116,0.656,0.208,1.353,0.32,2.088
					c0.059,0.73,0.121,1.498,0.186,2.298c0.066,1.594,0.08,3.313,0.006,5.117c-0.078,1.803-0.21,3.696-0.415,5.64
					c-0.198,1.946-0.448,3.947-0.756,5.969c-0.293,2.025-0.643,4.071-1.014,6.111c-2.983,16.328-7.83,32.157-7.83,32.157
					c-0.105,0.344-0.47,0.538-0.814,0.433c-0.338-0.103-0.531-0.458-0.437-0.797c0,0,1.1-3.964,2.524-9.974
					c1.424-6.008,3.173-14.062,4.436-22.177c0.315-2.028,0.609-4.059,0.846-6.061c0.252-2.001,0.447-3.973,0.591-5.88
					c0.152-1.907,0.233-3.749,0.263-5.49c0.027-1.741-0.03-3.375-0.129-4.872c-0.079-0.74-0.154-1.448-0.226-2.122
					c-0.118-0.656-0.23-1.278-0.335-1.863c-0.15-0.56-0.291-1.083-0.421-1.568c-0.173-0.452-0.332-0.867-0.475-1.242
					c-0.343-0.588-0.498-1.034-0.895-1.442c-0.307-0.374-0.47-0.573-0.47-0.573l-0.01-0.012c-0.525-0.641-0.432-1.586,0.209-2.111
					s1.586-0.432,2.111,0.209C61.827,269.298,61.838,269.311,61.844,269.32z"/>
			</g>
			<g>
				<path class="st0" d="M259.04,144.714c0,0,0.022,0.014,0.066,0.041c0.06,0.039,0.182,0.117,0.265,0.183
					c0.2,0.143,0.451,0.361,0.758,0.676c0.583,0.624,1.369,1.723,1.669,3.313c0.342,1.582,0.085,3.493-0.613,5.419
					c-0.34,0.894-0.792,1.909-1.31,2.895c-0.528,0.987-1.132,2.001-1.812,3.036c-2.737,4.13-6.692,8.548-11.536,13.214
					c-4.85,4.666-10.602,9.583-16.994,14.777c-12.795,10.382-28.319,21.663-44.886,33.81c-16.567,12.147-34.271,25.054-51.51,38.56
					c-17.177,13.566-33.931,27.732-48.197,42.451c-7.128,7.352-13.581,14.893-18.944,22.562c-2.683,3.831-5.075,7.703-7.117,11.58
					c-2.024,3.867-3.747,7.798-4.863,11.61c-1.054,3.82-1.35,7.723-0.499,11.118c0.429,1.684,1.158,3.224,2.192,4.382
					c1.025,1.166,2.339,1.925,3.745,2.207c1.404,0.293,2.868,0.166,4.239-0.203c1.378-0.353,2.666-0.952,3.861-1.605
					c2.39-1.335,4.381-2.989,6.09-4.559c3.4-3.191,5.691-6.128,7.231-8.122c1.525-2.014,2.287-3.131,2.287-3.131
					c0.467-0.685,1.4-0.861,2.084-0.395s0.861,1.4,0.395,2.085c-0.004,0.006-0.008,0.012-0.012,0.018l-0.026,0.036
					c0,0-0.804,1.132-2.421,3.182c-1.635,2.031-4.055,5.022-7.718,8.329c-1.847,1.629-4.001,3.36-6.691,4.798
					c-1.35,0.704-2.823,1.36-4.479,1.753c-1.639,0.405-3.488,0.554-5.354,0.126c-1.866-0.407-3.663-1.502-4.944-3.035
					c-1.302-1.525-2.119-3.406-2.575-5.35c-0.914-3.915-0.515-8.12,0.648-12.182c2.528-8.055,7.017-15.924,12.507-23.645
					c5.521-7.707,12.106-15.224,19.278-22.612c14.395-14.75,31.243-28.878,48.484-42.414c17.215-13.585,34.886-26.563,51.409-38.767
					c16.523-12.2,31.848-23.725,44.493-34.166c6.322-5.217,11.933-10.214,16.617-14.9c4.682-4.679,8.443-9.068,10.932-12.988
					c0.618-0.98,1.157-1.927,1.619-2.832c0.455-0.914,0.804-1.735,1.113-2.586c0.533-1.577,0.647-2.93,0.415-3.863
					c-0.199-0.95-0.647-1.51-0.956-1.84c-0.162-0.156-0.292-0.268-0.369-0.317c-0.021-0.015-0.037-0.026-0.047-0.034
					c-0.028-0.017-0.043-0.026-0.043-0.026l-0.045-0.027c-0.709-0.428-0.937-1.35-0.509-2.059c0.428-0.709,1.35-0.937,2.059-0.509
					C259.026,144.706,259.036,144.712,259.04,144.714z"/>
			</g>
			<g>
				<path class="st0" d="M256.992,146.777c0,0-0.096-0.169-0.276-0.486c-0.177-0.255-0.457-0.904-0.763-1.713
					c-0.222-0.737-0.452-1.616-0.607-2.616c-0.156-0.999-0.262-2.115-0.322-3.322c-0.053-1.206-0.054-2.502-0.02-3.866
					c0.05-1.361,0.129-2.791,0.253-4.262c0.247-2.942,0.639-6.052,1.11-9.145c1.883-12.374,5.03-24.446,5.03-24.446
					c0.091-0.348,0.447-0.557,0.795-0.466c0.341,0.089,0.547,0.432,0.472,0.773c0,0-0.677,3.023-1.539,7.595
					c-0.863,4.571-1.903,10.69-2.625,16.831c-0.361,3.07-0.642,6.144-0.785,9.02c-0.072,1.438-0.1,2.824-0.104,4.134
					c0.013,1.308,0.056,2.538,0.144,3.661c0.094,1.12,0.226,2.131,0.392,2.999c0.165,0.87,0.384,1.581,0.569,2.142
					c0.208,0.451,0.309,0.803,0.558,1.148c0.191,0.31,0.293,0.476,0.293,0.476l0.008,0.014c0.434,0.706,0.214,1.63-0.492,2.064
					c-0.706,0.434-1.63,0.214-2.064-0.492C257.01,146.809,256.999,146.79,256.992,146.777z"/>
			</g>
			<g>
				<path class="st0" d="M70.692,269.654c0,0-0.042-0.004-0.125-0.012c-0.041-0.004-0.093-0.009-0.155-0.015
					c-0.121-0.015-0.347-0.053-0.553-0.106c-0.417-0.112-0.862-0.305-1.351-0.725c-0.48-0.426-0.817-1.03-0.989-1.62
					c-0.306-1.168-0.16-2.207,0.077-3.253c0.263-1.059,0.604-2.121,1.146-3.311c0.24-0.542,0.492-1.113,0.757-1.712
					c0.253-0.597,0.54-1.226,0.909-1.889c0.705-1.31,1.42-2.781,2.318-4.186c0.435-0.719,0.885-1.461,1.347-2.225
					c0.493-0.74,0.999-1.502,1.519-2.284c1.019-1.578,2.177-3.167,3.365-4.84c2.435-3.299,5.151-6.806,8.203-10.356
					c3.037-3.564,6.343-7.225,9.869-10.913c3.558-3.675,7.255-7.38,11.543-10.802c0.258-0.194,0.547-0.399,0.855-0.606
					c0.303-0.194,0.611-0.385,0.95-0.557c0.335-0.173,0.704-0.329,1.131-0.438c0.416-0.1,0.987-0.171,1.588,0.121
					c0.605,0.298,0.921,0.878,1.046,1.306c0.138,0.449,0.167,0.848,0.183,1.236c0.017,0.77-0.068,1.481-0.18,2.179
					c-0.483,2.771-1.333,5.364-2.2,7.954c-1.749,5.166-3.755,10.21-5.753,15.162c-2.021,4.938-4.01,9.798-5.935,14.501
					c-3.876,9.387-7.359,18.199-10.155,25.794c-2.792,7.584-4.723,14.076-5.479,18.535c-0.394,2.207-0.347,3.962-0.111,4.636
					c0.116,0.34,0.187,0.337,0.146,0.285c-0.037-0.046-0.073-0.073-0.074-0.066c0.998,0.474,1.422,1.667,0.947,2.665
					s-1.667,1.422-2.665,0.947c0,0-0.082-0.046-0.242-0.137c-0.163-0.089-0.387-0.245-0.651-0.488
					c-0.537-0.483-1.016-1.336-1.212-2.23c-0.405-1.802-0.135-3.843,0.367-6.279c1.031-4.864,3.428-11.253,6.433-18.841
					c3.006-7.585,6.852-16.262,10.855-25.596c1.995-4.67,4.092-9.478,6.107-14.407c2.017-4.926,4.04-9.945,5.79-15.034
					c0.841-2.545,1.662-5.128,2.091-7.681c0.101-0.633,0.166-1.267,0.149-1.844c-0.011-0.282-0.041-0.56-0.105-0.754
					c-0.066-0.21-0.138-0.248-0.144-0.247c-0.005-0.075-0.624,0.034-1.111,0.316c-0.258,0.132-0.518,0.294-0.776,0.461
					c-0.245,0.166-0.501,0.347-0.775,0.555c-4.049,3.239-7.709,7.066-11.164,10.726c-3.46,3.685-6.613,7.426-9.513,11.032
					c-2.917,3.596-5.492,7.131-7.788,10.436c-1.109,1.677-2.222,3.254-3.137,4.835c-0.469,0.783-0.927,1.546-1.371,2.287
					c-0.411,0.757-0.809,1.492-1.196,2.205c-0.816,1.419-1.381,2.766-1.98,3.997c-0.144,0.311-0.294,0.603-0.424,0.912
					c-0.124,0.319-0.244,0.632-0.362,0.937c-0.236,0.611-0.461,1.193-0.675,1.746c-0.406,0.983-0.657,1.965-0.783,2.703
					c-0.143,0.75-0.075,1.318-0.023,1.376c0.024,0.013-0.015-0.098-0.128-0.203c-0.115-0.113-0.18-0.136-0.279-0.171
					c-0.045-0.019-0.13-0.016-0.13-0.016c0.062,0.002,0.114,0.004,0.156,0.005c0.083,0.003,0.126,0.004,0.126,0.004
					c1.105,0.039,1.969,0.966,1.93,2.07c-0.039,1.105-0.965,1.969-2.07,1.93c-0.041-0.001-0.081-0.004-0.121-0.008L70.692,269.654z"
					/>
			</g>
			<g>
				<path class="st0" d="M179.09,189.287c0,0-0.035-0.018-0.104-0.052c-0.017-0.009-0.036-0.018-0.058-0.029
					c-0.045-0.024-0.094-0.051-0.147-0.08c-0.16-0.093-0.369-0.229-0.537-0.375c-0.629-0.509-1.132-1.574-1.172-2.478
					c-0.08-0.932,0.066-1.834,0.315-2.778c0.122-0.477,0.283-0.955,0.458-1.458c0.096-0.258,0.195-0.525,0.297-0.799
					c0.1-0.238,0.203-0.484,0.309-0.735c0.398-0.977,0.962-2.204,1.57-3.399c0.611-1.211,1.309-2.494,2.101-3.829
					c1.579-2.674,3.5-5.58,5.689-8.666c4.397-6.162,10.045-12.913,16.442-19.808c3.201-3.449,6.622-6.899,10.263-10.266
					c0.922-0.832,1.851-1.663,2.832-2.461c0.988-0.788,1.99-1.586,3.264-2.197c0.32-0.15,0.666-0.285,1.075-0.369
					c0.398-0.078,0.911-0.121,1.456,0.122c0.557,0.244,0.895,0.766,1.04,1.174c0.156,0.424,0.207,0.81,0.227,1.172
					c0.055,1.443-0.225,2.695-0.503,3.952c-1.215,4.965-3.049,9.625-4.818,14.229c-1.807,4.586-3.612,9.08-5.388,13.415
					c-3.548,8.668-6.751,16.796-9.295,23.806c-2.541,6.996-4.252,13.004-4.82,17.087c-0.303,2.02-0.155,3.592,0.098,4.097
					c0.117,0.269,0.17,0.232,0.155,0.219c-0.012-0.016-0.017-0.035-0.02-0.027c0.998,0.474,1.422,1.667,0.947,2.665
					c-0.474,0.998-1.667,1.422-2.665,0.947c0,0-0.071-0.04-0.21-0.117c-0.14-0.077-0.341-0.203-0.579-0.407
					c-0.479-0.391-1.032-1.143-1.285-1.991c-0.544-1.72-0.36-3.676,0.046-5.955c0.845-4.559,3.031-10.473,5.787-17.482
					c2.757-7.006,6.319-15.002,9.996-23.612c1.83-4.308,3.751-8.746,5.555-13.306c1.781-4.555,3.632-9.218,4.817-13.959
					c0.265-1.172,0.497-2.397,0.444-3.453c-0.011-0.536-0.226-0.92-0.261-0.865c-0.052-0.061-0.591,0.005-1.057,0.254
					c-0.974,0.467-1.943,1.218-2.878,1.979c-0.935,0.77-1.843,1.589-2.741,2.409c-3.579,3.312-6.882,6.832-10.009,10.286
					c-6.242,6.927-11.534,13.859-15.678,20.009c-2.072,3.076-3.792,6.003-5.168,8.649c-0.695,1.32-1.296,2.575-1.812,3.744
					c-0.523,1.183-0.926,2.176-1.301,3.243c-0.093,0.257-0.183,0.507-0.271,0.75c-0.066,0.214-0.131,0.422-0.193,0.623
					c-0.12,0.424-0.22,0.821-0.284,1.172c-0.142,0.707-0.148,1.259-0.095,1.494c0.064,0.269,0.065,0.026-0.102-0.099
					c-0.052-0.051-0.145-0.119-0.213-0.144l-0.045-0.017l0.035,0.015c0.022,0.009,0.042,0.018,0.06,0.025
					c0.071,0.03,0.107,0.045,0.107,0.045c1.02,0.427,1.501,1.599,1.074,2.619s-1.599,1.501-2.619,1.074
					c-0.041-0.017-0.081-0.036-0.12-0.055L179.09,189.287z"/>
			</g>
			<g>
				<path class="st0" d="M130.658,197.889c0,0-0.104,0.358-0.299,1.029c-0.207,0.679-0.455,1.637-0.87,2.93
					c-0.393,1.288-0.884,2.833-1.499,4.556c-0.293,0.871-0.628,1.786-0.991,2.746c-0.357,0.962-0.704,1.984-1.113,3.03
					c-0.807,2.093-1.681,4.361-2.606,6.759c-0.953,2.381-1.957,4.892-2.997,7.489c-1.049,2.589-2.132,5.265-3.233,7.984
					c-1.091,2.72-2.199,5.483-3.307,8.246c-1.071,2.775-2.141,5.55-3.195,8.282c-1.032,2.737-1.993,5.454-2.913,8.076
					c-0.931,2.636-1.727,5.187-2.473,7.626c-0.745,2.432-1.367,4.753-1.895,6.898c-1.053,4.291-1.559,7.913-1.692,10.368
					c-0.063,1.227,0.004,2.159,0.058,2.77c0.082,0.594,0.125,0.91,0.125,0.91l0.021,0.151c0.151,1.098-0.616,2.11-1.714,2.261
					c-1.098,0.151-2.11-0.616-2.261-1.714c-0.01-0.074-0.016-0.15-0.018-0.223c0,0-0.011-0.426-0.031-1.224
					c-0.002-0.395,0.039-0.861,0.066-1.417c0.047-0.548,0.123-1.164,0.2-1.852c0.194-1.362,0.495-2.98,0.938-4.787
					c0.448-1.806,1.029-3.805,1.682-5.968c0.667-2.159,1.459-4.465,2.302-6.897c0.843-2.426,1.813-4.974,2.788-7.585
					c0.991-2.624,2.058-5.307,3.127-8.041c1.081-2.727,2.179-5.497,3.276-8.268c1.087-2.772,2.173-5.544,3.243-8.272
					c1.078-2.724,2.073-5.429,3.052-8.039c0.977-2.61,1.872-5.151,2.7-7.564c0.828-2.413,1.574-4.705,2.214-6.831
					c0.651-2.122,1.208-4.079,1.634-5.823c0.457-1.745,0.793-3.252,1.056-4.486c0.296-1.214,0.413-2.274,0.544-2.949
					c0.115-0.689,0.177-1.057,0.177-1.057c0.18-1.092,1.212-1.831,2.303-1.65c1.092,0.18,1.831,1.212,1.65,2.303
					C130.699,197.731,130.678,197.819,130.658,197.889z"/>
			</g>
			<g>
				<path class="st0" d="M145.242,220.02c0,0-1.128,2.479-3.004,6.862c-0.967,2.186-2.141,4.84-3.488,7.884
					c-1.327,3.048-2.853,6.476-4.576,10.19c-0.851,1.861-1.775,3.784-2.724,5.777c-0.943,1.996-1.931,4.054-2.992,6.15
					c-2.159,4.177-4.332,8.618-7.29,12.929c-0.383,0.535-0.776,1.071-1.239,1.594c-0.102,0.131-0.235,0.264-0.378,0.396
					c-0.154,0.141-0.242,0.242-0.449,0.416c-0.224,0.132-0.57,0.533-1.377,0.584c-0.114-0.004-0.219-0.005-0.335-0.036
					c-0.123-0.04-0.247-0.095-0.361-0.162c-0.213-0.129-0.346-0.316-0.454-0.479c-0.066-0.136-0.144-0.303-0.174-0.425l-0.076-0.358
					c-0.047-0.424-0.046-0.806-0.017-1.16c0.051-0.716,0.164-1.385,0.289-2.052c0.521-2.648,1.225-5.221,1.945-7.82
					c1.413-5.199,3.007-10.415,4.564-15.63c0.779-2.599,1.559-5.198,2.335-7.787c0.735-2.57,1.581-5.169,2.068-7.595
					c0.057-0.294,0.104-0.59,0.134-0.836c0.021-0.135,0.025-0.231,0.031-0.322c0.007-0.059-0.015-0.127,0.03,0.057
					c0.002-0.015,0.05,0.182,0.116,0.284c0.033,0.059,0.071,0.116,0.114,0.167c0.024,0.026,0.156,0.207,0.262,0.287
					c0.116,0.1,0.251,0.183,0.388,0.241c0.11,0.054,0.934,0.234,0.536,0.149c-0.011,0-0.063-0.007-0.041-0.002
					c0.116,0.019,0.241,0.023,0.364,0.011c0.123-0.012,0.245-0.042,0.355-0.083c0.119-0.048,0.049-0.017,0.083-0.031
					c0.018-0.007,0.035-0.016,0.05-0.028c-0.007,0.006-0.034,0.024-0.055,0.034c-0.144,0.1-0.362,0.288-0.567,0.473
					c-0.848,0.801-1.719,1.765-2.557,2.713c-1.657,1.94-3.292,3.913-4.814,5.921c-3.038,4.022-5.854,8.045-8.218,12.046
					c-2.381,3.993-4.335,7.938-5.976,11.645c-1.641,3.707-2.974,7.184-3.93,10.333c-0.972,3.143-1.677,5.924-2.113,8.239
					c-0.444,2.314-0.685,4.147-0.814,5.398c-0.124,1.252-0.165,1.92-0.165,1.92c-0.032,0.524-0.483,0.924-1.008,0.891
					s-0.924-0.484-0.891-1.008c0.001-0.016,0.002-0.031,0.004-0.047l0.002-0.017c0,0,0.079-0.687,0.273-1.966
					c0.186-1.28,0.485-3.153,1.016-5.501c0.529-2.347,1.227-5.184,2.256-8.365c1.036-3.177,2.294-6.732,3.904-10.513
					c1.61-3.78,3.547-7.788,5.716-11.969c2.184-4.172,4.548-8.559,7.364-12.896c1.41-2.167,2.873-4.36,4.565-6.464
					c0.849-1.062,1.706-2.102,2.782-3.132c0.285-0.263,0.56-0.522,0.956-0.812l0.364-0.237l0.273-0.14
					c0.071-0.031,0.036-0.024,0.196-0.083c0.15-0.053,0.311-0.094,0.475-0.118c0.163-0.024,0.328-0.031,0.484-0.024l0.084,0.005
					c-0.357-0.079,0.513,0.09,0.653,0.179c0.17,0.083,0.338,0.191,0.488,0.316c0.135,0.109,0.314,0.303,0.352,0.371
					c0.061,0.089,0.117,0.182,0.169,0.279c0.099,0.179,0.199,0.445,0.207,0.515c0.127,0.509,0.11,0.777,0.114,1.05
					c-0.008,0.243-0.023,0.481-0.048,0.677c-0.045,0.418-0.119,0.781-0.191,1.144c-0.629,2.817-1.451,5.365-2.341,7.963
					c-0.872,2.586-1.822,5.144-2.785,7.694c-1.91,5.102-3.846,10.184-5.59,15.225c-0.834,2.526-1.656,5.052-2.186,7.552
					c-0.125,0.621-0.235,1.245-0.284,1.829c-0.031,0.296-0.024,0.567-0.007,0.79c0.01,0.04,0.018,0.079,0.023,0.119
					c0.007,0.035,0.012,0.011,0.004,0.027c-0.012-0.04-0.054-0.075-0.128-0.129c-0.095-0.063-0.192-0.068-0.236-0.078
					c-0.152,0.02,0.048-0.005,0.337-0.245l0.253-0.248c0.094-0.087,0.19-0.179,0.284-0.304c0.386-0.444,0.748-0.943,1.103-1.449
					c1.412-2.039,2.619-4.233,3.776-6.372c1.164-2.141,2.213-4.292,3.209-6.397c1.994-4.209,3.78-8.241,5.304-12.018
					c1.554-3.763,2.925-7.235,4.115-10.323c1.202-3.084,2.125-5.816,2.948-8.041c0.796-2.242,1.411-4.012,1.814-5.224
					c0.409-1.21,0.626-1.855,0.626-1.855l0.006-0.017c0.354-1.048,1.491-1.611,2.539-1.257c1.048,0.354,1.611,1.491,1.257,2.539
					C145.295,219.895,145.269,219.959,145.242,220.02z"/>
			</g>
			<g>
				<path class="st0" d="M176.288,195.364c0,0-0.694,1.584-1.831,4.378c-1.112,2.803-2.776,6.78-4.524,11.637
					c-0.891,2.422-1.811,5.061-2.709,7.872c-0.905,2.806-1.8,5.79-2.489,8.9c-0.336,1.548-0.647,3.149-0.716,4.698
					c-0.013,0.383-0.009,0.763,0.037,1.104c0.039,0.333,0.149,0.654,0.22,0.728c0.035,0.04,0.01,0.014,0.014,0.022
					c0.009,0.002,0.082,0.01,0.198-0.022c0.235-0.061,0.557-0.237,0.86-0.443l0.115-0.08l0.058-0.041l0.029-0.021
					c0.064-0.051-0.056,0.048-0.032,0.027l0.238-0.212c0.152-0.143,0.243-0.246,0.377-0.387c0.26-0.292,0.515-0.604,0.762-0.932
					c0.495-0.654,0.967-1.35,1.422-2.062c0.913-1.423,1.777-2.904,2.6-4.407c3.296-6.023,6.253-12.259,8.928-18.139
					c1.353-2.934,2.584-5.807,3.768-8.523c1.185-2.716,2.255-5.306,3.247-7.695c1.98-4.78,3.522-8.809,4.629-11.615
					c1.085-2.816,1.666-4.435,1.666-4.435c0.374-1.041,1.521-1.583,2.562-1.209c1.041,0.374,1.583,1.521,1.209,2.562
					c-0.023,0.065-0.049,0.127-0.078,0.188l-0.009,0.018c0,0-2.995,6.24-7.488,15.6c-2.246,4.675-4.867,10.128-7.675,15.972
					c-1.41,2.919-2.9,5.92-4.435,8.962c-1.527,3.046-3.113,6.124-4.806,9.158c-0.856,1.512-1.712,3.027-2.646,4.505
					c-0.466,0.74-0.952,1.47-1.484,2.184c-0.265,0.357-0.547,0.71-0.852,1.057c-0.155,0.171-0.355,0.381-0.513,0.529l-0.236,0.214
					l-0.095,0.076l-0.036,0.026l-0.072,0.052l-0.145,0.103c-0.399,0.268-0.815,0.534-1.398,0.703
					c-0.291,0.079-0.65,0.132-1.056,0.049c-0.41-0.082-0.807-0.351-1.031-0.644c-0.455-0.595-0.531-1.13-0.617-1.616
					c-0.066-0.489-0.08-0.947-0.076-1.396c0.039-1.784,0.329-3.435,0.636-5.054c0.648-3.225,1.46-6.267,2.245-9.147
					c0.804-2.874,1.61-5.573,2.355-8.063c3.067-9.927,5.111-16.545,5.111-16.545l0.009-0.028c0.327-1.057,1.449-1.65,2.506-1.323
					c1.057,0.327,1.65,1.449,1.323,2.506C176.345,195.224,176.318,195.296,176.288,195.364z"/>
			</g>
			<g>
				<path class="st0" d="M162.932,206.576c0,0-0.689,1.493-1.825,4.144c-1.114,2.659-2.758,6.441-4.568,11.04
					c-0.911,2.297-1.886,4.791-2.862,7.446c-0.983,2.653-2.008,5.455-2.966,8.382c-0.483,1.462-0.956,2.952-1.402,4.464
					c-0.437,1.507-0.872,3.059-1.107,4.575c-0.059,0.374-0.098,0.753-0.092,1.057c-0.01,0.156,0.042,0.277,0.008,0.219
					c-0.021-0.057-0.053-0.087-0.112-0.136c-0.07-0.09-0.22-0.13-0.296-0.148c-0.067-0.033-0.207,0.003-0.214,0.001
					c-0.016-0.002-0.033,0.003-0.044,0.015c0.003-0.005,0.099-0.068,0.063-0.038l0.23-0.203c0.166-0.137,0.303-0.27,0.401-0.395
					c0.222-0.233,0.465-0.533,0.708-0.848c0.959-1.247,1.828-2.638,2.669-4.033c1.659-2.815,3.178-5.734,4.645-8.618
					c1.471-2.884,2.813-5.778,4.114-8.577c2.581-5.608,4.832-10.917,6.666-15.502c1.851-4.578,3.224-8.457,4.186-11.157
					c0.481-1.35,0.81-2.426,1.045-3.153c0.227-0.728,0.348-1.117,0.348-1.117l0.01-0.032c0.329-1.057,1.453-1.646,2.51-1.316
					c1.057,0.329,1.646,1.453,1.316,2.51c-0.022,0.071-0.049,0.141-0.077,0.207c0,0-0.67,1.53-1.843,4.209
					c-1.16,2.671-2.927,6.422-5.023,10.923c-2.115,4.493-4.596,9.722-7.335,15.286c-1.36,2.787-2.826,5.637-4.312,8.538
					c-1.502,2.894-3.054,5.82-4.769,8.679c-0.852,1.435-1.719,2.859-2.753,4.227c-0.257,0.337-0.524,0.681-0.868,1.042
					c-0.165,0.191-0.322,0.342-0.472,0.467l-0.229,0.205c-0.194,0.156-0.277,0.197-0.449,0.297c-0.107,0.047-0.219,0.087-0.332,0.12
					c-0.103,0.037-0.35,0.042-0.517,0.017c-0.178-0.02-0.407-0.145-0.568-0.275c-0.129-0.12-0.209-0.245-0.29-0.382
					c-0.192-0.433-0.197-0.725-0.208-0.975c-0.012-0.512,0.039-0.945,0.1-1.373c0.57-3.35,1.501-6.39,2.388-9.383
					c1.811-5.947,3.648-11.432,5.199-16.146c3.118-9.427,5.197-15.712,5.197-15.712l0.007-0.02c0.348-1.051,1.481-1.621,2.532-1.273
					c1.051,0.348,1.621,1.481,1.273,2.532C162.991,206.438,162.963,206.509,162.932,206.576z"/>
			</g>
			<g>
				<path class="st0" d="M145.24,220.024c0,0-0.683,1.458-1.795,4.062c-1.089,2.611-2.69,6.33-4.404,10.868
					c-0.862,2.267-1.775,4.73-2.661,7.359c-0.89,2.626-1.803,5.407-2.562,8.317c-0.381,1.452-0.735,2.937-0.988,4.432
					c-0.122,0.745-0.22,1.498-0.237,2.214c-0.001,0.35,0.011,0.707,0.071,0.986c0.05,0.289,0.193,0.423,0.08,0.323
					c-0.12-0.016,0.116-0.002,0.377-0.157c0.133-0.071,0.27-0.152,0.412-0.259l0.106-0.073c-0.003,0.004,0.082-0.061,0.006,0.001
					l0.056-0.05l0.226-0.199l0.452-0.399l0.359-0.399l0.363-0.396l0.362-0.457c0.973-1.211,1.858-2.55,2.704-3.909
					c1.671-2.738,3.199-5.584,4.653-8.411c1.461-2.825,2.784-5.668,4.067-8.416c2.546-5.508,4.758-10.728,6.583-15.231
					c1.839-4.497,3.236-8.301,4.244-10.948c0.987-2.656,1.503-4.185,1.503-4.185c0.354-1.049,1.491-1.612,2.54-1.257
					s1.612,1.491,1.257,2.54c-0.024,0.072-0.052,0.141-0.083,0.208l-0.011,0.023c0,0-2.793,5.882-6.984,14.705
					c-2.102,4.402-4.545,9.539-7.248,15.006c-1.343,2.738-2.791,5.538-4.268,8.384c-1.49,2.84-3.056,5.702-4.788,8.489
					c-0.857,1.4-1.751,2.783-2.79,4.1c-0.245,0.329-0.521,0.661-0.837,0.995l-0.454,0.495l-0.449,0.403l-0.224,0.201l-0.056,0.05
					c-0.114,0.094-0.072,0.055-0.116,0.089l-0.14,0.1c-0.179,0.135-0.383,0.263-0.604,0.383c-0.099,0.063-0.233,0.116-0.358,0.169
					c-0.121,0.054-0.254,0.104-0.421,0.136c-0.149,0.039-0.314,0.068-0.52,0.056c-0.184,0.009-0.401-0.044-0.61-0.123
					c-0.202-0.073-0.383-0.22-0.538-0.355c-0.117-0.137-0.264-0.303-0.326-0.441c-0.162-0.294-0.233-0.557-0.294-0.811
					c-0.108-0.5-0.114-0.941-0.124-1.381c0.001-0.867,0.09-1.682,0.2-2.484c0.23-1.599,0.558-3.133,0.911-4.632
					c1.444-5.978,3.166-11.408,4.615-16.076c1.484-4.654,2.707-8.539,3.621-11.24c0.891-2.716,1.4-4.268,1.4-4.268l0.004-0.012
					c0.345-1.052,1.477-1.625,2.529-1.28c1.052,0.345,1.625,1.477,1.28,2.529C145.305,219.873,145.272,219.955,145.24,220.024z"/>
			</g>
			<g>
				<path class="st0" d="M153.421,195.231c0,0,0.044-0.095,0.128-0.274c0.085-0.166,0.209-0.41,0.368-0.721
					c0.342-0.611,0.795-1.464,1.634-2.478c0.433-0.498,0.911-1.071,1.867-1.582c0.253-0.12,0.55-0.228,0.848-0.307
					c0.349-0.043,0.703-0.11,1.064-0.039c0.677,0.088,1.57,0.424,2.076,1.507c0.324,0.801,0.253,1.344,0.21,1.813
					c-0.055,0.48-0.161,0.883-0.279,1.273c-0.237,0.777-0.533,1.48-0.845,2.166c-1.272,2.709-2.81,5.127-3.977,6.948
					c-1.175,1.809-2.011,2.984-2.011,2.984c-0.278,0.392-0.821,0.484-1.213,0.206c-0.367-0.26-0.468-0.758-0.252-1.141
					c0,0,0.698-1.221,1.668-3.099c0.957-1.874,2.228-4.42,3.127-6.974c0.216-0.633,0.407-1.27,0.519-1.848
					c0.059-0.287,0.094-0.567,0.091-0.771c0.013-0.125-0.019-0.167-0.016-0.244c-0.019-0.003-0.029-0.06-0.002,0.065
					c0.008,0.02,0.02,0.039,0.034,0.056c0.03,0.062,0.084,0.145,0.146,0.205c0.063,0.064,0.138,0.116,0.216,0.154
					c0.063,0.029,0.033,0.013,0.012,0.003l-0.055-0.027l-0.11-0.055l-0.027-0.014l-0.014-0.007c0.113,0.052-0.262-0.122,0.251,0.116
					l0.001,0.002l0.013,0.015c0.019,0.019,0.043,0.028,0.068,0.028c0.048-0.01,0.083,0.043,0.121,0.009
					c0.004,0.023,0.008,0.024-0.013,0.035c-0.12,0.087-0.417,0.412-0.632,0.752c-0.461,0.681-0.791,1.441-1.003,1.94
					c-0.1,0.255-0.178,0.456-0.231,0.593c-0.045,0.129-0.068,0.198-0.068,0.198l-0.005,0.014c-0.362,1.045-1.503,1.599-2.548,1.238
					c-1.045-0.362-1.599-1.503-1.238-2.548C153.367,195.356,153.393,195.291,153.421,195.231z"/>
			</g>
			<g>
				<path class="st0" d="M226.489,171.949c0,0,0.143-0.388,0.412-1.115c0.25-0.704,0.629-1.75,1.061-3.098
					c0.434-1.345,0.924-2.99,1.39-4.885c0.445-1.88,0.919-4.077,0.996-6.281c0.011-0.535-0.014-1.078-0.092-1.477
					c-0.036-0.167-0.103-0.357-0.08-0.298c0.018,0.026,0.072,0.099,0.219,0.187c0.142,0.084,0.337,0.136,0.465,0.123
					c0.226-0.021,0.132-0.037-0.033,0.063l-0.439,0.263l-0.314,0.22c-0.429,0.316-0.919,0.723-1.36,1.178
					c-1.809,1.825-3.433,4.268-4.92,6.882c-2.969,5.267-5.485,11.35-7.573,17.541c-1.038,3.1-1.965,6.241-2.696,9.357
					c-0.361,1.557-0.68,3.111-0.889,4.632c-0.104,0.759-0.184,1.514-0.208,2.234c-0.009,0.357-0.013,0.714,0.018,1.03
					c0.02,0.316,0.083,0.629,0.139,0.748c0.024,0.072,0.033,0.03-0.07-0.028c-0.053-0.065-0.151-0.065-0.21-0.095
					c-0.034-0.009-0.073-0.008-0.105-0.001c-0.012-0.006-0.025-0.007-0.038-0.004c-0.055,0.029,0.216-0.093,0.422-0.269l0.351-0.336
					c0.128-0.13,0.293-0.265,0.39-0.389l0.636-0.742c0.877-1.125,1.706-2.29,2.462-3.47c1.527-2.347,2.864-4.659,4.06-6.811
					c2.391-4.309,4.171-8.02,5.345-10.635c0.582-1.31,1.025-2.346,1.299-3.058c0.28-0.711,0.43-1.09,0.43-1.09l0.01-0.026
					c0.176-0.446,0.681-0.665,1.127-0.489c0.44,0.174,0.659,0.668,0.496,1.109c0,0-0.145,0.393-0.418,1.131
					c-0.267,0.741-0.696,1.806-1.26,3.153c-1.139,2.689-2.858,6.479-5.188,10.898c-1.167,2.21-2.471,4.582-3.992,7.034
					c-0.753,1.23-1.588,2.466-2.521,3.714c-0.27,0.324-0.542,0.65-0.815,0.978c-0.139,0.171-0.269,0.277-0.404,0.42l-0.201,0.201
					l-0.101,0.101l-0.05,0.05l-0.025,0.025l-0.089,0.079c-0.386,0.291-0.753,0.642-1.568,0.818c-0.107,0.017-0.215,0.03-0.323,0.039
					c-0.127-0.003-0.261-0.018-0.391-0.04c-0.259-0.028-0.511-0.169-0.742-0.306c-0.401-0.304-0.625-0.664-0.751-0.95
					c-0.261-0.592-0.318-1.061-0.371-1.52c-0.052-0.462-0.056-0.891-0.054-1.321c0.01-0.854,0.083-1.681,0.177-2.504
					c0.191-1.645,0.49-3.265,0.829-4.887c0.688-3.24,1.567-6.469,2.561-9.664c2.005-6.381,4.426-12.637,7.429-18.248
					c1.522-2.796,3.164-5.449,5.309-7.722c0.54-0.574,1.112-1.089,1.785-1.603l0.528-0.376l0.433-0.273
					c0.42-0.234,0.945-0.573,1.849-0.606c0.241,0.009,0.476,0.02,0.718,0.086c0.24,0.075,0.502,0.162,0.697,0.293
					c0.431,0.261,0.71,0.583,0.914,0.878c0.401,0.604,0.498,1.06,0.623,1.513c0.188,0.866,0.212,1.596,0.218,2.3
					c-0.045,2.763-0.52,5.048-0.949,7.094c-0.454,2.03-0.932,3.766-1.356,5.184c-0.421,1.417-0.793,2.518-1.046,3.281
					c-0.253,0.733-0.388,1.124-0.388,1.124c-0.36,1.044-1.499,1.599-2.543,1.238c-1.044-0.36-1.599-1.499-1.238-2.543
					C226.478,171.979,226.485,171.96,226.489,171.949z"/>
			</g>
			<g>
				<path class="st0" d="M240.995,147.926c0,0-1.837,3.919-4.297,9.897c-1.238,2.986-2.634,6.488-4.045,10.266
					c-0.695,1.893-1.437,3.841-2.111,5.845c-0.683,2.001-1.358,4.039-1.985,6.085c-0.593,2.051-1.169,4.123-1.516,6.135
					c-0.082,0.499-0.149,0.998-0.163,1.457c-0.002,0.224,0.005,0.447,0.034,0.611c0.005,0.159,0.147,0.243-0.082,0.021
					c-0.138-0.075-0.251-0.091-0.283-0.074c0.002-0.007,0.007-0.01,0.016-0.009c0.024-0.015,0.049-0.027,0.074-0.038
					c0.127-0.077,0.29-0.185,0.455-0.333c0.164-0.139,0.331-0.298,0.494-0.465l0.062-0.062l0.031-0.031l0.015-0.016
					c0.047-0.051-0.047,0.052-0.032,0.035l0.121-0.147l0.241-0.293c1.225-1.497,2.171-3.135,3.096-4.725
					c0.918-1.578,1.702-3.132,2.423-4.563c1.434-2.871,2.515-5.326,3.25-7.051c0.731-1.728,1.106-2.721,1.106-2.721
					c0.392-1.038,1.551-1.561,2.588-1.169s1.561,1.551,1.169,2.588c-0.042,0.111-0.092,0.216-0.151,0.314l-0.009,0.015
					c0,0-2.239,3.733-5.598,9.331c-0.861,1.387-1.789,2.888-2.818,4.46c-0.519,0.784-1.051,1.588-1.642,2.392
					c-0.565,0.772-1.239,1.708-1.906,2.434l-0.252,0.284l-0.126,0.142l-0.065,0.069l-0.019,0.018l-0.038,0.035l-0.075,0.071
					c-0.2,0.189-0.409,0.376-0.644,0.56c-0.227,0.184-0.492,0.366-0.818,0.535l-0.28,0.119c-0.115,0.036-0.235,0.068-0.359,0.092
					c-0.283,0.036-0.678,0.033-1.031-0.204c-0.18-0.105-0.282-0.238-0.398-0.374c-0.073-0.115-0.16-0.26-0.196-0.365
					c-0.09-0.228-0.125-0.418-0.153-0.601c-0.045-0.354-0.036-0.658-0.023-0.959c0.032-0.592,0.113-1.142,0.209-1.687
					c0.402-2.166,1.014-4.244,1.641-6.323c0.61-2.081,1.264-4.142,1.926-6.164c0.659-2.021,1.307-4.01,1.935-5.934
					c1.264-3.844,2.432-7.434,3.396-10.525c1.954-6.171,3.072-10.347,3.072-10.347c0.285-1.072,1.385-1.709,2.457-1.424
					c1.072,0.285,1.709,1.385,1.424,2.457C241.087,147.702,241.042,147.823,240.995,147.926z"/>
			</g>
			
				<ellipse transform="matrix(0.9397 0.342 -0.342 0.9397 84.3057 -60.387)" class="st2" cx="213.389" cy="208.867" rx="1.625" ry="4.265"/>
		</g>
	</g>
	<g>
		<g>
			<path class="st0" d="M1.522,221.426l59.44,0.848c0.36,0.005,0.647,0.301,0.642,0.661c-0.005,0.353-0.291,0.637-0.642,0.642
				l-59.44,0.848c-0.828,0.012-1.51-0.65-1.521-1.479s0.65-1.51,1.479-1.521C1.491,221.426,1.51,221.426,1.522,221.426z"/>
		</g>
		<g>
			<path class="st0" d="M285.235,224.426l-61.53-0.848c-0.36-0.005-0.648-0.301-0.643-0.661c0.005-0.354,0.291-0.637,0.643-0.643
				l61.53-0.848c0.828-0.011,1.509,0.651,1.521,1.479s-0.651,1.509-1.479,1.521C285.265,224.427,285.247,224.426,285.235,224.426z"
				/>
		</g>
		<g>
			<path class="st0" d="M6.846,163.193l62.061,27.258c0.33,0.145,0.479,0.529,0.335,0.859c-0.142,0.324-0.518,0.474-0.844,0.341
				L5.675,165.954c-0.767-0.314-1.134-1.19-0.819-1.957c0.314-0.767,1.19-1.134,1.957-0.819
				C6.821,163.182,6.837,163.189,6.846,163.193z"/>
		</g>
		<g>
			<path class="st0" d="M279.962,282.351l-64.005-28.083c-0.33-0.145-0.48-0.529-0.335-0.859c0.142-0.324,0.518-0.474,0.844-0.341
				l64.668,26.521c0.767,0.314,1.133,1.191,0.819,1.957c-0.314,0.767-1.191,1.133-1.957,0.819
				C279.986,282.362,279.97,282.355,279.962,282.351z"/>
		</g>
		<g>
			<path class="st0" d="M22.661,105.379l57.692,56.181c0.258,0.251,0.263,0.664,0.012,0.922c-0.248,0.254-0.653,0.263-0.912,0.022
				L20.591,107.55c-0.606-0.565-0.638-1.515-0.073-2.12s1.515-0.638,2.12-0.073C22.644,105.363,22.655,105.374,22.661,105.379z"/>
		</g>
		<g>
			<path class="st0" d="M264.3,339.926l-59.334-57.747c-0.258-0.251-0.263-0.664-0.012-0.921c0.248-0.255,0.653-0.263,0.912-0.022
				l60.504,56.519c0.605,0.566,0.638,1.515,0.072,2.12c-0.566,0.605-1.515,0.638-2.12,0.072
				C264.317,339.942,264.306,339.931,264.3,339.926z"/>
		</g>
		<g>
			<path class="st0" d="M56.088,45.154l42.21,85.863c0.159,0.323,0.026,0.714-0.297,0.872c-0.319,0.157-0.705,0.028-0.867-0.287
				L53.407,46.501c-0.379-0.737-0.088-1.641,0.649-2.02s1.641-0.088,2.02,0.649C56.079,45.136,56.085,45.148,56.088,45.154z"/>
		</g>
		<g>
			<path class="st0" d="M231.142,400.09l-43.35-88.13c-0.159-0.323-0.026-0.714,0.297-0.872c0.319-0.157,0.705-0.028,0.867,0.287
				l44.866,87.368c0.378,0.737,0.088,1.641-0.649,2.02s-1.641,0.088-2.02-0.649C231.151,400.108,231.145,400.096,231.142,400.09z"/>
		</g>
		<g>
			<path class="st0" d="M113.975,1.303l13.23,99.721c0.047,0.357-0.204,0.684-0.56,0.732c-0.353,0.047-0.677-0.199-0.73-0.549
				l-14.91-99.484c-0.123-0.819,0.442-1.583,1.261-1.706c0.819-0.123,1.583,0.442,1.706,1.261
				C113.973,1.284,113.975,1.297,113.975,1.303z"/>
		</g>
		<g>
			<path class="st0" d="M173.523,444.283l-13.597-102.316c-0.047-0.357,0.203-0.684,0.56-0.732c0.353-0.047,0.678,0.199,0.73,0.549
				l15.277,102.079c0.123,0.819-0.442,1.583-1.262,1.706s-1.583-0.442-1.706-1.262C173.525,444.302,173.523,444.289,173.523,444.283
				z"/>
		</g>
	</g>
</g>
</svg>
