<?xml version="1.0" encoding="utf-8"?>
<!-- Generator: Adobe Illustrator 19.0.0, SVG Export Plug-In . SVG Version: 6.00 Build 0)  -->
<svg version="1.1" id="Layer_1" xmlns="http://www.w3.org/2000/svg" xmlns:xlink="http://www.w3.org/1999/xlink" x="0px" y="0px"
	 viewBox="0 0 345.346 441.933" style="enable-background:new 0 0 345.346 441.933;" xml:space="preserve">
<style type="text/css">
	.st0{fill:#FFF9D3;stroke:#FFF9D3;stroke-linecap:round;stroke-linejoin:round;stroke-miterlimit:10;}
</style>
<g>
	<g>
		<path class="st0" d="M68.732,247.014c-1.85-0.816-3.737-1.763-5.618-2.849c-1.881-1.086-3.645-2.247-5.276-3.441L0.734,339.632
			c-0.889,1.539,0.83,4.195,3.838,5.932s6.167,1.897,7.056,0.358L68.732,247.014z"/>
		<path class="st0" d="M160.618,142.408c-11.917,20.64-110.032,55.139-109.228,79.801c4.146,4.349,9.868,9.09,16.775,13.078
			c13.146-22.769,60.407-37.374,68.816-51.939C149.72,161.284,153.929,153.993,160.618,142.408z"/>
		<path class="st0" d="M148.491,28.906c0,0,24.983-16.619,30.904-26.874c-8.146-2.084-14.265-1.945-15.289-0.171
			C161.612,6.18,155.831,16.193,148.491,28.906z"/>
		<path class="st0" d="M129.518,61.768c-8.152,14.12-16.502,28.583-23.637,40.94c11.917-20.64,110.032-55.139,109.228-79.801
			c-0.704-0.739-1.452-1.49-2.246-2.246c-3.877-3.693-8.796-7.522-14.53-10.832C185.188,32.599,137.927,47.204,129.518,61.768z"/>
		<path class="st0" d="M87.105,243.084c8.146,2.084,14.265,1.945,15.289,0.171l15.615-27.045
			C118.009,216.21,93.026,232.829,87.105,243.084z"/>
	</g>
	<g>
		<path class="st0" d="M227.619,70.37L88.143,311.949c0,0,18.671-11.809,30.336-12.519L244.845,61.033L227.619,70.37z"/>
		<path class="st0" d="M237.316,42.787C195.196,99.61,58.878,126.691,24.711,185.869c0,0-3.695,35.357,1.737,38.493
			c0,0-3.733-4.736,1.187-13.257c35.617-61.69,181.671-88.518,217.209-150.072C239.397,54.989,237.316,42.787,237.316,42.787z"/>
	</g>
	<path class="st0" d="M205.605,147.867"/>
	<g>
		<path class="st0" d="M222.06,122.56l-89.279,170.969c0,0,7.837-6.048,13.206-5.45l83.435-147.678
			C224.369,134.746,222.06,122.56,222.06,122.56z"/>
		<path class="st0" d="M239.079,203.604c0,0-41.534,63.163-54.879,68.671c-21.862,9.023,14.51-46.771,14.51-46.771
			s-22.722,11.118-52.723,62.575l-1.568-2.52c23.725-43.885,52.642-70.187,64.343-75.016c15.125-6.243-4.669,16.826-18.042,50.016
			c19.478-17.378,47.856-62.283,47.856-62.283L239.079,203.604z"/>
	</g>
	<g>
		<path class="st0" d="M305.905,170.493c-5.895,9.211-36.277,53.681-50.342,63.331l21.083-38.772
			c-3.584-3.043-4.402-10.669-4.402-10.669s-5.887,9.202,0.001,0.001c0,0-42.415,69.084-23.766,61.389
			c13.919-5.744,50.589-58.463,57.381-68.778L305.905,170.493z"/>
		<path class="st0" d="M272.8,189.988c-6.781,10.297-44.066,63.933-57.988,69.678c-18.649,7.695,23.765-61.389,23.765-61.389
			s1.09,7.042,4.402,10.669l-21.083,38.772c14.067-9.652,44.461-54.132,50.349-63.333L272.8,189.988z"/>
	</g>
	<g>
		<path class="st0" d="M340.659,154.896l-94.143,161.807c0,0,12.813-9.053,20.606-8.504l77.724-143.156
			C341.509,163.045,340.659,154.896,340.659,154.896z"/>
		<path class="st0" d="M340.659,154.896c0,0-35.688,54.235-51.435,65.039l21.083-38.772c-3.856-2.662-4.402-10.669-4.402-10.669
			s-42.414,69.085-23.765,61.389c15.385-6.348,58.757-70.898,58.757-70.898L340.659,154.896z"/>
	</g>
	<path class="st0" d="M255.857,160.627l3.757,9.106c0,0,7.399-7.661,8.448-5.118c1.049,2.543-12.112,23.699-12.112,23.699
		s23.166-22.269,19.429-31.326C271.081,146.569,255.857,160.627,255.857,160.627z"/>
	
		<ellipse transform="matrix(0.8732 0.4873 -0.4873 0.8732 196.0372 -47.7975)" class="st0" cx="189.884" cy="352.88" rx="3.982" ry="9.642"/>
	<path class="st0" d="M189.746,280.601c-23.392,33.064-97.491,44.89-115.374,75.864c0,0-3.309,27.058-0.466,28.699l0,0
		c0,0-1.276-3.653,1.88-9.12c16.722-28.963,60.751-37.16,90.937-56.539l-70.44,121.928c0,0,13.88-8.794,23.455-9.679l73.95-141.599
		C190.677,287.723,189.746,280.601,189.746,280.601z"/>
	<g>
		<path class="st0" d="M227.786,272.836c-31.223,12.884-61.542,76.992-35.69,66.323c6.286-2.594,24.454-26.192,34.346-43.325
			C236.762,277.959,229.66,272.063,227.786,272.836z M196.941,328.135c-0.921-14.638,22.053-46.001,29.572-49.103
			c2.551-1.053,5.067,3.106-3.023,17.12C215.325,310.292,201.933,326.074,196.941,328.135z"/>
		<path class="st0" d="M248.672,290.784c0,0-13.222,18.436-26.043,26.75l21.083-38.772c-3.067-2.537-4.401-10.668-4.401-10.668
			s-42.415,69.084-23.766,61.389c10.604-4.376,34.217-36.058,34.217-36.058L248.672,290.784z"/>
	</g>
</g>
</svg>
