<?xml version="1.0" encoding="utf-8"?>
<!-- Generator: Adobe Illustrator 19.0.0, SVG Export Plug-In . SVG Version: 6.00 Build 0)  -->
<svg version="1.1" xmlns="http://www.w3.org/2000/svg" xmlns:xlink="http://www.w3.org/1999/xlink" x="0px" y="0px"
	 viewBox="0 0 556.259 602.604" style="enable-background:new 0 0 556.259 602.604;" xml:space="preserve">
<style type="text/css">
	.st0{fill:#FEF9D4;}
</style>
<g id="Layer_4">
</g>
<g id="draw_here">
	<g id="XMLID_2_">
		<path id="XMLID_20_" class="st0" d="M486.529,140.28c-0.934-1.055-2.547-1.156-3.605-0.221c-1.056,0.935-1.155,2.548-0.221,3.605
			c44.139,49.902,68.449,114.115,68.449,180.81c0,150.545-122.478,273.022-273.022,273.022
			c-150.545,0-273.022-122.477-273.022-273.022c0-103.119,57.09-196.342,148.99-243.288c1.256-0.642,1.754-2.18,1.113-3.436
			c-0.643-1.257-2.183-1.754-3.436-1.113c-44.953,22.964-82.876,57.762-109.67,100.633C14.56,221.343,0,272.246,0,324.474
			c0,74.291,28.931,144.136,81.462,196.668c52.532,52.532,122.376,81.462,196.668,81.462c74.291,0,144.135-28.93,196.668-81.462
			s81.462-122.376,81.462-196.668C556.259,256.532,531.495,191.118,486.529,140.28z"/>
		<path id="XMLID_180_" class="st0" d="M470.795,152.663c-0.362,1.461-0.68,2.951-0.953,4.475c1.752,0.855,3.5,1.673,5.234,2.481
			c2.43,1.131,4.817,2.255,7.171,3.45c-2.182-2.756-4.417-5.468-6.708-8.132C473.941,154.19,472.359,153.438,470.795,152.663z"/>
		<path id="XMLID_181_" class="st0" d="M509.151,205.584c-1.628-3.496-3.298-7.041-5.26-10.575c-0.471-0.82-0.933-1.646-1.413-2.46
			c-2.458-4.083-5.412-8.134-9.332-12.054c-7.849-7.848-16.212-11.866-24.334-15.652c-0.128,1.577-0.205,3.175-0.251,4.782
			c7.499,3.525,14.628,7.189,21.448,14.007c7.537,7.537,11.22,15.449,15.12,23.825c3.891,8.356,7.914,16.997,16.006,25.089
			c0.256,0.256,0.517,0.478,0.774,0.726c-1.812-4.841-3.755-9.617-5.842-14.316C513.386,214.627,511.29,210.178,509.151,205.584z"/>
		<path id="XMLID_182_" class="st0" d="M500.258,214.478c-3.891-8.356-7.914-16.997-16.006-25.089
			c-5.037-5.035-10.285-8.493-15.545-11.327c0.101,1.779,0.247,3.556,0.441,5.332c4.096,2.394,8.082,5.247,11.967,9.131
			c7.537,7.537,11.22,15.449,15.12,23.825c3.891,8.356,7.914,16.997,16.006,25.089c5.244,5.244,10.718,8.769,16.196,11.667
			c-0.582-2.044-1.185-4.079-1.815-6.102c-3.842-2.307-7.588-5.047-11.244-8.702C507.841,230.766,504.158,222.854,500.258,214.478z"
			/>
		<path id="XMLID_183_" class="st0" d="M254.997,251.369c1.103-1.069,2.133-2.129,3.11-3.182c-4.566-3.836-9.257-6.626-13.938-9.009
			c-3.897-0.304-7.792-0.543-11.67-0.666c0.818,0.385,1.636,0.768,2.45,1.147C241.938,242.914,248.601,246.05,254.997,251.369z"/>
		<path id="XMLID_184_" class="st0" d="M245.429,259.714c1.2-0.963,2.366-1.921,3.49-2.873c-6.875-5.701-14.03-9.069-20.991-12.311
			c-4.047-1.884-7.983-3.727-11.823-5.969c-2.434,0.088-4.938,0.216-7.521,0.39c5.777,4.121,11.69,6.909,17.471,9.601
			C232.8,251.693,239.239,254.729,245.429,259.714z"/>
		<path id="XMLID_185_" class="st0" d="M217.161,257.447c6.245,2.908,12.232,5.7,17.999,10.055c1.257-0.908,2.489-1.813,3.698-2.713
			c-6.515-5.133-13.256-8.305-19.824-11.364c-7.7-3.585-15.004-7.026-21.989-13.408c-1.858,0.215-3.732,0.448-5.644,0.715
			c0.228,0.236,0.435,0.474,0.67,0.709C200.164,249.532,208.805,253.555,217.161,257.447z"/>
		<path id="XMLID_288_" class="st0" d="M208.268,266.34c5.567,2.592,10.924,5.114,16.107,8.71c1.311-0.893,2.607-1.782,3.887-2.669
			c-5.982-4.384-12.124-7.27-18.121-10.063c-8.376-3.9-16.288-7.584-23.825-15.121c-1.615-1.615-3.034-3.271-4.344-4.941
			c-1.614,0.292-3.229,0.587-4.873,0.92c1.755,2.411,3.732,4.811,6.08,7.159C191.27,258.426,199.912,262.449,208.268,266.34z"/>
		<path id="XMLID_289_" class="st0" d="M199.374,275.234c4.78,2.226,9.405,4.405,13.9,7.247c1.352-0.894,2.697-1.785,4.031-2.673
			c-5.325-3.588-10.748-6.124-16.057-8.596c-8.376-3.9-16.288-7.584-23.825-15.121c-3.603-3.603-6.312-7.294-8.598-11.078
			c-1.486,0.356-2.979,0.728-4.484,1.121c2.577,4.436,5.692,8.841,9.945,13.094C182.377,267.319,191.018,271.343,199.374,275.234z"
			/>
		<path id="XMLID_290_" class="st0" d="M66.976,221.677l5.527-1.676c-3.719-2.274-7.232-4.913-10.698-8.379
			c-4.706-4.706-7.909-9.557-10.601-14.576c-0.854,1.518-1.671,3.057-2.495,4.594c2.579,4.444,5.698,8.858,9.959,13.119
			C61.38,217.472,64.142,219.714,66.976,221.677z"/>
		<path id="XMLID_291_" class="st0" d="M38.471,222.915c-0.668,1.574-1.288,3.173-1.926,4.762c0.293,0.365,0.565,0.733,0.871,1.096
			l0.001,0c1.094,1.301,2.259,2.571,3.464,3.773c8.092,8.092,16.733,12.115,25.089,16.006c6.363,2.963,12.458,5.811,18.325,10.309
			c-1.472-3.025-3.167-5.905-5.065-8.613c-3.803-2.166-7.623-3.966-11.387-5.719c-8.376-3.9-16.288-7.584-23.826-15.122
			c-1.114-1.114-2.193-2.288-3.205-3.491l-1.698,1.428l1.698-1.429C39.975,224.921,39.208,223.92,38.471,222.915z"/>
		<path id="XMLID_294_" class="st0" d="M203.79,176.435c0.005,2.75,2.231,4.976,4.981,4.981c2.75-0.005,4.976-2.231,4.981-4.981
			c-0.005-2.75-2.231-4.976-4.981-4.981C206.021,171.46,203.795,173.685,203.79,176.435z M212.189,176.435
			c0,1.888-1.53,3.418-3.418,3.418c-1.888,0-3.418-1.53-3.418-3.418c0-1.888,1.531-3.418,3.418-3.418
			C210.659,173.017,212.189,174.548,212.189,176.435z"/>
		<path id="XMLID_295_" class="st0" d="M119.381,518.762c-0.197,0.189-0.385,0.388-0.584,0.574c-0.281,0.26-0.676,0.608-0.968,0.841
			l-0.953,0.768c-0.693,0.548-1.362,1.039-2.055,1.517c-1.037,0.725-2.125,1.366-3.236,1.958c3.347,2.791,6.761,5.502,10.247,8.125
			c-0.915-4.159-1.714-8.421-2.34-12.803C119.449,519.418,119.42,519.086,119.381,518.762z"/>
		<path id="XMLID_298_" class="st0" d="M151.917,531.997c-0.147-0.035-0.158-0.017-0.417-0.096l-0.339-0.091l-1.377-0.389
			c-0.925-0.281-1.844-0.562-2.744-0.909c-1.794-0.698-3.571-1.48-5.297-2.38c-1.703-0.936-3.361-1.968-4.969-3.087
			c-1.62-1.106-3.127-2.374-4.579-3.702c-0.576-0.521-1.115-1.08-1.661-1.632c0.656,6.05,1.625,11.917,2.854,17.543
			c0.331,1.434,0.714,2.803,1.069,4.207c3.091,2.05,13.672,9.075,28.431,16.378c0.037-0.79,0.05-1.582,0.099-2.37
			c1.157-18.116,5.339-35.831,11.744-52.29l2.464-6.138c0.824-2.041,1.793-4.008,2.682-6.01c1.744-4.026,3.798-7.865,5.756-11.741
			l0.739-1.45l0.884-1.556l1.576-2.734l3.151-5.455c2.411-3.654,4.744-7.433,7.219-10.934c9.9-13.917,20.701-26.568,31.699-38.409
			c10.979-11.861,22.08-23.01,32.957-33.703c10.859-10.714,21.418-21.066,31.442-31.217c10.096-10.084,19.583-20.024,28.321-29.857
			c4.435-4.869,8.474-9.856,12.542-14.647c3.868-4.925,7.749-9.68,11.156-14.559c3.6-4.764,6.623-9.692,9.709-14.404
			c2.788-4.866,5.663-9.525,7.906-14.294c2.532-4.652,4.278-9.43,6.218-13.963c0.839-2.307,1.517-4.618,2.266-6.865
			c0.366-1.127,0.728-2.243,1.087-3.349c0.297-1.119,0.518-2.244,0.779-3.35c0.515-2.217,1.019-4.389,1.513-6.514
			c0.367-2.146,0.583-4.267,0.876-6.334c0.734-4.133,0.636-8.118,0.77-11.907c0.079-15.227-3.68-26.871-6.093-34.694
			c-2.841-6.914-4.467-10.871-4.75-11.561c-1.548-0.283-3.158-0.549-4.837-0.765c-1.91-0.299-3.904-0.463-5.917-0.684
			c-2.023-0.147-4.072-0.333-6.13-0.39c-2.053-0.117-4.11-0.102-6.13-0.125c-2.02,0.048-4.008,0.053-5.925,0.185
			c-3.836,0.195-7.396,0.583-10.42,1.03c-1.525,0.185-2.874,0.469-4.083,0.68c-1.197,0.199-2.264,0.427-3.156,0.641l-0.206,0.047
			c0.554,1.806,1.042,3.625,1.391,5.45c0.925,5.22,0.987,10.478,0.27,15.493c-1,7.065-3.652,13.528-7.229,19.001
			c0.318,0.816,0.702,1.865,1.085,3.194c0.067,0.229,0.137,0.487,0.206,0.731l0.282,0.219c3.374,2.619,6.998,4.919,10.856,6.724
			c1.934,0.874,3.908,1.688,5.946,2.343c2.022,0.699,4.105,1.227,6.193,1.729c4.178,1.016,8.463,1.649,12.77,1.946
			c4.298,0.301,8.673,0.439,12.931-0.502c-1.026,0.369-2.075,0.657-3.157,0.884c-1.078,0.19-2.161,0.362-3.252,0.469
			c-2.179,0.22-4.376,0.358-6.569,0.312c-4.386-0.074-8.774-0.49-13.106-1.307c-2.161-0.428-4.312-0.935-6.425-1.595
			c-1.065-0.301-2.111-0.668-3.153-1.053c-1.052-0.354-2.057-0.841-3.082-1.274c-3.341-1.494-6.478-3.399-9.412-5.569
			c0.688,3.222,1.206,7.242,0.901,12.015c-0.088,1.997-0.361,4.116-0.784,6.311l0.147,0.28c1.807,3.438,3.776,6.796,6.072,9.933
			c2.253,3.141,4.779,6.156,7.503,8.932c2.714,2.803,5.661,5.395,8.772,7.803c1.549,1.215,3.144,2.381,4.786,3.487
			c1.65,1.095,3.325,2.155,5.034,3.195c-3.753-1.371-7.329-3.218-10.794-5.268c-3.428-2.112-6.682-4.538-9.677-7.269
			c-1.523-1.339-2.922-2.812-4.304-4.298c-0.665-0.748-1.376-1.527-2.004-2.282c-0.658-0.783-1.297-1.582-1.897-2.398
			c-1.736-2.338-3.353-4.772-4.794-7.306c-1.206,4.158-2.968,8.523-5.334,12.935c-4.569,8.629-11.222,17.439-19.227,26.242
			c-1.931,2.123-3.947,4.249-6.022,6.378c0.339,4.08,1.169,8.094,2.301,12.011c0.323,1.063,0.637,2.022,1.039,3.118l1.21,3.022
			c0.869,2.001,1.801,3.985,2.898,5.883c1.09,1.901,2.233,3.785,3.516,5.583c1.295,1.785,2.628,3.564,4.094,5.242
			c1.463,1.678,2.97,3.342,4.599,4.896c1.608,1.581,3.284,3.1,5.027,4.587c-4.107-2.012-7.959-4.627-11.406-7.73
			c-1.741-1.535-3.381-3.196-4.896-4.972c-1.506-1.781-2.974-3.619-4.22-5.61c-1.287-1.965-2.409-4.035-3.465-6.143l-1.393-3.267
			c-0.4-1.026-0.82-2.215-1.174-3.318c-1.007-3.057-1.64-6.22-2.038-9.406c-14.448,14.302-31.73,28.836-49.805,44.239
			c-0.961,0.822-1.934,1.665-2.899,2.493c0.969,4.047,2.052,8.078,3.457,11.983c0.423,1.164,0.757,2.235,1.199,3.298
			c0.417,1.071,0.905,2.12,1.409,3.163c1.023,2.083,2.238,4.08,3.496,6.065c1.274,1.977,2.714,3.857,4.242,5.668
			c1.499,1.842,3.144,3.571,4.895,5.194c1.734,1.644,3.594,3.165,5.593,4.505c2,1.33,4.135,2.514,6.533,3.2
			c-2.514,0.086-5.034-0.599-7.413-1.499c-2.381-0.931-4.631-2.171-6.789-3.55c-4.262-2.84-8.091-6.34-11.347-10.361
			c-1.656-1.991-3.12-4.148-4.43-6.41c-1.295-2.232-2.485-4.716-3.378-7.051c-1.156-3.089-2.196-6.212-3.077-9.379
			c-8.45,7.321-16.971,14.892-25.311,22.816c-11.142,10.589-21.976,21.822-31.573,33.939c-0.588,0.739-1.153,1.492-1.73,2.238
			c1.715,3.481,3.519,6.916,5.509,10.253l1.859,3.05l1.94,3.006c1.28,2.019,2.691,3.948,4.071,5.915
			c1.429,1.925,2.851,3.873,4.372,5.75c1.471,1.924,3.02,3.797,4.63,5.626c1.566,1.879,3.21,3.7,4.881,5.521
			c1.661,1.838,3.37,3.634,5.083,5.499c-2.309-1.012-4.53-2.223-6.705-3.505c-1.103-0.625-2.137-1.343-3.203-2.029
			c-1.045-0.71-2.108-1.409-3.123-2.169c-4.061-3.032-7.936-6.378-11.437-10.105c-1.758-1.855-3.443-3.787-5.041-5.79
			c-0.817-0.99-1.561-2.033-2.332-3.059l-1.119-1.54l-1.096-1.608c-1.48-2.221-2.867-4.508-4.159-6.847
			c-6.369,9.127-11.871,18.711-16.053,28.775c-5.838,13.829-9.631,28.239-11.613,42.32c-1.502,10.338-1.962,20.531-1.626,30.358
			c1.062,1.763,2.186,3.487,3.426,5.134l1.622,2.05c0.569,0.66,1.12,1.34,1.723,1.973c1.155,1.317,2.414,2.539,3.69,3.759
			c2.576,2.411,5.399,4.612,8.412,6.617l2.29,1.478l1.184,0.709l0.304,0.177l0.242,0.129l0.626,0.322
			c1.666,0.873,3.33,1.748,4.961,2.722c-1.887-0.218-3.74-0.536-5.593-0.856L151.917,531.997z M344.238,176.228
			c1.736,0,3.143,1.407,3.143,3.143c0,1.736-1.407,3.143-3.143,3.143c-1.736,0-3.143-1.407-3.143-3.143
			C341.095,177.635,342.502,176.228,344.238,176.228z M329.653,175.626c1.253-0.498,2.864-1.24,4.232-2.299
			c0.695-0.517,1.324-1.119,1.896-1.714c0.55-0.614,1.087-1.188,1.488-1.733c0.838-1.058,1.422-1.787,1.422-1.787
			s-0.078,0.217-0.214,0.598c-0.153,0.367-0.353,0.919-0.686,1.527c-0.628,1.226-1.689,2.838-3.234,3.991
			c-0.76,0.578-1.603,1.041-2.427,1.363c-0.817,0.347-1.629,0.5-2.305,0.654c-1.375,0.241-2.302,0.209-2.302,0.209
			S328.375,176.112,329.653,175.626z M347.751,210.615c-2.246,0-4.067-1.821-4.067-4.067s1.821-4.067,4.067-4.067
			c2.246,0,4.067,1.821,4.067,4.067S349.997,210.615,347.751,210.615z M364.745,180.92c-0.303,0.487-0.801,1.001-1.318,1.646
			c-0.52,0.655-1.218,1.236-1.955,1.934c-0.777,0.631-1.631,1.322-2.596,1.95c-0.974,0.611-1.992,1.291-3.13,1.822
			c-1.109,0.597-2.302,1.105-3.526,1.599c-1.24,0.443-2.5,0.905-3.793,1.254c-1.294,0.347-2.599,0.648-3.901,0.86
			c-1.287,0.291-2.599,0.317-3.841,0.471c-1.258,0.039-2.47,0.11-3.622,0.024c-1.151-0.065-2.235-0.129-3.225-0.334
			c-0.995-0.137-1.891-0.337-2.668-0.6c-0.781-0.231-1.459-0.41-1.99-0.664c-1.072-0.457-1.658-0.742-1.658-0.742
			s0.662,0.103,1.776,0.327c0.548,0.146,1.244,0.192,2.027,0.268c0.779,0.103,1.666,0.126,2.63,0.143
			c0.959,0.061,2.004-0.023,3.1-0.054c1.097-0.026,2.25-0.225,3.439-0.313c1.183-0.206,2.41-0.352,3.638-0.633
			c1.238-0.225,2.475-0.541,3.704-0.891c1.239-0.308,2.449-0.727,3.64-1.124c1.167-0.462,2.354-0.833,3.433-1.352
			c2.218-0.92,4.158-2.028,5.803-3.027c0.759-0.57,1.56-1.007,2.142-1.508c0.587-0.503,1.158-0.895,1.55-1.319
			c0.798-0.83,1.278-1.285,1.278-1.285S365.358,179.946,364.745,180.92z M343.498,244.633c-2.859,0-5.176-2.318-5.176-5.177
			c0-2.859,2.318-5.177,5.176-5.177s5.177,2.318,5.177,5.177C348.675,242.315,346.357,244.633,343.498,244.633z M319.279,276.801
			c3.574,0,6.471,2.897,6.471,6.471c0,3.574-2.897,6.471-6.471,6.471c-3.574,0-6.471-2.897-6.471-6.471
			C312.809,279.698,315.706,276.801,319.279,276.801z M269.733,328.197c4.391,0,7.95,3.559,7.95,7.95c0,4.39-3.559,7.95-7.95,7.95
			s-7.95-3.559-7.95-7.95C261.783,331.756,265.342,328.197,269.733,328.197z M213.16,382.551c5.207,0,9.429,4.221,9.429,9.429
			c0,5.207-4.221,9.429-9.429,9.429s-9.429-4.221-9.429-9.429C203.732,386.772,207.953,382.551,213.16,382.551z M153.26,469.628
			c0-4.288,3.476-7.765,7.765-7.765c4.288,0,7.765,3.476,7.765,7.765c0,4.288-3.476,7.765-7.765,7.765
			C156.737,477.392,153.26,473.916,153.26,469.628z"/>
		<path id="XMLID_307_" class="st0" d="M129.161,442.108c0.667-1.849,1.478-3.701,2.264-5.553c0.779-1.876,1.578-3.707,2.417-5.419
			c4.146-9.141,9.328-17.879,15.15-26.149c-0.475,0.074-0.948,0.162-1.424,0.227c-1.139,0.158-2.278,0.312-3.423,0.415l-1.744,0.148
			l-1.655,0.113c-2.342,0.143-4.618,0.154-6.908,0.112c-2.288-0.073-4.569-0.204-6.833-0.495c-2.263-0.283-4.515-0.581-6.738-1.054
			l-3.314-0.763c-1.113-0.275-2.157-0.547-3.3-0.924c-2.115-0.72-4.226-1.468-6.319-2.313c2.256-0.069,4.495-0.041,6.729,0.014
			l3.267-0.04l3.281-0.111c2.18-0.109,4.343-0.182,6.497-0.381c2.153-0.204,4.292-0.398,6.418-0.681
			c2.123-0.25,4.253-0.588,6.303-0.926l1.634-0.286l1.54-0.296l3.119-0.644c3.746-0.834,7.439-1.838,11.09-2.975
			c0.899-1.115,1.797-2.231,2.714-3.326c10.27-12.305,21.639-23.49,33.213-33.945c7.591-6.853,15.272-13.373,22.897-19.69
			c-0.992-0.036-1.984-0.089-2.973-0.169c-1.076-0.081-2.072-0.178-3.207-0.304c-1.028-0.14-2.003-0.24-3.073-0.412
			c-2.142-0.336-4.187-0.787-6.238-1.297c-2.047-0.503-4.074-1.082-6.05-1.805c-1.982-0.697-3.939-1.451-5.84-2.325
			c-3.799-1.748-7.453-3.772-10.8-6.223c3.958,1.235,7.859,2.403,11.799,3.311c1.975,0.431,3.923,0.911,5.903,1.236
			c1.976,0.336,3.942,0.661,5.916,0.913c1.966,0.265,3.972,0.41,5.892,0.549c0.958,0.087,2.026,0.124,3.034,0.188l2.919,0.065
			c3.688,0.001,7.363-0.188,11.021-0.556c1.218-0.993,2.445-2.002,3.655-2.985c17.586-14.313,34.484-27.58,48.769-40.593
			c-0.513,0.048-1.026,0.1-1.54,0.128c-0.755,0.042-1.512,0.043-2.267,0.026l-2.215-0.115c-1.543-0.144-3.043-0.326-4.501-0.642
			c-2.923-0.652-5.769-1.578-8.407-2.907c-1.327-0.64-2.61-1.36-3.829-2.171c-1.231-0.787-2.386-1.686-3.496-2.615
			c5.203,2.539,10.662,4.258,16.186,4.745c1.383,0.14,2.754,0.19,4.084,0.19l2.099-0.086c0.684-0.042,1.363-0.129,2.042-0.193
			c2.589-0.283,5.128-0.886,7.586-1.711c2.225-2.131,4.373-4.258,6.432-6.385c8.142-8.388,14.896-16.768,19.58-24.959
			c1.984-3.442,3.558-6.841,4.784-10.133c-1.172,1.052-2.395,2.049-3.688,2.948c-0.718,0.51-1.454,0.995-2.201,1.459
			c-0.747,0.476-1.553,0.9-2.268,1.306c-0.732,0.419-1.592,0.783-2.38,1.172c-0.81,0.352-1.615,0.689-2.431,1.008
			c-3.275,1.237-6.691,2.069-10.134,2.443c-3.444,0.354-6.908,0.385-10.297-0.091c3.41-0.218,6.78-0.573,10.04-1.402
			c1.629-0.402,3.244-0.826,4.814-1.384c1.578-0.53,3.108-1.178,4.618-1.848l2.214-1.106c0.711-0.415,1.399-0.767,2.125-1.226
			c0.745-0.467,1.432-0.862,2.102-1.331c0.679-0.463,1.345-0.944,1.994-1.448c2.586-2.02,4.986-4.277,7.086-6.798l0.488-0.586
			c0.46-2.023,0.782-3.979,0.939-5.834c0.436-4.232,0.165-7.912-0.313-10.929c-0.715,1.591-1.54,3.134-2.483,4.603
			c-0.748,1.168-1.584,2.281-2.505,3.319c-0.452,0.53-0.969,1.034-1.423,1.499c-0.451,0.484-1.026,0.947-1.532,1.417
			c-2.117,1.783-4.473,3.298-7.043,4.277c-2.554,0.995-5.255,1.603-7.958,1.649c5.335-0.868,10.219-3.418,13.991-7.032
			c0.449-0.478,0.912-0.882,1.348-1.413c0.454-0.528,0.876-0.991,1.267-1.512c0.793-1.038,1.533-2.116,2.21-3.232
			c1.351-2.238,2.397-4.649,3.24-7.124l0.108-0.318c-0.06-0.251-0.121-0.515-0.18-0.749c-0.213-0.868-0.438-1.633-0.65-2.295
			c-1.29,1.843-2.684,3.566-4.161,5.139c-6.08,6.524-13.352,10.673-20.062,13.122c-3.368,1.223-6.6,2.074-9.624,2.666
			c0.017,1.256-0.039,2.517-0.229,3.753c-0.39,2.68-1.073,5.334-2.159,7.815c-2.057,5.027-5.216,9.49-8.707,13.566
			c-7.051,8.147-15.438,14.921-23.955,21.36c-8.567,6.399-17.401,12.403-26.251,18.35c-8.853,5.946-17.734,11.831-26.51,17.852
			c-17.549,12.026-34.718,24.625-50.438,38.82c-7.81,7.136-15.338,14.579-22.177,22.601c-6.868,7.992-13.114,16.499-18.426,25.544
			c-5.384,9.003-9.663,18.614-12.959,28.518c-3.155,9.952-5.251,20.234-6.078,30.636c-0.353,5.2-0.584,10.432-0.361,15.634
			l0.246,7.99c0.091,2.659,0.399,5.219,0.586,7.833c0.133,2.327,0.393,4.651,0.691,6.975c7.607,8.534,15.759,16.572,24.417,24.041
			l0.101-0.074c1.173-0.942,2.311-1.903,3.396-2.911c0.538-0.506,1.069-1.038,1.544-1.548l0.774-0.845l0.711-0.823
			c0.968-1.1,1.842-2.271,2.683-3.456c0.402-0.577,0.739-1.192,1.11-1.787c-0.765-11.06-0.435-22.627,1.464-34.289
			c1.164-7.543,2.933-15.113,5.223-22.607C126.464,449.525,127.704,445.787,129.161,442.108z"/>
		<path id="XMLID_308_" class="st0" d="M304.091,570.051c1.975-1.171,4.204-2.492,6.635-3.933c2.399-1.562,5.228-2.689,8.133-4.137
			c2.884-1.507,6.107-2.632,9.422-3.866c3.287-1.339,6.81-2.297,10.376-3.354c3.546-1.161,7.265-1.803,10.941-2.706
			c3.688-0.836,7.428-1.365,11.093-2.074c3.685-0.476,7.321-1.073,10.863-1.23c3.541-0.171,6.969-0.279,10.215-0.074
			c1.623,0.084,3.2,0.096,4.723,0.233c1.52,0.15,2.989,0.294,4.399,0.433c2.816,0.284,5.382,0.744,7.648,1.118
			c2.263,0.457,4.226,0.839,5.829,1.281c0.14,0.035,0.261,0.068,0.396,0.102c5.882-3.283,11.623-6.784,17.212-10.499
			c-0.162-3.079-0.36-6.155-0.705-9.216c-0.314-3.251-0.81-6.474-1.347-9.688c-2.169-0.186-4.412-0.315-6.628-0.36
			c-2.976-0.053-5.962-0.005-8.949,0.084c-2.986,0.134-5.976,0.299-8.957,0.595c-2.983,0.265-5.96,0.63-8.927,1.069
			c-2.967,0.431-5.928,0.93-8.869,1.533c-2.949,0.561-5.873,1.256-8.789,1.974c-2.922,0.704-5.812,1.529-8.702,2.366
			c-2.866,0.908-5.746,1.788-8.57,2.833c-2.853,0.967-5.633,2.127-8.442,3.221c-2.755,1.218-5.556,2.343-8.273,3.656
			c-2.755,1.236-5.435,2.625-8.124,4.005c-2.67,1.411-5.311,2.889-7.923,4.414c-2.579,1.58-5.201,3.102-7.7,4.814
			c-2.553,1.635-5.032,3.378-7.482,5.168c-2.495,1.734-4.845,3.643-7.279,5.467c-0.993,0.772-1.964,1.573-2.935,2.375
			c-1.426,6.053-2.152,12.303-2.313,18.73c39.358-1.927,76.411-12.606,109.272-30.119c-2.726,0.114-5.973,0.249-9.632,0.402
			c-2.76,0.158-5.74,0.241-8.885,0.45c-3.139,0.177-6.45,0.365-9.874,0.559c-3.428,0.093-6.95,0.409-10.561,0.504
			c-3.58,0.326-7.243,0.605-10.866,1.122c-3.598,0.636-7.27,1.012-10.761,1.907c-3.517,0.792-7.013,1.491-10.275,2.575
			c-1.649,0.492-3.271,0.977-4.858,1.451c-1.604,0.438-3.067,1.138-4.56,1.652c-2.927,1.159-5.831,2.037-8.24,3.335
			c-2.484,1.195-4.762,2.29-6.781,3.261c-1.962,1.123-3.632,2.194-5.037,3.015c-2.793,1.678-4.388,2.637-4.388,2.637l-0.371-0.552
			c0,0,1.492-1.113,4.103-3.061C300.66,572.552,302.22,571.338,304.091,570.051z"/>
		<path id="XMLID_311_" class="st0" d="M284.387,584.623c0.234-11.251,2.161-22.149,6.257-32.52
			c3.537-8.964,8.707-17.513,15.65-25.566c-0.836-0.031-1.734-0.092-2.736-0.231c-1.118-0.12-2.307-0.247-3.561-0.382
			c-1.256-0.125-2.571-0.263-3.872-0.587c-1.317-0.278-2.689-0.568-4.109-0.869c-0.708-0.151-1.429-0.304-2.16-0.459
			c-0.714-0.216-1.439-0.435-2.174-0.657c-2.936-0.898-6.046-1.779-9.105-3.105c-1.538-0.635-3.139-1.19-4.685-1.917
			c-1.537-0.741-3.093-1.49-4.662-2.246c-1.586-0.716-3.104-1.591-4.631-2.458c-1.522-0.875-3.08-1.698-4.578-2.62
			c-2.946-1.925-5.963-3.727-8.718-5.818c-2.839-1.966-5.483-4.098-8.034-6.16c-2.528-2.089-4.899-4.197-7.097-6.239
			c-2.162-2.086-4.219-4.036-5.975-5.983c-1.829-1.872-3.362-3.72-4.734-5.341c-1.396-1.6-2.431-3.148-3.373-4.34
			c-0.906-1.224-1.504-2.268-1.964-2.938c-0.443-0.683-0.68-1.047-0.68-1.047s0.258,0.35,0.742,1.005
			c0.5,0.643,1.155,1.642,2.129,2.806c1.012,1.134,2.125,2.602,3.608,4.109c1.459,1.528,3.084,3.265,5.008,5.012
			c1.85,1.82,4.005,3.63,6.261,5.56c2.292,1.887,4.754,3.826,7.365,5.732c2.635,1.879,5.354,3.816,8.254,5.577
			c2.818,1.886,5.879,3.469,8.855,5.173c1.512,0.81,3.076,1.518,4.603,2.279c1.531,0.753,3.049,1.513,4.624,2.111
			c1.554,0.638,3.096,1.27,4.62,1.895c1.527,0.61,3.094,1.046,4.599,1.566c2.999,1.097,6.004,1.747,8.824,2.432
			c0.705,0.169,1.401,0.336,2.086,0.5c0.696,0.103,1.38,0.205,2.054,0.305c1.344,0.201,2.642,0.396,3.888,0.583
			c1.25,0.238,2.426,0.281,3.54,0.323c1.113,0.056,2.169,0.109,3.161,0.158c1.928,0.19,3.802,0.028,5.323-0.067
			c0.329-0.019,0.637-0.038,0.935-0.056c-0.241-1.812-0.373-3.637-0.373-5.465c0.005-8.79,2.669-17.612,7.228-25.285
			c4.565-7.667,11.046-14.214,18.87-18.313c1.213-0.635,2.463-1.204,3.738-1.713c-1.014-0.38-2.054-0.8-3.096-1.308
			c-1.147-0.515-2.343-1.051-3.58-1.606c-1.204-0.62-2.422-1.315-3.685-2c-2.571-1.294-5.027-3.082-7.655-4.758
			c-2.473-1.899-5.126-3.733-7.519-5.951c-2.508-2.085-4.811-4.453-7.146-6.773c-2.206-2.442-4.469-4.827-6.45-7.376
			c-2.08-2.468-3.918-5.052-5.741-7.51c-1.728-2.527-3.439-4.938-4.911-7.319c-1.499-2.365-2.901-4.604-4.11-6.724
			c-2.49-4.193-4.402-7.776-5.735-10.282c-1.321-2.513-2.076-3.949-2.076-3.949s0.845,1.384,2.325,3.806
			c1.49,2.413,3.624,5.861,6.366,9.869c1.336,2.027,2.871,4.161,4.505,6.407c1.608,2.263,3.454,4.538,5.313,6.917
			c1.952,2.307,3.918,4.728,6.108,7.01c2.095,2.369,4.452,4.548,6.739,6.778c2.409,2.101,4.773,4.242,7.307,6.085
			c2.426,1.982,5.073,3.56,7.527,5.213c2.599,1.423,5.01,2.966,7.506,4.019c1.224,0.567,2.414,1.118,3.565,1.652
			c1.188,0.442,2.335,0.87,3.437,1.28c2.188,0.902,4.233,1.39,6.024,1.905c0.898,0.251,1.738,0.487,2.516,0.705
			c0.569,0.11,1.059,0.205,1.563,0.303c-0.615-3.34-0.95-6.759-0.95-10.22c0.005-12.477,3.926-25.399,11.617-36.213
			c6.241-8.781,15.066-16.102,26.18-20.543c-1.468-0.762-3.092-1.635-4.844-2.631c-3.629-2.058-7.77-4.615-12.019-7.609
			c-2.143-1.494-4.282-3.127-6.398-4.764c-2.159-1.704-4.282-3.479-6.357-5.293c-2.062-1.836-4.079-3.715-6.013-5.616
			c-1.922-1.913-3.771-3.833-5.505-5.739c-3.469-3.812-6.492-7.546-8.959-10.83c-2.47-3.283-4.39-6.111-5.692-8.116
			c-1.286-2.013-2.02-3.164-2.02-3.164s0.819,1.09,2.254,2.998c1.448,1.895,3.572,4.562,6.266,7.625
			c2.691,3.065,5.959,6.524,9.655,10.011c1.848,1.743,3.806,3.488,5.83,5.217c2.035,1.716,4.147,3.401,6.292,5.037
			c2.164,1.619,4.355,3.181,6.531,4.647c2.252,1.483,4.432,2.898,6.591,4.169c4.327,2.58,8.5,4.734,12.132,6.443
			c2.808,1.325,5.282,2.374,7.271,3.179c-0.037-0.802-0.091-1.603-0.091-2.407c0.009-12.439,4.282-25.01,11-36.078
			c6.731-11.066,15.924-20.658,26.107-27.06c2.518-1.58,5.1-2.964,7.725-4.122c-3.911-1.084-8.379-2.569-13.001-4.537
			c-2.363-0.995-4.723-2.101-7.132-3.359c-2.304-1.188-4.701-2.551-7.025-3.975c-4.609-2.848-8.964-6.068-12.801-9.346
			c-3.842-3.275-7.171-6.601-9.866-9.579c-2.698-2.977-4.769-5.602-6.177-7.464c-1.408-1.863-2.161-2.963-2.161-2.963
			s0.837,1.039,2.382,2.782c1.545,1.742,3.804,4.186,6.699,6.917c2.891,2.732,6.422,5.746,10.427,8.653
			c4,2.91,8.476,5.705,13.139,8.106c2.321,1.183,4.649,2.282,7.098,3.313c2.326,0.992,4.723,1.898,7.034,2.663
			c4.633,1.558,9.058,2.648,12.877,3.384c3.238,0.628,6,0.991,8.149,1.227c-1.296-5.957-1.938-12.157-1.938-18.426
			c0.005-13.981,3.04-28.258,8.546-40.698c3.578-8.064,8.213-15.352,13.797-21.261c-0.239,0.032-0.456,0.066-0.701,0.098
			c-3.993,0.509-8.669,0.932-13.682,1.062c-2.507,0.063-5.091,0.09-7.722-0.015c-2.556-0.065-5.304-0.221-7.935-0.461
			c-2.651-0.224-5.294-0.53-7.879-0.922c-2.588-0.366-5.118-0.828-7.551-1.322c-4.868-0.991-9.343-2.186-13.124-3.357
			c-3.783-1.169-6.874-2.31-9.022-3.139c-2.137-0.854-3.359-1.342-3.359-1.342s1.255,0.39,3.451,1.072
			c2.202,0.656,5.363,1.545,9.197,2.405c3.833,0.862,8.341,1.69,13.197,2.284c2.428,0.296,4.941,0.552,7.499,0.709
			c2.555,0.182,5.156,0.276,7.752,0.289c2.616,0.029,5.126-0.024,7.741-0.163c2.541-0.098,5.045-0.324,7.453-0.576
			c4.821-0.508,9.275-1.271,13.054-2.061c2.924-0.614,5.431-1.244,7.423-1.782c-5.546-7.037-9.828-15.61-12.861-24.921
			c-3.634-11.176-5.491-23.4-5.493-35.301c0.005-8.665,0.984-17.16,3.031-24.961c-3.221,2.706-7.093,5.718-11.411,8.685
			c-2.164,1.48-4.426,2.968-6.775,4.394c-2.364,1.433-4.727,2.784-7.219,4.135c-2.463,1.307-4.947,2.557-7.428,3.712
			c-2.486,1.145-4.949,2.226-7.366,3.185c-4.827,1.938-9.423,3.482-13.399,4.652c-3.977,1.173-7.332,1.976-9.686,2.502
			c-2.359,0.498-3.707,0.783-3.707,0.783s1.322-0.385,3.634-1.059c2.303-0.701,5.578-1.752,9.428-3.211
			c3.85-1.457,8.273-3.326,12.873-5.59c2.305-1.122,4.642-2.367,6.99-3.671c2.343-1.314,4.68-2.721,6.98-4.174
			c2.249-1.447,4.557-3.008,6.719-4.554c2.175-1.557,4.257-3.165,6.241-4.753c3.961-3.188,7.471-6.373,10.368-9.206
			c2.14-2.097,3.947-3.99,5.38-5.549c-15.16-3.959-30.339-13.928-42.556-27.047c-4.22-4.548-8.075-9.488-11.443-14.702
			c-5.4-8.363-9.526-17.441-11.752-26.812c-1.815,3.653-4.114,7.824-6.73,11.808c-0.991,1.522-2.028,3.005-3.076,4.438
			c-2.589,3.539-5.255,6.735-7.533,9.184c-1.584,1.737-2.965,3.122-3.943,4.077c-0.98,0.953-1.54,1.498-1.54,1.498l-2.787-2.786
			c0,0,0.511-0.555,1.405-1.527c0.891-0.972,2.146-2.379,3.572-4.128c1.885-2.265,4.039-5.137,6.139-8.298
			c1.115-1.68,2.217-3.437,3.253-5.238c3.002-5.176,5.469-10.638,7.111-14.824c-6.951,2.258-14.703,3.275-22.686,3.28
			c-9.928-0.002-20.217-1.571-29.761-4.413c-9.543-2.849-18.342-6.959-25.281-12.19c-1.041-0.787-2.026-1.608-2.98-2.447
			c0.126,1.043,0.249,2.141,0.366,3.287c0.442,4.342,0.773,9.395,0.863,14.795c0.005,0.31,0.018,0.607,0.021,0.919
			c0.027,2.876-0.009,5.845-0.125,8.857c-0.079,1.497-0.159,3.005-0.239,4.52c-0.122,1.526-0.244,3.058-0.366,4.59
			c-1.103,12.188-3.697,24.136-6.285,32.864c-1.278,4.372-2.52,7.955-3.423,10.447c-0.929,2.482-1.46,3.9-1.46,3.9
			s0.432-1.45,1.188-3.988c0.729-2.544,1.718-6.193,2.687-10.617c1.972-8.835,3.713-20.805,3.97-32.801
			c0.016-1.491,0.033-2.981,0.049-4.466c-0.024-1.499-0.047-2.992-0.07-4.473c-0.088-2.945-0.253-5.837-0.471-8.629
			c-0.044-0.55-0.101-1.076-0.15-1.618c-0.446-4.958-1.072-9.576-1.754-13.544c-0.42-2.43-0.846-4.596-1.248-6.5
			c-4.536,6.362-10.608,11.819-17.746,15.994c-1.787,1.045-3.662,1.981-5.575,2.861c-8.529,3.924-18.216,6.182-28.455,6.183
			c-3.385,0-6.83-0.257-10.305-0.765c0.375,0.335,0.734,0.655,1.122,1.001c0.82,0.81,1.667,1.646,2.538,2.507
			c1.785,1.672,3.433,3.671,5.245,5.616c1.661,2.087,3.484,4.145,5.064,6.453c1.686,2.224,3.181,4.635,4.695,7.02
			c1.387,2.466,2.853,4.881,3.996,7.418c1.265,2.472,2.256,5.02,3.243,7.463c0.866,2.49,1.749,4.88,2.345,7.217
			c0.629,2.328,1.203,4.527,1.541,6.602c0.192,1.03,0.376,2.016,0.552,2.955c0.114,0.948,0.223,1.847,0.325,2.692
			c0.222,1.685,0.38,3.155,0.404,4.376c0.121,2.43,0.189,3.818,0.189,3.818s-0.172-1.378-0.474-3.789
			c-0.113-1.208-0.381-2.657-0.726-4.31c-0.163-0.826-0.336-1.706-0.519-2.633c-0.242-0.913-0.497-1.873-0.763-2.875
			c-0.483-2.014-1.213-4.135-1.998-6.366c-0.753-2.24-1.796-4.516-2.816-6.871c-1.142-2.309-2.284-4.703-3.691-7.007
			c-1.285-2.367-2.885-4.599-4.391-6.867c-1.635-2.19-3.236-4.392-5.016-6.403c-1.672-2.093-3.574-3.934-5.297-5.801
			c-1.876-1.728-3.572-3.507-5.393-4.969c-0.886-0.754-1.749-1.487-2.583-2.196c-0.869-0.665-1.709-1.307-2.516-1.924
			c-1.597-1.266-3.116-2.292-4.461-3.192c-0.266-0.186-0.507-0.343-0.762-0.515c-0.314-0.213-0.639-0.439-0.941-0.636
			c-0.015,0.283-0.061,0.55-0.08,0.832c-0.868,13.019-6.106,23.833-13.873,31.518c-4.774,4.733-10.486,8.255-16.651,10.532
			c1.133,0.369,2.292,0.763,3.503,1.175c2.063,0.72,4.202,1.585,6.4,2.49c2.177,0.967,4.429,1.944,6.637,3.111
			c2.249,1.075,4.418,2.399,6.617,3.639c2.128,1.373,4.291,2.675,6.278,4.176c2.052,1.4,3.914,2.994,5.751,4.47
			c1.744,1.594,3.49,3.062,4.963,4.644c1.507,1.548,2.911,3.021,4.076,4.501c0.597,0.723,1.17,1.416,1.715,2.075
			c0.498,0.695,0.971,1.354,1.415,1.974c0.901,1.227,1.659,2.312,2.194,3.266c1.128,1.862,1.772,2.926,1.772,2.926
			s-0.73-1.005-2.008-2.765c-0.608-0.899-1.451-1.912-2.443-3.051c-0.488-0.573-1.008-1.184-1.555-1.827
			c-0.591-0.604-1.212-1.239-1.86-1.901c-1.262-1.355-2.763-2.685-4.36-4.072c-1.563-1.421-3.394-2.714-5.21-4.116
			c-1.912-1.287-3.835-2.676-5.939-3.866c-2.036-1.289-4.24-2.372-6.392-3.521c-2.226-1.018-4.405-2.114-6.656-2.965
			c-2.208-0.942-4.45-1.696-6.604-2.446c-2.176-0.689-4.282-1.343-6.304-1.863c-2.027-0.505-3.931-1.01-5.723-1.336
			c-1.783-0.384-3.411-0.686-4.843-0.885c-1.089-0.173-2.037-0.319-2.929-0.431c0.094,1.429,0.167,3.161,0.167,5.197
			c0.001,11.815-2.404,33.221-16.843,55.335c-13.877,21.278-38.93,42.985-82.88,57.347c6.251,6.63,11.231,14.344,14.812,22.668
			c7.348-4.271,20.744-11.557,39.265-18.167c21.795-7.782,50.711-14.647,85.308-14.647c10.252,0,21.002,0.604,32.211,1.964v0
			c0,0,1.387,0.145,3.988,0.417c1.317,0.154,2.771,0.158,4.577,0.272c1.793,0.018,3.908,0.079,6.229-0.083
			c4.654-0.24,10.303-1.021,16.393-3.102c6.058-2.083,12.555-5.646,18.029-11.302c5.456-5.604,9.803-13.372,11.245-22.332
			c0.721-4.463,0.757-9.173,0.016-13.885c-0.819-4.7-2.325-9.388-4.766-13.777c-4.661-8.566-13.308-15.571-23.481-18.039
			c-10.08-2.571-21.608-0.643-30.209,5.53c-8.552,6.302-13.158,17.433-11.74,27.885c0.437,2.583,0.982,5.172,2.057,7.56l0.366,0.909
			l0.091,0.227l0.019,0.056l0.059,0.113l0.238,0.451l0.954,1.785c0.69,1.043,1.364,2.095,2.225,3.065
			c3.285,3.946,7.863,6.675,12.733,7.849c9.696,2.384,20.779-1.734,24.859-10.227c2.112-4.101,2.688-8.833,1.723-13.093
			c-0.51-2.135-1.265-4.134-2.426-5.939c-1.116-1.733-2.609-3.248-4.278-4.379c-6.752-4.7-16.146-2.922-20.088,2.461
			c-2.04,2.638-2.824,5.877-2.571,8.746c0.236,2.878,1.419,5.457,3.113,7.15c1.689,1.738,3.787,2.596,5.629,2.913
			c1.865,0.28,3.496,0.043,4.731-0.356c1.241-0.403,2.123-0.9,2.657-1.314c0.541-0.404,0.784-0.657,0.784-0.657
			s-0.238,0.257-0.773,0.672c-0.528,0.424-1.404,0.941-2.645,1.369c-1.236,0.424-2.879,0.696-4.779,0.447
			c-1.876-0.287-4.035-1.119-5.806-2.873c-1.786-1.726-3.042-4.336-3.346-7.313c-0.316-2.963,0.428-6.349,2.515-9.155
			c4.088-5.751,13.823-7.804,21.155-2.956c7.479,4.727,10.263,16.005,5.782,24.971c-1.095,2.233-2.61,4.306-4.482,6.06l-1.47,1.249
			l-1.628,1.128c-0.547,0.352-1.092,0.616-1.641,0.93c-0.614,0.358-1.198,0.539-1.802,0.817c-4.789,2.065-10.373,2.568-15.689,1.401
			c-5.314-1.176-10.378-4.058-14.079-8.333c-0.949-1.031-1.767-2.231-2.578-3.443l-0.995-1.782l-0.246-0.446l-0.061-0.112
			l-0.083-0.177l-0.104-0.243l-0.416-0.976c-1.207-2.569-1.866-5.368-2.386-8.179c-0.771-5.666-0.214-11.623,2.009-17.018
			c2.092-5.445,5.797-10.241,10.394-13.891c9.459-7.047,21.9-9.324,33.151-6.722c1.133,0.255,2.238,0.596,3.337,0.948
			c0.308-0.416,0.667-0.902,1.127-1.524c1.253-1.719,2.948-4.103,4.908-7.139c1.956-3.015,4.137-6.606,6.271-10.575
			c2.164-3.953,4.29-8.277,6.233-12.691c3.952-8.804,7.118-17.969,9.329-24.888c1.088-3.467,1.969-6.367,2.544-8.409
			c0.587-2.039,0.923-3.204,0.923-3.204s0.191,0.472,0.525,1.297c0.142,0.422,0.356,0.921,0.644,1.44
			c0.278,0.53,0.54,1.127,0.967,1.728c0.373,0.625,0.826,1.257,1.364,1.877c0.471,0.672,1.171,1.196,1.766,1.838
			c0.702,0.533,1.397,1.109,2.204,1.546c0.756,0.517,1.639,0.835,2.493,1.164l1.32,0.412l1.353,0.229
			c0.897,0.091,1.806,0.184,2.675,0.1c0.436-0.038,0.864-0.09,1.291-0.11c0.417-0.087,0.825-0.173,1.222-0.256
			c0.814-0.123,1.519-0.468,2.221-0.668c0.692-0.229,1.267-0.581,1.827-0.811c0.562-0.232,0.993-0.535,1.374-0.753
			c0.771-0.442,1.212-0.695,1.212-0.695s-0.341,0.379-0.938,1.041c-0.314,0.319-0.663,0.759-1.181,1.116
			c-0.507,0.367-1.036,0.878-1.73,1.244c-0.697,0.354-1.415,0.864-2.3,1.109c-0.434,0.15-0.88,0.304-1.336,0.462
			c-0.477,0.086-0.964,0.174-1.459,0.263c-0.496,0.113-1.01,0.114-1.533,0.128c-0.521,0.006-1.056,0.065-1.582-0.042l-1.597-0.231
			l-1.566-0.445c-1-0.408-2.02-0.821-2.89-1.438c-0.934-0.526-1.666-1.291-2.419-1.952c-0.65-0.767-1.323-1.473-1.76-2.282
			c-0.235-0.392-0.481-0.759-0.681-1.135c-0.166-0.393-0.325-0.773-0.479-1.138c-0.343-0.703-0.486-1.435-0.642-2.05
			c-0.183-0.615-0.24-1.148-0.265-1.592c-0.062-0.888-0.097-1.396-0.097-1.396s-0.268,1.182-0.738,3.252
			c-0.458,2.073-1.173,5.02-2.063,8.552c-1.816,7.049-4.463,16.421-7.943,25.539c-1.707,4.569-3.61,9.075-5.579,13.219
			c-1.938,4.16-3.953,7.951-5.777,11.148c-1.805,3.186-3.476,5.846-4.624,7.623c-0.168,0.256-0.301,0.46-0.448,0.683
			c1.057,0.473,2.079,1.005,3.089,1.563c1.246-1.237,3.455-3.442,6.224-6.268c4.355-4.46,10.072-10.494,15.468-16.814
			c5.413-6.304,10.427-12.949,13.887-18.15c1.729-2.6,3.104-4.813,4.04-6.379c0.925-1.573,1.454-2.472,1.454-2.472
			s-0.468,0.933-1.287,2.564c-0.831,1.627-2.058,3.931-3.618,6.653c-3.119,5.441-7.715,12.459-12.742,19.167
			c-5.007,6.722-10.358,13.18-14.438,17.955c-2.234,2.605-4.049,4.685-5.261,6.063c1.381,0.966,2.712,1.992,3.961,3.111
			l55.305-36.954l-52.208,40.026c1.146,1.265,2.206,2.597,3.179,3.987c0.247-0.109,0.491-0.217,0.785-0.347
			c1.598-0.729,3.983-1.718,6.829-2.886c2.854-1.123,6.194-2.402,9.826-3.618c1.813-0.616,3.693-1.227,5.62-1.798
			c1.914-0.606,3.891-1.12,5.854-1.665c7.885-2.097,15.91-3.508,21.948-4.266c6.042-0.751,10.085-1.003,10.085-1.003
			s-4.021,0.529-9.975,1.688c-5.952,1.165-13.8,3.109-21.42,5.706c-1.898,0.67-3.805,1.307-5.647,2.033
			c-1.854,0.691-3.66,1.418-5.398,2.144c-3.481,1.437-6.669,2.916-9.387,4.206c-2.69,1.327-4.913,2.43-6.486,3.282
			c-0.132,0.07-0.231,0.122-0.353,0.186c0.915,1.632,1.702,3.323,2.404,5.047c0.272-0.043,0.539-0.085,0.863-0.136
			c0.886-0.151,1.987-0.311,3.295-0.444c1.293-0.139,2.755-0.343,4.329-0.428c3.154-0.253,6.838-0.405,10.775-0.342
			c1.968-0.003,3.999,0.127,6.058,0.216c2.057,0.16,4.146,0.286,6.224,0.544c2.082,0.198,4.149,0.525,6.184,0.811
			c2.025,0.36,4.024,0.661,5.934,1.092c3.837,0.758,7.356,1.735,10.349,2.612c1.483,0.491,2.857,0.885,4.043,1.333
			c1.188,0.443,2.235,0.79,3.073,1.142c1.679,0.691,2.639,1.085,2.639,1.085s-0.401-0.389-1.074-1.125
			c-0.332-0.371-0.761-0.809-1.134-1.398c-0.376-0.582-0.914-1.197-1.265-1.987c-0.358-0.783-0.87-1.602-1.129-2.568
			c-0.337-0.943-0.656-1.955-0.81-3.042c-0.247-1.072-0.289-2.208-0.361-3.359c0.059-1.147,0.019-2.329,0.239-3.484
			c0.15-1.165,0.466-2.296,0.781-3.405c0.382-1.087,0.772-2.16,1.317-3.118c0.476-0.993,1.091-1.866,1.7-2.668
			c0.594-0.809,1.297-1.474,1.922-2.075c0.706-0.536,1.268-1.086,1.939-1.397c0.64-0.323,1.148-0.687,1.623-0.817
			c0.932-0.319,1.478-0.475,1.478-0.475s-0.461,0.331-1.292,0.862c-0.442,0.235-0.828,0.688-1.333,1.099
			c-0.512,0.387-0.94,1.053-1.503,1.609c-0.479,0.65-1.01,1.342-1.476,2.131c-0.471,0.792-0.915,1.645-1.3,2.57
			c-0.449,0.891-0.686,1.913-1.027,2.896c-0.26,1.016-0.527,2.046-0.636,3.109c-0.225,1.044-0.208,2.117-0.291,3.162
			c0.072,1.044-0.026,2.089,0.152,3.078c0.087,1.002,0.257,1.956,0.466,2.859c0.146,0.921,0.497,1.727,0.706,2.521
			c0.224,0.789,0.588,1.447,0.814,2.085c0.227,0.641,0.536,1.14,0.773,1.564c0.469,0.854,0.721,1.372,0.721,1.372
			s-0.983-0.329-2.703-0.906c-0.857-0.294-1.925-0.571-3.132-0.931c-1.206-0.365-2.601-0.666-4.1-1.053
			c-1.215-0.269-2.532-0.546-3.899-0.816c0.24,0.47,0.539,1.055,0.938,1.836c0.964,1.932,2.484,4.764,4.309,8.546
			c3.119,7.733,7.637,19.489,8.605,35.411c1.001,15.793-1.871,35.6-11.144,55.731c-2.1,5.137-4.858,10.111-7.589,15.307
			c-2.993,5.015-5.953,10.285-9.459,15.344c-3.33,5.2-7.11,10.24-10.895,15.478c-3.955,5.082-7.995,10.306-12.347,15.418
			c-8.611,10.315-17.94,20.716-27.811,31.199c-9.9,10.46-20.281,21.079-30.88,31.992c-10.581,10.931-21.42,22.113-32.054,33.839
			c-10.574,11.763-21.096,23.971-30.408,37.191c-2.337,3.271-4.429,6.574-6.683,9.875l-3.203,5.411l-1.604,2.718l-0.693,1.183
			l-0.71,1.362c-1.881,3.638-3.871,7.247-5.541,11.008c-0.853,1.872-1.791,3.716-2.581,5.619l-2.367,5.723
			c-6.084,15.355-10.356,31.616-11.733,48.327c-0.193,2.357-0.315,4.722-0.397,7.091c31.617,13.659,66.472,21.242,103.103,21.242
			C280.222,584.703,282.307,584.673,284.387,584.623z M417.449,260.347c5.922,0,10.723,4.801,10.723,10.723
			s-4.801,10.723-10.723,10.723c-5.922,0-10.723-4.801-10.723-10.723S411.527,260.347,417.449,260.347z M424.844,192.128
			c5.616,0,10.168,4.553,10.168,10.168c0,5.616-4.553,10.168-10.168,10.168c-5.616,0-10.168-4.553-10.168-10.168
			C414.676,196.68,419.228,192.128,424.844,192.128z M401.18,123.261c5.258,0,9.521,4.263,9.521,9.521s-4.263,9.521-9.521,9.521
			s-9.521-4.263-9.521-9.521S395.921,123.261,401.18,123.261z M230.11,161.503c0.307-0.072,0.574-0.134,0.883-0.033
			c0.326,0.131,0.586,0.241,0.854,0.473c0.271,0.237,0.625,0.727,0.609,0.698l0.103,0.179c-0.017-0.029,0.231,0.523,0.301,0.876
			c0.067,0.348,0.032,0.628-0.017,0.976c-0.066,0.318-0.254,0.518-0.47,0.748c-0.217,0.228-0.524,0.375-0.871,0.517
			c-1.38,0.578-3.255,1.289-5.157,1.953c-3.774,1.379-7.549,2.757-7.549,2.757s3.081-2.58,6.162-5.159
			c1.526-1.316,3.079-2.583,4.27-3.49C229.524,161.77,229.805,161.577,230.11,161.503z M223.056,155.873
			c0.2-0.317,0.399-0.594,0.66-0.768c0.264-0.172,0.493-0.323,0.818-0.333c0.351,0.012,0.633,0.026,0.964,0.153
			c0.336,0.13,0.836,0.47,0.811,0.448l0.158,0.133c-0.026-0.021,0.396,0.413,0.582,0.721c0.182,0.304,0.245,0.579,0.318,0.923
			c0.046,0.322-0.062,0.574-0.186,0.864c-0.126,0.288-0.365,0.532-0.642,0.784c-1.099,1.015-2.617,2.325-4.178,3.599
			c-3.075,2.586-6.151,5.173-6.151,5.173s2.013-3.478,4.026-6.956C221.221,158.854,222.247,157.132,223.056,155.873z
			 M214.134,157.645c0.323-1.989,0.698-3.958,1.027-5.418c0.08-0.366,0.171-0.695,0.358-0.948c0.189-0.252,0.353-0.472,0.655-0.592
			c0.334-0.109,0.604-0.192,0.958-0.186c0.36,0.008,0.947,0.155,0.915,0.144l0.194,0.071c-0.031-0.011,0.513,0.252,0.794,0.478
			c0.275,0.224,0.428,0.46,0.614,0.758c0.153,0.286,0.138,0.56,0.121,0.875c-0.02,0.314-0.161,0.624-0.335,0.956
			c-0.686,1.33-1.664,3.08-2.695,4.811c-2.005,3.482-4.011,6.965-4.011,6.965S213.432,161.602,214.134,157.645z M218.189,176.435
			c-0.002,5.202-4.216,9.416-9.418,9.418c-5.202-0.001-9.416-4.216-9.418-9.418c0.001-5.202,4.216-9.416,9.418-9.418
			C213.973,167.019,218.187,171.233,218.189,176.435z M206.509,150.489c0.091-0.302,0.171-0.564,0.413-0.781
			c0.277-0.216,0.502-0.386,0.837-0.503c0.341-0.116,0.943-0.178,0.909-0.178h0.206c-0.033,0,0.568,0.062,0.909,0.178
			c0.335,0.116,0.56,0.286,0.837,0.503c0.242,0.216,0.322,0.479,0.413,0.781c0.089,0.301,0.062,0.642,0.012,1.013
			c-0.19,1.484-0.511,3.463-0.887,5.442c-0.693,3.958-1.387,7.916-1.387,7.916s-0.693-3.958-1.387-7.916
			c-0.377-1.979-0.698-3.958-0.887-5.442C206.446,151.13,206.42,150.79,206.509,150.489z M197.892,151.952
			c0.186-0.298,0.339-0.535,0.614-0.758c0.281-0.226,0.825-0.489,0.794-0.478l0.194-0.071c-0.031,0.011,0.555-0.136,0.915-0.144
			c0.354-0.006,0.624,0.077,0.958,0.186c0.302,0.12,0.466,0.34,0.655,0.592c0.186,0.253,0.278,0.582,0.358,0.948
			c0.329,1.46,0.704,3.429,1.027,5.418c0.702,3.957,1.404,7.913,1.404,7.913s-2.005-3.482-4.011-6.965
			c-1.031-1.731-2.01-3.481-2.695-4.811c-0.174-0.331-0.315-0.642-0.335-0.956C197.754,152.512,197.738,152.238,197.892,151.952z
			 M190.174,157.149c0.073-0.344,0.136-0.619,0.318-0.923c0.187-0.308,0.608-0.742,0.582-0.721l0.158-0.133
			c-0.025,0.021,0.475-0.318,0.811-0.448c0.331-0.126,0.613-0.141,0.964-0.153c0.325,0.01,0.554,0.16,0.818,0.333
			c0.262,0.174,0.46,0.451,0.66,0.768c0.809,1.259,1.835,2.981,2.818,4.74c2.013,3.478,4.026,6.956,4.026,6.956
			s-3.076-2.586-6.151-5.173c-1.561-1.274-3.079-2.584-4.178-3.599c-0.277-0.252-0.516-0.496-0.642-0.784
			C190.236,157.723,190.128,157.471,190.174,157.149z M184.683,163.697c0.07-0.353,0.317-0.905,0.301-0.876l0.103-0.179
			c-0.016,0.029,0.338-0.461,0.609-0.698c0.268-0.232,0.528-0.342,0.853-0.473c0.309-0.102,0.576-0.039,0.883,0.033
			c0.305,0.074,0.587,0.267,0.883,0.496c1.191,0.906,2.744,2.174,4.27,3.49c3.081,2.58,6.162,5.159,6.162,5.159
			s-3.775-1.379-7.549-2.757c-1.902-0.663-3.777-1.375-5.157-1.953c-0.347-0.142-0.654-0.289-0.871-0.517
			c-0.215-0.23-0.403-0.43-0.47-0.748C184.65,164.325,184.616,164.045,184.683,163.697z M181.761,171.778l0.036-0.203
			c-0.006,0.033,0.16-0.549,0.333-0.865c0.172-0.31,0.379-0.502,0.64-0.737c0.255-0.201,0.528-0.233,0.841-0.271
			c0.312-0.035,0.643,0.05,0.999,0.164c1.429,0.445,3.322,1.104,5.206,1.819c3.778,1.37,7.555,2.74,7.555,2.74
			s-4.018-0.004-8.037-0.009c-2.014,0.027-4.019,0-5.514-0.071c-0.374-0.015-0.714-0.048-0.995-0.188
			c-0.281-0.142-0.526-0.266-0.697-0.542c-0.165-0.31-0.293-0.561-0.35-0.911C181.724,172.348,181.767,171.745,181.761,171.778z
			 M183.611,183.169c-0.313-0.038-0.585-0.07-0.841-0.271c-0.261-0.235-0.468-0.427-0.64-0.737
			c-0.173-0.316-0.339-0.897-0.333-0.865l-0.036-0.203c0.006,0.033-0.038-0.57,0.017-0.926c0.056-0.35,0.184-0.601,0.35-0.911
			c0.171-0.276,0.416-0.4,0.697-0.542c0.281-0.14,0.621-0.173,0.995-0.188c1.495-0.071,3.5-0.098,5.514-0.071
			c4.019-0.004,8.037-0.009,8.037-0.009s-3.778,1.37-7.555,2.74c-1.884,0.715-3.777,1.375-5.206,1.819
			C184.254,183.119,183.923,183.204,183.611,183.169z M187.431,191.368c-0.307,0.072-0.574,0.134-0.883,0.033
			c-0.326-0.131-0.586-0.241-0.853-0.473c-0.271-0.237-0.625-0.727-0.609-0.699l-0.103-0.179c0.017,0.029-0.231-0.523-0.301-0.876
			c-0.067-0.348-0.032-0.628,0.017-0.976c0.066-0.318,0.254-0.518,0.47-0.748c0.217-0.228,0.524-0.375,0.871-0.517
			c1.38-0.578,3.255-1.289,5.157-1.953c3.775-1.379,7.549-2.757,7.549-2.757s-3.081,2.58-6.162,5.159
			c-1.526,1.316-3.079,2.583-4.27,3.49C188.018,191.101,187.737,191.294,187.431,191.368z M194.486,196.998
			c-0.2,0.317-0.399,0.594-0.66,0.768c-0.264,0.172-0.494,0.323-0.818,0.333c-0.351-0.012-0.633-0.026-0.964-0.153
			c-0.336-0.13-0.836-0.47-0.811-0.448l-0.158-0.133c0.026,0.021-0.396-0.413-0.582-0.721c-0.182-0.304-0.245-0.579-0.318-0.923
			c-0.047-0.322,0.062-0.574,0.186-0.863c0.126-0.288,0.365-0.532,0.642-0.784c1.099-1.015,2.617-2.325,4.178-3.599
			c3.075-2.586,6.151-5.173,6.151-5.173s-2.013,3.478-4.026,6.956C196.321,194.016,195.295,195.739,194.486,196.998z
			 M203.408,195.226c-0.323,1.988-0.698,3.958-1.027,5.418c-0.08,0.366-0.171,0.694-0.358,0.948
			c-0.189,0.252-0.353,0.472-0.655,0.592c-0.334,0.109-0.604,0.192-0.958,0.186c-0.36-0.008-0.946-0.155-0.915-0.144l-0.194-0.071
			c0.031,0.011-0.513-0.253-0.794-0.478c-0.275-0.223-0.428-0.46-0.614-0.758c-0.154-0.286-0.138-0.56-0.121-0.875
			c0.02-0.314,0.161-0.624,0.335-0.956c0.686-1.33,1.664-3.08,2.695-4.811c2.005-3.482,4.011-6.965,4.011-6.965
			S204.11,191.269,203.408,195.226z M211.033,202.382c-0.091,0.302-0.171,0.564-0.413,0.781c-0.277,0.217-0.502,0.387-0.837,0.503
			c-0.341,0.116-0.943,0.178-0.909,0.178h-0.206c0.033,0-0.568-0.062-0.909-0.178c-0.335-0.116-0.56-0.286-0.837-0.503
			c-0.242-0.216-0.321-0.479-0.413-0.781c-0.089-0.302-0.063-0.642-0.012-1.013c0.19-1.484,0.511-3.463,0.887-5.442
			c0.693-3.958,1.387-7.916,1.387-7.916s0.693,3.958,1.387,7.916c0.377,1.979,0.698,3.958,0.887,5.442
			C211.095,201.74,211.122,202.081,211.033,202.382z M219.65,200.919c-0.186,0.298-0.339,0.535-0.614,0.758
			c-0.281,0.226-0.825,0.49-0.794,0.478l-0.194,0.071c0.031-0.011-0.555,0.136-0.915,0.144c-0.354,0.006-0.624-0.077-0.958-0.186
			c-0.302-0.121-0.466-0.34-0.655-0.592c-0.187-0.253-0.278-0.582-0.358-0.948c-0.329-1.46-0.704-3.429-1.027-5.418
			c-0.702-3.957-1.404-7.913-1.404-7.913s2.005,3.482,4.011,6.965c1.031,1.731,2.009,3.481,2.695,4.811
			c0.174,0.331,0.315,0.642,0.335,0.956C219.788,200.358,219.803,200.632,219.65,200.919z M227.368,195.721
			c-0.073,0.344-0.136,0.619-0.318,0.923c-0.187,0.308-0.608,0.742-0.582,0.721l-0.158,0.133c0.026-0.021-0.475,0.318-0.811,0.448
			c-0.331,0.126-0.613,0.141-0.964,0.153c-0.325-0.01-0.554-0.161-0.818-0.333c-0.262-0.174-0.46-0.451-0.66-0.768
			c-0.809-1.259-1.835-2.981-2.818-4.74c-2.013-3.478-4.026-6.956-4.026-6.956s3.075,2.586,6.151,5.173
			c1.561,1.274,3.079,2.584,4.178,3.599c0.277,0.252,0.516,0.495,0.642,0.784C227.306,195.147,227.414,195.4,227.368,195.721z
			 M232.859,189.174c-0.07,0.353-0.317,0.905-0.301,0.876l-0.103,0.179c0.016-0.029-0.338,0.461-0.609,0.699
			c-0.268,0.232-0.528,0.342-0.854,0.473c-0.309,0.102-0.576,0.039-0.883-0.033c-0.305-0.074-0.587-0.267-0.883-0.496
			c-1.191-0.906-2.744-2.174-4.27-3.49c-3.081-2.58-6.162-5.159-6.162-5.159s3.775,1.379,7.549,2.757
			c1.902,0.663,3.777,1.375,5.157,1.953c0.347,0.142,0.654,0.289,0.871,0.517c0.215,0.23,0.403,0.43,0.47,0.748
			C232.891,188.546,232.926,188.826,232.859,189.174z M235.78,181.093l-0.036,0.203c0.006-0.033-0.16,0.549-0.333,0.865
			c-0.172,0.31-0.379,0.502-0.64,0.737c-0.255,0.201-0.528,0.233-0.841,0.271c-0.312,0.035-0.643-0.05-1-0.164
			c-1.429-0.445-3.322-1.104-5.206-1.819c-3.778-1.37-7.555-2.74-7.555-2.74s4.018,0.004,8.037,0.009
			c2.014-0.027,4.019,0,5.514,0.071c0.374,0.015,0.714,0.048,0.995,0.188c0.281,0.142,0.526,0.266,0.697,0.542
			c0.165,0.31,0.294,0.561,0.35,0.911C235.818,180.523,235.775,181.126,235.78,181.093z M235.763,172.704
			c-0.056,0.35-0.184,0.601-0.35,0.911c-0.171,0.276-0.416,0.4-0.697,0.542c-0.282,0.14-0.621,0.173-0.995,0.188
			c-1.495,0.071-3.5,0.098-5.514,0.071c-4.018,0.004-8.037,0.009-8.037,0.009s3.778-1.37,7.555-2.74
			c1.884-0.715,3.777-1.374,5.206-1.819c0.357-0.114,0.687-0.199,1-0.164c0.313,0.038,0.585,0.07,0.841,0.271
			c0.261,0.235,0.468,0.427,0.64,0.737c0.173,0.316,0.339,0.897,0.333,0.865l0.036,0.203
			C235.775,171.745,235.818,172.348,235.763,172.704z M242.925,121.69c-4.084,0-7.395-3.311-7.395-7.395s3.311-7.395,7.395-7.395
			s7.395,3.311,7.395,7.395S247.01,121.69,242.925,121.69z M281.565,105.051c-5.003,0-9.059-4.056-9.059-9.059
			c0-5.003,4.056-9.059,9.059-9.059c5.003,0,9.059,4.056,9.059,9.059C290.624,100.995,286.568,105.051,281.565,105.051z
			 M369.054,104.754c-0.972,0.045-2.029-0.069-3.141-0.203c-1.099-0.218-2.28-0.412-3.427-0.877
			c-1.18-0.362-2.324-0.962-3.455-1.598l-1.635-1.099c-0.527-0.396-1.009-0.858-1.514-1.289c-0.516-0.423-0.925-0.951-1.355-1.454
			c-0.423-0.509-0.878-0.99-1.201-1.562c-0.344-0.554-0.686-1.104-1.024-1.647c-0.256-0.584-0.509-1.161-0.758-1.728
			c-0.551-1.112-0.701-2.321-1.028-3.387c-0.166-1.109-0.276-2.16-0.352-3.123c0.01-0.981,0.058-1.871,0.1-2.649
			c0.038-0.777,0.219-1.422,0.291-1.97c0.196-1.086,0.338-1.704,0.338-1.704s0.052,0.632,0.09,1.735
			c0.036,0.547-0.015,1.229,0.1,1.978c0.114,0.749,0.243,1.581,0.34,2.479c0.214,0.885,0.447,1.843,0.692,2.857
			c0.41,0.954,0.66,2.023,1.21,3c0.254,0.495,0.511,0.999,0.772,1.508c0.323,0.47,0.65,0.946,0.98,1.426
			c0.293,0.505,0.712,0.92,1.096,1.364c0.391,0.438,0.757,0.902,1.227,1.265c0.445,0.386,0.858,0.811,1.32,1.173l1.438,1.01
			c1.012,0.564,1.976,1.222,3.033,1.598c1.019,0.472,2.062,0.766,3.053,1.076c1.006,0.21,1.97,0.461,2.875,0.553
			c0.906,0.069,1.748,0.223,2.497,0.19c0.748-0.007,1.419,0.051,1.954-0.044c1.081-0.111,1.724-0.148,1.724-0.148
			s-0.583,0.225-1.647,0.573c-0.528,0.205-1.199,0.281-1.968,0.443C370.912,104.688,370.027,104.709,369.054,104.754z
			 M387.145,138.373c-0.57-0.085-1.221-0.304-1.959-0.611c-0.375-0.145-0.775-0.299-1.195-0.461
			c-0.404-0.196-0.795-0.463-1.225-0.712c-0.887-0.467-1.724-1.143-2.584-1.9c-0.881-0.731-1.656-1.666-2.45-2.627
			c-0.704-1.025-1.5-2.057-2.041-3.253c-0.655-1.14-1.064-2.408-1.56-3.64c-0.321-1.287-0.731-2.553-0.882-3.852
			c-0.264-1.28-0.26-2.571-0.317-3.806c0.019-1.237,0.089-2.438,0.275-3.554c0.199-1.118,0.379-2.17,0.732-3.099
			c0.154-0.466,0.301-0.913,0.442-1.338c0.198-0.408,0.386-0.795,0.563-1.158c0.354-0.722,0.651-1.339,0.993-1.783
			c0.635-0.923,1.025-1.436,1.025-1.436s-0.219,0.606-0.647,1.642c-0.253,0.506-0.419,1.163-0.613,1.894
			c-0.23,0.716-0.386,1.552-0.53,2.478c-0.205,0.906-0.226,1.92-0.323,2.97c-0.071,1.053,0,2.175,0.031,3.319
			c0.113,1.147,0.222,2.326,0.478,3.506c0.16,1.197,0.57,2.356,0.883,3.534c0.443,1.133,0.784,2.316,1.367,3.366
			c0.492,1.099,1.112,2.095,1.712,3.071c0.684,0.901,1.292,1.845,2.027,2.588c0.725,0.757,1.403,1.493,2.151,2.034
			c0.697,0.616,1.397,1.093,2.055,1.475c0.635,0.427,1.216,0.761,1.736,0.944c1.01,0.443,1.599,0.733,1.599,0.733
			S388.26,138.603,387.145,138.373z M378.255,323.575c6.535,0,11.832,5.297,11.832,11.832c0,6.535-5.297,11.832-11.832,11.832
			c-6.535,0-11.832-5.297-11.832-11.832C366.423,328.872,371.72,323.575,378.255,323.575z M327.969,388.744
			c7.3,0,13.219,5.918,13.219,13.219c0,7.301-5.918,13.219-13.219,13.219c-7.301,0-13.219-5.918-13.219-13.219
			C314.75,394.662,320.668,388.744,327.969,388.744z M279.161,454.745c7.607,0,13.773,6.167,13.773,13.773
			c0,7.607-6.167,13.773-13.773,13.773s-13.773-6.167-13.773-13.773C265.388,460.911,271.554,454.745,279.161,454.745z
			 M240.707,520.653c7.147,0,12.941,5.794,12.941,12.941c0,7.147-5.794,12.941-12.941,12.941c-7.147,0-12.941-5.794-12.941-12.941
			C227.765,526.448,233.56,520.653,240.707,520.653z M269.861,579.35c-2.51,0.109-6.111,0.171-10.423-0.123
			c-4.314-0.254-9.339-0.873-14.651-1.946c-2.645-0.576-5.396-1.139-8.126-1.955c-1.386-0.378-2.712-0.812-4.145-1.247l-4.057-1.364
			c-2.74-1.029-5.423-2.103-8.023-3.265c-2.622-1.113-5.097-2.44-7.495-3.698c-2.399-1.259-4.637-2.623-6.736-3.943
			c-2.099-1.321-4.031-2.649-5.77-3.933c-3.499-2.537-6.227-4.888-8.087-6.576c-0.938-0.834-1.635-1.539-2.116-2.009
			c-0.48-0.471-0.736-0.722-0.736-0.722s1.229,0.735,3.379,2.022c2.145,1.282,5.215,3.08,8.929,5.136
			c1.858,1.027,3.9,2.079,6.044,3.206c2.161,1.098,4.464,2.198,6.846,3.327c2.385,1.125,4.896,2.178,7.439,3.256
			c2.543,1.084,5.176,2.072,7.785,3.011l4.011,1.43c1.276,0.409,2.631,0.881,3.946,1.264c2.642,0.809,5.249,1.592,7.799,2.264
			c5.098,1.347,9.917,2.414,14.086,3.225c4.169,0.802,7.68,1.378,10.149,1.762c2.476,0.382,3.891,0.601,3.891,0.601
			S272.376,579.23,269.861,579.35z"/>
		<path id="XMLID_344_" class="st0" d="M169.809,87.806c-1.139,0.522-2.254,1.087-3.384,1.625c2.022,3.081,4.4,6.129,7.297,9.109
			c1.322-0.196,2.153-0.764,2.437-1.569c-0.326,0.97-1.422,1.607-3.226,1.661c-3.001,0.09-5.177,2.296-5.415,5.185
			c-3.366-3.551-5.96-7.183-8.136-10.91c-1.314,0.675-2.621,1.362-3.922,2.058c2.574,4.428,5.686,8.826,9.932,13.071
			c1.002,1.002,2.017,1.931,3.037,2.816l0.336,2.144c0.091,0.578,0.525,3.651,0.453,8.456c-3.261-2.091-6.456-4.533-9.583-7.659
			c-4.87-4.869-8.123-9.898-10.873-15.103c-1.283,0.737-2.575,1.457-3.844,2.215c2.881,5.421,6.389,10.837,11.579,16.026
			c4.051,4.051,8.239,7.082,12.46,9.587c-0.201,2.451-0.544,5.161-1.083,8.087c-5.933-2.977-11.634-6.419-17.133-11.918
			c-5.706-5.706-9.202-11.628-12.257-17.802c-1.255,0.8-2.492,1.627-3.732,2.447c3.124,6.24,6.876,12.516,12.853,18.492
			c6.243,6.244,12.814,10.06,19.329,13.267c-0.559,2.315-1.249,4.73-2.089,7.222c-8.068-3.761-15.709-7.446-22.996-14.733
			c-6.383-6.382-9.998-13.037-13.326-20.012c-1.228,0.864-2.442,1.747-3.654,2.632c3.331,6.903,7.219,13.894,13.843,20.517
			c7.935,7.935,16.396,11.955,24.6,15.777c-0.874,2.209-1.87,4.465-3.01,6.757c-1.178-0.561-2.354-1.112-3.521-1.656
			c-8.376-3.9-16.288-7.584-23.825-15.121c-6.9-6.9-10.57-14.119-14.134-21.715c-1.198,0.929-2.412,1.838-3.594,2.788
			c3.501,7.402,7.471,14.946,14.59,22.065c8.091,8.092,16.733,12.116,25.089,16.007c1.116,0.519,2.218,1.036,3.314,1.556
			c-1.183,2.107-2.497,4.234-3.94,6.371c-2.142-1.068-4.279-2.072-6.395-3.057c-8.376-3.9-16.288-7.584-23.825-15.121
			c-7.269-7.268-10.954-14.889-14.705-22.934c-1.171,0.999-2.323,2.019-3.476,3.038c3.617,7.712,7.613,15.604,15.043,23.033
			c8.091,8.092,16.732,12.115,25.089,16.006c1.918,0.893,3.808,1.775,5.674,2.693c-1.486,1.992-3.109,3.986-4.851,5.974
			c-2.626-1.353-5.25-2.587-7.844-3.795c-8.376-3.901-16.288-7.584-23.825-15.122c-7.466-7.466-11.152-15.302-15.012-23.592
			c-1.139,1.068-2.263,2.152-3.382,3.24c3.675,7.856,7.68,15.912,15.257,23.489c8.092,8.092,16.733,12.116,25.089,16.007
			c2.24,1.043,4.442,2.077,6.614,3.166c-1.779,1.857-3.689,3.704-5.721,5.536c-2.649-1.367-5.296-2.611-7.913-3.83
			c-8.377-3.901-16.288-7.585-23.826-15.122c-7.492-7.492-11.176-15.355-15.052-23.676c-1.102,1.138-2.213,2.268-3.295,3.426
			c3.661,7.823,7.665,15.843,15.209,23.387c8.092,8.092,16.733,12.116,25.09,16.007c2.089,0.973,4.147,1.935,6.177,2.943
			c-2.072,1.718-4.269,3.417-6.589,5.092c-2.213-1.108-4.422-2.146-6.609-3.164c-8.377-3.901-16.289-7.584-23.826-15.122
			c-7.353-7.353-11.039-15.065-14.835-23.214c-1.073,1.222-2.108,2.476-3.159,3.718c3.569,7.584,7.555,15.331,14.857,22.633
			c8.092,8.092,16.733,12.116,25.09,16.007c1.452,0.676,2.883,1.349,4.305,2.032c1.426-0.948,2.81-1.905,4.149-2.871
			c-3.566,2.573-7.428,5.089-11.626,7.523c-1.288-0.615-2.573-1.219-3.849-1.813c-8.377-3.901-16.289-7.584-23.826-15.122
			c-7.003-7.002-10.679-14.334-14.293-22.054c-1.026,1.294-2.064,2.578-3.066,3.892c3.415,7.156,7.348,14.425,14.222,21.299
			c8.092,8.093,16.733,12.116,25.09,16.007c0.315,0.147,0.626,0.293,0.94,0.439c-2.69,1.436-5.501,2.839-8.444,4.205
			c-8.197-3.818-15.95-7.504-23.343-14.896c-6.465-6.465-10.092-13.207-13.454-20.278c-0.986,1.382-1.942,2.785-2.901,4.187
			c3.198,6.482,7.007,13.016,13.218,19.228c6.823,6.823,14.035,10.746,21.14,14.144c-3.003,1.28-6.143,2.518-9.4,3.718
			c-6.064-3.019-11.884-6.493-17.496-12.105c-5.693-5.692-9.186-11.599-12.235-17.756c-0.922,1.448-1.851,2.891-2.745,4.358
			c2.931,5.592,6.49,11.184,11.843,16.535c4.838,4.838,9.872,8.207,14.924,10.977c-2.283,0.771-4.606,1.528-7.01,2.257
			l-14.828,4.495c-1.137,0.345-1.97,0.88-2.49,1.528c-1.858-1.44-3.602-2.964-5.245-4.607c-3.495-3.495-6.142-7.074-8.386-10.739
			c-0.766,1.556-1.548,3.102-2.283,4.675c2.085,3.115,4.526,6.196,7.532,9.202c3.413,3.413,7.192,6.371,11.55,9.041
			c0.753,0.461,1.512,0.883,2.27,1.313l7.063,6.43c7.03,6.4,12.594,14.728,16.091,24.084l2.948,7.889
			c1.287,3.443,4.889,4.708,8.045,2.825l2.28-1.36l-1.585,0.946c2.477,4.111,4.456,8.331,6.48,12.679
			c3.891,8.357,7.914,16.999,16.006,25.091c8.092,8.092,16.733,12.115,25.089,16.006c0.252,0.117,0.499,0.233,0.749,0.35
			c-2.124,1.704-4.235,3.435-6.332,5.193c-0.48-0.224-0.961-0.45-1.439-0.672c-8.376-3.9-16.287-7.584-23.824-15.12
			c-7.537-7.537-11.221-15.449-15.121-23.825c-3.891-8.357-7.914-16.999-16.006-25.091c-8.092-8.092-16.733-12.115-25.089-16.006
			c-8.376-3.9-16.288-7.584-23.825-15.121c-0.656-0.656-1.269-1.317-1.869-1.978c-0.563,1.562-1.133,3.12-1.666,4.695
			c0.137,0.14,0.258,0.281,0.397,0.42c8.092,8.092,16.733,12.115,25.089,16.006c8.376,3.9,16.288,7.584,23.825,15.121
			c7.537,7.537,11.222,15.449,15.121,23.825c3.891,8.357,7.914,16.999,16.006,25.091c7.962,7.962,16.455,11.983,24.687,15.817
			c-2.03,1.751-4.041,3.529-6.032,5.334c-0.195-0.091-0.391-0.183-0.586-0.274c-8.376-3.901-16.288-7.584-23.825-15.121
			c-7.537-7.537-11.221-15.449-15.121-23.825c-3.891-8.357-7.914-16.999-16.006-25.091c-8.092-8.092-16.733-12.115-25.089-16.006
			c-7.416-3.453-14.467-6.749-21.218-12.688c-0.463,1.545-0.885,3.107-1.32,4.664c6.775,5.538,13.813,8.856,20.665,12.046
			c8.376,3.9,16.288,7.584,23.825,15.121s11.222,15.449,15.121,23.825c3.891,8.357,7.914,16.999,16.006,25.091
			c7.747,7.748,15.997,11.762,24.02,15.505c-1.925,1.803-3.828,3.631-5.703,5.489l-0.248-0.117
			c-8.377-3.901-16.288-7.584-23.825-15.121c-7.537-7.537-11.222-15.45-15.121-23.825c-3.891-8.357-7.914-16.999-16.006-25.091
			c-8.092-8.092-16.733-12.115-25.089-16.006c-5.47-2.547-10.739-5.023-15.839-8.519c-0.372,1.527-0.768,3.044-1.113,4.582
			c5.01,3.251,10.094,5.638,15.079,7.959c8.376,3.9,16.288,7.584,23.825,15.121c7.537,7.537,11.222,15.45,15.121,23.825
			c3.891,8.357,7.914,16.999,16.006,25.09c7.708,7.709,15.913,11.721,23.899,15.449c-1.809,1.858-3.589,3.744-5.339,5.659
			c-0.163-0.076-0.33-0.156-0.493-0.232c-8.375-3.9-16.286-7.583-23.823-15.119c-7.537-7.537-11.222-15.449-15.121-23.825
			c-3.891-8.357-7.914-16.999-16.006-25.091c-8.091-8.091-16.732-12.114-25.088-16.005c-3.31-1.541-6.545-3.058-9.715-4.783
			c-0.291,1.523-0.547,3.057-0.812,4.59c2.896,1.522,5.792,2.883,8.654,4.216c8.376,3.9,16.287,7.584,23.824,15.12
			c7.537,7.537,11.221,15.449,15.121,23.825c3.891,8.357,7.914,16.999,16.006,25.091c7.857,7.857,16.232,11.876,24.361,15.665
			c-1.684,1.917-3.336,3.863-4.953,5.838c-0.447-0.209-0.894-0.418-1.339-0.625c-8.376-3.901-16.288-7.584-23.825-15.121
			c-7.537-7.537-11.222-15.45-15.121-23.825c-3.891-8.357-7.914-16.999-16.006-25.09c-8.091-8.092-16.733-12.115-25.089-16.006
			c-0.962-0.448-1.915-0.894-2.862-1.341c-0.218,1.534-0.411,3.077-0.601,4.62c0.531,0.248,1.062,0.497,1.59,0.743
			c8.376,3.901,16.288,7.584,23.825,15.121c7.537,7.537,11.221,15.45,15.121,23.825c3.891,8.357,7.914,16.999,16.006,25.091
			c8.091,8.092,16.732,12.115,25.089,16.006c0.119,0.055,0.236,0.11,0.355,0.166c-1.552,1.982-3.067,3.992-4.543,6.033
			c-0.948-0.448-1.894-0.891-2.833-1.328c-8.376-3.9-16.287-7.583-23.824-15.12c-7.537-7.537-11.221-15.449-15.121-23.825
			c-3.891-8.357-7.914-16.999-16.006-25.091c-6.617-6.617-13.6-10.503-20.496-13.831c-0.146,1.572-0.319,3.135-0.437,4.715
			c6.172,3.054,12.092,6.55,17.796,12.253c7.537,7.537,11.222,15.449,15.121,23.825c3.891,8.357,7.914,16.999,16.006,25.091
			c8.091,8.092,16.732,12.115,25.089,16.005c0.706,0.329,1.407,0.656,2.105,0.983c-1.414,2.056-2.788,4.141-4.119,6.256
			c-1.677-0.815-3.349-1.596-5.007-2.368c-8.376-3.9-16.288-7.583-23.825-15.12c-7.537-7.537-11.221-15.449-15.121-23.825
			c-3.891-8.357-7.914-16.999-16.006-25.091c-4.067-4.067-8.274-7.104-12.513-9.616c-0.073,1.705-0.11,3.418-0.15,5.13
			c3.242,2.083,6.417,4.515,9.526,7.622c7.537,7.537,11.222,15.449,15.121,23.825c3.891,8.357,7.914,16.999,16.006,25.091
			c8.091,8.092,16.732,12.115,25.089,16.006c1.539,0.716,3.056,1.427,4.56,2.152c-1.276,2.149-2.506,4.328-3.689,6.539
			c-2.642-1.362-5.282-2.605-7.893-3.82c-8.376-3.9-16.287-7.583-23.824-15.12c-7.537-7.537-11.222-15.45-15.121-23.825
			c-3.891-8.357-7.914-16.999-16.006-25.091c-1.254-1.254-2.528-2.381-3.808-3.454c0.029,2.028,0.046,4.058,0.121,6.075
			c0.183,0.178,0.368,0.334,0.55,0.517c7.537,7.537,11.222,15.45,15.121,23.825c3.891,8.357,7.914,16.999,16.006,25.09
			c8.091,8.092,16.732,12.115,25.088,16.005c2.625,1.222,5.198,2.433,7.732,3.736c-1.137,2.273-2.222,4.578-3.254,6.917
			c-3.839-2.194-7.697-4.012-11.497-5.781c-8.376-3.9-16.288-7.584-23.825-15.121s-11.222-15.449-15.121-23.825
			c-2.765-5.938-5.625-12.016-9.935-17.942c0.297,3.354,0.654,6.69,1.077,10.006c1.746,3.201,3.279,6.466,4.836,9.809
			c3.891,8.356,7.914,16.997,16.006,25.089c8.092,8.092,16.733,12.115,25.089,16.006c3.98,1.853,7.851,3.669,11.631,5.861
			c-0.997,2.448-1.934,4.933-2.809,7.455c-5.256-3.512-10.605-6.006-15.843-8.445c-8.376-3.9-16.288-7.584-23.825-15.121
			c-4.51-4.51-7.629-9.157-10.251-13.955c1.033,4.38,2.177,8.715,3.429,13.006c1.139,1.373,2.338,2.739,3.685,4.085
			c8.092,8.092,16.733,12.115,25.089,16.006c5.622,2.618,11.031,5.167,16.262,8.821c-0.854,2.732-1.641,5.502-2.344,8.32
			c-6.859-5.675-13.995-9.036-20.939-12.27c-5.719-2.663-11.218-5.255-16.533-9.013c0.853,2.345,1.757,4.665,2.675,6.979
			c4,2.323,8.025,4.212,11.985,6.056c7.59,3.534,14.797,6.923,21.692,13.132c-0.683,3.198-1.266,6.451-1.744,9.76
			c-0.612-0.673-1.213-1.348-1.879-2.014c-8.092-8.092-16.733-12.115-25.089-16.006c-0.148-0.069-0.293-0.137-0.44-0.206
			c0.953,2.117,1.942,4.212,2.948,6.298c6.767,3.254,13.235,6.842,19.444,13.051c1.594,1.593,2.985,3.208,4.272,4.836
			c-0.436,4.183-0.703,8.455-0.795,12.816c-2.439-4.03-5.364-8.026-9.234-11.896c-2.335-2.335-4.719-4.303-7.126-6.055
			c2.76,4.993,5.7,9.871,8.771,14.656c1.712,2.23,3.183,4.494,4.513,6.792c1.025,1.493,2.029,3.002,3.084,4.472
			c3.203,4.461,6.542,8.816,10.014,13.06c-0.151-2.085-0.318-4.177-0.361-6.225l-0.141-7.993c-0.158-5.452,0.15-10.883,0.592-16.307
			c1.005-10.839,3.333-21.547,6.758-31.865c3.564-10.269,8.147-20.184,13.827-29.407c5.609-9.269,12.145-17.922,19.274-26.002
			c7.105-8.107,14.851-15.599,22.913-22.682c16.191-14.111,33.704-26.487,51.515-38.24c8.906-5.883,17.898-11.617,26.844-17.401
			c8.943-5.785,17.85-11.615,26.475-17.823c8.572-6.245,16.995-12.817,24.053-20.693c3.497-3.94,6.652-8.244,8.723-13.07
			c1.563-3.466,2.406-7.166,2.491-10.939c-2.664,0.48-5.164,0.772-7.428,0.933c-2.545,0.221-4.8,0.202-6.794,0.215
			c-1.981-0.08-3.758-0.083-5.042-0.21c-2.606-0.224-3.995-0.343-3.995-0.343l0.314-3.313l-0.402,3.303
			c-10.968-1.334-21.477-1.924-31.495-1.924c-33.713,0-61.86,6.687-83.07,14.259c-21.221,7.579-35.441,16.01-41.429,19.581
			l-3.426,2.044l-1.396-3.737c-3.934-10.529-10.227-20.13-18.529-27.686l-4.334-3.945l5.608-1.7
			c46.088-13.993,70.953-35.602,84.497-56.312c13.532-20.717,15.759-40.756,15.76-51.696c0-5.223-0.509-8.346-0.521-8.42
			l-0.644-3.79l3.844-0.094c10.158-0.246,20.002-4.335,27.281-11.556c6.257-6.222,10.648-14.74,11.767-25.346
			c0.182-1.721,0.298-3.484,0.3-5.316c0-0.896-0.023-1.806-0.069-2.728l-0.254-5.075l4.753,1.796
			c7.978,3.013,15.927,4.372,23.536,4.373c11.35,0.001,21.948-3.032,30.671-8.133c8.727-5.101,15.551-12.259,19.446-20.44
			l2.763-5.799l3.143,5.602c1.968,3.515,5.117,6.91,9.189,9.981c4.068,3.073,9.042,5.816,14.552,8.085
			c11.02,4.546,24.181,7.182,36.48,7.176c10.109,0.007,19.618-1.786,26.878-5.502l4.527-2.31l0.307,5.073
			c0.998,16.852,9.81,34.132,22.262,47.878c0.305,0.337,0.602,0.682,0.911,1.015c8.577,9.253,18.781,16.756,29.054,21.435
			c5.183,2.361,10.384,4.016,15.402,4.788l4.5,0.702l-2.037,4.074c-0.822,1.639-1.548,3.392-2.23,5.192
			c-3.314,8.74-5.012,19.207-5.005,30.066c-0.002,11.206,1.764,22.794,5.166,33.241c3.396,10.452,8.436,19.745,14.816,26.443
			l2.793,2.936l-3.423,2.169c-8.695,5.492-16.052,15.065-21.157,26.613c-5.115,11.535-7.98,24.99-7.975,38.002
			c-0.001,7.363,0.913,14.581,2.813,21.234l1.087,3.807l-3.937,0.416c-6.04,0.635-12.395,3.066-18.508,6.907
			c-6.113,3.836-11.97,9.068-17.028,15.163c-10.141,12.189-16.99,27.823-16.963,42.338c0,2.336,0.174,4.645,0.534,6.913l0.479,3.018
			l-2.967,0.734c-13.401,3.322-23.514,10.951-30.382,20.581c-6.859,9.625-10.389,21.273-10.384,32.353
			c0,4.678,0.626,9.251,1.874,13.526l1.231,4.218l-4.394,0.042c-5.021,0.049-9.784,1.362-14.165,3.652
			c-4.377,2.289-8.359,5.565-11.71,9.493c-6.717,7.85-10.834,18.304-10.818,28.208c0,2.653,0.29,5.268,0.89,7.795l0.43,1.808
			l-1.314,1.314c-9.071,9.074-15.34,18.732-19.378,28.953c-1.347,3.414-2.424,6.899-3.29,10.443c0.779-0.736,1.554-1.475,2.353-2.19
			c2.307-1.987,4.534-4.098,6.96-5.948c2.37-1.925,4.775-3.808,7.26-5.587c2.432-1.855,4.993-3.526,7.519-5.257
			c2.559-1.676,5.153-3.308,7.784-4.877c2.651-1.537,5.298-3.087,8.03-4.486c2.687-1.487,5.481-2.762,8.25-4.093
			c2.817-1.222,5.61-2.509,8.483-3.605c2.843-1.173,5.749-2.182,8.647-3.219c2.922-0.966,5.849-1.92,8.816-2.753
			c2.963-0.838,5.948-1.615,8.958-2.277c3.002-0.699,6.03-1.294,9.07-1.819c3.039-0.533,6.093-0.991,9.162-1.347
			c3.065-0.387,6.148-0.641,9.234-0.862c3.09-0.188,6.188-0.299,9.296-0.285c3.135,0.02,6.163,0.112,9.449,0.445l2.067,0.21
			l0.425,2.127c1.2,5.997,2.057,12.048,2.6,18.123c3.021-2.13,5.99-4.328,8.914-6.582c-0.142-1.253-0.297-2.493-0.461-3.722
			c1.053,0.518,2.099,1.049,3.137,1.6c1.252-0.991,2.504-1.982,3.737-2.996c-2.558-1.428-5.122-2.71-7.671-3.916
			c-0.244-1.473-0.498-2.933-0.777-4.36l-0.87-4.449l-0.055-0.188c1.888,0.927,3.772,1.811,5.641,2.682
			c3.399,1.583,6.719,3.143,9.971,4.927c1.175-1.029,2.346-2.061,3.502-3.111c-3.873-2.221-7.766-4.053-11.601-5.839
			c-8.376-3.9-16.288-7.584-23.825-15.121c-7.537-7.537-11.22-15.449-15.12-23.825c-3.891-8.356-7.914-16.997-16.006-25.089
			c-5.807-5.806-11.895-9.506-17.958-12.577c-0.666,1.331-1.264,2.683-1.799,4.06c5.748,2.919,11.28,6.314,16.62,11.654
			c7.537,7.537,11.22,15.449,15.12,23.825c3.891,8.356,7.914,16.997,16.006,25.089c3.202,3.202,6.49,5.751,9.812,7.922
			c0.088,0.011,0.217,0.028,0.372,0.048c-0.335-0.043-0.543-0.07-0.543-0.07c-0.481-0.062-4.927-0.609-12.332-0.609
			c-0.456,0-0.927,0.002-1.413,0.007c-0.551-0.508-1.105-0.995-1.652-1.542c-7.537-7.537-11.22-15.45-15.12-23.825
			c-3.891-8.356-7.914-16.997-16.006-25.089c-4.252-4.252-8.657-7.366-13.091-9.942c-0.329,1.574-0.57,3.149-0.732,4.728
			c3.646,2.237,7.208,4.874,10.686,8.352c7.537,7.537,11.22,15.449,15.12,23.825c3.667,7.874,7.495,15.995,14.689,23.677
			c-2.983,0.145-6.302,0.387-9.914,0.768c-4.113-5.59-6.834-11.385-9.646-17.424c-3.891-8.356-7.914-16.997-16.006-25.089
			c-1.589-1.589-3.199-2.993-4.822-4.298c0.184,1.414,0.417,2.814,0.738,4.182c-2.566-10.433-0.68-22.536,5.174-32.708
			c0.733-1.273,1.6-2.615,2.583-3.977c6.923,3.309,13.531,6.917,19.871,13.257c7.537,7.537,11.22,15.45,15.12,23.825
			c3.891,8.356,7.914,16.997,16.006,25.089c8.092,8.092,16.732,12.115,25.091,16.006c3.574,1.664,7.058,3.306,10.47,5.208
			c1.104-1.066,2.182-2.157,3.267-3.242c-3.96-2.29-7.943-4.162-11.865-5.987c-8.376-3.9-16.288-7.584-23.825-15.121
			c-7.537-7.537-11.22-15.449-15.12-23.825c-3.891-8.356-7.914-16.997-16.006-25.089c-6.51-6.51-13.372-10.376-20.158-13.669
			c1.667-1.873,3.586-3.726,5.826-5.45c7.002,3.337,13.682,6.956,20.089,13.363c7.537,7.537,11.22,15.449,15.12,23.825
			c3.891,8.356,7.914,16.997,16.006,25.089c8.092,8.092,16.732,12.115,25.091,16.006c3.542,1.649,6.996,3.277,10.378,5.156
			c1.04-1.105,2.068-2.22,3.089-3.343c-3.871-2.219-7.763-4.051-11.595-5.835c-8.376-3.9-16.288-7.584-23.825-15.121
			c-7.537-7.537-11.22-15.449-15.12-23.825c-3.891-8.356-7.914-16.997-16.006-25.089c-6.13-6.131-12.576-9.924-18.975-13.096
			c2.607-1.537,5.537-2.886,8.83-3.944c5.49,2.838,10.784,6.167,15.901,11.283c7.537,7.537,11.22,15.449,15.12,23.825
			c3.891,8.356,7.914,16.997,16.006,25.089c8.092,8.092,16.732,12.115,25.09,16.006c3.328,1.55,6.581,3.076,9.768,4.813
			c0.978-1.143,1.962-2.28,2.919-3.439c-3.614-2.021-7.24-3.731-10.816-5.395c-8.376-3.9-16.288-7.584-23.825-15.121
			s-11.22-15.449-15.12-23.825c-3.891-8.356-7.914-16.997-16.006-25.089c-4.173-4.173-8.491-7.254-12.842-9.802l-3.087,0.763
			l5.606-1.387c2.148-0.531,3.817-2.223,4.472-4.26c3.97,2.352,7.836,5.157,11.607,8.929c7.537,7.537,11.22,15.449,15.12,23.825
			c3.891,8.356,7.914,16.997,16.006,25.089c8.092,8.092,16.732,12.115,25.088,16.005c2.938,1.369,5.817,2.718,8.644,4.208
			c0.919-1.183,1.819-2.382,2.718-3.581c-3.174-1.707-6.351-3.189-9.489-4.649c-8.376-3.9-16.288-7.583-23.825-15.12
			c-7.537-7.537-11.22-15.45-15.12-23.825c-3.891-8.356-7.914-16.997-16.006-25.089c-4.825-4.825-9.846-8.188-14.885-10.955
			c-0.315-1.985-0.534-3.37-0.534-3.37c-0.281-1.774-0.403-3.615-0.396-5.497c7.544,3.542,14.715,7.21,21.571,14.066
			c7.537,7.537,11.22,15.449,15.12,23.825c3.891,8.356,7.914,16.997,16.006,25.089s16.732,12.115,25.088,16.006
			c2.361,1.099,4.678,2.189,6.964,3.344c0.859-1.218,1.704-2.446,2.542-3.68c-2.555-1.309-5.108-2.511-7.632-3.686
			c-8.376-3.901-16.288-7.584-23.825-15.121c-7.537-7.537-11.22-15.449-15.12-23.825c-3.891-8.356-7.914-16.997-16.006-25.089
			c-7.877-7.877-16.273-11.896-24.421-15.694c0.291-2.451,0.795-4.953,1.505-7.477c1.623,0.786,3.241,1.546,4.847,2.293
			c8.376,3.9,16.288,7.584,23.825,15.121c7.537,7.537,11.22,15.45,15.12,23.825c3.891,8.356,7.914,16.997,16.006,25.089
			c8.092,8.092,16.732,12.115,25.088,16.006c1.609,0.749,3.195,1.492,4.766,2.252c0.801-1.255,1.611-2.503,2.392-3.773
			c-1.77-0.864-3.534-1.687-5.284-2.502c-8.376-3.9-16.288-7.583-23.825-15.12c-7.537-7.537-11.22-15.449-15.12-23.825
			c-3.891-8.356-7.914-16.997-16.006-25.089c-8.092-8.092-16.732-12.115-25.091-16.006c-1.805-0.841-3.585-1.671-5.344-2.531
			c0.851-2.304,1.879-4.609,3.054-6.895c3.114,1.666,6.232,3.121,9.311,4.555c8.376,3.9,16.288,7.584,23.825,15.121
			c7.537,7.537,11.22,15.449,15.12,23.825c3.891,8.356,7.914,16.997,16.006,25.089c8.092,8.092,16.734,12.115,25.091,16.006
			c0.695,0.324,1.384,0.645,2.071,0.967c0.739-1.284,1.449-2.587,2.166-3.885c-0.791-0.372-1.58-0.739-2.365-1.105
			c-8.376-3.9-16.288-7.584-23.825-15.121c-7.537-7.537-11.22-15.449-15.12-23.825c-3.891-8.356-7.914-16.997-16.006-25.089
			s-16.732-12.115-25.09-16.006c-3.076-1.432-6.088-2.838-9.043-4.413c1.294-2.167,2.73-4.303,4.3-6.389
			c3.927,2.264,7.876,4.121,11.765,5.931c8.376,3.9,16.288,7.584,23.825,15.121c7.537,7.537,11.22,15.45,15.12,23.825
			c3.891,8.356,7.914,16.997,16.006,25.089c7.717,7.716,15.929,11.729,23.921,15.459c0.679-1.314,1.351-2.632,2.008-3.959
			c-7.992-3.728-15.567-7.412-22.792-14.637c-7.537-7.537-11.22-15.449-15.12-23.825c-3.891-8.357-7.914-16.999-16.006-25.089
			c-8.092-8.092-16.732-12.115-25.09-16.006c-3.695-1.72-7.294-3.417-10.816-5.403c1.755-2.056,3.587-3.977,5.478-5.736
			c4.123,2.425,8.275,4.365,12.36,6.267c8.376,3.9,16.288,7.584,23.825,15.121s11.22,15.449,15.12,23.825
			c3.891,8.356,7.914,16.997,16.006,25.089c6.532,6.531,13.42,10.401,20.228,13.702c0.617-1.343,1.228-2.69,1.823-4.045
			c-6.575-3.188-12.868-6.748-18.914-12.794c-7.537-7.537-11.22-15.45-15.12-23.825c-3.891-8.357-7.914-16.999-16.006-25.089
			c-8.092-8.092-16.732-12.115-25.09-16.006c-3.648-1.699-7.204-3.375-10.683-5.328c2.332-1.865,4.714-3.479,7.098-4.822
			c3.544,1.97,7.099,3.645,10.605,5.277c8.378,3.901,16.29,7.585,23.827,15.122c7.537,7.537,11.22,15.45,15.12,23.825
			c3.891,8.356,7.914,16.997,16.006,25.089c5.209,5.209,10.645,8.724,16.087,11.611c0.557-1.375,1.09-2.763,1.624-4.15
			c-5.018-2.691-9.868-5.894-14.574-10.598c-7.537-7.537-11.22-15.449-15.12-23.825c-3.891-8.357-7.914-16.999-16.006-25.089
			c-8.092-8.092-16.734-12.116-25.091-16.007c-2.55-1.187-5.052-2.367-7.518-3.629c2.606-1.04,5.174-1.741,7.631-2.001l4.313-0.456
			c0.868,0.409,1.734,0.814,2.596,1.215c8.376,3.9,16.288,7.584,23.825,15.121c7.537,7.537,11.22,15.449,15.12,23.825
			c3.891,8.356,7.914,16.997,16.006,25.089c3.749,3.749,7.619,6.603,11.521,8.997c0.501-1.43,1.004-2.858,1.48-4.299
			c-3.359-2.129-6.648-4.619-9.864-7.835c-7.537-7.537-11.22-15.45-15.12-23.825c-3.891-8.357-7.914-16.999-16.006-25.089
			c-7.278-7.278-15-11.262-22.559-14.822c1.667-1.315,2.415-3.522,1.738-5.894l-1.667-5.838l1.188,4.162
			c1.08,0.512,2.157,1.014,3.229,1.514c8.378,3.901,16.29,7.585,23.828,15.122c7.537,7.537,11.22,15.449,15.12,23.825
			c3.891,8.356,7.914,16.997,16.006,25.089c2.154,2.154,4.353,3.997,6.583,5.656c0.449-1.519,0.89-3.041,1.311-4.571
			c-1.604-1.273-3.19-2.655-4.757-4.222c-7.537-7.537-11.22-15.449-15.12-23.825c-3.891-8.357-7.914-16.999-16.006-25.089
			c-8.092-8.092-16.734-12.116-25.09-16.007c-2.282-1.062-4.526-2.116-6.741-3.228l-0.164-0.574
			c-0.871-3.05-1.488-6.234-1.891-9.493c5.247,3.503,10.588,5.99,15.818,8.425c8.376,3.9,16.288,7.583,23.825,15.12
			c7.537,7.537,11.22,15.45,15.12,23.825c3.891,8.357,7.914,16.999,16.006,25.09c0.419,0.419,0.841,0.798,1.261,1.194
			c0.404-1.696,0.778-3.403,1.149-5.111c-7.029-7.304-10.627-14.957-14.393-23.046c-3.891-8.357-7.914-16.999-16.006-25.091
			c-8.092-8.091-16.732-12.115-25.09-16.006c-6.304-2.935-12.344-5.751-18.16-10.176c-0.151-3.489-0.072-7.029,0.235-10.567
			c8.051,7.996,16.637,12.004,24.947,15.872c8.376,3.9,16.288,7.583,23.825,15.12c7.537,7.537,11.22,15.449,15.12,23.825
			c3.086,6.628,6.29,13.43,11.505,19.999c0.355-2.021,0.69-4.05,0.997-6.087c-3.476-5.082-5.941-10.333-8.479-15.784
			c-3.891-8.357-7.914-16.999-16.006-25.091c-8.092-8.091-16.732-12.115-25.09-16.006c-8.376-3.9-16.288-7.583-23.825-15.12
			c-0.813-0.814-1.565-1.637-2.295-2.464c0.531-3.444,1.256-6.851,2.176-10.168c1.708,2.321,3.622,4.62,5.876,6.874
			c8.092,8.092,16.734,12.116,25.091,16.007c8.376,3.9,16.288,7.584,23.825,15.12c7.537,7.537,11.22,15.449,15.12,23.825
			c1.6,3.437,3.24,6.922,5.159,10.397c0.283-2.765,0.524-5.542,0.719-8.332c-0.622-1.302-1.238-2.612-1.855-3.937
			c-3.891-8.357-7.914-16.999-16.006-25.091c-8.092-8.091-16.732-12.114-25.088-16.005c-8.378-3.901-16.29-7.585-23.827-15.122
			c-2.962-2.962-5.316-5.984-7.335-9.067c1.075-3.077,2.316-6.032,3.703-8.832c2.468,4.113,5.439,8.194,9.388,12.142
			c8.092,8.092,16.734,12.116,25.091,16.007c8.376,3.9,16.288,7.584,23.825,15.12c6.012,6.012,9.566,12.268,12.74,18.802
			c0.008-0.825,0.036-1.644,0.036-2.47c0-2.372-0.04-4.735-0.103-7.092c-2.496-4.193-5.511-8.353-9.536-12.377
			c-8.092-8.091-16.732-12.114-25.088-16.005c-8.378-3.901-16.29-7.585-23.827-15.122c-4.392-4.392-7.459-8.916-10.04-13.581
			c1.502-2.519,3.127-4.873,4.881-6.991c2.759,5.015,6.113,10.012,10.915,14.815c8.092,8.092,16.734,12.116,25.09,16.007
			c8.376,3.9,16.288,7.584,23.825,15.12c1.06,1.06,2.027,2.129,2.945,3.203c-0.201-2.399-0.432-4.79-0.697-7.169
			c-7.835-7.517-16.147-11.427-24.199-15.176c-8.378-3.901-16.29-7.585-23.827-15.122c-4.876-4.877-8.132-9.912-10.885-15.126
			c1.808-1.766,3.713-3.317,5.714-4.584l0.367-0.232c2.694,4.804,5.959,9.584,10.561,14.186c8.092,8.092,16.732,12.115,25.09,16.006
			c5.385,2.507,10.577,4.94,15.603,8.351c-0.311-1.971-0.645-3.935-1-5.892c-4.245-2.528-8.523-4.523-12.731-6.482
			c-8.376-3.9-16.288-7.584-23.825-15.121c-4.343-4.343-7.389-8.814-9.951-13.423l3.2-2.027c1.383-0.876,2.238-2.108,2.542-3.439
			c2.581,4.449,5.7,8.868,9.965,13.133c8.092,8.092,16.732,12.115,25.091,16.006c1.274,0.593,2.535,1.186,3.788,1.784
			c-0.407-1.843-0.831-3.679-1.277-5.506c-0.213-0.099-0.427-0.201-0.64-0.299c-8.376-3.9-16.288-7.584-23.825-15.121
			c-7.537-7.537-11.22-15.449-15.12-23.825c-3.891-8.356-7.914-16.997-16.006-25.089c-1.46-1.46-2.941-2.748-4.428-3.964
			c0.598,2.72,1.294,5.386,2.105,7.974c6.97,7.276,10.556,14.898,14.306,22.953c0.689,1.48,1.392,2.971,2.112,4.465l2.422,2.547
			l-5.968-6.275c-15.374-16.162-21.537-51.499-14.505-75.75c0.896-3.091,1.996-6.012,3.33-8.68l4.723-9.445
			c1.644-3.288,0.033-6.412-3.599-6.979l-10.433-1.629c-25.353-3.956-57.937-35.437-59.822-66.536l-0.76-12.528
			c-0.223-3.669-3.057-5.289-6.332-3.618l-11.178,5.704c-5.759,2.938-13.601,4.491-22.675,4.491
			c-22.031,0-45.915-9.396-52.155-20.517l-8.623-15.371c-1.798-3.206-4.538-3.115-6.12,0.204l-7.582,15.909
			c-6.643,13.938-23.427,23.303-41.766,23.303c-6.817,0-13.635-1.271-20.267-3.775l-11.742-4.436
			c-3.438-1.299-6.077,0.624-5.893,4.295l0.628,12.536c0.021,0.428,0.003,0.914-0.047,1.447c-0.076,0.797-2.74-0.115-5.869-2.044
			c-29.63-18.263-65.362-41.229-89.661-58.545c-12.845-9.154-20.468-1.524-9.416,11.491
			C128.315,41.619,152.238,68.232,169.809,87.806z M61.621,232.21l-2.421-2.204l3.922,3.57L61.621,232.21z M104.974,270.92
			c45.072-26.89,90.005-32.535,119.761-32.535c10.028,0,20.248,0.625,30.377,1.857c1.458,0.177,2.912,0.323,4.356,0.438
			c2.411,0.191,2.777,2.782,0.384,5.572c-11.13,12.981-32.911,27.275-55.542,42.125c0.592-0.388,1.18-0.775,1.77-1.162
			c-4.571-2.82-9.19-4.996-13.726-7.109c-8.377-3.901-16.288-7.585-23.826-15.122c-5.379-5.378-8.785-10.952-11.718-16.744
			c-1.428,0.424-2.862,0.871-4.303,1.329c3.13,6.26,6.888,12.557,12.884,18.552c8.092,8.092,16.733,12.116,25.091,16.007
			c3.931,1.83,7.756,3.627,11.491,5.783c-2.376,1.56-4.786,3.145-7.221,4.753c-3.771-2.141-7.559-3.927-11.291-5.665
			c-8.377-3.901-16.288-7.585-23.826-15.122c-6.964-6.964-10.639-14.254-14.233-21.928c-1.386,0.492-2.781,1.017-4.176,1.543
			c3.678,7.867,7.684,15.935,15.272,23.522c8.092,8.092,16.733,12.116,25.091,16.007c3.064,1.427,6.065,2.828,9.009,4.396
			c-2.368,1.575-4.757,3.176-7.16,4.801c-2.968-1.569-5.937-2.961-8.871-4.327c-8.376-3.9-16.288-7.584-23.825-15.121
			c-7.538-7.537-11.221-15.45-15.121-23.826c-0.421-0.904-0.845-1.812-1.275-2.723c-1.368,0.567-2.73,1.099-4.105,1.7
			c0.453,0.959,0.904,1.922,1.357,2.896c3.891,8.357,7.915,16.999,16.007,25.091s16.733,12.115,25.089,16.006
			c2.224,1.036,4.412,2.061,6.572,3.142c-2.334,1.598-4.679,3.222-7.029,4.872c-2.198-1.1-4.392-2.13-6.564-3.142
			c-8.376-3.901-16.288-7.584-23.825-15.121c-7.537-7.537-11.222-15.45-15.121-23.825c-1.047-2.247-2.114-4.517-3.257-6.791
			c-1.324,0.632-2.65,1.292-3.978,1.958c1.106,2.202,2.155,4.434,3.213,6.706c3.891,8.356,7.914,16.997,16.006,25.089
			c8.092,8.092,16.733,12.115,25.089,16.006c1.455,0.677,2.89,1.353,4.315,2.037c-2.28,1.628-4.561,3.278-6.84,4.957
			c-1.505-0.725-3.007-1.43-4.496-2.123c-8.376-3.9-16.288-7.584-23.825-15.121c-7.537-7.537-11.222-15.449-15.121-23.825
			c-1.576-3.385-3.189-6.815-5.069-10.237c-1.283,0.698-2.568,1.456-3.852,2.188c1.772,3.237,3.324,6.54,4.899,9.922
			c3.891,8.357,7.914,16.999,16.006,25.091c8.092,8.092,16.733,12.115,25.089,16.006c0.789,0.367,1.571,0.732,2.35,1.098
			c-2.209,1.663-4.411,3.352-6.605,5.068c-0.925-0.437-1.848-0.868-2.766-1.295c-8.376-3.9-16.288-7.584-23.825-15.121
			c-7.537-7.537-11.222-15.45-15.121-23.825c-2.012-4.322-4.072-8.718-6.699-13.076L104.974,270.92z M82.497,216.839
			c1.931-0.652,3.825-1.316,5.672-1.997C86.322,215.523,84.429,216.187,82.497,216.839z M427.19,507.661
			c-0.685-0.089-1.307-0.169-1.806-0.234C425.884,507.492,426.498,507.572,427.19,507.661z M330.492,525.249
			c0.717-0.089,1.499-0.28,2.316-0.581C331.988,524.973,331.209,525.159,330.492,525.249z M368.79,512.077
			c-0.651-1.358-1.292-2.725-1.938-4.112c-3.891-8.355-7.914-16.996-16.004-25.087l-0.134-0.126
			c-1.715,0.214-3.418,0.655-5.092,1.295c0.7,0.63,1.398,1.278,2.088,1.968c7.535,7.537,11.22,15.448,15.12,23.823
			c0.52,1.117,1.048,2.241,1.583,3.368c-2.352,0.635-4.75,1.33-7.188,2.089c-3.679-7.867-7.685-15.935-15.271-23.523
			c-1.226-1.225-2.464-2.326-3.706-3.374c-1.13,0.925-2.224,1.934-3.263,3.058c1.288,1.065,2.57,2.191,3.832,3.453
			c6.913,6.914,10.585,14.149,14.155,21.764c-2.318,0.78-4.666,1.614-7.043,2.516c-3.126-6.25-6.881-12.537-12.868-18.523
			c-0.946-0.946-1.899-1.819-2.854-2.656c-0.778,1.345-1.464,2.719-2.056,4.119c0.593,0.542,1.186,1.087,1.773,1.674
			c5.464,5.464,8.895,11.127,11.859,17.018c-2.316,0.939-4.653,1.938-7.011,3.002c-2.386-4.265-5.259-8.507-9.078-12.628
			c-0.279,2.339-0.272,4.637,0.026,6.85c1.824,2.363,3.376,4.765,4.773,7.204c-1.877,0.234-3.291-0.258-3.585-1.497
			c-0.448-1.887-0.811-3.417-0.811-3.417c-1.993-8.393,0.691-18.619,7.007-26.688c5.453-6.969,12.7-11.004,19.886-11.073l8.324-0.08
			c4.555,5.906,7.427,12.042,10.412,18.452c1.453,3.12,2.925,6.28,4.62,9.437C373.893,510.882,371.374,511.443,368.79,512.077z
			 M365.498,468.228c7.537,7.537,11.22,15.449,15.12,23.825c2.486,5.34,5.04,10.794,8.661,16.149
			c-2.657,0.354-5.446,0.786-8.345,1.304c-1.892-3.4-3.528-6.872-5.186-10.432c-2.703-5.805-5.503-11.744-9.653-17.544
			c1.608-1.136,2.314-3.178,1.635-5.503l-2.293-7.856L365.498,468.228z M407.974,379.664c0.375-1.334,0.802-2.673,1.29-4.014
			C408.777,376.991,408.35,378.33,407.974,379.664z M437.789,341.105c1.105-0.623,2.209-1.186,3.309-1.686
			C439.998,339.922,438.893,340.482,437.789,341.105z M214.588,80.882c2.21-0.274-15.603,29.489-28.161,13.279
			c0,0,0.708-0.034,1.873-0.141C199.612,92.976,205.853,81.966,214.588,80.882z M212.857,78.578
			c-7.106-0.107-6.937,1.264-14.81,6.585c-6.731,4.549-13.936,5.976-19.234-0.141c0,0,0.656-0.003,1.736-0.057
			c9.15-0.454,11.149-4.739,16.901-7.95c0.845-0.472,1.769-0.921,2.811-1.331c1.615-0.635,3.136-0.911,4.554-0.949
			C208.468,74.636,211.358,76.273,212.857,78.578z M202.561,72.279c-6.509-0.523-6.436,0.745-13.972,5.153
			c-6.443,3.769-13.134,4.646-17.626-1.279c0,0,0.601,0.036,1.595,0.051c9.653,0.149,10.98-4.885,18.628-7.332
			C196.62,67.134,200.845,69.222,202.561,72.279z M192.088,64.794c-5.936-0.446-5.864,0.709-12.713,4.764
			c-5.856,3.466-11.952,4.297-16.074-1.083c0,0,0.548,0.03,1.454,0.039c8.8,0.091,9.986-4.505,16.947-6.772
			C186.647,60.133,190.509,62.016,192.088,64.794z M181.604,57.239c-5.365-0.34-5.287,0.703-11.429,4.437
			c-5.251,3.192-10.746,4.008-14.527-0.806c0,0,0.496,0.021,1.314,0.02c7.948-0.012,8.97-4.174,15.231-6.296
			C176.641,53.087,180.149,54.747,181.604,57.239z M171.214,50.52c-4.764-0.578-4.748,0.355-10.413,3.368
			c-4.843,2.576-9.783,3.02-12.905-1.464c0,0,0.441,0.044,1.17,0.085c7.084,0.397,8.208-3.26,13.897-4.829
			C167.005,46.565,170.045,48.224,171.214,50.52z M160.744,43.053c-4.191-0.509-4.177,0.312-9.161,2.963
			c-4.261,2.266-8.606,2.657-11.353-1.288c0,0,0.388,0.039,1.029,0.075c6.232,0.349,7.221-2.868,12.226-4.248
			C157.041,39.574,159.716,41.034,160.744,43.053z M150.274,35.587c-3.618-0.439-3.606,0.27-7.909,2.558
			c-3.678,1.956-7.43,2.294-9.801-1.112c0,0,0.335,0.034,0.889,0.065c5.38,0.302,6.234-2.476,10.555-3.667
			C147.077,32.583,149.386,33.843,150.274,35.587z M139.804,28.121c-3.045-0.37-3.035,0.227-6.656,2.153
			c-3.096,1.646-6.254,1.931-8.249-0.936c0,0,0.281,0.028,0.748,0.054c4.528,0.254,5.247-2.084,8.883-3.087
			C137.113,25.592,139.057,26.653,139.804,28.121z M129.339,21.532c-2.403-0.655-2.465-0.174-5.6,0.947
			c-2.681,0.959-5.251,0.817-6.517-1.721c0,0,0.223,0.056,0.594,0.132c3.608,0.736,4.46-1.058,7.499-1.436
			C127.474,19.185,128.911,20.265,129.339,21.532z M118.07,13.47c1.671-0.05,2.688,0.892,2.92,1.893
			c-1.788-0.682-1.884-0.367-4.354,0.301c-2.132,0.49-4.077,0.227-4.853-1.809c0,0,0.171,0.045,0.444,0.146
			C114.971,14.691,115.717,13.519,118.07,13.47z M108.058,8.128c2.044,1.096,2.871,0.313,4.752,0.744
			c1.339,0.294,1.96,1.246,1.944,2.088c-1.286-0.899-1.425-0.668-3.522-0.63c-1.793-0.036-3.287-0.633-3.498-2.406L108.058,8.128z"
			/>
	</g>
</g>
</svg>
