<?xml version="1.0" encoding="utf-8"?>
<!-- Generator: Adobe Illustrator 19.0.0, SVG Export Plug-In . SVG Version: 6.00 Build 0)  -->
<svg version="1.1" id="Layer_1" xmlns="http://www.w3.org/2000/svg" xmlns:xlink="http://www.w3.org/1999/xlink" x="0px" y="0px"
	 viewBox="0 0 255.864 320.073" style="enable-background:new 0 0 255.864 320.073;" xml:space="preserve">
<style type="text/css">
	.st0{fill:none;stroke:#DBC571;stroke-linecap:round;stroke-linejoin:round;stroke-miterlimit:10;}
	.st1{fill:#FFFFFF;stroke:#DBC571;stroke-miterlimit:10;}
	.st2{fill:#FFFFFF;stroke:#DBC571;stroke-linecap:round;stroke-linejoin:round;stroke-miterlimit:10;}
	.st3{fill:none;stroke:#DBC571;stroke-linecap:round;stroke-miterlimit:10;}
</style>
<g id="XMLID_504_">
	<g id="XMLID_3386_">
		<g id="XMLID_3401_">
			<path id="XMLID_3412_" class="st0" d="M127.458,212.397H14.187c0-8.917-13.687-10.174-13.687-0.12
				c0,22,86.772,23.185,127.176,23.185c0.085,0,0.171,0,0.257,0s0.171,0,0.257,0c40.404,0,127.176-1.184,127.176-23.185
				c0-10.054-13.687-8.797-13.687,0.12H128.406H127.458z"/>
			<line id="XMLID_3411_" class="st0" x1="64.65" y1="272.303" x2="64.65" y2="272.303"/>
			<line id="XMLID_3410_" class="st0" x1="191.214" y1="272.303" x2="191.214" y2="272.303"/>
			<line id="XMLID_3409_" class="st0" x1="64.65" y1="272.303" x2="191.214" y2="272.303"/>
			<line id="XMLID_3408_" class="st0" x1="194.858" y1="281.961" x2="61.007" y2="281.961"/>
			<line id="XMLID_3407_" class="st0" x1="36.307" y1="311.04" x2="60.444" y2="233.246"/>
			<line id="XMLID_3406_" class="st0" x1="219.557" y1="311.04" x2="195.42" y2="233.246"/>
			<line id="XMLID_3405_" class="st0" x1="64.65" y1="272.303" x2="78.93" y2="234.451"/>
			<line id="XMLID_3404_" class="st0" x1="191.214" y1="272.303" x2="176.935" y2="234.451"/>
			<line id="XMLID_3403_" class="st0" x1="64.65" y1="272.303" x2="50.037" y2="311.04"/>
			<line id="XMLID_3402_" class="st0" x1="191.214" y1="272.303" x2="205.827" y2="311.04"/>
		</g>
		<line id="XMLID_3400_" class="st0" x1="46.823" y1="319.558" x2="46.818" y2="319.573"/>
		<line id="XMLID_3399_" class="st0" x1="209.041" y1="319.558" x2="209.047" y2="319.573"/>
		<line id="XMLID_3398_" class="st0" x1="47.97" y1="316.519" x2="47.758" y2="317.08"/>
		<line id="XMLID_3397_" class="st0" x1="207.894" y1="316.519" x2="208.106" y2="317.08"/>
		<line id="XMLID_3396_" class="st0" x1="49.445" y1="312.61" x2="48.727" y2="314.513"/>
		<line id="XMLID_3395_" class="st0" x1="206.419" y1="312.61" x2="207.137" y2="314.513"/>
		<line id="XMLID_3394_" class="st0" x1="33.67" y1="319.542" x2="33.665" y2="319.557"/>
		<line id="XMLID_3393_" class="st0" x1="222.195" y1="319.542" x2="222.199" y2="319.557"/>
		<line id="XMLID_3392_" class="st0" x1="34.587" y1="316.585" x2="34.413" y2="317.146"/>
		<line id="XMLID_3391_" class="st0" x1="221.277" y1="316.585" x2="221.451" y2="317.146"/>
		<line id="XMLID_3390_" class="st0" x1="35.812" y1="312.636" x2="35.23" y2="314.514"/>
		<line id="XMLID_3389_" class="st0" x1="220.052" y1="312.636" x2="220.635" y2="314.514"/>
		<line id="XMLID_3388_" class="st1" x1="14.187" y1="212.397" x2="14.187" y2="224.988"/>
		<line id="XMLID_3387_" class="st1" x1="241.678" y1="212.397" x2="241.678" y2="225.001"/>
	</g>
	<g id="XMLID_3144_">
		<g id="XMLID_3369_">
			<path id="XMLID_3385_" class="st0" d="M132.521,192.449l-0.004-93.23c0-12.147,9.939-22.086,22.086-22.086h0
				c12.147,0,22.086,9.939,22.086,22.086"/>
			<g id="XMLID_3370_">
				<path id="XMLID_3384_" class="st0" d="M176.689,131.485c-13.116-5.563-23.741-14.402-31.272-24.262l31.272-8.023
					L176.689,131.485z"/>
				<g id="XMLID_3376_">
					<path id="XMLID_3383_" class="st0" d="M175.083,130.782c-0.047,0.153-0.122,0.301-0.227,0.436
						c-0.462,0.595-1.318,0.703-1.913,0.242c-0.568-0.441-0.692-1.242-0.301-1.831"/>
					<path id="XMLID_3382_" class="st0" d="M170.036,128.276c-0.047,0.12-0.111,0.236-0.195,0.343
						c-0.462,0.595-1.318,0.703-1.913,0.242s-0.703-1.318-0.242-1.913"/>
					<path id="XMLID_3381_" class="st0" d="M165.187,125.408c-0.042,0.088-0.094,0.173-0.156,0.253
						c-0.462,0.595-1.318,0.703-1.913,0.242c-0.595-0.462-0.703-1.318-0.242-1.913c0.021-0.027,0.043-0.053,0.065-0.078"/>
					<path id="XMLID_3380_" class="st0" d="M160.558,122.195c-0.032,0.057-0.069,0.113-0.111,0.166
						c-0.462,0.595-1.318,0.703-1.913,0.242c-0.595-0.462-0.703-1.318-0.242-1.913c0.042-0.054,0.087-0.103,0.134-0.149"/>
					<path id="XMLID_3379_" class="st0" d="M156.171,118.656c-0.019,0.029-0.039,0.057-0.061,0.085
						c-0.462,0.595-1.318,0.703-1.913,0.242c-0.595-0.462-0.703-1.318-0.242-1.913c0.063-0.081,0.133-0.153,0.209-0.216"/>
					<path id="XMLID_3378_" class="st0" d="M152.05,114.816c-0.462,0.595-1.318,0.703-1.913,0.242
						c-0.595-0.462-0.703-1.318-0.242-1.913c0.084-0.108,0.181-0.2,0.286-0.275"/>
					<path id="XMLID_3377_" class="st0" d="M146.498,108.604c-0.137,0.084-0.262,0.193-0.366,0.328
						c-0.462,0.595-0.354,1.452,0.242,1.913c0.569,0.441,1.376,0.362,1.849-0.165"/>
				</g>
				<line id="XMLID_3375_" class="st0" x1="176.689" y1="99.2" x2="158.188" y2="106.904"/>
				<line id="XMLID_3374_" class="st0" x1="176.689" y1="99.2" x2="163.858" y2="108.754"/>
				<line id="XMLID_3373_" class="st0" x1="176.689" y1="99.2" x2="162.708" y2="119.358"/>
				<line id="XMLID_3372_" class="st0" x1="176.689" y1="99.2" x2="173.639" y2="123.724"/>
				<line id="XMLID_3371_" class="st0" x1="176.689" y1="99.2" x2="168.938" y2="118.401"/>
			</g>
		</g>
		<g id="XMLID_3363_">
			<path id="XMLID_3368_" class="st0" d="M126.093,196.867V84.722c0-18.903,15.324-34.227,34.227-34.227h0"/>
			<g id="XMLID_3364_">
				<path id="XMLID_3367_" class="st0" d="M194.753,71.45c-12.933,0-1.698-19.687-30.283-19.687
					C177.427,51.763,181.82,71.45,194.753,71.45z"/>
				<path id="XMLID_3366_" class="st0" d="M200.46,37.446c-22.765,0-27.361,13.048-40.43,13.048
					C192.27,50.495,182.771,37.446,200.46,37.446z"/>
				<path id="XMLID_3365_" class="st0" d="M204.278,47.798c1.015,5.685-10.875,7.129-30.345,3.111
					C193.018,47.5,205.438,54.289,204.278,47.798z"/>
			</g>
		</g>
		<g id="XMLID_3357_">
			<path id="XMLID_3362_" class="st0" d="M94.475,79.888c16.327,0,29.562,13.235,29.562,29.562v74.852"/>
			<g id="XMLID_3358_">
				<path id="XMLID_3361_" class="st0" d="M55.884,56.451c14.618,0,1.919,22.251,34.228,22.251
					C75.466,78.702,70.502,56.451,55.884,56.451z"/>
				<path id="XMLID_3360_" class="st0" d="M49.809,98.493c25.731,0,29.894-18.605,44.665-18.605
					C58.033,79.888,69.803,98.493,49.809,98.493z"/>
				<path id="XMLID_3359_" class="st0" d="M42.612,83.377c-1.345-6.387,13.271-13.437,34.174-4.572
					C64.848,83.377,41.076,76.085,42.612,83.377z"/>
			</g>
		</g>
		<g id="XMLID_3342_">
			<path id="XMLID_3356_" class="st0" d="M106.239,29.308c-6.11,7.998-14.023,13.717-22.093,17.14l0-22.808L106.239,29.308z"/>
			<g id="XMLID_3348_">
				<path id="XMLID_3355_" class="st0" d="M105.476,30.284c0.097,0.059,0.185,0.137,0.258,0.231c0.326,0.42,0.25,1.026-0.171,1.352
					c-0.401,0.311-0.971,0.256-1.306-0.116"/>
				<path id="XMLID_3354_" class="st0" d="M102.875,33.297c0.074,0.053,0.142,0.118,0.201,0.193c0.326,0.42,0.25,1.026-0.171,1.352
					c-0.42,0.326-1.026,0.25-1.352-0.171"/>
				<path id="XMLID_3353_" class="st0" d="M100.061,36.112c0.053,0.044,0.102,0.094,0.146,0.151c0.326,0.42,0.25,1.026-0.171,1.352
					c-0.42,0.326-1.026,0.25-1.352-0.171c-0.015-0.019-0.029-0.039-0.042-0.058"/>
				<path id="XMLID_3352_" class="st0" d="M97.05,38.716c0.034,0.032,0.065,0.067,0.094,0.105c0.326,0.42,0.25,1.026-0.171,1.352
					c-0.42,0.326-1.026,0.25-1.352-0.171c-0.029-0.038-0.056-0.077-0.079-0.118"/>
				<path id="XMLID_3351_" class="st0" d="M93.858,41.096c0.016,0.018,0.032,0.037,0.047,0.056c0.326,0.42,0.25,1.026-0.171,1.352
					c-0.42,0.326-1.026,0.25-1.352-0.171c-0.044-0.057-0.081-0.118-0.111-0.181"/>
				<path id="XMLID_3350_" class="st0" d="M90.506,43.242c0.326,0.42,0.25,1.026-0.171,1.352c-0.42,0.326-1.026,0.25-1.352-0.171
					c-0.059-0.076-0.105-0.159-0.138-0.244"/>
				<path id="XMLID_3349_" class="st0" d="M85.281,45.951c0.033,0.109,0.086,0.213,0.16,0.308c0.326,0.42,0.931,0.497,1.352,0.171
					c0.402-0.312,0.489-0.878,0.212-1.295"/>
			</g>
			<line id="XMLID_3347_" class="st0" x1="84.146" y1="23.64" x2="86.17" y2="37.653"/>
			<line id="XMLID_3346_" class="st0" x1="84.146" y1="23.64" x2="90.834" y2="38.766"/>
			<line id="XMLID_3345_" class="st0" x1="84.146" y1="23.64" x2="94.293" y2="35.146"/>
			<line id="XMLID_3344_" class="st0" x1="84.146" y1="23.64" x2="101.68" y2="30.352"/>
			<line id="XMLID_3343_" class="st0" x1="84.146" y1="23.64" x2="92.98" y2="29.335"/>
		</g>
		<path id="XMLID_3341_" class="st0" d="M84.158,23.648c0-12.731,10.416-23.148,23.148-23.148h0
			c12.731,0,23.148,10.416,23.148,23.148v165.658"/>
		<line id="XMLID_3340_" class="st2" x1="112.596" y1="180.474" x2="144.061" y2="180.474"/>
		<g id="XMLID_3168_">
			<path id="XMLID_3173_" class="st0" d="M59.513,38.549c0,0,7.534,25.21,49.075,27.191"/>
			<path id="XMLID_3172_" class="st0" d="M102.613,54.283c40.424,0,60.664-51.681,60.664-51.681"/>
			<path id="XMLID_3171_" class="st0" d="M95.092,60.575c50.67,7.728,58.01-36.583,110.445-27.589"/>
			<path id="XMLID_3170_" class="st0" d="M70.466,16.426c-5.006,24.261,10.006,41.833,31.98,42.246
				c17.849,0.335,34.277-10.565,34.277-10.565"/>
			<path id="XMLID_3169_" class="st0" d="M144.953,40.687c0,0,31.051-33.223,50.206-38.085"/>
		</g>
		<line id="XMLID_3167_" class="st2" x1="111.022" y1="180.483" x2="108.887" y2="180.483"/>
		<line id="XMLID_3166_" class="st2" x1="145.635" y1="180.483" x2="147.769" y2="180.483"/>
		<line id="XMLID_3165_" class="st2" x1="107.214" y1="180.474" x2="106.147" y2="180.474"/>
		<line id="XMLID_3164_" class="st2" x1="149.442" y1="180.474" x2="150.509" y2="180.474"/>
		<line id="XMLID_3163_" class="st2" x1="104.457" y1="180.474" x2="104.457" y2="180.474"/>
		<line id="XMLID_3162_" class="st2" x1="152.2" y1="180.474" x2="152.2" y2="180.474"/>
		<line id="XMLID_3161_" class="st2" x1="132.517" y1="193.954" x2="132.517" y2="195.874"/>
		<line id="XMLID_3160_" class="st2" x1="132.525" y1="197.379" x2="132.525" y2="198.339"/>
		<line id="XMLID_3159_" class="st2" x1="130.444" y1="190.727" x2="130.444" y2="192.647"/>
		<line id="XMLID_3158_" class="st2" x1="130.453" y1="194.152" x2="130.453" y2="195.112"/>
		<line id="XMLID_3157_" class="st2" x1="130.453" y1="196.633" x2="130.453" y2="196.633"/>
		<line id="XMLID_3156_" class="st2" x1="124.037" y1="185.777" x2="124.037" y2="187.696"/>
		<line id="XMLID_3155_" class="st2" x1="124.046" y1="189.202" x2="124.046" y2="190.162"/>
		<line id="XMLID_3154_" class="st2" x1="124.046" y1="191.682" x2="124.046" y2="191.682"/>
		<line id="XMLID_3153_" class="st2" x1="126.093" y1="198.359" x2="126.093" y2="200.279"/>
		<g id="XMLID_3146_">
			<path id="XMLID_3152_" class="st0" d="M141.525,212.354c9.45,0,17.181-7.732,17.181-17.181v-44.945
				c0-9.45-7.732-17.181-17.181-17.181h-3.509c0-7.808,0.396-14.646,8.771-14.646H109.87c8.374,0,8.771,6.838,8.771,14.646h-3.509
				c-9.45,0-17.181,7.732-17.181,17.181v44.945c0,9.45,7.732,17.181,17.181,17.181H141.525z"/>
			<path id="XMLID_3151_" class="st0" d="M149.18,188.822v-44.944c0-4.221-3.434-7.655-7.655-7.655"/>
			<path id="XMLID_3150_" class="st3" d="M101.125,150.229c0-7.722,6.283-14.006,14.005-14.006"/>
			<path id="XMLID_3149_" class="st3" d="M155.405,195.224c0,3.129-1.032,6.022-2.773,8.357"/>
			<path id="XMLID_3148_" class="st0" d="M113.85,174.683v27.003c0,4.221,3.434,7.655,7.655,7.655"/>
			<line id="XMLID_3147_" class="st0" x1="110.992" y1="157.828" x2="110.992" y2="192.92"/>
		</g>
		<line id="XMLID_3145_" class="st3" x1="107.233" y1="153.63" x2="107.233" y2="157.375"/>
	</g>
</g>
</svg>
