<?xml version="1.0" encoding="utf-8"?>
<!-- Generator: Adobe Illustrator 19.0.0, SVG Export Plug-In . SVG Version: 6.00 Build 0)  -->
<svg version="1.1" id="Layer_1" xmlns="http://www.w3.org/2000/svg" xmlns:xlink="http://www.w3.org/1999/xlink" x="0px" y="0px"
	 viewBox="-182 248.1 245.5 296.9" style="enable-background:new -182 248.1 245.5 296.9;" xml:space="preserve">
<style type="text/css">
	.st0{fill:#DBC571;}
	.st1{stroke:#000000;stroke-linecap:round;stroke-linejoin:round;stroke-miterlimit:10;}
	.st2{fill:none;stroke:#DBC571;stroke-miterlimit:10;}
	.st3{fill:none;stroke:#DBC571;stroke-linecap:round;stroke-linejoin:round;stroke-miterlimit:10;}
</style>
<g id="XMLID_504_">
	<path id="XMLID_573_" class="st0" d="M-56,280.4c0,4.8-1.5,9.1-4.5,13c-2.8,3.6-6.4,6.4-11.1,8.2c-3,1.2-6.4,1.8-9.9,1.8
		c-8.2,0-15-2.9-20.4-8.7c-5.5-5.8-8.2-12.8-8.2-20.9c0-4.2,0.6-7.4,1.7-9.6s3.6-5,7.6-8.4c3.9-3.4,7.9-5.9,12.2-7.5
		c0.7,0.1,1.5,0.2,2.5,0.4c1,0.1,2.1,0.3,3.3,0.6l4.1,0.9c0.4,0.1,1,0.2,1.7,0.4s1.5,0.4,2.4,0.7l2.3,0.6l2.2,0.6l2.3,0.6
		c1.1,0.2,1.8,0.4,2.2,0.4c1.2,0,3.6-1,7.1-3.1c0.1,0.6,0.4,1,0.7,1.4c-3.5,3.2-7.1,5.8-10.6,7.8c-1,0-2.1-0.2-3.5-0.5
		s-2.9-0.6-4.6-1.1c-6.8-1.9-12.2-2.9-16.2-2.9c-4.3,0-7.6,1.8-9.6,5.3c-1.8,2.9-2.7,6.6-2.7,11.2c0,9,2.3,16.2,6.8,21.4
		c4.6,5.3,10.7,8,18.3,8c5.6,0,10.6-2,15.1-6.1c4.5-4.1,6.8-8.8,6.8-14.3c0-5.6-2.1-9.6-6.3-11.7c-1.3-0.6-2.7-0.9-4.2-0.9
		c-2.2,0-4,0.2-5.4,0.7c-0.2,0.1-0.6,0.2-1.2,0.4c-0.6,0.2-1.3,0.4-2.1,0.8l-7,2.5c-0.8,0.2-1.5,0.5-2.2,0.7s-1.4,0.5-2,0.7
		l-2.2,0.6c-0.4,0.1-0.8,0.2-1.2,0.3c-0.4,0.1-0.9,0.2-1.3,0.3c-5.5-2.6-8.2-5.3-8.2-8.3c0-1.3,0.4-2.3,1.2-3
		c0.8-0.7,1.8-1.1,3.1-1.1c0.4,0,1,0.1,1.7,0.2c-0.2,0.3-0.3,0.7-0.3,0.9s0,0.4,0.1,0.6c-0.4,0-0.7-0.1-1.1-0.1c-0.3,0-0.6,0-0.8,0
		c-1.6,0-2.5,0.8-2.5,2.3c0,1.6,0.9,2.5,2.8,2.5c1,0,2.8-0.3,5.2-0.9c1.1-0.2,2.5-0.7,4.4-1.3s4.2-1.4,6.9-2.3
		c3.7-1.3,6.7-2,9.1-2.2c0.8,0,1.8-0.1,3-0.2c5.8,1.7,9.7,5.8,11.7,12.2C-56.3,276-56,278.1-56,280.4z"/>
	<path id="XMLID_571_" class="st0" d="M-35.2,295.9c-2.2,2-3.8,3.8-4.9,5.2l-1.6,2.2c-0.5-0.3-0.9-0.6-1.3-0.9
		c-0.4-0.3-0.7-0.5-0.9-0.7c-0.7-0.6-1.3-1.2-1.7-2c-0.5-1-0.8-2.6-0.8-5l-0.1-17.5c0.1-0.9,0-2.1-0.2-3.8c-0.2-0.9-0.7-1.4-1.4-1.4
		c-0.5,0-1,0.2-1.7,0.7c-0.2-0.5-0.5-0.9-0.9-1.3c2.1-1.6,3.7-3,5-4.3c0.3-0.4,0.8-0.9,1.3-1.5c0.8,0.8,1.5,1.5,2.2,2.1
		c0.7,0.6,1.4,1.2,2.1,1.7c0.5,0.4,1,0.8,1.7,1.2c-1.8,0.9-2.8,2.3-2.8,4.4l0.1,16.8c0,2.9,0.7,4.3,2.2,4.3c0.4,0,1.3-0.6,2.5-1.7
		C-36,295.1-35.7,295.5-35.2,295.9z"/>
	<path id="XMLID_568_" class="st0" d="M-9.5,276.9c-2.2,1.7-4.1,3.2-5.8,4.4c-1.7,1.2-3.1,2.2-4.3,3l-3.9,2.4
		c-0.2,0.2-0.5,0.4-0.9,0.6c0,0.5-0.1,1-0.1,1.5s0,0.9,0,1.3c0,1.8,0.6,3.4,1.8,4.8c1.3,1.4,2.7,2.1,4.4,2.1c2,0,4.4-1.2,7.3-3.7
		c0.1,0.4,0.3,0.6,0.4,0.7l0.5,0.6c-1.3,1.3-2.8,2.4-4.4,3.3c-0.8,0.5-1.8,1.1-3,1.8c-1.2,0.7-2.5,1.6-3.9,2.7
		c-0.4,0.3-0.7,0.7-1.1,1.1c-0.2-0.1-0.3-0.3-0.4-0.4c-0.1-0.1-0.2-0.2-0.3-0.3l-0.6-0.6c-0.3-0.2-1.3-1.1-2.9-2.5
		c-2.1-1.7-3.1-4.7-3.1-9l0.1-15.1l-0.2-3c1.8-0.8,3.8-1.9,6.1-3.3c0.5-0.3,1.2-0.8,1.9-1.3c0.7-0.5,1.7-1.1,2.7-1.8
		c0.2-0.1,0.4-0.2,0.6-0.3s0.4-0.3,0.7-0.4c0.6,0.9,1.2,1.8,1.8,2.6c0.6,0.8,1.2,1.6,1.7,2.4l2,2.8c0.4,0.5,0.8,1.1,1.3,1.7
		C-10.6,275.5-10,276.2-9.5,276.9z M-15,279.2l-7-9.2l-1.7,1.2c0,0.2,0,0.6,0,1.2c0,0.5,0,1.2-0.1,2c0,0.2-0.1,0.6-0.1,0.9
		c0,0.4,0,0.8-0.1,1.3l-0.2,4.4v1.6c0,0.4,0,0.8,0,1.3c0,0.4,0,0.9-0.1,1.4c3.1-1.8,5.5-3.3,7.2-4.6c0.3-0.2,0.6-0.5,1-0.7
		C-15.8,279.8-15.4,279.5-15,279.2z"/>
	<path id="XMLID_565_" class="st0" d="M-149.4,309.9c0,2-1.2,3.9-3.5,5.6c-1,0.8-2.2,1.6-3.6,2.5l6.2,0.2c-0.2,0.5-0.4,1-0.6,1.6
		c-0.2,0.6-0.4,1.2-0.7,1.8c-0.8,0-1.5-0.1-2.2-0.1c-0.6,0-1.1,0-1.5,0h-3.5v23.8c0.1,0.4,0.7,1,1.9,1.8c1.1,0.8,1.8,1.2,2,1.2h0.2
		c0.3,0,1.4-0.7,3-2.2c0.2,0.4,0.6,0.8,1.1,1.1c-2.9,2.6-5,4.9-6.5,7c-1.3-0.8-2.5-1.6-3.6-2.2c-1.1-0.7-2.2-1.3-3.3-1.8
		c-0.4-0.2-0.8-0.4-1.2-0.5c-0.4-0.2-0.9-0.4-1.4-0.6c0.7-0.5,1.4-1.3,2.2-2.2c0.2-0.3,0.3-1.3,0.3-2.8v-22.5l-3.5-0.1v-0.7l3.3-2.5
		c0-2.4,0-4.3-0.1-5.8c-0.1-1.4-0.2-2.4-0.3-3c-0.2-1.1-0.8-2.7-1.8-4.9c0.3-0.1,0.8-0.4,1.4-0.8c0.9,1.4,1.7,2.8,2.4,4.3
		c1.8-4.1,4.8-6.4,8.9-7c0,0.1-0.1,0.4-0.1,0.7c0,0.1,0,0.2,0,0.4c0,0.1,0.1,0.3,0.1,0.6c-1,0.4-1.8,0.9-2.5,1.3
		c-0.7,0.5-1.2,1-1.5,1.6c-0.4,0.6-0.6,1.3-0.8,2.1s-0.3,1.7-0.3,2.8l3.3-2.8c0.3-0.2,0.7-0.6,1.2-1c0.5-0.4,1-0.9,1.7-1.5l1-1
		C-150.3,306.1-149.4,308-149.4,309.9z M-153.9,312.3c0-1-0.6-1.9-1.7-2.9c-0.2,0.2-0.4,0.4-0.7,0.6s-0.6,0.5-1,0.8l-0.7,0.6
		c-0.2,0.2-0.5,0.5-0.9,0.7v5.6c0.6-0.1,1.2-0.4,1.8-0.8c0.6-0.4,1.1-0.8,1.6-1.3s0.8-1.1,1.2-1.6
		C-154.1,313.5-153.9,312.9-153.9,312.3z"/>
	<path id="XMLID_562_" class="st0" d="M-118.1,345.7c-1,1.1-1.9,2.1-2.7,3.1c-0.8,1-1.5,1.9-2.1,2.7c-0.2,0.4-0.5,0.8-0.8,1.3
		s-0.6,1-1,1.5c-0.8-0.9-1.5-1.8-2.1-2.7c-0.6-0.9-1.1-1.7-1.4-2.6c-0.6-1.4-1-3.5-1.3-6.2l-2.1,2.5c-0.3,0.4-0.8,0.9-1.2,1.4
		c-0.5,0.6-1.1,1.2-1.7,2c-0.2,0.2-0.9,0.9-2,2.2c-0.3,0.3-0.7,0.7-1.2,1.4c0,0-0.1,0.1-0.2,0.2c-0.1,0.1-0.2,0.2-0.3,0.3l-1.2,1.4
		c-1.4-1.2-2.3-2.2-2.9-3.1c-0.5-0.8-1-2.1-1.6-3.8c-1-3.1-1.5-6.8-1.5-11.2c0-4.6,0.4-8.3,1.1-11.2c1.2-1.1,2.4-2,3.7-2.9
		c0.5-0.3,1.2-0.8,2-1.3s1.7-1.1,2.8-1.8c0.4-0.2,0.8-0.5,1.3-0.8s1-0.6,1.5-0.9c0.2-0.1,0.4-0.2,0.6-0.3c0.2-0.1,0.5-0.3,0.8-0.4
		c0.1,0.1,0.3,0.3,0.4,0.4c0.1,0.1,0.3,0.2,0.4,0.3l0.7,0.6c1.9,1.7,3.5,2.8,4.7,3.4c0.6,0.3,1.3,0.4,1.9,0.4c0.9,0,2-0.5,3.3-1.4
		c0.2,0.3,0.5,0.8,0.9,1.3c-0.3,0.3-0.8,0.7-1.5,1.2s-1.2,0.9-1.5,1.2c-0.6,0.5-1,1.1-1,1.7c-0.1,0.8-0.2,1.8-0.2,2.9v2.8v3.8
		l-0.1,1.5c-0.1,2.9,0,5.4,0.4,7.4c0.2,1.4,0.7,2,1.7,2c0.3,0,0.7-0.2,1.2-0.6l1.4-1.1C-118.9,344.9-118.6,345.3-118.1,345.7z
		 M-129.2,325.6c-1.8-0.9-3.5-2-5.3-3.3c-0.6-0.5-1.3-1-2-1.6c-0.5,0.5-1.1,1.4-1.9,2.7c-0.4,0.8-0.8,2.4-1.2,4.8
		c-0.3,2-0.4,4-0.4,5.9c0,4.4,0.7,8.3,2,11.6c0.1,0.3,0.3,0.7,0.5,1.1c0.2,0.4,0.5,0.9,0.9,1.4l0.7-0.8c0.4-0.5,0.9-1.1,1.6-1.8
		c0.7-0.7,1.4-1.6,2.3-2.5c0.2-0.2,0.4-0.4,0.7-0.8c0.2-0.3,0.6-0.7,0.9-1.1c0.2-0.2,0.5-0.6,0.9-1.1v-4.6v-1.4
		c0-0.3-0.1-0.6-0.1-0.8c0-0.2,0-0.4,0-0.6C-129.7,331.9-129.4,329.5-129.2,325.6z"/>
	<path id="XMLID_560_" class="st0" d="M-72.4,346.3l-1.8,2c-0.8,0.8-1.6,1.8-2.5,3.2c-0.2,0.3-0.5,0.7-0.8,1.2s-0.6,1-1,1.6
		c-1.7-1.2-2.8-2.4-3.3-3.7c-0.4-1.1-0.6-2.7-0.6-4.9l0.1-5.4l0.1-15.1c-1.5-1.5-3.2-2.7-5-3.5c-0.5,0.2-1,0.6-1.6,1
		c-0.6,0.4-1.2,0.9-1.8,1.6c-0.1,2.1-0.2,4.1-0.2,6l-0.1,12.6c0,2.3,0.1,3.8,0.4,4.6c0.3,0.9,1,1.7,2,2.2c-0.5,0.3-1.1,0.8-1.8,1.3
		c-0.7,0.6-1.4,1.2-2.2,2l-1.2,1.4c-0.3-0.5-0.8-1-1.4-1.7c-0.6-0.6-1.3-1.4-2.1-2.2c-0.2-0.1-0.4-0.2-0.6-0.3s-0.4-0.3-0.7-0.4
		c1.2-1.4,1.9-2.7,2.2-4.1c0-0.1,0.1-0.2,0.1-0.4v-0.4c0-0.1,0-0.2,0-0.4c0-0.1,0-0.3,0.1-0.6V343v-2.2c0-0.4,0-0.9,0-1.4
		c0-0.6,0-1.4,0.1-2.2c0-0.8,0.1-1.5,0.1-2.1c0-0.6,0-1.1,0-1.4v-1.4c0-4.2-0.2-6.7-0.7-7.5c-0.3-0.9-1.8-2-4.5-3.3
		c-1.3,1-2.3,2-3,2.8c-0.1,0.1-0.2,0.3-0.4,0.5c-0.1,0.2-0.3,0.4-0.4,0.6l-0.2,15.9c0,4,0.4,6.4,1.2,7.2c0.2,0.3,0.7,0.7,1.2,1.1
		c-0.5,0.3-1.1,0.8-1.8,1.3c-0.7,0.6-1.4,1.2-2.2,2l-1.2,1.4c-0.3-0.5-0.8-1-1.4-1.7s-1.3-1.4-2.1-2.2c-0.2-0.1-0.4-0.2-0.6-0.3
		s-0.4-0.3-0.7-0.4c1.3-1.5,2-2.9,2.1-4.2c0.1-0.4,0.1-1.4,0.1-3.2l0.1-1.5c0-0.5,0.1-1,0.1-1.4c0-0.4,0-0.7,0-0.9v-0.9v-4.3
		c0-0.8,0.1-1.4,0.1-2c0-0.6,0-1,0-1.4c-0.1-3.4-0.7-5.6-1.8-6.8c-0.3-0.3-0.6-0.6-1-0.9s-0.8-0.7-1.3-1c1.7-1.3,3.1-2.8,4.2-4.6
		c2.8,1,4.5,3,5,6.2c1-0.9,2-1.7,3-2.5c1-0.7,2-1.4,3-2c0.4-0.2,0.9-0.5,1.4-0.8c0.6-0.3,1.2-0.7,1.9-1c2.5,1.9,4.1,3.8,4.9,5.6
		c1.1-0.8,2.2-1.5,3.4-2.2c1.2-0.7,2.4-1.4,3.7-2.2l2-1.2c0.3,0.2,0.7,0.6,1.4,1.1c0.4,0.3,0.9,0.7,1.5,1.2s1.4,1,2.2,1.5
		c0.2,0.2,0.7,0.4,1.2,0.7c0.3,0.1,0.7,0.2,1,0.4c-0.4,0.4-0.7,0.7-1,1.1c-0.3,0.3-0.4,0.6-0.5,0.8c-0.4,0.7-0.6,1.4-0.7,2.2
		c0,0.2-0.1,1-0.1,2.4c0,2.5-0.1,4.5-0.1,6s0,2.6,0,3.3v3c0.1,4.3,0.5,6.4,1.3,6.4c0.5,0,1.3-0.4,2.4-1.3
		C-73.1,345.6-72.8,346-72.4,346.3z"/>
	<path id="XMLID_557_" class="st0" d="M-16.7,345.7c-1,1.1-1.9,2.1-2.7,3.1c-0.8,1-1.5,1.9-2.1,2.7c-0.2,0.4-0.5,0.8-0.8,1.3
		s-0.6,1-1,1.5c-0.8-0.9-1.5-1.8-2.1-2.7c-0.6-0.9-1.1-1.7-1.4-2.6c-0.6-1.4-1-3.5-1.3-6.2l-2.1,2.5c-0.3,0.4-0.8,0.9-1.2,1.4
		c-0.5,0.6-1.1,1.2-1.7,2c-0.2,0.2-0.9,0.9-2,2.2c-0.3,0.3-0.7,0.7-1.2,1.4c0,0-0.1,0.1-0.2,0.2c-0.1,0.1-0.2,0.2-0.3,0.3l-1.2,1.4
		c-1.4-1.2-2.3-2.2-2.9-3.1c-0.5-0.8-1-2.1-1.6-3.8c-1-3.1-1.5-6.8-1.5-11.2c0-4.6,0.4-8.3,1.1-11.2c1.2-1.1,2.4-2,3.7-2.9
		c0.5-0.3,1.2-0.8,2-1.3s1.7-1.1,2.8-1.8c0.4-0.2,0.8-0.5,1.3-0.8s1-0.6,1.5-0.9c0.2-0.1,0.4-0.2,0.6-0.3c0.2-0.1,0.5-0.3,0.8-0.4
		c0.1,0.1,0.3,0.3,0.4,0.4c0.1,0.1,0.3,0.2,0.4,0.3l0.7,0.6c1.9,1.7,3.5,2.8,4.7,3.4c0.6,0.3,1.3,0.4,1.9,0.4c0.9,0,2-0.5,3.3-1.4
		c0.2,0.3,0.5,0.8,0.9,1.3c-0.3,0.3-0.8,0.7-1.5,1.2s-1.2,0.9-1.5,1.2c-0.6,0.5-1,1.1-1,1.7c-0.1,0.8-0.2,1.8-0.2,2.9v2.8v3.8
		l-0.1,1.5c-0.1,2.9,0,5.4,0.4,7.4c0.2,1.4,0.7,2,1.7,2c0.3,0,0.7-0.2,1.2-0.6l1.4-1.1C-17.4,344.9-17.1,345.3-16.7,345.7z
		 M-27.7,325.6c-1.8-0.9-3.5-2-5.3-3.3c-0.6-0.5-1.3-1-2-1.6c-0.5,0.5-1.1,1.4-1.9,2.7c-0.4,0.8-0.8,2.4-1.2,4.8
		c-0.3,2-0.4,4-0.4,5.9c0,4.4,0.7,8.3,2,11.6c0.1,0.3,0.3,0.7,0.5,1.1c0.2,0.4,0.5,0.9,0.9,1.4l0.7-0.8c0.4-0.5,0.9-1.1,1.6-1.8
		c0.7-0.7,1.4-1.6,2.3-2.5c0.2-0.2,0.4-0.4,0.7-0.8c0.2-0.3,0.6-0.7,0.9-1.1c0.2-0.2,0.5-0.6,0.9-1.1v-4.6v-1.4
		c0-0.3-0.1-0.6-0.1-0.8c0-0.2,0-0.4,0-0.6C-28.2,331.9-28,329.5-27.7,325.6z"/>
	<path id="XMLID_535_" class="st0" d="M17.1,343.8c-0.7,2.1-2,4.2-3.9,6.2c-1.4,1.5-2.5,2.9-3.1,4.1c-1.1-0.8-2.3-2-3.8-3.5
		c-0.3-0.6-0.5-1.9-0.5-3.7l-3.4,2.5c-2.1,1.5-3.9,3.2-5.2,4.9c-0.8-0.9-1.5-1.7-2.2-2.3s-1.4-1.1-2-1.5c-0.5-0.3-1.2-0.7-2.1-1.1
		c-0.8-0.4-1.8-0.8-2.9-1.2c1.2-1.4,2-2.7,2.4-4.1c0.2-1,0.4-2.5,0.4-4.6v-3.2l0.1-7.2c0.1-4.2-0.5-6.2-1.8-6.2
		c-0.4,0-1,0.3-1.8,0.9c-0.1-0.5-0.4-0.9-0.8-1.3c0.2-0.2,0.4-0.4,0.5-0.6s0.3-0.3,0.4-0.4l0.7-0.7c0.2-0.2,0.5-0.5,1.1-1
		c0.5-0.5,0.9-0.8,1.1-1.1c0.3-0.3,0.6-0.6,0.9-1c0.3-0.4,0.7-0.8,1.1-1.3c0.5,0.4,1,0.8,1.3,1.1c0.3,0.3,0.6,0.4,0.7,0.5
		c0.8,0.7,1.3,1.3,1.6,2c0.3,0.8,0.5,2.7,0.5,5.6v18.3c0,0.9,0.2,1.5,0.5,1.8c0,0.1,0.3,0.4,0.7,0.7c1.1,1,2.1,1.4,3,1.4
		c1.1,0,2.8-1,5.4-2.9c0.1-0.9,0.2-3.1,0.2-6.7V325c0-1.3-0.7-2.6-2.1-4c1.3-0.5,2.3-1.1,3-1.8c0.3-0.3,1-1.2,2-2.8
		c1.1,2,2.2,3.3,3.3,3.8c0.2,0.1,0.5,0.2,0.8,0.4c0.3,0.1,0.6,0.3,0.9,0.4c-1.2,1.2-1.9,2.2-2.2,3c-0.2,0.6-0.3,1.8-0.3,3.5V340
		c0,4.1,0.4,6.3,1.2,6.7c0.2,0.1,0.5,0.2,0.8,0.2c0.6,0,1.2-0.6,1.8-1.8c0.4-0.9,0.6-1.4,0.6-1.7C16,343.6,16.5,343.7,17.1,343.8z"
		/>
	<path id="XMLID_531_" class="st0" d="M46.6,339.1c0.1,1.7-0.2,3.5-1.2,5.6c-1,2.3-2.4,4.1-4.3,5.4c-2.6,1.8-6.3,3.2-11.1,4.1
		c0-0.1,0.1-0.4,0.1-0.7c-0.6-2.6-2.4-5.6-5.2-9c-0.7-0.9-1.4-1.3-2.1-1.3l-2.5,1.1l-0.1-0.6c-0.1-0.4-0.2-0.7-0.3-0.9
		c2.7-1.2,5.4-3,8.1-5.5c-3.3-2.5-5.2-4.7-5.7-6.8c-0.4-1.4-0.5-2.7-0.4-3.9c0-0.4,0-0.8,0.1-1.3c1.2-1.2,2.3-2.2,3.3-3.1
		c1-0.9,1.9-1.6,2.6-2.1c0.3-0.2,0.6-0.4,1-0.6s0.7-0.4,1.1-0.7l2.3-1.4c0.2-0.2,0.5-0.4,0.7-0.5c0.2-0.1,0.5-0.3,0.7-0.4
		c3,4,5.4,6,7.3,5.9c0.9,0,1.6-0.4,2.2-0.9c0.6-0.6,0.9-1.2,0.9-2.1c0-0.4-0.2-0.9-0.5-1.7c0.4,0,0.7,0,0.9-0.1l0.7-0.2
		c0.4,1,0.7,1.7,0.7,2.1c0,1.1-1,2.9-2.9,5.3c-0.7,0.8-1.4,1.6-2,2.4c-0.7,0.8-1.4,1.6-2,2.4C43.8,331.7,46.4,334.9,46.6,339.1z
		 M38,326.9c-2.8-1.4-5.4-3.6-8-6.6c-2.1,1.6-3.1,3.4-3.1,5.3c0,1.9,0.6,3.6,1.7,5.1c1.2,1.5,2.3,2.2,3.4,2.2c0.6,0,1.6-0.8,3.2-2.4
		C35.8,329.8,36.8,328.6,38,326.9z M42.2,344.1c0.5-2,0-4.2-1.6-6.4c-1.5-2.3-3.3-3.6-5.4-4l-6.9,5.9c1.1,0.8,2.5,2.5,4.2,5
		c1.7,2.5,2.8,4.4,3.3,5.9C39.2,349.5,41.4,347.4,42.2,344.1z"/>
	<path id="XMLID_529_" class="st0" d="M-120,403.9c-1.6,1.8-3.3,3.9-5.1,6.2c-0.3,0.4-0.7,0.8-1.1,1.4c-0.4,0.5-0.9,1.1-1.3,1.8
		c-2.7-1.8-4.9-3.7-6.4-5.6c-0.9-1.1-1.3-3.4-1.3-6.9v-4.4v-0.9c0-0.2-0.1-0.5-0.1-0.9v-6c0-3,0.3-5.2,1-6.7
		c0.7-1.4,2.6-3.5,5.7-6.5c0.1-0.1,0.2-0.2,0.4-0.3c0.1-0.1,0.3-0.3,0.4-0.4l1-1c-0.7-2.5-1.4-4.5-2.3-6.1c-1.2-2.1-3-3.1-5.4-3.1
		c-4.2,0-7.1,2.9-8.8,8.8c-0.6,2.1-1,6-1.1,11.8l-0.1,5.4c0,0.8-0.1,1.5-0.1,2.1c0,0.6,0,1.1,0,1.4c0,1.4,0,2.8,0.1,4.2
		c0,1.4,0.1,2.8,0.2,4.2c0.1,1.3,0.3,2.2,0.5,2.8c0.3,0.6,0.9,1.2,1.8,1.8l-2.2,1.8c-1.4,1.2-2.8,2.7-4,4.5l-0.7-1.2
		c-0.2-0.3-0.5-0.8-1-1.3s-1.1-1.1-1.9-1.8c-0.2-0.1-0.4-0.3-0.7-0.5s-0.6-0.5-1-0.8c0.4-0.4,0.8-0.8,1.3-1.4c0.5-0.5,1-1.2,1.5-1.9
		c0.2-0.6,0.4-1.4,0.4-2.2v-13.5c0-0.2,0-0.5,0-0.9c0-0.3,0-0.7,0.1-1.1c0-0.5,0.1-0.9,0.1-1.2s0-0.6,0-0.7l0.1-5l0.1-4.9
		c0-3.1-0.4-5.9-1.2-8.2c-1.3-3.2-3.2-4.8-5.9-4.8c-2.6,0-4.4,1.8-5.3,5.3c3,5.8,4.8,10.5,5.4,14c0.1,1.3,0.2,2.7,0.2,4.2
		c0,5.1-1.5,10-4.6,14.8c-1.1,1.7-2.4,3.5-4.1,5.4c-1.1,1.2-2.5,3.1-4.4,5.7c-0.2,0.2-0.4,0.5-0.5,0.9c-0.2,0.4-0.4,0.7-0.6,1.1
		c-2.1-3.1-4.6-4.6-7.5-4.6c-1.1,0-1.6,0.6-1.6,1.7c0,0.4,0.2,1.1,0.7,2.1l-0.7,0.2c-0.2,0.1-0.5,0.2-0.7,0.4
		c-0.8-0.8-1.2-1.8-1.2-3c0-0.9,0.4-1.8,1.2-2.8c0.4-0.3,0.8-0.7,1.2-1s0.8-0.7,1.2-1c0.2-0.2,0.6-0.6,0.9-1
		c0.4-0.5,0.9-1.1,1.4-1.8c0.1-0.1,0.5-0.6,1.2-1.4c0.9,0.9,1.9,1.5,3,2c1.6,0.7,2.9,1.6,3.8,2.6c1.8-1.8,3.2-3.8,4-5.9
		c1.1-2.8,1.6-5.8,1.6-9.1c0-4.1-0.7-8-2-11.7c-1.5-4.3-3.7-7.5-6.6-9.7c-1.7-1.2-3.5-1.8-5.4-1.8c-2.5,0-3.7,1.1-3.7,3.4
		c0,1.4,0.8,3.1,2.5,4.9c0.7,0.6,1.5,1.4,2.4,2.4s2,2.2,3.1,3.6c0.7,1.3,1.1,2.3,1.1,3.3c0,0.8-0.3,1.5-0.9,2.1
		c-0.6,0.6-1.4,0.9-2.2,0.9c-0.4,0-0.7,0-0.9-0.1c0.1-0.3,0.2-0.6,0.2-0.9s0-0.6-0.1-0.7c0.1,0,0.2,0,0.3,0.1h0.3
		c1,0.1,1.5-0.3,1.5-1.4c0-0.8-0.6-1.8-1.8-3c-0.5-0.5-1.2-1.1-2-1.8c-3.6-3.1-5.4-6.2-5.4-9.2c0-1.6,0.6-3.4,1.9-5.3
		c1.3-1.9,2.9-3.5,4.9-4.8c1.2-0.8,2.1-1.2,2.6-1.2c0.6,0,1.5,0.3,2.8,0.8c2,0.8,4,2.3,6,4.5c1.6-3.2,3.8-4.9,6.6-4.9
		c4.2,0,7,2.9,8.3,8.8c0.3-2.5,0.8-4.4,1.7-5.7c0.6-1,2.1-2.3,4.3-3.9c0.1,0.2,0.2,0.4,0.4,0.6s0.4,0.4,0.5,0.5
		c-1,1.3-1.6,2.9-1.8,4.6c0,0.8-0.1,1.7-0.1,2.5c0,0.9-0.1,1.7-0.1,2.5c2.1-3.9,4.1-6.6,5.9-8c1.8-1.4,4.2-2,7.1-2
		c3.1,0,5.4,0.8,6.8,2.5c0.9,1,1.7,3.2,2.4,6.7c0.1,0.8,0.3,1.5,0.4,2.1c0.1,0.7,0.3,1.3,0.5,1.8c-0.1,0-0.4-0.1-0.7-0.1h-0.7
		c-3,0-5,1.7-5.9,5.1c-0.6,2-0.9,5.9-0.9,11.7v1.6l-0.1,1.7v1.5c0,3.7,0.4,6.2,1.2,7.6c0.9,1.6,1.9,2.5,3,2.5s2.3-0.9,3.8-2.7
		C-121,403.1-120.6,403.6-120,403.9z"/>
	<path id="XMLID_526_" class="st0" d="M-88,404.9c-1,1.1-1.9,2.1-2.7,3.1c-0.8,1-1.5,1.9-2.1,2.7c-0.2,0.4-0.5,0.8-0.8,1.3
		s-0.6,1-1,1.5c-0.8-0.9-1.5-1.8-2.1-2.7c-0.6-0.9-1.1-1.7-1.4-2.6c-0.6-1.4-1-3.5-1.3-6.2l-2.1,2.5c-0.3,0.4-0.8,0.9-1.2,1.4
		c-0.5,0.6-1.1,1.2-1.7,2c-0.2,0.2-0.9,0.9-2,2.2c-0.3,0.3-0.7,0.7-1.2,1.4c0,0-0.1,0.1-0.2,0.2c-0.1,0.1-0.2,0.2-0.3,0.3l-1.2,1.4
		c-1.4-1.2-2.3-2.2-2.9-3.1c-0.5-0.8-1-2.1-1.6-3.8c-1-3.1-1.5-6.8-1.5-11.2c0-4.6,0.4-8.3,1.1-11.2c1.2-1.1,2.4-2,3.7-2.9
		c0.5-0.3,1.2-0.8,2-1.3s1.7-1.1,2.8-1.8c0.4-0.2,0.8-0.5,1.3-0.8s1-0.6,1.5-0.9c0.2-0.1,0.4-0.2,0.6-0.3c0.2-0.1,0.5-0.3,0.8-0.4
		c0.1,0.1,0.3,0.3,0.4,0.4c0.1,0.1,0.3,0.2,0.4,0.3l0.7,0.6c1.9,1.7,3.5,2.8,4.7,3.4c0.6,0.3,1.3,0.4,1.9,0.4c0.9,0,2-0.5,3.3-1.4
		c0.2,0.3,0.5,0.8,0.9,1.3c-0.3,0.3-0.8,0.7-1.5,1.2s-1.2,0.9-1.5,1.2c-0.6,0.5-1,1.1-1,1.7c-0.1,0.8-0.2,1.8-0.2,2.9v2.8v3.8
		l-0.1,1.5c-0.1,2.9,0,5.4,0.4,7.4c0.2,1.4,0.7,2,1.7,2c0.3,0,0.7-0.2,1.2-0.6l1.4-1.1C-88.8,404.1-88.4,404.6-88,404.9z
		 M-99.1,384.8c-1.8-0.9-3.5-2-5.3-3.3c-0.6-0.5-1.3-1-2-1.6c-0.5,0.5-1.1,1.4-1.9,2.7c-0.4,0.8-0.8,2.4-1.2,4.8
		c-0.3,2-0.4,4-0.4,5.9c0,4.4,0.7,8.3,2,11.6c0.1,0.3,0.3,0.7,0.5,1.1c0.2,0.4,0.5,0.9,0.9,1.4l0.7-0.8c0.4-0.5,0.9-1.1,1.6-1.8
		c0.7-0.7,1.4-1.6,2.3-2.5c0.2-0.2,0.4-0.4,0.7-0.8c0.2-0.3,0.6-0.7,0.9-1.1c0.2-0.2,0.5-0.6,0.9-1.1v-4.6v-1.4
		c0-0.3-0.1-0.6-0.1-0.8c0-0.2,0-0.4,0-0.6C-99.5,391.1-99.4,388.7-99.1,384.8z"/>
	<path id="XMLID_524_" class="st0" d="M-65.3,380.9c-1.8,1.5-3.1,2.8-3.8,3.8c-0.2,0.2-0.4,0.5-0.5,0.7c-0.2,0.2-0.4,0.5-0.6,0.8
		c-0.9-1.1-1.7-1.9-2.2-2.3c-0.7-0.5-1.6-1-2.8-1.4v20.6c0,0.4,0,0.7,0,0.9c0,0.2,0,0.4,0.1,0.5c0,0.1,0.1,0.3,0.3,0.4
		c0.1,0.1,0.3,0.3,0.5,0.5c0.4,0.5,0.9,0.8,1.7,1.1c0.3,0.3,0.7,0.4,1.2,0.4c0.4,0,1-0.4,2-1.2c0.1-0.1,0.2-0.2,0.3-0.3
		c0.1-0.1,0.3-0.2,0.5-0.4c0.1,0.2,0.5,0.6,1.1,1.1c-1.3,1.3-2.5,2.5-3.6,3.7c-1.2,1.2-2.2,2.3-3.2,3.4l-3.4-2.5
		c-0.7-0.5-1.4-1-2-1.4c-0.6-0.4-1.1-0.7-1.6-0.9c-0.2-0.1-0.5-0.2-0.9-0.4c-0.3-0.2-0.7-0.4-1.2-0.7c0.7-0.4,1.4-1,2.2-1.6
		c0.2-0.4,0.4-1.1,0.5-2.1s0.1-2.7,0.1-5.2v-3.8v-6.3c-0.1-3-0.7-5-1.7-5.9c-0.5-0.5-1.2-1-2.1-1.5l1.3-1.5c0.3-0.4,0.7-0.9,1.1-1.5
		c0.5-0.6,1-1.3,1.6-2.1c2.2,1.2,3.9,2.8,5,4.7c1.6-1.2,2.9-2.3,3.7-3.3c0.2-0.2,0.4-0.4,0.6-0.7c0.2-0.2,0.4-0.5,0.7-0.8
		C-69.1,378.4-67.4,380.1-65.3,380.9z"/>
	<path id="XMLID_516_" class="st0" d="M-48.2,406c-2.2,2-3.8,3.8-4.9,5.2l-1.6,2.2c-0.5-0.3-0.9-0.6-1.3-0.9
		c-0.4-0.3-0.7-0.5-0.9-0.7c-0.7-0.6-1.3-1.2-1.7-2c-0.5-1-0.8-2.6-0.8-5l-0.1-17.5c0.1-0.9,0-2.1-0.2-3.8c-0.2-0.9-0.7-1.4-1.4-1.4
		c-0.5,0-1,0.2-1.7,0.7c-0.2-0.5-0.5-0.9-0.9-1.3c2.1-1.6,3.7-3,5-4.3c0.3-0.4,0.8-0.9,1.3-1.5c0.8,0.8,1.5,1.5,2.2,2.1
		c0.7,0.6,1.4,1.2,2.1,1.7c0.5,0.4,1,0.8,1.7,1.2c-1.8,0.9-2.8,2.3-2.8,4.4l0.1,16.8c0,2.9,0.7,4.3,2.2,4.3c0.4,0,1.3-0.6,2.5-1.7
		C-49,405.2-48.7,405.6-48.2,406z M-39.1,258.7c0,0-4.7,2.3-8.2,5.5l-0.5-0.6c0,0,3.6-6.1,3.5-7.6l1-0.4L-39.1,258.7z M-51.9,369
		c0,0-4.7,2.3-8.2,5.5l-0.5-0.6c0,0,3.6-6.1,3.5-7.6l1-0.4L-51.9,369z"/>
	<path id="XMLID_513_" class="st0" d="M-14.9,403c-0.7,2.1-2,4.2-3.9,6.2c-1.4,1.5-2.5,2.9-3.1,4.1c-1.1-0.8-2.3-2-3.8-3.5
		c-0.3-0.6-0.5-1.9-0.5-3.7l-3.4,2.5c-2.1,1.5-3.9,3.2-5.2,4.9c-0.8-0.9-1.5-1.7-2.2-2.3s-1.4-1.1-2-1.5c-0.5-0.3-1.2-0.7-2.1-1.1
		c-0.8-0.4-1.8-0.8-2.9-1.2c1.2-1.4,2-2.7,2.4-4.1c0.2-1,0.4-2.5,0.4-4.6v-3.1l0.1-7.2c0.1-4.2-0.5-6.2-1.8-6.2
		c-0.4,0-1,0.3-1.8,0.9c-0.1-0.5-0.4-0.9-0.8-1.3c0.2-0.2,0.4-0.4,0.5-0.6s0.3-0.3,0.4-0.4l0.7-0.7c0.2-0.2,0.5-0.5,1.1-1
		c0.5-0.5,0.9-0.8,1.1-1.1c0.3-0.3,0.6-0.6,0.9-1c0.3-0.4,0.7-0.8,1.1-1.3c0.5,0.4,1,0.8,1.3,1.1c0.3,0.3,0.6,0.4,0.7,0.5
		c0.8,0.7,1.3,1.3,1.6,2c0.3,0.8,0.5,2.7,0.5,5.6v18.3c0,0.9,0.2,1.5,0.5,1.8c0,0.1,0.3,0.4,0.7,0.7c1.1,1,2.1,1.4,3,1.4
		c1.1,0,2.8-1,5.4-2.9c0.1-0.9,0.2-3.1,0.2-6.7v-13.2c0-1.3-0.7-2.6-2.1-4c1.3-0.5,2.3-1.1,3-1.8c0.3-0.3,1-1.2,2-2.8
		c1.1,2,2.2,3.3,3.3,3.8c0.2,0.1,0.5,0.2,0.8,0.4c0.3,0.1,0.6,0.3,0.9,0.4c-1.2,1.2-1.9,2.2-2.2,3c-0.2,0.6-0.3,1.8-0.3,3.5v12.5
		c0,4.1,0.4,6.3,1.2,6.7c0.2,0.1,0.5,0.2,0.8,0.2c0.6,0,1.2-0.6,1.8-1.8c0.4-0.9,0.6-1.4,0.6-1.7C-16,402.8-15.5,403-14.9,403z"/>
	<path id="XMLID_510_" class="st0" d="M13.4,394c0,1.8-0.4,3.7-1.2,5.6c-0.2,0.4-0.5,1-0.9,1.8s-1,1.9-1.8,3.1l-0.1,0.3
		c-0.7,1.1-1.5,2.4-2.4,3.8c-0.9,1.4-2,3-3.3,4.8c-0.7-0.4-1.6-0.8-2.8-1.3c-1.1-0.5-2.4-1-4-1.6c-0.2,1.5-0.4,3.4-0.7,5.6
		s-0.6,4.9-1,7.9c-0.2,0-0.4-0.1-0.5-0.1s-0.2,0-0.3,0c0,0-0.3,0-0.8,0.1c-0.1-0.9-0.2-1.9-0.2-3c0-1.1-0.1-2.2-0.2-3.4l-0.7-8.5
		c-1.3-0.5-2.8-0.9-4.4-1c1-1.2,2.4-2.4,4.2-3.8v-7.2c0-0.7,0-1.4,0-2.2c0-0.8,0-1.6-0.1-2.5v-1.8c0-0.2,0-0.5,0-0.8
		s-0.1-0.5-0.1-0.8c0-0.7,0-1.4,0-2c0-0.7-0.1-1.4-0.1-2.2c0-1.9-0.5-2.8-1.5-2.8c-0.4,0-1,0.3-1.6,0.9c-0.2-0.5-0.5-0.9-0.9-1.2
		c0.8-0.7,1.6-1.4,2.4-2.2c0.8-0.7,1.5-1.4,2.2-2.1c0.2-0.2,0.5-0.5,0.7-0.8s0.5-0.6,0.8-0.9c1.4,1.3,2.4,2.3,2.8,3.1s0.8,2.1,1,4
		l3.5-2.4c0.4-0.2,0.7-0.5,1.1-0.7c0.3-0.2,0.7-0.4,1-0.6c1.4-1,2.5-1.8,3.1-2.5l1-1l0.1,0.4c0.1,0.4,0.1,0.6,0.1,0.7
		c0.2,1.4,0.8,3.2,1.7,5.4c0.5,1.2,1,2.2,1.3,3c0.4,0.8,0.6,1.4,0.8,1.8c0.8,2.1,1.3,3.8,1.5,5c0,0.3,0.1,0.7,0.1,1
		C13.4,393.3,13.4,393.6,13.4,394z M8.3,399.8c0-4.4-1.3-9-3.6-13.8c-0.5-0.9-1-2.1-1.7-3.6c0-0.1-0.1-0.2-0.1-0.4
		c0-0.1-0.1-0.3-0.2-0.6c-0.7,0.4-1.2,0.8-1.7,1.1c-0.5,0.4-0.9,0.7-1.2,0.9c-0.1,0.1-0.3,0.2-0.5,0.4c-0.2,0.2-0.4,0.4-0.7,0.5
		c0,0,0,0.2,0,0.6c0,0.3,0,0.7-0.1,1.3l-0.3,4.6c-0.1,1.3-0.2,2.8-0.3,4.6c-0.1,1.8-0.3,4-0.5,6.4c0,1.6-0.1,2.8-0.2,3.3l3.4,1.2
		c0.6,0.2,1.2,0.5,1.7,0.7s1,0.4,1.4,0.6c0.2,0.1,0.4,0.2,0.6,0.3s0.5,0.2,0.8,0.3c0.4-0.7,0.8-1.3,1.1-1.8c0.3-0.5,0.6-1,0.8-1.4
		c0.8-1.5,1.2-2.7,1.2-3.5c0-0.3,0.1-0.7,0.1-0.9C8.3,400.5,8.3,400.2,8.3,399.8z"/>
	<path id="XMLID_507_" class="st0" d="M43.4,393.4c0,3.8-1.3,7.3-3.9,10.7c-0.3,0.4-0.8,1-1.5,1.8s-1.7,1.8-2.8,3.1
		c-0.2,0.2-0.6,0.7-1.2,1.4c-0.6,0.7-1.5,1.8-2.5,3.1c-1.6-1-3.1-1.8-4.6-2.5c-1.4-0.7-2.8-1.3-4.1-1.8c-0.5-0.1-1-0.3-1.5-0.4
		c-0.5-0.1-1.1-0.3-1.6-0.4c0.5-0.4,0.9-0.8,1.2-1.2c0.3-0.4,0.5-0.7,0.7-1.1c0.1-0.4,0.2-0.8,0.3-1.2c0-0.5,0.1-1,0.1-1.7v-0.9
		v-1.7c0-0.4-0.1-0.7-0.1-0.9c0-0.3,0-0.5,0-0.7v-1.8c0-1.3,0-2.8-0.1-4.6c-0.1-1.8-0.2-3.9-0.3-6.4c-0.1-1.1-0.6-2.4-1.2-3.8
		c4.2-1.4,8.1-3.5,11.6-6.6l0.7,0.8c0.2,0.2,0.6,0.6,1,0.9c0.4,0.4,1,0.8,1.7,1.4c2.3,1.7,4.2,3.8,5.6,6.4
		C42.5,388.1,43.4,390.8,43.4,393.4z M38.3,397.5c0-4.1-1.5-7.9-4.4-11.5c-0.5-0.7-1.1-1.3-1.6-1.7c-0.5-0.5-1-0.9-1.5-1.2
		c-0.7-0.5-1.9-1.1-3.7-1.9c0,1.3-0.1,2.4-0.1,3.5c0,1.1,0,2,0,2.8v7.2c0,0.4,0,0.8,0,1.4c0,0.5,0,1,0.1,1.7c0,0.8,0.1,1.4,0.1,2
		c0,0.5,0,0.8,0.1,1.1c0,0.6,0,1.3,0,2s0.1,1.5,0.1,2.3c0.6,0.3,1.4,0.7,2.4,1.1c1,0.4,2.1,1,3.3,1.6l0.8,0.4
		C36.8,405.3,38.3,401.8,38.3,397.5z"/>
	<path id="XMLID_505_" class="st0" d="M63.4,406.5c-2.8,2.8-4.8,5.1-6.2,7l-2.4-2.2c-1.2-1-2.3-1.8-3.5-2.3
		c-0.3-0.1-0.7-0.3-1.1-0.5c-0.4-0.2-0.8-0.3-1.3-0.5c1.4-1.4,2.1-2.4,2.3-3.3c0.2-0.6,0.3-2.6,0.3-6.1l0.1-21.7
		c0-4.2-0.4-7.5-1.2-9.8c-0.2-0.5-0.4-1-0.6-1.5s-0.4-1-0.7-1.6c0.3,0,0.8-0.3,1.3-0.9c0.9,1.3,1.7,2.7,2.4,4.3
		c1.6-3.6,4.4-5.9,8.3-7c0,0.1,0.1,0.3,0.3,0.5c0.1,0.2,0.3,0.5,0.5,0.8c-1.6,1-2.7,2.3-3.4,3.9c-0.9,2.3-1.3,6.4-1.3,12.5v25
		c0,0.6,0,1,0,1.3s0.1,0.4,0.1,0.5c0.1,0.1,0.2,0.2,0.3,0.2s0.2,0.1,0.4,0.1c1.2,0.7,2,1.1,2.4,1.1s1.1-0.4,2.1-1.2
		c0.1,0.4,0.3,0.6,0.4,0.7L63.4,406.5z"/>
</g>
<g id="XMLID_445_">
	<g id="XMLID_484_">
		<path id="XMLID_502_" class="st1" d="M-99.7,488.9l-0.1,0.2c-1.2,0-1.9,0-1.9,0.1c-0.1,0-0.3,0-0.4-0.1c0-0.1,0-0.1,0-0.1
			s0.2-0.1,0.6-0.3c0.1-0.1,0.2-0.3,0.2-0.4c-0.1-1.4-0.3-3.3-0.6-5.9c-0.1-0.7-0.1-1.3-0.2-2c-0.1-0.8-0.2-1.4-0.3-1.9
			c-0.3,0.4-0.7,1.3-1.3,2.8c-0.7,1.8-1.8,4.4-3.3,8l-0.2,0.1c-0.1,0-0.2,0-0.2-0.1l-4.3-11.6c-0.4,0.9-0.9,2.4-1.3,4.6l-1.2,5.9
			c0,0.2-0.1,0.3-0.1,0.4c0,0.2,0.1,0.4,0.4,0.5l0.1,0.1c0,0,0,0.1-0.1,0.2c-0.4-0.1-0.7-0.1-0.8-0.1s-0.5,0-1.2,0.1
			c-0.1,0-0.2-0.1-0.2-0.2c0-0.1,0.2-0.2,0.3-0.2c0.6-1.5,1.2-3.5,1.9-5.9c0.6-2,1.1-3.9,1.7-5.9v-0.1c0-0.3-0.2-0.4-0.5-0.4
			c-0.1,0-0.1,0-0.2,0.1h-0.2v-0.1l0.1-0.2c0.8-0.3,1.3-0.5,1.5-0.5c0.1,0,0.3,0.1,0.4,0.2c1.6,4.8,3,8.5,4.1,11.2
			c0.4-0.7,1-1.9,1.8-3.8l1.9-4.4c0.4-1,0.8-2.1,1.3-3.2c0.2-0.1,0.7-0.1,1.5-0.1l0.1,0.1l-0.1,0.2c-0.2,0-0.4,0.1-0.5,0.2
			c-0.1,0.1-0.1,0.2-0.2,0.3c0,1.3,0.1,2.8,0.3,4.6c0.2,1.5,0.3,3,0.5,4.5c0,0.2,0,0.4,0,0.8c0.1,1.2,0.3,1.9,0.4,2.1
			C-100,488.6-99.8,488.7-99.7,488.9z"/>
		<path id="XMLID_499_" class="st1" d="M-81.3,488.8c0,0.1-0.1,0.2-0.2,0.2h-2.5c-0.1,0-0.2-0.1-0.2-0.2c0,0,0.1-0.1,0.3-0.2
			c0.2-0.1,0.3-0.2,0.4-0.2l0.1-0.3c0-0.1-0.1-0.3-0.2-0.5l-2.8-5.5h-5c-0.5,1-1,2-1.5,3c-0.8,1.7-1.2,2.7-1.2,3v0.2
			c0,0.1,0.2,0.2,0.4,0.3l0.1,0.2c0,0.1-0.1,0.2-0.2,0.2h-2.1h-0.1c-0.1,0-0.1,0-0.1,0c-0.2,0-0.3-0.1-0.3-0.2
			c0.1-0.1,0.2-0.2,0.3-0.3c0.6-0.2,1.6-1.5,2.8-3.9c0.8-1.5,1.6-3,2.4-4.6c1.5-2.8,2.3-4.2,2.4-4.2c0.1,0.1,0.2,0.2,0.2,0.3
			c0,0.2,0,0.4,0,0.5c0,0.1,0.1,0.3,0.3,0.6l5.8,10.6c0.1,0.1,0.2,0.3,0.4,0.6l0.3,0.2L-81.3,488.8z M-86.8,481.6L-86.8,481.6
			l-1.8-3.3c-0.1-0.1-0.2-0.2-0.3-0.2c-0.2,0-0.9,1.1-2.1,3.2c0,0.1,0,0.1,0,0.2v0.1l0.1,0.1c0.7,0,2,0,4,0h0.1
			C-86.8,481.7-86.8,481.6-86.8,481.6z"/>
		<path id="XMLID_496_" class="st1" d="M-69.1,488.9c0,0.1-0.1,0.2-0.4,0.2c0.2,0,0,0-0.6,0c-0.2-0.1-0.3-0.2-0.4-0.3l-2.4-3.3
			c-0.6-0.8-1.2-1.6-1.9-2.4c-0.3-0.3-0.5-0.5-0.8-0.5c-0.1,0-0.2,0.1-0.2,0.4l-0.2,5.5c0.1,0.1,0.2,0.2,0.3,0.2h0.4l0.1,0.1
			l-0.1,0.2h-2l-0.1-0.2c0-0.1,0.1-0.2,0.3-0.2c0.2-0.1,0.4-0.2,0.4-0.4c0-2.1,0-3.2,0-3.5s0-1.6-0.1-4.1c-0.1-2.7-0.1-4.1-0.1-4.1
			c0-0.2-0.1-0.3-0.1-0.5h-0.6c0-0.1,0-0.1-0.1-0.2c0-0.2,0.2-0.3,0.5-0.3h3.1c1.1,0,2,0.2,2.6,0.7c0.8,0.5,1.2,1.3,1.2,2.3
			c0,1.8-1.2,3-3.5,3.6l-0.1,0.1c0,0,0,0.1,0.1,0.2C-72.1,484.7-70.6,486.8-69.1,488.9z M-71.4,479.1c0-0.9-0.3-1.7-1-2.2
			c-0.6-0.5-1.4-0.8-2.4-0.8h-0.6c-0.2,0.1-0.2,0.2-0.2,0.4v5.8h0.3c0.8,0,1.7-0.3,2.5-1C-71.9,480.7-71.4,479.9-71.4,479.1z"/>
		<path id="XMLID_494_" class="st1" d="M-60.9,488.8c0,0.2-0.1,0.3-0.3,0.3h-2.5l-0.1-0.2c0-0.2,0.1-0.2,0.3-0.3c-0.1,0,0.1,0,0.4,0
			c0.2-0.1,0.3-0.2,0.3-0.3s0-0.1,0.1-0.2l-0.1-5.3c0-1.2-0.1-3-0.1-5.4c0-0.3,0-0.5,0-0.7c0-0.4-0.1-0.6-0.1-0.6l-0.3-0.1
			c-0.1,0-0.2-0.1-0.2-0.2c0-0.1,0-0.1,0.1-0.2h2.4l0.1,0.2c-0.1,0.1-0.2,0.1-0.3,0.2c-0.1,0-0.3,0.1-0.4,0.2l-0.2,11.9
			c0.1,0.2,0.2,0.3,0.3,0.4h0.5L-60.9,488.8C-60.9,488.7-60.9,488.7-60.9,488.8z"/>
		<path id="XMLID_492_" class="st1" d="M-43.7,488.6c0,0.2-0.1,0.3-0.2,0.3h-2.2l-0.2-0.2c0-0.1,0.1-0.2,0.4-0.3s0.4-0.2,0.4-0.5
			l0.1-2l-0.1-0.2l-0.1,0.1c-1,1.2-1.8,2-2.4,2.4c-0.9,0.6-1.9,0.9-3.2,0.9c-1,0-1.9-0.3-2.7-1s-1.2-1.6-1.2-2.6
			c0-0.4,0-1.9-0.1-4.6v-4c0-0.2-0.1-0.5-0.2-0.6c-0.1-0.1-0.2-0.2-0.4-0.2s-0.3-0.1-0.3-0.2c0-0.1,0.1-0.1,0.2-0.2h2.8v0.1h0.1
			c0,0.2-0.1,0.3-0.3,0.3c-0.3,0-0.5,0.1-0.6,0.2c-0.1,0.3-0.2,3.3-0.2,9c0,0.9,0.3,1.7,1,2.3s1.5,0.9,2.4,0.9
			c1.1,0,2.3-0.5,3.4-1.4c1.2-1,1.7-2,1.7-3.1v-0.3c0-2.2,0-4.6-0.1-7.2c-0.1-0.2-0.1-0.3-0.2-0.4c-0.1-0.1-0.2-0.2-0.3-0.2h-0.3
			l-0.1-0.2c0-0.1,0.1-0.2,0.2-0.2c0.8,0.1,1.6,0.1,2.4,0l0.1,0.2v0.2c-0.2,0-0.3,0-0.4,0c-0.1,0-0.2,0.1-0.2,0.3
			c-0.1,0.6-0.2,1.3-0.2,2.1c0,0.7,0,1.4,0,2.1c0,3.3,0,5.2,0,5.6v1.6c0,0.3,0.1,0.5,0.3,0.6h0.4C-43.7,488.5-43.7,488.5-43.7,488.6
			z"/>
		<path id="XMLID_490_" class="st1" d="M-30.7,479.1c0,1-0.4,1.9-1.3,2.6c-0.8,0.7-1.8,1.1-2.8,1.1c-0.1,0-0.2-0.1-0.3-0.2v-0.1
			l0.2-0.1c0.9,0,1.6-0.2,2.2-0.7c0.6-0.5,1-1.2,1-2c0-1.1-0.3-2-1-2.6c-0.7-0.6-1.5-1-2.6-1h-0.2l-0.1,0.1l-0.4,12
			c0,0.3,0.3,0.5,0.9,0.6h0.1c0.1,0,0.1,0.1,0.1,0.2c0,0.1-0.1,0.2-0.3,0.2h-0.1h-0.1h-2.2l-0.2-0.1l-0.1-0.1c0-0.1,0-0.2,0.2-0.2
			s0.5,0,0.6-0.1c0.2-0.1,0.3-0.3,0.3-0.5v-3.7l-0.1-2.7l-0.2-5.3c0,0,0-0.1,0-0.2l-0.1-0.1h-0.3l-0.1-0.1c0-0.1,0-0.1,0-0.2
			c0-0.1,0.1-0.1,0.4-0.1h2.7c1.1,0,2,0.3,2.7,0.8C-31,477.2-30.7,478.1-30.7,479.1z"/>
		<path id="XMLID_487_" class="st1" d="M-14.1,481.7c0,1.7-0.7,3.4-2.2,4.9c-1.5,1.6-3.1,2.4-4.8,2.4c-1.8,0-3.3-0.6-4.5-1.7
			c-1.3-1.2-2-2.6-2-4.4c0-1.9,0.6-3.5,1.8-5c1.3-1.6,2.9-2.3,4.7-2.3c1.9,0,3.5,0.5,4.8,1.6C-14.8,478.4-14.1,479.9-14.1,481.7z
			 M-15.1,482.7c0-1.8-0.6-3.2-1.7-4.4s-2.6-1.8-4.3-1.8c-1.7,0-3.1,0.5-4.1,1.4c-1.1,1-1.6,2.3-1.6,3.9c0,1.8,0.6,3.2,1.7,4.4
			s2.6,1.8,4.3,1.8c1.6,0,2.9-0.5,4-1.5C-15.6,485.5-15.1,484.2-15.1,482.7z"/>
		<path id="XMLID_485_" class="st1" d="M-0.9,487.2c-0.9,1.2-1.7,2.3-2.2,3.3l-0.1,0.1l-0.1-0.1c0-0.1,0.1-0.3,0.2-0.6
			c0.1-0.4,0.2-0.6,0.2-0.7l-0.1-0.1h-7.6l-0.1-0.1v-0.1l0.1-0.2c0.3-0.2,0.5-0.3,0.6-0.3s0.2-0.2,0.3-0.5v-0.5c0-2.1,0-4.6-0.1-7.4
			c0-0.7-0.1-1.4-0.1-2.1c-0.1-1.1-0.2-1.7-0.3-1.8c-0.1,0-0.3-0.1-0.6-0.2v-0.1v-0.1h0.1h2.6l0.3-0.1c0.1,0,0.2,0,0.3,0.2v0.1
			l-0.1,0.2c-0.4,0-0.6,0-0.7,0c-0.3,0.1-0.4,0.3-0.4,0.5L-9,488.3v0.2l0.1,0.1h0.5c2.3,0,4.2-0.2,5.6-0.6c0.3-0.1,0.8-0.2,1.2-0.5
			l0.5-0.3H-0.9L-0.9,487.2z"/>
	</g>
	<g id="XMLID_446_">
		<path id="XMLID_482_" class="st1" d="M-131.4,445.5c0,0.1,0,0.1-0.1,0.2h-0.2l-0.1,0.1c-0.1,0.2-0.2,1.2-0.2,3
			c0,0.3,0,0.7-0.1,1.3c0,0.6-0.1,1-0.1,1.3l-0.1,7.2c0,0-0.1,0-0.2,0.1c-0.1,0-0.4-0.2-0.9-0.7c-0.9-0.9-3.2-3.3-6.8-7.3
			c-0.6-0.6-1.1-1.3-1.7-1.9c-0.7-0.8-1.3-1.4-1.8-1.8l-0.1,0.1c0,2.7,0,4.4,0,5.1s0.1,2.5,0.2,5.3c0,0.2,0.1,0.4,0.2,0.6
			c0.1,0.1,0.2,0.1,0.4,0.2c0.2,0.1,0.3,0.1,0.4,0.2c0,0,0,0.1-0.1,0.2h-0.4c-0.1,0-0.4,0-0.7,0s-0.5,0-0.7,0c-0.4,0-0.7,0-0.8,0.1
			l-0.1-0.1l-0.1-0.1c0-0.1,0-0.2,0.1-0.2s0.2,0,0.3,0c0.4-0.2,0.5-0.5,0.6-1.1l0.3-10.3c0-0.3-0.1-0.6-0.3-0.8s-0.5-0.3-0.7-0.3
			l-0.2-0.2v-0.1c0.1-0.1,0.2-0.1,0.3-0.2c0.1,0,0.8,0.1,2.2,0.1c0,0,0.1,0.1,0.2,0.1v0.1c0,0.1-0.1,0.2-0.2,0.3v0.3
			c1.5,1.7,3.9,4.3,7.2,7.9c1.1,1.2,2,2.1,2.7,2.7v-2.7c0-1.4,0-2.9-0.1-4.5c-0.1-2.4-0.3-3.7-0.5-3.9h-0.3c0,0-0.1,0-0.2,0
			c-0.1,0-0.1,0-0.2,0c-0.2,0-0.2-0.1-0.2-0.2c0-0.2,0.1-0.3,0.3-0.3h2.3L-131.4,445.5z"/>
		<path id="XMLID_480_" class="st1" d="M-113.7,451.2L-113.7,451.2l-0.3,0.2c-0.1,0-0.2,0.1-0.4,0.4c0,0.1-0.1,0.2-0.1,0.3
			c0,0.5,0,1.1,0,1.6c0,0.7,0.1,1.3,0.2,1.6l-0.7,0.3c-0.2,0.1-0.5,0.3-1,0.7c-0.9,0.8-1.6,1.3-2.3,1.6c-0.8,0.4-1.7,0.7-2.7,0.7
			c-1.9,0-3.5-0.6-4.7-1.8c-1.2-1.2-1.8-2.7-1.8-4.6c0-1.9,0.7-3.5,2.1-4.9c1.4-1.4,3-2.1,4.9-2.1s3.3,0.4,4.2,1.1l0.1,0.1v0.1
			l-0.8,0.5h-0.1l-0.1-0.1c-1.1-0.8-2.2-1.3-3.4-1.3c-1.8,0-3.2,0.5-4.2,1.6c-1,1.1-1.5,2.5-1.5,4.3c0,1.9,0.6,3.3,1.7,4.4
			c1.1,1.1,2.6,1.7,4.5,1.7c1.4,0,2.6-0.4,3.5-1.1c0.9-0.8,1.4-1.9,1.4-3.3c0-1.1-0.3-1.7-0.9-1.9c-0.8,0-1,0-0.6,0
			c-0.3,0-0.4-0.1-0.5-0.2l0.1-0.2h3.2L-113.7,451.2z"/>
		<path id="XMLID_478_" class="st1" d="M-97.7,458c0,0.2-0.1,0.3-0.2,0.3h-2.3l-0.2-0.2c0-0.1,0.1-0.2,0.4-0.3s0.4-0.2,0.4-0.5
			l0.1-2l-0.1-0.2l-0.1,0.1c-1,1.2-1.8,2-2.4,2.4c-0.9,0.6-1.9,0.9-3.2,0.9c-1,0-1.9-0.3-2.7-1c-0.8-0.7-1.2-1.6-1.2-2.6
			c0-0.4,0-1.9-0.1-4.6v-4c0-0.2-0.1-0.5-0.2-0.6c-0.1-0.1-0.2-0.2-0.4-0.2c-0.2,0-0.3-0.1-0.3-0.2c0-0.1,0.1-0.1,0.2-0.2h2.8v0.1
			h0.1c0,0.2-0.1,0.3-0.3,0.3c-0.3,0-0.5,0.1-0.6,0.2c-0.1,0.3-0.2,3.3-0.2,9c0,0.9,0.3,1.7,1,2.3s1.5,0.9,2.4,0.9
			c1.2,0,2.3-0.5,3.4-1.4c1.2-1,1.7-2,1.7-3.1v-0.1c0-2.2,0-4.6-0.1-7.2c-0.1-0.2-0.1-0.3-0.2-0.4c-0.1-0.1-0.2-0.2-0.3-0.2h-0.3
			l-0.1-0.2c0-0.1,0.1-0.2,0.2-0.2c0.8,0.1,1.6,0.1,2.4,0l0.1,0.2v0.2c-0.2,0-0.3,0-0.4,0s-0.2,0.1-0.2,0.3
			c-0.1,0.6-0.2,1.3-0.2,2.1c0,0.7,0,1.4,0,2.1c0,3.3,0,5.2,0,5.6v1.6c0,0.3,0.1,0.5,0.3,0.6h0.4C-97.8,457.9-97.7,458-97.7,458z"/>
		<path id="XMLID_475_" class="st1" d="M-79.1,451.2c0,1.7-0.7,3.4-2.2,4.9c-1.5,1.6-3.1,2.4-4.8,2.4c-1.8,0-3.3-0.6-4.5-1.7
			c-1.3-1.2-2-2.6-2-4.4c0-1.9,0.6-3.5,1.8-5c1.3-1.6,2.9-2.3,4.7-2.3c1.9,0,3.5,0.5,4.8,1.6C-79.8,447.8-79.1,449.3-79.1,451.2z
			 M-80.1,452.1c0-1.8-0.6-3.2-1.7-4.4c-1.1-1.2-2.6-1.8-4.3-1.8c-1.7,0-3.1,0.5-4.1,1.4c-1.1,1-1.6,2.3-1.6,3.9
			c0,1.8,0.6,3.2,1.7,4.4c1.1,1.2,2.6,1.8,4.3,1.8c1.6,0,2.9-0.5,4-1.5C-80.7,454.9-80.1,453.7-80.1,452.1z"/>
		<path id="XMLID_473_" class="st1" d="M-72.1,458.2c0,0.2-0.1,0.3-0.3,0.3h-2.5l-0.1-0.2c0-0.2,0.1-0.2,0.3-0.3c-0.1,0,0.1,0,0.4,0
			c0.2-0.1,0.3-0.2,0.3-0.3c0-0.1,0-0.1,0.1-0.2l-0.1-5.3c0-1.2-0.1-3-0.1-5.4c0-0.3,0-0.5,0-0.7c0-0.4-0.1-0.6-0.1-0.6l-0.3-0.1
			c-0.1,0-0.2-0.1-0.2-0.2c0-0.1,0-0.1,0.1-0.2h2.4l0.1,0.2c-0.1,0.1-0.2,0.1-0.3,0.2c-0.1,0-0.3,0.1-0.4,0.2l-0.2,11.9
			c0.1,0.2,0.2,0.3,0.3,0.4h0.5L-72.1,458.2L-72.1,458.2z"/>
		<path id="XMLID_470_" class="st1" d="M-44.1,451.9c0,1.8-0.6,3.3-1.6,4.6c-1.2,1.4-2.6,2.1-4.3,2.1H-55c-0.1,0-0.2-0.1-0.2-0.2
			c0-0.1,0.1-0.2,0.2-0.3c0.4,0,0.6,0,0.7,0l0.1-0.1c0.1-0.1,0.1-0.2,0.1-0.3c0-3.8-0.1-7.7-0.1-11.7c0-0.1-0.1-0.2-0.3-0.3
			s-0.3-0.1-0.5-0.1h-0.1l-0.1-0.1c0-0.1,0.1-0.2,0.2-0.2c2.7,0,4.1-0.1,4.1-0.1c1.9,0,3.5,0.6,4.9,1.9
			C-44.8,448.5-44.1,450-44.1,451.9z M-45.2,452.8c0-0.9-0.1-1.8-0.4-2.6c-0.4-1.2-1.1-2.3-2.1-3.1c-1.1-1-2.2-1.4-3.4-1.4h-1.6
			c-0.1,0-0.2,0.1-0.3,0.1v0.1v0.1v0.1l-0.3,12.2c0.1,0.1,1.3,0.2,3.4,0.2c1.1,0,2.1-0.6,3.2-1.7C-45.7,455.5-45.2,454.3-45.2,452.8
			z"/>
		<path id="XMLID_468_" class="st1" d="M-31.7,457.1l-2.3,2.5c-0.2-0.1-0.3-0.1-0.3-0.2c0,0,0-0.1,0-0.2l0.5-0.5v-0.2
			c-0.2,0-2.1,0-5.8,0c-0.1,0-0.2,0-0.4,0s-0.3,0-0.4,0c-0.1-0.1-0.1-0.1-0.1-0.2c0,0,0-0.1,0.1-0.2h0.2c0.5-0.4,0.7-0.7,0.7-1
			l-0.1-10.6c0-0.3-0.1-0.5-0.2-0.6c-0.1-0.1-0.3-0.2-0.6-0.4l-0.1-0.1c0-0.1,0.1-0.2,0.2-0.2c0.3,0,0.4,0,0.5,0.1h3.4
			c1.3,0,2.2-0.1,2.6-0.2l0.6,0.5v0.2c-0.1,0.1-0.1,0.2-0.2,0.2l-5.1-0.2v5.4h1.7c0.3,0,0.6-0.2,0.9-0.5h0.1h0.2l1.1,0.7
			c0,0,0.1,0.1,0.2,0.2l-0.2,0.1h-4.1l-0.4,6.5c0.1,0,0.5,0,1.3,0c1.5,0,2.8-0.2,4-0.6l1-0.3c0.2-0.1,0.4-0.2,0.7-0.4c0,0,0,0,0.1,0
			C-31.8,456.8-31.7,456.9-31.7,457.1z"/>
		<path id="XMLID_466_" class="st1" d="M-14.6,445.5c0,0.1,0,0.1-0.1,0.2h-0.2l-0.1,0.1c-0.1,0.2-0.2,1.2-0.2,3c0,0.3,0,0.7-0.1,1.3
			c0,0.6-0.1,1-0.1,1.3l-0.1,7.2c0,0-0.1,0-0.2,0.1c-0.1,0-0.4-0.2-0.9-0.7c-0.9-0.9-3.2-3.3-6.8-7.3c-0.6-0.6-1.1-1.3-1.7-1.9
			c-0.7-0.8-1.3-1.4-1.8-1.8l-0.1,0.1c0,2.7,0,4.4,0,5.1s0.1,2.5,0.2,5.3c0,0.2,0.1,0.4,0.2,0.6c0.1,0.1,0.2,0.1,0.4,0.2
			c0.2,0.1,0.3,0.1,0.4,0.2c0,0,0,0.1-0.1,0.2h-0.4c-0.1,0-0.4,0-0.7,0c-0.3,0-0.5,0-0.7,0c-0.4,0-0.7,0-0.8,0.1l-0.1-0.1l-0.1-0.1
			c0-0.1,0-0.2,0.1-0.2s0.2,0,0.3,0c0.4-0.2,0.5-0.5,0.6-1.1l0.3-10.3c0-0.3-0.1-0.6-0.3-0.8c-0.2-0.2-0.5-0.3-0.7-0.3l-0.2-0.2
			v-0.1c0.1-0.1,0.2-0.1,0.3-0.2c0.1,0,0.8,0.1,2.2,0.1c0,0,0.1,0.1,0.2,0.1v0.1c0,0.1-0.1,0.2-0.2,0.3v0.3c1.5,1.7,3.9,4.3,7.2,7.9
			c1.1,1.2,2,2.1,2.7,2.7v-2.7c0-1.4,0-2.9-0.1-4.5c-0.1-2.4-0.3-3.7-0.5-3.9h-0.3c0,0-0.1,0-0.2,0s-0.1,0-0.2,0
			c-0.2,0-0.2-0.1-0.2-0.2c0-0.2,0.1-0.3,0.3-0.3h2.3L-14.6,445.5z"/>
		<path id="XMLID_464_" class="st1" d="M8.2,445.2l-1.1,2.4l-0.2,0.1c-0.1,0-0.1-0.1-0.2-0.2l0.5-1.3c-0.5-0.1-0.9-0.2-1.4-0.3
			c-0.6-0.1-1-0.2-1.4-0.2c-0.2,4.3-0.3,8.4-0.3,12.2v0.1l0.1,0.1h0.5l0.2-0.1l0.2,0.1c0,0.1,0,0.1,0,0.2c0,0.1-0.1,0.1-0.2,0.2H2.6
			l-0.2-0.1l0.1-0.2c0.2,0,0.4-0.1,0.6-0.2c0.2-0.2,0.3-0.3,0.3-0.5v-2.4c0-0.9,0-2.5-0.1-4.7c-0.1-2-0.1-3.5-0.1-4.7H1.8
			c-0.5,0-0.9,0.1-1.3,0.2c-0.2,0.1-0.4,0.2-0.6,0.2c-0.3,0.1-0.4,0.3-0.5,0.4l-0.3,0.6l-0.3-0.1l1.1-2.2c0,0,0.1,0,0.2-0.1l0.2,0.1
			l0.1,0.2h7.4l0.1-0.2c0.1,0,0.1,0,0.2,0C8.1,445,8.1,445.1,8.2,445.2z"/>
		<path id="XMLID_462_" class="st1" d="M25.2,458c0,0.2-0.1,0.3-0.2,0.3h-2.3l-0.2-0.2c0-0.1,0.1-0.2,0.4-0.3s0.4-0.2,0.4-0.5l0.1-2
			l-0.1-0.2l-0.1,0.1c-1,1.2-1.8,2-2.4,2.4c-0.9,0.6-1.9,0.9-3.2,0.9c-1,0-1.9-0.3-2.7-1s-1.2-1.6-1.2-2.6c0-0.4,0-1.9-0.1-4.6v-4
			c0-0.2-0.1-0.5-0.2-0.6c-0.1-0.1-0.2-0.2-0.4-0.2s-0.3-0.1-0.3-0.2c0-0.1,0.1-0.1,0.2-0.2h3v0.1H16c0,0.2-0.1,0.3-0.3,0.3
			c-0.3,0-0.5,0.1-0.6,0.2c-0.1,0.3-0.2,3.3-0.2,9c0,0.9,0.3,1.7,1,2.3c0.7,0.6,1.5,0.9,2.4,0.9c1.1,0,2.3-0.5,3.4-1.4
			c1.2-1,1.7-2,1.7-3.1v-0.1c0-2.2,0-4.6-0.1-7.2c-0.1-0.2-0.1-0.3-0.2-0.4c-0.1-0.1-0.2-0.2-0.3-0.2h-0.3l-0.1-0.2
			c0-0.1,0.1-0.2,0.2-0.2c0.8,0.1,1.6,0.1,2.4,0l0.1,0.2v0.2c-0.2,0-0.3,0-0.4,0s-0.2,0.1-0.2,0.3c-0.1,0.6-0.2,1.3-0.2,2.1
			c0,0.7,0,1.4,0,2.1c0,3.3,0,5.2,0,5.6v1.6c0,0.3,0.1,0.5,0.3,0.6H25C25.2,457.9,25.2,458,25.2,458z"/>
		<path id="XMLID_460_" class="st1" d="M-87.1,442.2l3,1.3v0.3l-3.6-1.2C-88,442.3-87.5,442.3-87.1,442.2z"/>
		<path id="XMLID_458_" class="st1" d="M17.9,442.6l3,1.3v0.3l-3.6-1.2C17,442.7,17.5,442.7,17.9,442.6z"/>
		<path id="XMLID_456_" class="st1" d="M-28.8,442.7l-3.6,1.2v-0.3l3-1.3C-29,442.4-28.5,442.4-28.8,442.7z"/>
		<path id="XMLID_453_" class="st1" d="M-55.9,451l5.4,0.1l0.1,0.4l-5.7,0.2h-0.1v-0.1L-55.9,451z"/>
		<path id="XMLID_450_" class="st1" d="M-34.3,443.7c0,0,0.1-0.1,0-0.1c0,0,0-0.1-0.1-0.1l-2-0.9l-0.3,0.1l-1.5,0.9v0.2l0,0l0,0
			l1.7-0.8l1.6,1L-34.3,443.7z"/>
		<path id="XMLID_449_" class="st1" d="M-97.9,443.2l1,1.5c0,0-1.7,0.3-2.1,1.4l0.3,0.1c0,0,0.6-1.1,2.2-0.8l0.4-0.6l-0.8-1.8
			L-97.9,443.2z"/>
		<path id="XMLID_448_" class="st1" d="M25,443.2l1,1.5c0,0-1.7,0.3-2.1,1.4l0.3,0.1c0,0,0.6-1.1,2.2-0.8l0.4-0.6L26,443L25,443.2z"
			/>
		<path id="XMLID_447_" class="st1" d="M-81.3,444.1l1,1.5c0,0-1.7,0.3-2.1,1.4l0.3,0.1c0,0,0.6-1.1,2.2-0.8l0.4-0.6l-0.8-1.8
			L-81.3,444.1z"/>
	</g>
</g>
<g id="XMLID_394_">
	<g id="XMLID_430_">
		<line id="XMLID_442_" class="st2" x1="-113.6" y1="492.9" x2="-5.1" y2="492.9"/>
		<line id="XMLID_438_" class="st2" x1="-110.8" y1="495.8" x2="-8" y2="495.8"/>
		<line id="XMLID_435_" class="st2" x1="-107.9" y1="498.6" x2="-10.8" y2="498.6"/>
		<line id="XMLID_431_" class="st2" x1="-105.1" y1="501.4" x2="-13.6" y2="501.4"/>
	</g>
	<line id="XMLID_427_" class="st2" x1="-143.6" y1="462.9" x2="24.9" y2="462.9"/>
	<line id="XMLID_421_" class="st2" x1="-140.8" y1="465.7" x2="22.1" y2="465.7"/>
	<line id="XMLID_418_" class="st2" x1="-137.9" y1="468.6" x2="19.2" y2="468.6"/>
	<line id="XMLID_415_" class="st2" x1="-135.1" y1="471.4" x2="16.4" y2="471.4"/>
	<line id="XMLID_412_" class="st2" x1="-175.1" y1="431.5" x2="56.3" y2="431.5"/>
	<line id="XMLID_409_" class="st2" x1="-172.2" y1="434.3" x2="53.5" y2="434.3"/>
	<line id="XMLID_406_" class="st2" x1="-169.4" y1="437.2" x2="50.7" y2="437.2"/>
	<line id="XMLID_397_" class="st2" x1="-166.6" y1="440" x2="47.8" y2="440"/>
</g>
<g id="XMLID_231_">
	<g id="XMLID_103_">
		<path id="XMLID_108_" class="st3" d="M-59.4,536.6c0-6.1,4.7-3.4,7.2-5.9c0.5-0.5,0.8-1.2,0.8-2c0-1.4-1-2.6-2.4-2.8
			c0.2-1.4,0.7-5,1-8.4c0.5-4.8,4.4-7.3,4.4-7.3v26.4h-22.2v-26.4c0,0,3.9,2.5,4.4,7.3c0.4,3.4,0.8,7,1,8.4
			c-1.3,0.2-2.4,1.4-2.4,2.8c0,0.8,0.3,1.5,0.8,2C-64.1,533.2-59.4,530.5-59.4,536.6z"/>
		<path id="XMLID_107_" class="st3" d="M-59.4,544.8c0-2.5,4.4-3.9,4.4-9.2c0-5.6-4.4-7.3-4.4-14.8s0.9-8.2,0.9-11.1
			c0-2.8-0.9-3.3-0.9-3.3s-0.9,0.5-0.9,3.3s0.9,3.6,0.9,11.1s-4.4,9.1-4.4,14.8C-63.8,540.9-59.4,542.3-59.4,544.8z"/>
		<line id="XMLID_106_" class="st3" x1="-59.4" y1="536.6" x2="-59.4" y2="544.8"/>
		<line id="XMLID_105_" class="st3" x1="-51.3" y1="528.7" x2="-48.3" y2="528.7"/>
		<line id="XMLID_104_" class="st3" x1="-67.4" y1="528.7" x2="-70.5" y2="528.7"/>
	</g>
</g>
</svg>
