<?xml version="1.0" encoding="utf-8"?>
<!-- Generator: Adobe Illustrator 19.0.0, SVG Export Plug-In . SVG Version: 6.00 Build 0)  -->
<svg version="1.1" id="Layer_1" xmlns="http://www.w3.org/2000/svg" xmlns:xlink="http://www.w3.org/1999/xlink" x="0px" y="0px"
	 viewBox="0 0 613.675 267.934" style="enable-background:new 0 0 613.675 267.934;" xml:space="preserve">
<style type="text/css">
	.st0{fill:#FEF9D6;}
</style>
<g id="XMLID_1_">
	<path id="XMLID_83_" class="st0" d="M613.675,133.967C454.106,64.298,661.766,154.963,306.838,0
		C295.607,4.903,11.683,128.866,0,133.967c466.726,203.775-159.86-69.796,306.838,133.967L613.675,133.967z M161.834,188.258
		c178.518,0,112.252,0,290.006,0l-145.003,63.309L161.834,188.258z M188.179,68.174c0,62.344,1.651,90.805-4.601,102.062
		c-2.047,3.695-5.383,4.605-7.675-0.027c-4.427-8.782-3.491-20.218-3.491-95.151L188.179,68.174z M223.686,52.672v26.353h-13.088v15
		h13.088v79.232h-25.038c5.799-15.175,4.531-31.53,4.531-111.632L223.686,52.672z M427.398,97.745v-28.74l6.848,2.99v101.263h-6.848
		v-13.845h-15v13.845h-12.02V57.207l12.02,5.248v35.289H427.398z M485.235,132.012c4.919,14.949,14.831,20.319-1.102,41.246h-8.009
		l-10.265-29.707c13.063-14.55,11.539-39.152,4.515-55.782l21.08,9.204C482.563,111.022,481.888,121.863,485.235,132.012z
		 M449.246,137.769V81.877C462.117,96.345,466.979,128.435,449.246,137.769z M449.246,173.258v-19.459
		c1.25-0.336,2.534-0.767,3.837-1.294l7.171,20.753H449.246z M385.378,173.258h-26.589c26.02-32.021,22.862-96.004,2.854-132.962
		l23.735,10.363V173.258z M341.437,169.51V36.581C370.39,73.755,368.556,148.086,341.437,169.51z M326.437,173.258h-12.1V45.749h-15
		v127.508h-20.805c33.071-50.568-49.802-97.125,28.315-156.886l19.589,8.553V173.258z M258.974,173.258h-20.288V94.025h12.142v-15
		h-12.142V46.123l31.643-13.815C230.155,91.082,297.559,136.995,258.974,173.258z M160.948,173.258h-20.247
		c10.931-22.366,11.021-61.146-2.567-83.233l19.278-8.417C157.413,144.814,156.163,159.88,160.948,173.258z M126.48,99.817
		c9.165,17.027,9.825,50.028-0.002,68.3C116.836,150.205,117.104,117.251,126.48,99.817z M506.006,164.609
		c6.88-20.74-7.601-31.185-7.625-43.655c0.019-6.327,3.476-12.69,7.016-17.893l70.79,30.907L506.006,164.609z M108.985,102.751
		c-5.969,17.858-6.385,43.324,0.008,62.436l-71.505-31.22L108.985,102.751z"/>
	<circle id="XMLID_107_" class="st0" cx="306.874" cy="32.616" r="7.464"/>
	<rect id="XMLID_108_" x="403.862" y="121.395" class="st0" width="14.811" height="14.811"/>
	<path id="XMLID_109_" class="st0" d="M269.547,195.29v21.202h5.937v-6.997h8.905v-5.301h-8.905v-3.816h10.177v-5.088
		C279.963,195.29,275.244,195.29,269.547,195.29z"/>
	<path id="XMLID_110_" class="st0" d="M298.594,208.223h4.665v3.011c-2.901,1.532-6.331,1-8.248-1.993
		c-2.408-3.756,0.198-9.499,4.644-9.499c2.67,0,4.475,1.009,5.512,2.375l1.696-5.386c-3.181-3.184-9.704-2.728-13.188-0.742
		c-7.497,4.277-7.726,15.253,0.064,19.804c4.967,2.903,11.094,1.5,15.032-2.438v-9.16h-10.177V208.223z"/>
	<polygon id="XMLID_111_" class="st0" points="253.009,206.739 246.225,195.29 240.288,195.29 240.288,216.492 246.225,216.492 
		246.225,205.466 253.009,216.916 259.795,205.466 259.795,216.492 265.731,216.492 265.731,195.29 259.795,195.29 	"/>
	<polygon id="XMLID_112_" class="st0" points="311.951,213.226 316.404,217.679 320.899,213.226 316.404,208.732 	"/>
	<path id="XMLID_115_" class="st0" d="M376.386,195.989c-3.501-2.076-9.094-2.077-12.595,0c-3.618,2.148-5.364,5.83-5.364,9.901
		c0,10.271,10.832,14.132,17.959,9.902C383.566,211.529,383.577,200.259,376.386,195.989z M374.774,209.241
		c-2.262,3.714-7.101,3.72-9.371,0c-2.284-3.75,0.052-9.499,4.686-9.499C374.754,199.742,377.042,205.523,374.774,209.241z"/>
	<path id="XMLID_116_" class="st0" d="M353.762,202.117l1.696-5.386c-1.845-1.845-4.288-2.29-6.785-2.29
		c-10.38,0-14.712,10.057-10.601,17.217c3.94,6.869,13.831,6.943,17.386,3.393l-1.696-5.386c-3.246,4.273-11.025,2.749-11.025-3.774
		C342.737,199.474,350.429,197.729,353.762,202.117z"/>
</g>
</svg>
