<?xml version="1.0" encoding="utf-8"?>
<!-- Generator: Adobe Illustrator 19.0.0, SVG Export Plug-In . SVG Version: 6.00 Build 0)  -->
<svg version="1.1" id="Layer_1" xmlns="http://www.w3.org/2000/svg" xmlns:xlink="http://www.w3.org/1999/xlink" x="0px" y="0px"
	 viewBox="-241 323.2 128.2 146.8" style="enable-background:new -241 323.2 128.2 146.8;" xml:space="preserve">
<style type="text/css">
	.st0{fill:none;stroke:#DBC571;stroke-linecap:round;stroke-linejoin:round;stroke-miterlimit:10;}
	.st1{fill:#DBC571;stroke:#DBC571;stroke-linecap:round;stroke-linejoin:round;stroke-miterlimit:10;}
</style>
<path id="XMLID_7_" class="st0" d="M-171.8,469.5c0,0,12.6-1.5,12.6-11.6c0-8.8-10.1-12.4-10.1-18.6s5.1-6.7,5.1-11"/>
<path id="XMLID_23_" class="st0" d="M-174.8,466.9c4.8-10.1-5.2-12.9-5.2-18.9c0-9.9,15.8-15.3,15.8-19.7"/>
<path id="XMLID_40_" class="st0" d="M-171.1,463.3c2.9-10.2-9.6-12-5.3-19.7"/>
<path id="XMLID_44_" class="st0" d="M-164.9,454.9c-1-5.9-8.4-10.2-6-16.7"/>
<path id="XMLID_6_" class="st0" d="M-185.2,464.2c1.4-6.5-5.6-7.5-5.6-14c0-5.8,5.7-9.6,5.7-15.7c0-9-6.1-11.5-6.1-21.4
	c0-7.1,4.1-11.5,4.1-11.5"/>
<path id="XMLID_24_" class="st0" d="M-175.7,439.2c6.8-12.4-10.4-19.9-12.7-26.5c-1.8-5.2,1.3-11.1,1.3-11.1"/>
<path id="XMLID_39_" class="st0" d="M-183.2,457.6c-5.3-11.8,7.4-16.7,7.4-24.7"/>
<path id="XMLID_42_" class="st0" d="M-184,441.2c7.4-10.4-3.9-18.5-5.1-23.6"/>
<path id="XMLID_4_" class="st0" d="M-208.8,412.6c0,0,2.2-2.3,2.2-5.8c0-7.4-11-8.8-9.9-17"/>
<path id="XMLID_21_" class="st0" d="M-208,459.4c0,0-11.5-4.1-11.5-16.1s6.3-13.4,6.3-23.8c0-8.1-7-17.4-3.3-29.7"/>
<path id="XMLID_5_" class="st0" d="M-187.4,430.5c0,0-7.4-2.1-5.9-13.4c1.5-11.4-0.7-16.6-0.7-16.6"/>
<path class="st0" d="M-195.9,413.6c2.7-5.6,1.9-13.1,1.9-13.1"/>
<path class="st0" d="M-195.9,413.6c2-6.9-6.4-29.8-1.8-37.7"/>
<path class="st0" d="M-201,389c0,0-0.4-10.5,3.3-13.1"/>
<path id="XMLID_1_" class="st0" d="M-201,389c-5.3-11.1-0.4-16.7-0.4-25c0-6.4-4.6-9.7-4.6-16.3c0-2.6,1.5-6.9,1.5-10.6
	c0-5.4-3.6-8.4-3-13.4"/>
<path class="st0" d="M-208.6,368.7c-0.1-2.7,1.1-4.4,1.1-9c0-5-2.1-7.3-2.1-11.1c0-5.8,2.5-7.3,2.5-14.7c0-4.3-1.8-6.3-0.4-10.2"/>
<path id="XMLID_3_" class="st0" d="M-208.6,368.7c0,0-1.8-2.8-1.3-5.8"/>
<path class="st0" d="M-210.9,382.7c2.5-5.2-2.8-12.7,1-19.8"/>
<path id="XMLID_2_" class="st0" d="M-210.9,382.7c1-8.8-5.2-10-2.8-22.5"/>
<path id="XMLID_22_" class="st0" d="M-212.6,398.1c5.5-7.1-8.2-17.6-1.1-37.9"/>
<path id="XMLID_34_" class="st0" d="M-192.8,465.6c0,0-4.7-4.1-4.7-10.7c0-8.5,7.9-10,7.9-16.6c0-7.4-12.5-8.9-12.5-18.9
	c0-5.3,2.8-10.1,2.8-20.2"/>
<path id="XMLID_35_" class="st0" d="M-213.3,451.5c-6.3-8.3-1.9-18.3-1.9-18.3"/>
<path id="XMLID_36_" class="st0" d="M-203.8,462.2c0-11.2-10-13.1-10-23.2c0-8.1,8.6-20.1-0.7-34.4"/>
<path id="XMLID_37_" class="st0" d="M-205.5,396.9c1.1-7.5-2.5-12.8-2.5-19.1c0-8,3.8-9.7,1.9-19.1"/>
<path id="XMLID_38_" class="st0" d="M-202.5,454.9c-0.9-7.2-10.7-13.3-6.9-23.7"/>
<path id="XMLID_41_" class="st0" d="M-200.8,448.9c-0.6-7.1,6.7-10.1,0.3-19.5"/>
<path id="XMLID_45_" class="st0" d="M-206.6,424.5c-3.6-11,8.8-18.9,2.8-36.4"/>
<path id="XMLID_55_" class="st0" d="M-138.4,444c0,0,0.2-3.7,0-5.9"/>
<path id="XMLID_56_" class="st0" d="M-134,443c0,0-0.1-4.5,0-6.9"/>
<path id="XMLID_57_" class="st0" d="M-141.9,443.9c0,0,0-3.7-0.1-5.8"/>
<path id="XMLID_58_" class="st0" d="M-148.4,444c0,0,0.3-4.2,0-6.9"/>
<path id="XMLID_60_" class="st0" d="M-151.3,442.7c0.1-1.7,0.5-3.7,0.3-5.5"/>
<path id="XMLID_62_" class="st0" d="M-162.7,443c0.1-1.9,0.2-3.1,0-4.9"/>
<path id="XMLID_63_" class="st0" d="M-157.7,443.4c0.2-2.2,0.2-4,0-5.8"/>
<path id="XMLID_69_" class="st0" d="M-155.2,442.7c-0.2-2.1-0.2-3.8-0.3-5.8"/>
<path id="XMLID_71_" class="st0" d="M-135.2,441.9c0,0-0.2-2.5,0-3.8l-1.9,0.6c0.2,1.4,0.1,3.9,0.1,3.9"/>
<path id="XMLID_72_" class="st0" d="M-144.2,443.4c0,0-0.1-3.5,0-5.4c0,0-1.6,0.1-2.4-0.1c0.2,1.9,0,5.5,0,5.5"/>
<path id="XMLID_74_" class="st0" d="M-159.1,443.4c0,0-0.1-2,0-3.8c0,0-1.2,0.5-1.8,0.5c0,1.2,0,3.3,0,3.8"/>
<path id="XMLID_53_" class="st0" d="M-157.2,437.4l0.9-3.7c-1.9,0.6-3.4,0.9-5.1,0.7c-0.4,1.2-1.1,2.5-2,3.8
	C-160.9,437.6-159.5,437.4-157.2,437.4"/>
<path id="XMLID_54_" class="st0" d="M-132.9,437c-1.6-1.4-2.6-2.4-3.3-3.9"/>
<path id="XMLID_10_" class="st0" d="M-142.9,438l4.4-0.1c1.1-1.8,1.6-3,2.2-4.9c-1.6,1-2.7,1.2-4.2,1.5c-0.6,1.5-2.3,3.6-2.3,3.6"/>
<path id="XMLID_104_" class="st0" d="M-142.8,438.1c-1.1-1.9-2.5-5.9-2.5-5.9"/>
<path id="XMLID_59_" class="st0" d="M-145.3,432.1c-0.3,0.2-3.9,1.3-5.4,0.9l-1.3,4.1l4-0.2C-146.9,435.6-145.3,432.2-145.3,432.1"
	/>
<path id="XMLID_61_" class="st0" d="M-151,434.1c-2.2,0.4-3.7,0.5-5.5,0.4"/>
<path id="XMLID_64_" class="st0" d="M-151.8,436.4c-2.1-0.1-3.4,0.2-5.4,0.7"/>
<line id="XMLID_67_" class="st0" x1="-139.2" y1="434.1" x2="-139.2" y2="431.1"/>
<line id="XMLID_68_" class="st0" x1="-136.2" y1="433.1" x2="-136.2" y2="431.1"/>
<line id="XMLID_75_" class="st0" x1="-137.7" y1="433.6" x2="-137.7" y2="432.4"/>
<path id="XMLID_9_" class="st0" d="M-139.7,430.7c0.5,0.7,3.5,0.7,3.8,0"/>
<path id="XMLID_103_" class="st0" d="M-135.9,430.7c-1.3-4.8-1.9-19.8-1.9-25.6"/>
<path id="XMLID_65_" class="st0" d="M-139.7,430.7c0.9-4.4,1.9-19.8,1.9-25.6"/>
<path id="XMLID_8_" class="st1" d="M-164.2,371.4c-0.2,4-3,7.7-7.4,8.8c-5.3,1.4-10.8-1.7-12.3-7c-1.4-5.3,1.7-10.8,7-12.3
	c2.3-0.7,4.6-0.5,6.6,0.4c-1-0.1-1.9-0.1-2.9,0.2c-4,1.1-6.3,5.2-5.2,9.2s5.2,6.3,9.2,5.2C-166.8,375.2-165,373.5-164.2,371.4z"/>
<path id="XMLID_283_" class="st0" d="M-181.3,380.4c1,0.8,2.3,1.5,3.6,1.9c0.5,0.2,1,0.3,1.5,0.4"/>
<path id="XMLID_280_" class="st0" d="M-171.1,382.7c4.1-1,7.6-4.1,9-8.4c1.1-3.5,0.6-7.2-1.1-10.1"/>
<path id="XMLID_277_" class="st0" d="M-169.7,358.7c-0.1,0-0.3-0.1-0.4-0.1c-6.6-2.1-13.6,1.5-15.7,8.1c-0.4,1-0.5,2.1-0.6,3.2"/>
<path id="XMLID_271_" class="st0" d="M-188.1,366L-188.1,366c-2.2,7.1,1.2,14.8,7.8,17.9"/>
<path id="XMLID_268_" class="st0" d="M-172.2,385.2c5.6-0.6,10.6-4.5,12.4-10.2c0.7-2.1,0.8-4.2,0.6-6.2"/>
<path id="XMLID_265_" class="st0" d="M-162.6,360.9c-1.7-2.1-4-3.7-6.8-4.6c-5.1-1.6-10.3-0.4-14.1,2.8"/>
<path id="XMLID_262_" class="st0" d="M-190.5,363.6c-0.3,0.5-0.4,1-0.6,1.5c-1.2,3.7-1.1,7.5,0,11"/>
<path id="XMLID_259_" class="st0" d="M-188,381.9c2.1,2.6,5,4.7,8.5,5.8c4.3,1.4,8.8,1,12.6-0.6"/>
<path id="XMLID_256_" class="st0" d="M-159.8,381.7c1.3-1.7,2.4-3.6,3.1-5.8c1.7-5.4,0.7-11.1-2.2-15.5"/>
<path id="XMLID_253_" class="st0" d="M-166,354.2c-0.8-0.4-1.6-0.7-2.4-1c-6.5-2-13.4-0.2-18,4.2"/>
<path id="XMLID_250_" class="st0" d="M-194.7,361.8c-0.3,0.6-0.5,1.2-0.7,1.8c-0.8,2.5-1.2,5-1.1,7.5"/>
<path id="XMLID_247_" class="st0" d="M-195.3,377.8c2.3,6.6,7.4,11.9,14.5,14.2c0.5,0.2,0.9,0.3,1.4,0.4"/>
<path id="XMLID_244_" class="st0" d="M-169.6,392.6c7.1-1.4,13.4-6.2,16.4-13.2"/>
<path id="XMLID_241_" class="st0" d="M-151.4,368.9c-0.5-6.9-4.2-13.3-10-17.2"/>
<path id="XMLID_238_" class="st0" d="M-171.8,348.1c-7.2-0.7-14.2,2.1-18.9,7.4"/>
<path id="XMLID_232_" class="st0" d="M-196.4,388.6c3.1,3.8,7.3,6.9,12.2,8.8"/>
<path id="XMLID_229_" class="st0" d="M-173.9,399.3c7.3,0,14.3-2.8,19.6-7.7"/>
<path id="XMLID_226_" class="st0" d="M-147.9,382.6c0.5-1.1,0.9-2.2,1.3-3.4c1.8-5.5,1.8-11.1,0.4-16.3"/>
<path id="XMLID_223_" class="st0" d="M-151.6,352.3c-3.5-4.2-8.1-7.4-13.6-9.2c-1-0.3-2-0.6-3-0.8"/>
<path id="XMLID_220_" class="st0" d="M-180.4,342.4c-8.3,1.9-15.5,7.5-19.4,15.4"/>
<path id="XMLID_211_" class="st0" d="M-185.6,405.7c0.1,0,0.3,0.1,0.4,0.1c1.5,0.5,2.9,0.8,4.4,1.1"/>
<path id="XMLID_208_" class="st0" d="M-168.1,407.1c6.3-1,12.2-3.6,17.1-7.5"/>
<path id="XMLID_205_" class="st0" d="M-142.2,389.8c1.5-2.4,2.7-5.1,3.6-7.9c1-3.2,1.6-6.4,1.7-9.5"/>
<path id="XMLID_202_" class="st0" d="M-138.8,358.7c-1.9-5.7-5.1-10.8-9.5-15"/>
<path id="XMLID_86_" class="st0" d="M-160.1,336.1c-0.9-0.3-1.7-0.6-2.6-0.9c-5-1.6-10.1-2.1-15-1.6"/>
<path id="XMLID_82_" class="st0" d="M-191.1,337.7c-4.6,2.4-8.8,5.8-12.1,10.1"/>
<path id="XMLID_47_" class="st0" d="M-240.5,433.6c12.4,0,17.5-9.4,26.1-7.5"/>
<path id="XMLID_52_" class="st0" d="M-230.2,434.6c9,1.1,13-2.1,13-2.1"/>
<path id="XMLID_48_" class="st0" d="M-179.2,423.1c6.7-0.2,15.4-8.2,24.6-1.6"/>
<path id="XMLID_49_" class="st0" d="M-177.2,425.7c6.4-2,12.4-3.8,18.3,2.6"/>
<path id="XMLID_28_" class="st0" d="M-163,421.6c10.1,1.5,17.7-2.8,24.7-5.4"/>
<path id="XMLID_73_" class="st0" d="M-137.5,416.1c5.7-2,11.1-2.7,17.4,1.9"/>
<path id="XMLID_27_" class="st0" d="M-152.7,424.6c5.4,0,9.9-0.9,14-2.1"/>
<path id="XMLID_50_" class="st0" d="M-137.2,421.9c7.3-2.2,13.9-4.9,23.9-4"/>
</svg>
