<?xml version="1.0" encoding="utf-8"?>
<!-- Generator: Adobe Illustrator 19.0.0, SVG Export Plug-In . SVG Version: 6.00 Build 0)  -->
<svg version="1.1" id="Layer_1" xmlns="http://www.w3.org/2000/svg" xmlns:xlink="http://www.w3.org/1999/xlink" x="0px" y="0px"
	 viewBox="-227 308.8 155.2 176.2" style="enable-background:new -227 308.8 155.2 176.2;" xml:space="preserve">
<style type="text/css">
	.st0{fill:none;stroke:#DBC571;stroke-linecap:round;stroke-linejoin:round;stroke-miterlimit:10;}
	.st1{fill:#DBC571;stroke:#DBC571;stroke-linecap:round;stroke-linejoin:round;stroke-miterlimit:10;}
</style>
<g id="XMLID_1_">
	<g id="XMLID_2_">
		<path id="XMLID_6_" class="st0" d="M-136.9,397.2c-1.4,3.8,1.2,13,12.6,13c22.8-0.4,20.3-40.1-10.8-40.1
			c-23.8,0-34.3,17.5-60.8,17.5c-22.7,0-22-23-22-23"/>
		<path id="XMLID_98_" class="st0" d="M-215.4,411.2c33.7,7.5,52.4-29.3,73.9-29.3c17.5,0,14.8,19,4.6,15.2"/>
		<path id="XMLID_101_" class="st0" d="M-136.9,397.2c1.7-3.7-1.5-8.8-7.6-8.8c-8,0-14.4,7-14.4,16.3c0,9.3,6.4,19.2,20.4,19.2
			c13.7,0,21.2-10.6,29-10.6c1.6,0,4,0.5,4,3"/>
		<path id="XMLID_94_" class="st0" d="M-99.9,408c9,3.6,7,15.8-1.5,15.8c-6.3,0-6.9-7-4.1-7.6c0-2.4-7.2-2.9-7.2,4.7
			c0,5.6,4.4,12.9,14.2,12.9c10.4,0,17.5-8,17.5-17c0-6.9-5.6-15.3-15.6-15.3c-11.7,0-17.4,8.8-27.7,8.8c-11.4,0-14-9.2-12.6-13"/>
		<path id="XMLID_8_" class="st0" d="M-142.2,398.1c-4.4,4.4-1.2,14.6,7.8,15.8"/>
		<path id="XMLID_11_" class="st0" d="M-108.3,416.8c-2.1,1.8-1.9,7.6,5,10.7"/>
		<path id="XMLID_19_" class="st0" d="M-185.3,390.9c-3.8,1-7.8,1.7-11.8,1.7c-12,0-20.4-6.9-24.5-15.9"/>
		<path id="XMLID_14_" class="st0" d="M-142.7,420.3c-15.5-4.4-13.8-27.7-2.2-27.7c2,0,3.4,0.6,4.2,1.2"/>
		<path id="XMLID_15_" class="st0" d="M-103.3,419.1c5-0.3,5.5-9.4-3-9.4c-8.5,0-17.4,7.7-29.4,7.9c-10.9,0-14.7-8.7-13.9-14.6"/>
		<path id="XMLID_20_" class="st0" d="M-219.8,401.2c37.8,19.1,59.1-32.1,88.3-20.6"/>
		<path id="XMLID_5_" class="st0" d="M-139.1,407.5c2.2,3.2,7.1,5.9,15.4,4.8"/>
		<path id="XMLID_9_" class="st0" d="M-107.6,427.9c9.7,7.8,25.8-0.7,23.3-14"/>
		<path id="XMLID_16_" class="st0" d="M-111.2,408.1c15.7-8.5,23.8,2,22.5,8.6"/>
		<path id="XMLID_7_" class="st0" d="M-135.4,373.2c23.5,0.9,25.8,26.4,14.4,31.8"/>
		<path id="XMLID_10_" class="st0" d="M-226.5,387.7c4.4,6.8,14.9,14.4,30.7,12.7"/>
		<path id="XMLID_18_" class="st0" d="M-124.4,380.7c13.3,13.6-1,27.8-9.6,20.4"/>
		<path id="XMLID_12_" class="st0" d="M-205.1,394.9c23.7,6.1,44.7-18.7,63.5-18.7"/>
		<path id="XMLID_29_" class="st0" d="M-130.3,399.2c3.7,0.1,8.4-4.8,6.1-10.8"/>
	</g>
	<polygon id="XMLID_212_" class="st1" points="-149.5,341.8 -157.8,321.7 -165.2,330.1 -158.8,320.9 -170.6,316.7 -158.6,319.7 
		-161.8,309.3 -157.4,319.3 -150.3,310.6 -156.5,320 -138.9,326.5 -156.7,321.3 	"/>
	<polygon id="XMLID_235_" class="st1" points="-200.2,364.1 -193.3,365.9 -194.1,356.8 -192.3,365.7 -186.6,361.5 -191.6,366.5 
		-179.1,371.2 -192,367.5 -190.5,379.3 -193,367.7 -201.7,374.2 -193.7,366.9 	"/>
	<polygon id="XMLID_182_" class="st1" points="-99,362.9 -92.1,373.4 -88.2,367.3 -91.1,373.8 -82.2,373.9 -91,374.8 -83.6,385.9 
		-91.9,375.4 -99.4,389.6 -92.9,375 -103.7,375.2 -93,374 	"/>
	<polygon id="XMLID_217_" class="st1" points="-92.7,309.3 -94.5,316.5 -89.5,315.7 -94.4,317.3 -91.1,321.2 -94.9,317.8 
		-98.1,325.7 -95.6,317.6 -100.6,318.4 -95.8,316.8 -101.6,311.1 -95.3,316.3 	"/>
	<polygon id="XMLID_222_" class="st1" points="-175.4,484.5 -182.3,474 -188.2,482.8 -183.4,473.4 -191.1,473 -183.4,472.2 
		-188,463.1 -182.4,471.6 -175.5,460.5 -181.4,472.2 -170.6,472.7 -181.3,473.4 	"/>
	<polygon id="XMLID_230_" class="st1" points="-106.6,453.5 -117,458.9 -109.1,465.5 -117.8,460.2 -120.7,475.5 -119.4,460 
		-134.8,466.3 -120,458.6 -127.8,452 -119.1,457.4 -116.6,439.2 -117.6,457.5 	"/>
	<circle id="XMLID_228_" class="st1" cx="-91.5" cy="443" r="1.5"/>
	<circle id="XMLID_251_" class="st1" cx="-163.5" cy="460.5" r="1.5"/>
	<circle id="XMLID_246_" class="st1" cx="-200.2" cy="420.6" r="1.5"/>
	<circle id="XMLID_248_" class="st1" cx="-154" cy="428" r="1.5"/>
	<circle id="XMLID_242_" class="st1" cx="-134.3" cy="360.7" r="1.5"/>
	<circle id="XMLID_243_" class="st1" cx="-188.9" cy="334.1" r="1.5"/>
	<circle id="XMLID_245_" class="st1" cx="-126.5" cy="334.1" r="1.5"/>
	<circle id="XMLID_249_" class="st1" cx="-90" cy="339.5" r="1.5"/>
	<polygon id="XMLID_30_" class="st1" points="-164.4,359.8 -167.3,358.5 -169.4,361 -169.1,357.8 -172.1,356.5 -168.9,355.8 
		-168.7,352.6 -167,355.4 -163.9,354.7 -166,357.1 	"/>
	<polygon id="XMLID_145_" class="st1" points="-113.2,354 -115.8,350 -120.3,351.3 -117.3,347.6 -119.9,343.7 -115.5,345.4 
		-112.6,341.7 -112.8,346.4 -108.5,348.1 -113,349.3 	"/>
	<polygon id="XMLID_149_" class="st1" points="-74.2,396.2 -74.3,398.5 -72.3,399.3 -74.4,399.8 -74.6,402 -75.8,400.2 -77.9,400.7 
		-76.5,399 -77.7,397.1 -75.6,397.9 	"/>
	<polygon id="XMLID_166_" class="st1" points="-166.8,402.3 -167.5,405.5 -164.7,407.1 -167.9,407.4 -168.5,410.6 -169.9,407.6 
		-173.1,408 -170.7,405.8 -172,402.9 -169.2,404.5 	"/>
	<polygon id="XMLID_43_" class="st1" points="-143.1,436.6 -145,439.9 -142.4,442.7 -146.1,442 -148,445.3 -148.4,441.5 
		-152.2,440.7 -148.7,439.1 -149.1,435.4 -146.6,438.2 	"/>
	<polygon id="XMLID_183_" class="st1" points="-130,432.2 -131.7,430.8 -133.5,432 -132.7,430 -134.4,428.6 -132.2,428.7 
		-131.4,426.7 -130.9,428.8 -128.7,428.9 -130.5,430.1 	"/>
	<polygon id="XMLID_51_" class="st1" points="-180.9,434.8 -181.5,432.8 -183.6,432.8 -181.9,431.6 -182.6,429.6 -180.9,430.8 
		-179.1,429.6 -179.8,431.6 -178.1,432.8 -180.2,432.8 	"/>
</g>
</svg>
