<?xml version="1.0" encoding="utf-8"?>
<!-- Generator: Adobe Illustrator 19.0.0, SVG Export Plug-In . SVG Version: 6.00 Build 0)  -->
<svg version="1.1" id="Layer_1" xmlns="http://www.w3.org/2000/svg" xmlns:xlink="http://www.w3.org/1999/xlink" x="0px" y="0px"
	 viewBox="0 0 561.5 561.5" style="enable-background:new 0 0 561.5 561.5;" xml:space="preserve">
<style type="text/css">
	.st0{fill:none;stroke:#EAD478;stroke-width:5;stroke-linecap:round;stroke-linejoin:round;stroke-miterlimit:10;}
</style>
<g id="XMLID_239_">
	<path id="XMLID_105_" class="st0" d="M286.1,210.9c0,15.2,20.4,102.5,3.3,102.5c-1.3,0-2.1-2.2-2.1-4"/>
	<path class="st0" d="M318.2,243.8c-5.5,10.6-9.5,48.5-9.5,66"/>
</g>
<g id="XMLID_154_">
	<g id="XMLID_153_">
		<path id="XMLID_247_" class="st0" d="M300.8,326.8c6.3,0,11.9,2.2,11.9,6.7c0,5.5-6.9,9.1-6.9,9.1"/>
		<path id="XMLID_244_" class="st0" d="M300.8,326.8c-5.1,0-11,0.6-11,6.3c0,4.7,4,9,4,9"/>
	</g>
	<path class="st0" d="M299.6,333.5c-0.4,5.1,0.3,8.6,0.3,8.6"/>
</g>
<g id="XMLID_242_">
	<path id="XMLID_136_" class="st0" d="M353.8,274.2c-5.5,26.7-22.7,34.6-39.4,76c-5.4,1.3-9.4,1.8-13.4,1.5"/>
	<path id="XMLID_145_" class="st0" d="M262.8,242.2c-4.1,39.9,18,77.1,24.7,106.9c5.4,1.4,9.5,2.3,13.5,2.5"/>
</g>
<g id="XMLID_241_">
	<path class="st0" d="M332.8,262.7c11.9,2.8,19.8-4.4,19.8-15.1"/>
	<path id="XMLID_132_" class="st0" d="M280.6,257.3c-15.5,2.6-17.6-9.2-17.8-15.1"/>
</g>
<g id="XMLID_238_">
	<g id="XMLID_237_">
		<path id="XMLID_138_" class="st0" d="M272.6,195.4c7.7-46.4,0-46.6,25.6-45.8"/>
		<path id="XMLID_140_" class="st0" d="M307.1,195.4c-16,0-8.8-45.8-8.8-45.8"/>
	</g>
	<g id="XMLID_235_">
		<path id="XMLID_139_" class="st0" d="M307.1,195.4c14.9,0,15.9-43.7,15.9-43.7"/>
		<path id="XMLID_137_" class="st0" d="M344.9,199.9c0-47.6,1.2-45.3-21.9-48.3"/>
	</g>
</g>
<g id="XMLID_240_">
	<path id="XMLID_130_" class="st0" d="M352.7,195.4c0,10.6,3.8,20.7,3.8,34.9c0,18.5-24.9,3-31,48.4"/>
	<path id="XMLID_134_" class="st0" d="M265.7,195.4c-1.2,8-6.8,25.2-6.8,33.1c0,11.1,20.9,1.9,24.8,47.2"/>
</g>
<g id="XMLID_131_">
	<path id="XMLID_128_" class="st0" d="M559,280.8C559,434.5,434.5,559,280.8,559"/>
	<path id="XMLID_127_" class="st0" d="M280.8,2.5C434.5,2.5,559,127.1,559,280.8"/>
	<path id="XMLID_110_" class="st0" d="M2.5,280.8C2.5,127.1,127.1,2.5,280.8,2.5"/>
	<path id="XMLID_109_" class="st0" d="M280.8,559C127.1,559,2.5,434.5,2.5,280.8"/>
</g>
<g id="XMLID_227_">
	<g id="XMLID_224_">
		<path id="XMLID_175_" class="st0" d="M265.7,195.4c4-26.4-10-43.9-10-68.6c0-21.6,9.3-31.8,15.8-56.6"/>
		<path id="XMLID_143_" class="st0" d="M298.4,141.1c10.4-24.1-2.2-46.4-26.8-71"/>
	</g>
	<g id="XMLID_223_">
		<path id="XMLID_157_" class="st0" d="M352.7,169c12.6-53.7,42.9-40,79.3-62"/>
		<path id="XMLID_133_" class="st0" d="M372.5,194c0,0,50.7-16,59.5-87"/>
	</g>
</g>
<g id="XMLID_212_">
	<path id="XMLID_144_" class="st0" d="M335.1,474.3c-61-33.6-74.8-139.9-74.8-188.4"/>
	<path id="XMLID_141_" class="st0" d="M534.9,354.6c-61.2-19-173.9,26.3-173.9-95c0-41.8,11.5-65.6,11.5-65.6"/>
	<path id="XMLID_142_" class="st0" d="M348.9,536.5c-16.6-18.2-27.7-51-31.7-65.8"/>
</g>
<path class="st0" d="M146.4,243.7c8.4-10.7,21.5-17.6,36.2-17.6c21.8,0,40,15.1,44.8,35.4"/>
<g id="XMLID_135_">
	<path id="XMLID_108_" class="st0" d="M280.8,545.4c-146.1,0-264.6-118.5-264.6-264.6"/>
	<path id="XMLID_129_" class="st0" d="M545.4,280.8c0,146.1-118.5,264.6-264.6,264.6"/>
	<path id="XMLID_107_" class="st0" d="M280.8,16.2c146.1,0,264.6,118.5,264.6,264.6"/>
	<path id="XMLID_106_" class="st0" d="M16.2,280.8c0-146.1,118.5-264.6,264.6-264.6"/>
</g>
<g id="XMLID_150_">
	<path class="st0" d="M542.6,241.9c-43.7-12.5-107.2-18.8-170.2-12.3"/>
	<path id="XMLID_167_" class="st0" d="M544.2,255.1c-43.5-11.6-104.7-17.3-165.5-11c-2.6,0.3-5.3,0.6-7.9,0.9"/>
	<path id="XMLID_98_" class="st0" d="M545.4,281.2c-42.5-9.7-98.5-14-154.2-8.2c-7.1,0.7-14.2,1.6-21.3,2.7"/>
	<path id="XMLID_96_" class="st0" d="M542.5,320.3c-39-6.6-85.9-8.8-132.5-3.9c-7,0.7-13.9,1.6-20.9,2.6"/>
</g>
<g id="XMLID_149_">
	<path class="st0" d="M253.1,259.1C181.4,288.7,112.8,342.5,65.7,435"/>
	<path id="XMLID_166_" class="st0" d="M254.9,275.5c-69.1,29.6-134.9,81.9-181,170.3"/>
	<path id="XMLID_97_" class="st0" d="M252.6,311.1c-61.2,29.4-118.9,77.7-161.3,154.4"/>
	<path id="XMLID_95_" class="st0" d="M259.4,360.4c-52,27.3-100.8,69-139.1,130.8"/>
	<path id="XMLID_94_" class="st0" d="M277.7,421.9c-40.6,22.5-79.1,53.9-111.8,97.3"/>
	<path id="XMLID_93_" class="st0" d="M314.6,491.1c-25.9,13.7-50.4,30.7-73,51.4"/>
</g>
<g id="XMLID_146_">
	<path id="XMLID_159_" class="st0" d="M30.2,195.6c70.7,11.7,127.9,66.7,151.2,92.4"/>
	<path id="XMLID_92_" class="st0" d="M26.8,206.1c65.7,11.5,119.7,60.3,145.1,87.2"/>
	<path id="XMLID_56_" class="st0" d="M21.5,227.4c58.3,11.8,106.8,52.3,133.6,79.2"/>
	<path id="XMLID_55_" class="st0" d="M16.9,260.6c48,12.6,88.6,43.8,114.8,68.4"/>
	<path id="XMLID_54_" class="st0" d="M17.6,308.2c33.8,12.9,62.9,33.9,84.7,53"/>
	<path id="XMLID_53_" class="st0" d="M35.8,381.1c12.7,8,24.3,16.7,34.6,25.2"/>
</g>
<path class="st0" d="M35.5,380.3"/>
<g id="XMLID_226_">
	<g id="XMLID_89_">
		<line id="XMLID_225_" class="st0" x1="234.3" y1="252.5" x2="252.2" y2="245.7"/>
		<line id="XMLID_88_" class="st0" x1="396.2" y1="190.9" x2="509.6" y2="147.8"/>
	</g>
	<line id="XMLID_86_" class="st0" x1="492.7" y1="224.1" x2="537.7" y2="217.1"/>
	<g id="XMLID_85_">
		<line class="st0" x1="307.1" y1="148.5" x2="407.6" y2="48.5"/>
		<line class="st0" x1="221.7" y1="233.3" x2="255" y2="200.3"/>
	</g>
	<g id="XMLID_84_">
		<line class="st0" x1="301.5" y1="90.3" x2="344.9" y2="24"/>
		<line class="st0" x1="212.8" y1="226" x2="252.6" y2="165.1"/>
	</g>
	<path class="st0" d="M202.7,220.2c28.7-74.1,51-131.7,79-204"/>
	<line class="st0" x1="191.4" y1="217.8" x2="222.9" y2="22.5"/>
	<line class="st0" x1="179.9" y1="217.1" x2="171.1" y2="39.9"/>
	<line class="st0" x1="168.5" y1="218.9" x2="127.7" y2="64.9"/>
	<line class="st0" x1="157.7" y1="223" x2="92.7" y2="94.6"/>
	<line class="st0" x1="148" y1="229.2" x2="65.5" y2="126.8"/>
	<line class="st0" x1="139.8" y1="237.4" x2="45.1" y2="160.2"/>
	<g id="XMLID_87_">
		<line class="st0" x1="228.9" y1="242.3" x2="249.3" y2="229.2"/>
		<line class="st0" x1="442" y1="104.8" x2="464.5" y2="90.3"/>
	</g>
</g>
</svg>
