<?xml version="1.0" encoding="utf-8"?>
<!-- Generator: Adobe Illustrator 19.0.0, SVG Export Plug-In . SVG Version: 6.00 Build 0)  -->
<svg version="1.1" id="Layer_1" xmlns="http://www.w3.org/2000/svg" xmlns:xlink="http://www.w3.org/1999/xlink" x="0px" y="0px"
	 viewBox="0 0 286.8 467.3" style="enable-background:new 0 0 286.8 467.3;" xml:space="preserve">
<style type="text/css">
	.st0{fill:#FEF9D3;}
	.st1{fill:none;stroke:#FEF9D3;stroke-width:3;stroke-linecap:round;stroke-linejoin:round;stroke-miterlimit:10;}
	.st2{fill:none;stroke:#FEF9D3;stroke-width:2;stroke-linecap:round;stroke-linejoin:round;stroke-miterlimit:10;}
</style>
<g>
	<g>
		<g>
			<g>
				<path class="st0" d="M64.4,463.3c0,0,0.7-2.2,1.9-6c0.6-1.9,1.3-4.2,2.2-6.8c0.9-2.6,1.9-5.6,2.9-8.9c1.1-3.2,2.3-6.7,3.5-10.4
					c1.3-3.7,2.6-7.6,4-11.6c1.4-4,2.9-8.2,4.4-12.4c1.5-4.2,3-8.5,4.6-12.8c3-8.6,6.2-17.1,9.1-25.1c2.9-8,5.7-15.5,8-21.9
					c4.7-12.8,7.8-21.4,7.8-21.4c0.2-0.5,0.7-0.7,1.2-0.5s0.7,0.7,0.5,1.2c0,0,0,0,0,0c0,0-0.8,2.1-2.3,5.8c-1.4,3.7-3.5,9-5.9,15.4
					c-2.4,6.4-5.2,13.8-8.2,21.8c-2.9,8-6,16.6-9,25.2c-1.5,4.3-3,8.6-4.4,12.8c-1.4,4.2-2.8,8.4-4.2,12.5c-2.7,8.1-5,15.7-7,22.2
					c-1,3.3-1.9,6.3-2.6,8.9c-0.8,2.6-1.4,5-1.9,6.9c-1,3.8-1.6,6-1.6,6c-0.2,0.8-1,1.3-1.8,1.1C64.7,465,64.2,464.2,64.4,463.3
					C64.4,463.4,64.4,463.4,64.4,463.3z"/>
			</g>
			<g>
				<path class="st0" d="M45.2,456.1c0,0,1-2.1,2.6-5.7c0.8-1.8,1.8-4,2.9-6.5c1.1-2.5,2.4-5.4,3.7-8.5c2.6-6.3,5.7-13.6,8.9-21.5
					c1.6-4,3.2-8.1,4.8-12.2c1.6-4.2,3.2-8.4,4.9-12.7c3.2-8.5,6.3-17.1,9.3-25.1c2.9-8,5.5-15.5,7.8-22c2.3-6.4,4-11.8,5.3-15.6
					c1.2-3.8,2-5.9,2-5.9c0.2-0.5,0.7-0.7,1.2-0.6c0.5,0.2,0.7,0.7,0.6,1.2c0,0,0,0,0,0c0,0-3.1,8.6-7.7,21.4
					c-2.3,6.4-5,13.9-7.9,21.9c-2.9,8-6,16.6-9.2,25.1c-1.6,4.3-3.2,8.5-4.7,12.7c-1.6,4.2-3.1,8.3-4.6,12.3c-1.5,4-3,7.8-4.4,11.5
					c-1.4,3.6-2.8,7.1-4,10.3c-1.3,3.2-2.4,6.1-3.5,8.7c-1,2.6-1.9,4.8-2.7,6.7c-1.5,3.7-2.4,5.8-2.4,5.8c-0.3,0.8-1.2,1.1-2,0.8
					C45.3,457.9,44.9,457,45.2,456.1C45.2,456.2,45.2,456.2,45.2,456.1z"/>
			</g>
			<path class="st1" d="M46.6,456.8c-0.9,2.4,3.5,6.2,7.9,8.1c4.7,1.4,10.4,1.3,11.3-1.1"/>
			<g>
				<path class="st0" d="M60.7,465.5c0,0,0.8-2.9,2.2-7.2c1.4-4.3,3.3-10,5.3-15.7c3.9-11.3,8.1-22.6,8.1-22.6
					c0.1-0.2,0.3-0.3,0.6-0.3c0.2,0.1,0.3,0.3,0.3,0.5c0,0-3.9,11.4-7.5,22.8c-1.8,5.7-3.6,11.4-4.9,15.7c-1.3,4.3-2,7.2-2,7.2
					c-0.1,0.5-0.7,0.9-1.2,0.7S60.5,466.1,60.7,465.5C60.7,465.5,60.7,465.5,60.7,465.5L60.7,465.5z"/>
			</g>
			<g>
				<path class="st0" d="M112.1,325.9l-4.9,11.5c-0.1,0.2-0.3,0.3-0.6,0.2c-0.2-0.1-0.3-0.3-0.2-0.5l3.8-11.9
					c0.2-0.5,0.7-0.8,1.3-0.6C112,324.7,112.3,325.3,112.1,325.9C112.1,325.8,112.1,325.8,112.1,325.9z"/>
			</g>
			<g>
				<path class="st0" d="M57.1,465.4c0,0,0.2-0.5,0.4-1.5c0.3-1,0.7-2.3,1.3-3.9c1.1-3.2,2.6-7.4,4.1-11.6
					c3.1-8.4,6.2-16.8,6.2-16.8c0.1-0.2,0.3-0.3,0.6-0.3c0.2,0.1,0.3,0.3,0.3,0.5c0,0-2.9,8.5-5.7,17c-1.4,4.3-2.8,8.5-3.7,11.7
					c-0.5,1.6-0.9,2.9-1.1,3.9c-0.3,0.9-0.4,1.5-0.4,1.5l0,0c-0.1,0.5-0.7,0.8-1.2,0.7C57.3,466.5,56.9,465.9,57.1,465.4
					C57.1,465.4,57.1,465.4,57.1,465.4z"/>
			</g>
			<g>
				<path class="st0" d="M109.5,325l-6.9,17.2c-0.1,0.2-0.3,0.3-0.6,0.2c-0.2-0.1-0.3-0.3-0.2-0.5l5.9-17.6c0.2-0.5,0.7-0.8,1.3-0.6
					C109.4,323.8,109.7,324.4,109.5,325C109.5,325,109.5,325,109.5,325z"/>
			</g>
			<g>
				<path class="st0" d="M47.7,460.6l4.9-9.9c0.1-0.2,0.4-0.3,0.6-0.2c0.2,0.1,0.3,0.3,0.2,0.5l-3.9,10.4c-0.2,0.5-0.8,0.8-1.3,0.6
					C47.7,461.8,47.4,461.2,47.7,460.6C47.6,460.7,47.6,460.6,47.7,460.6L47.7,460.6z"/>
			</g>
			<g>
				<path class="st0" d="M101.8,322L85,367.1c-0.1,0.2-0.3,0.3-0.6,0.3c-0.2-0.1-0.3-0.3-0.3-0.5l15.7-45.5c0.2-0.5,0.7-0.8,1.3-0.6
					S102,321.5,101.8,322C101.8,322,101.8,322,101.8,322z"/>
			</g>
			<g>
				<path class="st0" d="M50.5,462.8c0,0,0.1-0.3,0.3-0.7c0.2-0.4,0.5-1.1,0.9-1.9c0.7-1.5,1.7-3.6,2.6-5.7c1.8-4.2,3.6-8.4,3.6-8.4
					c0.1-0.2,0.3-0.3,0.6-0.2c0.2,0.1,0.3,0.3,0.2,0.5c0,0-1.5,4.3-3,8.6c-0.8,2.2-1.6,4.3-2.2,5.9c-0.3,0.8-0.6,1.5-0.8,1.9
					c-0.2,0.5-0.3,0.7-0.3,0.7c-0.2,0.5-0.8,0.7-1.3,0.5C50.5,463.9,50.3,463.4,50.5,462.8C50.5,462.8,50.5,462.8,50.5,462.8z"/>
			</g>
			<g>
				<path class="st0" d="M104.3,323.1l-12.4,32.8c-0.1,0.2-0.3,0.3-0.6,0.3c-0.2-0.1-0.3-0.3-0.3-0.5l11.4-33.2
					c0.2-0.5,0.7-0.8,1.3-0.6C104.2,321.9,104.5,322.5,104.3,323.1C104.3,323,104.3,323.1,104.3,323.1z"/>
			</g>
			<g>
				<path class="st0" d="M53.6,464.5l9.3-23.8c0.1-0.2,0.3-0.3,0.6-0.2c0.2,0.1,0.3,0.3,0.3,0.5l-8.2,24.2c-0.2,0.5-0.7,0.8-1.3,0.6
					C53.7,465.7,53.4,465.1,53.6,464.5C53.6,464.6,53.6,464.6,53.6,464.5z"/>
			</g>
			<g>
				<path class="st0" d="M106.9,324.1L97.9,347c-0.1,0.2-0.3,0.3-0.6,0.2c-0.2-0.1-0.3-0.3-0.3-0.5l7.9-23.3
					c0.2-0.5,0.7-0.8,1.3-0.6C106.8,322.9,107.1,323.5,106.9,324.1C106.9,324,106.9,324,106.9,324.1z"/>
			</g>
		</g>
		<g>
			<g>
				<path class="st0" d="M236.3,61.1c0,0,0.2-0.5,0.1-1c0-0.6-0.3-1.6-1.1-2.7c-0.8-1.1-2-2.3-3.5-3.6c-1.5-1.2-3.4-2.5-5.5-3.8
					c-4.2-2.6-9.4-5-15.2-7.2c-2.9-1.1-5.9-2.1-9-2.9c-3.1-0.9-6.3-1.6-9.5-2.1c-3.2-0.5-6.5-0.8-9.5-0.5c-1.5,0.1-3,0.4-4.2,1
					c-0.6,0.3-1,0.6-1.2,1c-0.1,0.1-0.1,0.2-0.2,0.3l-0.2,0.6l-0.4,1.1c-2.2,5.9-4.3,11.3-6.1,15.9c-1.8,4.7-3.4,8.5-4.4,11.2
					c-1.1,2.7-1.7,4.2-1.7,4.2c-0.1,0.3-0.5,0.4-0.8,0.3c-0.3-0.1-0.4-0.4-0.3-0.7c0,0,0.5-1.6,1.4-4.4c0.9-2.8,2.2-6.7,3.8-11.5
					c1.6-4.7,3.5-10.3,5.6-16.1l0.4-1.1l0.2-0.6c0.1-0.3,0.2-0.5,0.4-0.8c0.6-1,1.5-1.7,2.3-2.1c1.7-0.9,3.5-1.2,5.2-1.4
					c3.5-0.3,6.9,0,10.3,0.5c3.4,0.5,6.7,1.3,9.9,2.2c3.2,0.9,6.3,2,9.2,3.1c5.9,2.3,11.1,5.1,15.4,7.9c2.1,1.4,4,2.8,5.5,4.3
					c1.5,1.4,2.8,2.8,3.6,4.2c0.8,1.3,1.2,2.6,1.1,3.6c-0.1,1-0.3,1.3-0.3,1.4c-0.1,0.3-0.4,0.5-0.8,0.5
					C236.4,61.8,236.2,61.5,236.3,61.1z"/>
			</g>
			<g>
				<path class="st0" d="M133,173.3c0,0,0,0-0.1-0.1c0-0.1-0.1-0.2-0.2-0.4c-0.2-0.3-0.4-0.8-0.6-1.4c-0.5-1.2-0.9-3-1.1-5.3
					c-0.2-2.3,0-5.1,0.7-8.2c0.2-0.8,0.4-1.6,0.6-2.4c0.1-0.4,0.3-0.8,0.4-1.2l0.2-0.6l0.1-0.3l0.1-0.4c0.7-1.6,1.3-3.2,2.3-4.9
					c0.9-1.8,2-3.4,3.1-5.1c1.2-1.6,2.4-3.4,3.9-5c2.8-3.4,6-6.6,9.4-9.8c3.4-3.2,7.2-6.3,11.1-9.3c3.9-3,7.9-6,12-8.9
					c8.1-5.8,16.4-11.2,24.2-16.4c3.9-2.6,7.6-5.1,11.1-7.6c3.5-2.4,6.8-4.8,9.7-7.1c3-2.3,5.5-4.5,7.7-6.5c2.1-2.1,4-4,5.2-5.7
					c0.3-0.4,0.6-0.8,0.9-1.2c0.3-0.4,0.5-0.8,0.7-1.1c0.4-0.7,0.8-1.3,1-1.8c0.5-1,0.7-1.6,0.7-1.6l0-0.1c0.1-0.3,0.5-0.5,0.9-0.3
					c0.3,0.1,0.5,0.5,0.3,0.9c0,0-0.3,0.6-0.8,1.7c-0.2,0.6-0.6,1.2-1.1,1.9c-0.2,0.4-0.5,0.8-0.7,1.2c-0.3,0.4-0.6,0.8-0.9,1.3
					c-1.3,1.8-3.2,3.7-5.3,5.9c-2.2,2.1-4.8,4.4-7.8,6.7c-2.9,2.3-6.2,4.8-9.7,7.2c-3.5,2.5-7.2,5.1-11,7.7
					c-7.7,5.3-15.9,10.8-24,16.6c-4,2.9-8,5.9-11.8,8.9c-3.8,3-7.5,6.1-10.8,9.3c-3.4,3.2-6.5,6.4-9.1,9.6c-1.4,1.6-2.5,3.3-3.7,4.9
					c-1,1.7-2.1,3.2-2.9,4.8c-0.9,1.5-1.5,3.2-2.2,4.8l-0.1,0.2l-0.1,0.3l-0.2,0.6c-0.1,0.4-0.2,0.8-0.4,1.1
					c-0.2,0.7-0.4,1.5-0.6,2.2c-0.6,2.8-0.7,5.3-0.6,7.4c0.2,2,0.6,3.5,1,4.5c0.2,0.5,0.4,0.8,0.5,1.1c0.1,0.1,0.1,0.2,0.1,0.2
					c0,0.1,0.1,0.1,0.1,0.1l0,0c0.4,0.7,0.2,1.6-0.5,2.1C134.4,174.3,133.5,174,133,173.3L133,173.3z"/>
			</g>
			<g>
				<path class="st0" d="M162.8,91.8c0,0-0.2-0.3-0.5-0.8c-0.3-0.5-0.6-1.3-0.9-2.3c-0.3-1-0.5-2.2-0.7-3.6
					c-0.1-1.4-0.1-2.9,0.1-4.6c0.2-1.7,0.5-3.5,1.1-5.3c0.5-1.8,1.2-3.7,2.1-5.6c0.9-1.9,2.1-3.7,3.4-5.4c1.3-1.7,2.7-3.4,4.2-4.9
					c3-3.1,6.3-5.9,9.4-8.4c3.1-2.5,6.1-4.7,8.6-6.7c2.5-2,4.5-3.7,5.6-5.1c0.6-0.7,1-1.2,1.2-1.6c0.2-0.4,0.3-0.6,0.3-0.6l0-0.1
					c0.2-0.3,0.5-0.5,0.9-0.3c0.3,0.2,0.5,0.5,0.3,0.8c0,0-0.1,0.3-0.3,0.8c-0.3,0.5-0.7,1.2-1.3,1.9c-1.2,1.5-3.2,3.3-5.7,5.4
					c-2.5,2.1-5.4,4.4-8.4,6.9c-3,2.5-6.2,5.4-9,8.4c-1.4,1.5-2.8,3.1-3.9,4.8c-1.2,1.7-2.2,3.4-3,5.1c-0.8,1.7-1.4,3.5-1.8,5.2
					c-0.5,1.7-0.7,3.3-0.9,4.8c-0.1,1.5-0.1,2.9,0.1,4.1c0.2,1.2,0.4,2.2,0.6,3c0.3,0.8,0.5,1.4,0.7,1.7c0.2,0.4,0.3,0.4,0.3,0.5
					c0.5,0.7,0.3,1.6-0.3,2.1S163.3,92.5,162.8,91.8z"/>
			</g>
			<g>
				<path class="st0" d="M155.1,288c0,0-0.5,1.4-1.3,4c-0.8,2.5-2,6.1-3.4,10.4c-1.5,4.3-3.1,9.3-5,14.6c-0.5,1.3-0.9,2.7-1.4,4.1
					l-0.2,0.5l0,0.1l-0.1,0.2l-0.1,0.1l-0.1,0.3c0,0.1-0.1,0.2-0.2,0.3l-0.3,0.4c-0.2,0.2-0.3,0.4-0.5,0.6c-0.7,0.7-1.5,1.1-2.3,1.5
					c-1.6,0.7-3.2,0.9-4.8,1c-1.6,0.1-3.2,0.1-4.7,0c-6.2-0.4-12.2-1.9-17.7-3.6c-5.5-1.8-10.3-3.9-14.4-6c-2-1-3.9-2.1-5.4-3.1
					c-1.6-1-2.9-1.9-4-2.7c-1.1-0.8-1.9-1.5-2.4-2c-0.5-0.5-0.8-0.7-0.8-0.7c-0.2-0.2-0.3-0.6,0-0.8c0.2-0.2,0.5-0.3,0.8-0.1l0,0
					c0,0,0.3,0.2,0.9,0.6c0.6,0.4,1.4,1,2.5,1.7c2.2,1.4,5.4,3.2,9.5,5.1c4.1,1.9,9,3.7,14.3,5.3c2.7,0.8,5.5,1.5,8.3,2.1
					c2.9,0.6,5.8,1,8.7,1.2c2.9,0.2,5.9,0.1,8.2-0.8c0.6-0.2,1.1-0.5,1.4-0.8c0.1-0.1,0.2-0.2,0.2-0.2c0,0,0-0.1,0.1-0.1
					c0,0,0,0,0.1-0.1l0.1-0.2l0.1-0.1c-0.1,0.2,0,0,0,0.1l0,0l0-0.1l0.2-0.5c0.5-1.4,1-2.7,1.5-4c2-5.3,3.9-10.2,5.5-14.4
					c1.6-4.2,3.1-7.7,4-10.2c1-2.4,1.6-3.8,1.6-3.8c0.1-0.3,0.5-0.5,0.8-0.4C155,287.4,155.2,287.7,155.1,288z"/>
			</g>
			<g>
				<path class="st0" d="M115.5,201.4c0,0,0.9-2.5,2.6-6.9c0.4-1.1,0.9-2.3,1.4-3.7c0.3-0.7,0.5-1.3,0.9-2.1
					c0.2-0.4,0.3-0.7,0.5-1.1c0.2-0.4,0.4-0.7,0.6-1.1c1.6-3,3.8-6.1,6.5-9.2c5.4-6.2,12.6-12.4,20.7-18.5
					c8.1-6.1,17-12.1,25.9-18.1c8.9-6,17.8-12,25.8-18.1c4-3,7.7-6.1,11.1-9.2c3.3-3.1,6.3-6.3,8.4-9.6c1.1-1.6,2-3.3,2.6-5
					c0.3-0.8,0.6-1.7,0.8-2.5c0.2-0.8,0.5-1.6,0.6-2.4c0.3-1.6,0.4-3,0.4-4.4c-0.1-1.4-0.2-2.6-0.5-3.7c-0.6-2.2-1.5-3.7-2.3-4.6
					c-0.4-0.5-0.7-0.8-0.9-1c-0.2-0.2-0.3-0.3-0.3-0.3l0,0c-0.3-0.2-0.3-0.7,0-0.9c0.2-0.3,0.6-0.3,0.9,0c0,0,0.1,0.1,0.4,0.4
					c0.3,0.2,0.6,0.6,1,1.1c0.8,1,1.9,2.7,2.6,5.1c0.3,1.2,0.5,2.5,0.6,4c0,1.5-0.1,3.1-0.4,4.7c-0.1,0.8-0.4,1.7-0.6,2.5
					c-0.3,0.9-0.5,1.7-0.8,2.6c-0.7,1.8-1.6,3.6-2.7,5.3c-2.2,3.5-5.2,6.8-8.6,10c-3.4,3.2-7.1,6.4-11.1,9.5
					c-8,6.2-16.9,12.3-25.7,18.4c-8.9,6.1-17.7,12.2-25.6,18.3c-7.9,6.1-15,12.3-20.1,18.4c-2.6,3-4.6,6-6.1,8.8
					c-0.2,0.3-0.4,0.7-0.5,1c-0.2,0.3-0.3,0.7-0.5,1c-0.3,0.6-0.6,1.4-0.8,2c-0.5,1.3-0.9,2.6-1.3,3.7c-1.6,4.4-2.5,7-2.5,7
					c-0.3,0.8-1.1,1.2-1.9,0.9S115.3,202.2,115.5,201.4L115.5,201.4z"/>
			</g>
			<g>
				<path class="st0" d="M133,153.3l17.8-48l2.3,0.8l-2.5,6.7l-0.6,1.7l-0.3,0.8l-0.2,0.4l-0.1,0.2l0,0.1c0.5,0.2-4.2-1.5-2.2-0.8
					l0,0l0-0.1l1.2-3.3l2.5-6.7l0.3-0.8l0.4-0.9c0.3-0.6,0.6-1.1,0.9-1.6c0.6-1.1,1.3-2.1,2.1-3c3-3.8,6.7-7,10.4-10
					c3.8-3,7.7-5.7,11.6-8.3c7.9-5.3,16-10.1,23.8-15.5c3.9-2.7,7.7-5.5,11.1-8.7c1.7-1.6,3.3-3.3,4.5-5.3c1.2-1.9,2.1-4.1,2-6.3
					c0-0.4,0.3-0.7,0.6-0.7s0.7,0.3,0.7,0.6l0,0l0,0c0.1,2.1-0.5,4.1-1.4,5.9c-0.9,1.8-2.1,3.4-3.5,4.9c-2.6,2.9-5.6,5.5-8.7,7.8
					c-6.2,4.7-12.7,8.9-19.1,13.2c-6.4,4.2-12.9,8.5-18.9,13.2c-3,2.4-5.9,4.9-8.4,7.6c-2.6,2.7-4.8,5.8-6,9.1l0,0
					c-0.3,0.8-1.1,1.2-1.9,0.9s-1.2-1.1-0.9-1.9c0,0,0,0,0,0c1.5-3.9,4.1-7.2,6.8-10c2.8-2.8,5.8-5.4,8.9-7.7
					c6.2-4.7,12.8-8.9,19.3-13c6.5-4.1,13.1-8.2,19.2-12.7c3.1-2.3,6.1-4.7,8.6-7.5c1.3-1.4,2.4-2.9,3.3-4.5
					c0.9-1.6,1.4-3.4,1.4-5.2l1.3-0.1c0.1,2.6-0.8,5-2.1,7.1c-1.3,2.1-2.9,3.9-4.6,5.6c-1.7,1.7-3.5,3.2-5.4,4.7
					c-1.9,1.5-3.8,2.9-5.7,4.3c-7.8,5.5-15.9,10.5-23.7,15.8c-3.9,2.7-7.8,5.4-11.4,8.3c-3.6,3-7.1,6.1-9.9,9.8
					c-1.4,1.8-2.6,3.7-3.4,5.9l-2.4,6.7l-1.2,3.3l0,0.1l0,0c2,0.7-2.7-1-2.2-0.8l0-0.1l0.1-0.2l0.1-0.4l0.3-0.8l0.6-1.7l2.4-6.7
					l2.3,0.8l-17.3,48.2c-0.3,0.8-1.1,1.2-1.9,0.9S132.8,154.1,133,153.3L133,153.3z"/>
			</g>
			<g>
				<path class="st0" d="M155.7,268.5c0,0,0.2,0.3,0.5,0.8c0.3,0.5,0.6,1.3,0.9,2.3c0.3,1,0.5,2.2,0.7,3.6c0.1,1.4,0.1,2.9-0.1,4.6
					c-0.2,1.7-0.5,3.5-1.1,5.3c-0.5,1.8-1.2,3.7-2.1,5.6c-0.9,1.9-2.1,3.7-3.4,5.4c-1.3,1.7-2.7,3.4-4.2,4.9c-3,3.1-6.3,5.9-9.4,8.4
					c-3.1,2.5-6.1,4.7-8.6,6.7c-2.5,2-4.5,3.7-5.6,5.1c-0.6,0.7-1,1.2-1.2,1.6c-0.2,0.4-0.3,0.6-0.3,0.6l0,0.1
					c-0.2,0.3-0.6,0.5-0.9,0.3c-0.3-0.2-0.5-0.5-0.3-0.9c0,0,0.1-0.3,0.3-0.8c0.3-0.5,0.7-1.2,1.3-1.9c1.2-1.5,3.2-3.3,5.7-5.4
					c2.5-2.1,5.4-4.4,8.4-6.9c3-2.5,6.2-5.4,9-8.4c1.4-1.5,2.8-3.1,3.9-4.8c1.2-1.7,2.2-3.4,3-5.1c0.8-1.7,1.4-3.5,1.8-5.2
					c0.5-1.7,0.7-3.3,0.9-4.8c0.1-1.5,0.1-2.9-0.1-4.1c-0.2-1.2-0.4-2.2-0.6-3c-0.3-0.8-0.5-1.4-0.7-1.7c-0.2-0.4-0.3-0.4-0.3-0.5
					c-0.5-0.7-0.3-1.6,0.3-2.1C154.3,267.7,155.2,267.8,155.7,268.5z"/>
			</g>
			<g>
				<path class="st0" d="M209.5,132.2l13.1-33.6c0.1-0.3,0.5-0.5,0.8-0.4c0.3,0.1,0.5,0.5,0.4,0.8l-11.6,34.2
					c-0.3,0.8-1.1,1.2-1.9,0.9S209.2,133.1,209.5,132.2C209.5,132.3,209.5,132.3,209.5,132.2z"/>
			</g>
			<g>
				<path class="st0" d="M196.9,177.2c0,0-3.9,10.3-9.7,25.7c-2.9,7.7-6.2,16.7-9.8,26.4c-1.8,4.8-3.6,9.8-5.5,14.9
					c-0.9,2.5-1.9,5.1-2.8,7.7c-0.5,1.3-0.9,2.5-1.5,3.9c-0.2,0.6-0.6,1.4-0.9,2c-0.3,0.6-0.7,1.3-1.1,1.9
					c-3.2,4.8-7.5,8.5-11.7,11.9c-4.3,3.4-8.7,6.4-13,9.2c-8.7,5.6-16.9,10.6-23.6,15.3c-6.7,4.7-11.9,9.2-14.5,13.1
					c-1.3,1.9-1.9,3.7-2.1,4.8c-0.1,0.6-0.1,1-0.1,1.4c0,0.3,0,0.5,0,0.5l0,0.1c0,0.4-0.3,0.7-0.7,0.6c-0.4,0-0.6-0.3-0.6-0.6
					c0,0,0-0.2,0-0.5c0-0.4,0-0.9,0.1-1.6c0.2-1.4,0.9-3.3,2.2-5.4c1.4-2.1,3.4-4.3,5.9-6.6c2.5-2.3,5.5-4.6,8.9-7
					c6.7-4.9,14.9-10,23.4-15.7c4.2-2.9,8.6-5.9,12.7-9.3c4.1-3.4,8.1-7.1,11-11.5c0.3-0.6,0.7-1.1,1-1.7c0.2-0.3,0.3-0.6,0.4-0.8
					c0.1-0.3,0.3-0.6,0.4-0.9c0.5-1.2,0.9-2.6,1.4-3.8c0.9-2.6,1.8-5.1,2.8-7.7c1.8-5.1,3.6-10.1,5.4-14.9
					c3.5-9.7,6.7-18.8,9.4-26.5c5.5-15.5,9.1-25.9,9.1-25.9c0.4-1.1,1.5-1.6,2.6-1.2C196.7,174.9,197.3,176.1,196.9,177.2
					C196.9,177.2,196.9,177.2,196.9,177.2z"/>
			</g>
			<g>
				<g>
					<path class="st0" d="M223.8,82.8c0,0-0.4,0.3-1,0.9c-0.2,0.1-0.4,0.3-0.6,0.5c-0.2,0.2-0.5,0.4-0.7,0.6
						c-0.5,0.4-1.1,0.9-1.7,1.4c-1.3,1.1-2.9,2.4-4.8,3.8c-1.9,1.4-4,3-6.3,4.7c-4.6,3.4-10.2,7.1-16.1,11.2
						c-5.9,4-12.2,8.4-18.4,12.9c-3.1,2.3-6.1,4.6-9.1,6.9c-3,2.3-5.8,4.7-8.5,7c-2.7,2.4-5.2,4.7-7.5,7c-2.3,2.3-4.4,4.6-6.1,6.8
						c-1.8,2.2-3.3,4.3-4.5,6.2c-0.6,1-1.1,1.9-1.6,2.7c-0.5,0.9-0.8,1.7-1.2,2.4c-0.7,1.5-1.1,2.7-1.4,3.5
						c-0.3,0.8-0.4,1.3-0.4,1.3l0,0c-0.3,0.8-1.1,1.2-1.9,1s-1.2-1.1-1-1.9c0,0,0-0.1,0-0.1c0,0,0.2-0.5,0.5-1.3
						c0.4-0.9,0.9-2.1,1.7-3.6c0.4-0.7,0.9-1.6,1.4-2.5c0.6-0.9,1.1-1.8,1.8-2.8c0.7-0.9,1.4-2,2.3-3c0.4-0.5,0.8-1.1,1.3-1.6
						c0.5-0.5,0.9-1.1,1.4-1.6c1.9-2.2,4.1-4.5,6.5-6.7c2.4-2.3,5-4.6,7.7-6.9c2.7-2.3,5.7-4.6,8.6-6.9c3-2.3,6.1-4.6,9.1-6.8
						c3.1-2.3,6.2-4.5,9.3-6.7c3.1-2.2,6.1-4.3,9-6.4c5.8-4.1,11.2-8.1,15.7-11.6c2.3-1.7,4.3-3.4,6.1-4.9c1.8-1.5,3.3-2.8,4.5-3.9
						c0.6-0.6,1.1-1.1,1.6-1.5c0.2-0.2,0.4-0.4,0.6-0.6c0.2-0.2,0.4-0.4,0.5-0.5c0.6-0.6,1-1,1-1c0.6-0.6,1.5-0.6,2.1,0
						C224.5,81.2,224.5,82.1,223.8,82.8C223.9,82.8,223.9,82.8,223.8,82.8z"/>
				</g>
				<g>
					<path class="st0" d="M225.3,85.2c0,0-0.3,0.4-0.9,1c-0.3,0.3-0.7,0.7-1.1,1.2c-0.1,0.1-0.2,0.2-0.3,0.4l-0.1,0.1l-0.1,0.1l0,0
						l-0.2,0.2c-0.3,0.3-0.5,0.6-0.8,0.9c-0.6,0.6-1.3,1.3-2,2c-0.7,0.7-1.6,1.5-2.5,2.2c-1.8,1.6-3.8,3.2-6.1,5.1
						c-4.5,3.6-10,7.5-15.9,11.7c-2.9,2.1-6,4.2-9.1,6.4c-3.1,2.2-6.2,4.4-9.3,6.6c-3.1,2.2-6.2,4.5-9.2,6.8c-3,2.3-5.9,4.6-8.7,6.9
						c-2.8,2.3-5.4,4.6-7.8,6.8c-1.2,1.1-2.3,2.2-3.4,3.3c-1.1,1.1-2.1,2.1-3.1,3.2c-1,1-1.9,2.1-2.7,3.1c-0.8,1-1.6,2-2.3,2.9
						c-1.4,1.8-2.5,3.5-3.4,4.9c-0.2,0.3-0.4,0.7-0.6,1c-0.1,0.2-0.3,0.6-0.5,0.9c-0.3,0.6-0.6,1.1-0.8,1.5
						c-0.4,0.8-0.6,1.2-0.6,1.2c-0.4,0.7-1.3,1-2,0.6s-1-1.3-0.6-2c0,0,0-0.1,0-0.1c0,0,0.2-0.4,0.7-1.2c0.2-0.4,0.5-0.9,0.9-1.4
						c0.2-0.3,0.3-0.5,0.6-0.9c0.2-0.3,0.4-0.7,0.7-1c1-1.4,2.2-3.1,3.7-4.9c0.8-0.9,1.6-1.9,2.5-2.8c0.9-1,1.8-2,2.9-3
						c1-1.1,2.1-2.1,3.2-3.2c1.2-1,2.3-2.2,3.6-3.2c2.5-2.2,5.2-4.4,8-6.7c5.7-4.5,11.8-9.1,18.1-13.5c6.2-4.5,12.5-8.9,18.3-13.2
						c5.8-4.2,11.1-8.4,15.5-12c2.2-1.8,4.1-3.6,5.8-5.2c0.8-0.8,1.6-1.6,2.3-2.3c0.7-0.7,1.3-1.4,1.9-2c0.3-0.3,0.5-0.6,0.8-0.9
						l0.2-0.2l0-0.1l0,0c0-0.1-0.1,0.1,0,0l0,0l0.1-0.1c0.1-0.1,0.2-0.3,0.3-0.4c0.4-0.5,0.7-1,1-1.3c0.6-0.7,0.8-1.1,0.8-1.1
						c0.5-0.7,1.5-0.8,2.1-0.3C225.7,83.6,225.8,84.5,225.3,85.2C225.3,85.2,225.3,85.2,225.3,85.2z"/>
				</g>
				<g>
					<path class="st0" d="M226.1,87.6c0,0-0.1,0.1-0.2,0.3c-0.1,0.2-0.3,0.5-0.6,0.9c-0.5,0.8-1.2,1.9-2.3,3.3
						c-0.5,0.7-1.1,1.4-1.8,2.2c-0.7,0.8-1.4,1.7-2.3,2.5c-1.6,1.7-3.6,3.5-5.8,5.5c-2.2,1.9-4.6,3.9-7.3,5.9
						c-2.6,2-5.4,4.1-8.4,6.2c-2.9,2.1-6,4.3-9.1,6.5c-3.1,2.2-6.2,4.4-9.4,6.6c-3.1,2.2-6.3,4.5-9.3,6.7c-3.1,2.2-6,4.5-8.9,6.7
						c-2.8,2.2-5.5,4.4-8,6.6c-2.5,2.1-4.8,4.2-6.9,6.2c-2.1,2-3.9,3.9-5.4,5.6c-0.8,0.9-1.5,1.7-2.1,2.5c-0.6,0.8-1.2,1.5-1.7,2.1
						c-0.5,0.7-0.9,1.3-1.3,1.8c-0.4,0.5-0.7,1-0.9,1.4c-0.5,0.8-0.8,1.2-0.8,1.2c-0.5,0.7-1.4,0.9-2.1,0.4
						c-0.7-0.5-0.9-1.4-0.4-2.1c0,0,0-0.1,0.1-0.1c0,0,0.3-0.4,0.8-1.1c0.3-0.4,0.6-0.8,1-1.3c0.4-0.5,0.9-1.1,1.5-1.8
						c0.5-0.7,1.2-1.4,1.9-2.1c0.7-0.8,1.5-1.6,2.3-2.4c0.8-0.9,1.7-1.7,2.7-2.7c0.9-0.9,2-1.9,3-2.9c2.2-2,4.5-4,7.1-6.1
						c2.6-2.1,5.4-4.2,8.2-6.4c5.8-4.3,12-8.8,18.3-13.3c6.3-4.5,12.6-8.9,18.3-13.2c5.8-4.3,10.9-8.6,15.1-12.5
						c2.1-2,3.9-3.8,5.4-5.6c1.5-1.7,2.7-3.3,3.7-4.7c0.9-1.3,1.5-2.4,2-3.2c0.2-0.4,0.4-0.7,0.5-0.9c0.1-0.2,0.2-0.3,0.2-0.3
						c0.4-0.7,1.3-1,2-0.7S226.5,86.8,226.1,87.6C226.2,87.5,226.1,87.6,226.1,87.6z"/>
				</g>
				<g>
					<path class="st0" d="M226.5,89.5c0,0,0,0.1-0.1,0.3c-0.1,0.2-0.2,0.6-0.3,1c-0.3,0.9-0.8,2.2-1.7,3.8c-0.1,0.2-0.2,0.4-0.3,0.6
						l-0.2,0.4l-0.2,0.3c-0.2,0.4-0.5,0.8-0.8,1.2c-0.5,0.9-1.3,1.8-2,2.8c-1.5,1.9-3.3,3.9-5.4,6c-2.1,2-4.5,4.2-7.1,6.3
						c-2.6,2.1-5.4,4.3-8.3,6.4c-5.8,4.3-12.2,8.8-18.5,13.2c-3.2,2.2-6.3,4.5-9.4,6.6c-3.1,2.2-6.1,4.4-9,6.6
						c-5.8,4.3-11.1,8.5-15.4,12.3c-2.2,1.9-4.1,3.7-5.8,5.3c-1.7,1.6-3.1,3.1-4.2,4.3c-1.1,1.2-2,2.3-2.5,2.9
						c-0.6,0.7-0.9,1.1-0.9,1.1c-0.5,0.6-1.5,0.7-2.1,0.2c-0.6-0.5-0.7-1.5-0.2-2.1c0,0,0-0.1,0.1-0.1c0,0,0.3-0.4,0.9-1
						c0.6-0.7,1.6-1.6,2.8-2.9c1.2-1.2,2.7-2.6,4.5-4.2c1.8-1.6,3.8-3.3,6.1-5.2c2.3-1.8,4.7-3.8,7.4-5.8c2.7-2,5.5-4,8.4-6.2
						c5.9-4.2,12.3-8.6,18.6-13c3.2-2.2,6.3-4.5,9.4-6.7c3.1-2.2,6.1-4.5,8.9-6.7c2.9-2.2,5.6-4.4,8-6.6c2.5-2.2,4.7-4.3,6.7-6.4
						c2-2.1,3.6-4.1,5-5.9c0.6-1,1.2-1.8,1.7-2.7c0.2-0.4,0.5-0.9,0.7-1.3l0.2-0.3l0.1-0.2c0.1-0.2,0.2-0.4,0.3-0.6
						c0.7-1.5,1-2.7,1.3-3.5c0.1-0.4,0.2-0.7,0.2-0.9c0.1-0.2,0.1-0.3,0.1-0.3c0.2-0.8,1-1.3,1.8-1.1
						C226.2,87.8,226.7,88.6,226.5,89.5C226.5,89.4,226.5,89.5,226.5,89.5z"/>
				</g>
			</g>
			<g>
				<g>
					<path class="st0" d="M156.9,284.7c0,0-0.1,0.2-0.3,0.5c-0.2,0.4-0.5,0.8-0.9,1.5c-0.2,0.3-0.5,0.7-0.7,1.1
						c-0.3,0.4-0.6,0.8-0.9,1.2c-0.7,0.9-1.4,1.8-2.3,2.8c-1.8,2-4,4.1-6.5,6.2c-2.5,2.1-5.2,4.2-8,6.3c-5.5,4.1-11.2,8-15,11.4
						c-1.9,1.7-3.3,3.3-3.9,4.5c-0.2,0.3-0.3,0.6-0.4,0.8c-0.1,0.2-0.2,0.4-0.2,0.6c-0.1,0.3-0.1,0.5-0.1,0.5l0,0.1
						c-0.1,0.4-0.4,0.6-0.8,0.5c-0.4-0.1-0.6-0.4-0.5-0.8c0,0,0-0.2,0.1-0.7c0-0.2,0.1-0.5,0.2-0.8c0.1-0.3,0.3-0.6,0.4-1
						c0.7-1.5,2.2-3.2,4.1-5c3.8-3.6,9.4-7.7,14.8-11.9c2.7-2.1,5.3-4.3,7.7-6.4c2.4-2.1,4.4-4.2,6.1-6.2c0.8-1,1.5-1.9,2.1-2.7
						c0.3-0.4,0.6-0.8,0.8-1.2c0.2-0.4,0.4-0.7,0.6-1c0.4-0.6,0.6-1.1,0.8-1.5c0.2-0.4,0.3-0.5,0.3-0.5c0.4-0.7,1.3-1,2-0.6
						C157.1,283,157.3,283.9,156.9,284.7C156.9,284.6,156.9,284.7,156.9,284.7z"/>
				</g>
				<g>
					<path class="st0" d="M157.5,280.9c0,0-0.1,0.2-0.4,0.5c-0.3,0.4-0.6,0.9-1.2,1.5c-0.3,0.3-0.6,0.7-0.9,1.1
						c-0.3,0.4-0.7,0.8-1.1,1.2c-0.8,0.9-1.8,1.8-2.8,2.8c-2.1,2-4.7,4.1-7.6,6.3c-2.9,2.2-6,4.4-9.1,6.5
						c-6.2,4.3-12.5,8.6-16.6,12.4c-1,1-1.9,1.9-2.5,2.8c-0.6,0.9-1.2,1.7-1.4,2.4c-0.1,0.2-0.1,0.3-0.2,0.5c0,0.2-0.1,0.3-0.1,0.4
						c-0.1,0.3-0.1,0.5-0.1,0.7c0,0.4-0.1,0.6-0.1,0.6l0,0.1c0,0.4-0.4,0.6-0.7,0.6c-0.4,0-0.6-0.3-0.6-0.7c0,0,0-0.3,0-0.8
						c0-0.3,0.1-0.6,0.2-0.9c0-0.2,0.1-0.4,0.1-0.6c0.1-0.2,0.1-0.4,0.2-0.6c0.3-0.9,0.9-1.8,1.6-2.8c0.7-1,1.6-2,2.6-3
						c4.1-4.1,10.4-8.5,16.5-13c3.1-2.2,6.1-4.5,8.8-6.7c2.8-2.2,5.2-4.4,7.2-6.3c1-1,1.9-1.9,2.6-2.7c0.4-0.4,0.7-0.8,1-1.2
						c0.3-0.4,0.6-0.7,0.8-1c0.5-0.6,0.9-1.2,1.1-1.5c0.3-0.4,0.4-0.6,0.4-0.6c0.5-0.6,1.3-0.8,2-0.3
						C157.8,279.4,158,280.3,157.5,280.9C157.5,280.9,157.5,280.9,157.5,280.9z"/>
				</g>
				<g>
					<path class="st0" d="M157.5,277.2c0,0-0.2,0.2-0.5,0.5c-0.3,0.4-0.8,0.9-1.5,1.5c-0.7,0.7-1.5,1.4-2.4,2.3
						c-0.9,0.9-2,1.8-3.2,2.8c-4.8,4-11.7,8.6-18.5,13.2c-6.8,4.6-13.7,9.1-17.9,13.5c-1.1,1.1-1.9,2.1-2.6,3.1
						c-0.3,0.5-0.7,1-0.9,1.4c-0.1,0.2-0.2,0.4-0.3,0.7c-0.1,0.2-0.2,0.4-0.2,0.6c-0.2,0.4-0.2,0.7-0.3,1.1c0,0.2-0.1,0.3-0.1,0.4
						c0,0.1,0,0.3,0,0.4c0,0.4,0,0.7,0,0.7l0,0.1c0,0.4-0.3,0.7-0.7,0.6c-0.4,0-0.7-0.3-0.6-0.7c0,0,0-0.3,0-0.8c0-0.1,0-0.3,0-0.4
						c0-0.2,0.1-0.3,0.1-0.5c0.1-0.4,0.1-0.8,0.3-1.3c0.1-0.2,0.2-0.5,0.2-0.7c0.1-0.2,0.2-0.5,0.4-0.7c0.2-0.5,0.6-1,0.9-1.6
						c0.7-1.1,1.6-2.2,2.7-3.4c4.3-4.6,11.2-9.3,17.9-14.1c6.7-4.7,13.4-9.5,18-13.4c1.2-1,2.2-1.9,3.1-2.8c0.9-0.8,1.6-1.6,2.2-2.2
						c0.6-0.6,1.1-1.2,1.4-1.5c0.3-0.4,0.5-0.6,0.5-0.6c0.5-0.6,1.4-0.6,2-0.1C158,275.8,158,276.6,157.5,277.2
						C157.5,277.2,157.5,277.2,157.5,277.2z"/>
				</g>
				<g>
					<path class="st0" d="M156.8,273.7c0,0-0.2,0.2-0.6,0.5c-0.4,0.3-0.9,0.9-1.7,1.5c-0.7,0.7-1.7,1.4-2.7,2.3
						c-1.1,0.8-2.3,1.8-3.6,2.8c-5.3,4-12.7,8.7-20,13.5c-7.3,4.8-14.6,9.7-19,14.4c-1.1,1.2-2,2.3-2.7,3.4c-0.3,0.5-0.7,1-0.9,1.6
						c-0.1,0.2-0.2,0.5-0.3,0.7c-0.1,0.2-0.2,0.5-0.2,0.7c-0.2,0.4-0.2,0.8-0.3,1.1c-0.1,0.3-0.1,0.6-0.1,0.9c0,0.5,0,0.7,0,0.7
						l0,0.1c0,0.4-0.3,0.7-0.7,0.6c-0.4,0-0.6-0.3-0.6-0.7c0,0,0-0.3,0-0.9c0-0.3,0-0.6,0.1-1c0.1-0.4,0.1-0.9,0.3-1.3
						c0.1-0.2,0.2-0.5,0.2-0.8c0.1-0.3,0.2-0.5,0.3-0.8c0.2-0.6,0.6-1.1,0.9-1.7c0.7-1.2,1.7-2.4,2.8-3.7c4.5-5,11.8-10.1,19-15
						c7.3-4.9,14.5-9.8,19.7-13.8c1.3-1,2.4-1.9,3.5-2.8c1-0.8,1.9-1.6,2.6-2.2c0.7-0.6,1.2-1.2,1.6-1.5c0.4-0.4,0.6-0.5,0.6-0.5
						c0.5-0.5,1.4-0.5,1.9,0C157.4,272.3,157.4,273.1,156.8,273.7C156.9,273.7,156.9,273.7,156.8,273.7z"/>
				</g>
			</g>
			<g>
				<g>
					<path class="st0" d="M162.7,72c0,0,0.1-0.2,0.2-0.5c0.2-0.3,0.3-0.8,0.6-1.5c0.2-0.3,0.3-0.7,0.5-1.1c0.2-0.4,0.4-0.8,0.7-1.2
						c0.5-0.8,1.1-1.8,1.8-2.7c0.7-1,1.5-2,2.4-3c0.9-1,1.9-2.1,2.9-3.1c2.1-2.1,4.4-4.1,6.8-6.1c4.8-3.9,9.8-7.5,13.3-10.4
						c1.7-1.5,3.1-2.8,3.9-3.8c0.4-0.5,0.6-0.9,0.8-1.2c0.1-0.3,0.2-0.4,0.2-0.4l0-0.1c0.2-0.3,0.5-0.5,0.9-0.3
						c0.3,0.2,0.5,0.5,0.3,0.8c0,0-0.1,0.2-0.2,0.6c-0.2,0.4-0.4,0.9-0.9,1.4c-0.8,1.2-2.2,2.6-3.9,4.1c-3.5,3.1-8.4,6.8-12.9,10.9
						c-2.3,2-4.5,4.1-6.4,6.2c-0.9,1-1.8,2.1-2.6,3.1c-0.8,1-1.5,2-2.1,2.9c-0.6,0.9-1.1,1.8-1.6,2.6c-0.4,0.8-0.8,1.5-1,2
						c-0.3,0.5-0.4,1.1-0.6,1.4c-0.1,0.3-0.2,0.5-0.2,0.5c-0.3,0.8-1.2,1.2-1.9,0.9C162.7,73.7,162.3,72.8,162.7,72
						C162.6,72,162.7,72,162.7,72z"/>
				</g>
				<g>
					<path class="st0" d="M161.6,75.7c0,0,0.1-0.2,0.3-0.5c0.2-0.4,0.5-0.8,0.9-1.5c0.2-0.3,0.5-0.7,0.7-1.1
						c0.3-0.4,0.6-0.8,0.9-1.2c0.7-0.9,1.4-1.8,2.3-2.8c1.8-2,4-4.1,6.5-6.2c2.5-2.1,5.2-4.2,8-6.3c5.5-4.1,11.2-8,15-11.4
						c1.9-1.7,3.3-3.3,3.9-4.5c0.2-0.3,0.3-0.6,0.4-0.8c0.1-0.2,0.2-0.4,0.2-0.6c0.1-0.3,0.1-0.5,0.1-0.5l0-0.1
						c0.1-0.4,0.4-0.6,0.8-0.5c0.4,0.1,0.6,0.4,0.5,0.8c0,0,0,0.2-0.1,0.7c0,0.2-0.1,0.5-0.2,0.8c-0.1,0.3-0.3,0.6-0.4,1
						c-0.7,1.5-2.2,3.2-4.1,5c-3.8,3.6-9.4,7.7-14.8,11.9c-2.7,2.1-5.3,4.3-7.7,6.4c-2.4,2.1-4.4,4.2-6.1,6.2
						c-0.8,1-1.5,1.9-2.1,2.7c-0.3,0.4-0.6,0.8-0.8,1.2c-0.2,0.4-0.4,0.7-0.6,1c-0.4,0.6-0.6,1.1-0.8,1.5c-0.2,0.4-0.3,0.5-0.3,0.5
						c-0.4,0.7-1.3,1-2,0.6C161.5,77.3,161.2,76.4,161.6,75.7C161.6,75.7,161.6,75.7,161.6,75.7z"/>
				</g>
				<g>
					<path class="st0" d="M161,79.4c0,0,0.1-0.2,0.4-0.5c0.3-0.4,0.6-0.9,1.2-1.5c0.3-0.3,0.6-0.7,0.9-1.1c0.3-0.4,0.7-0.8,1.1-1.2
						c0.8-0.9,1.8-1.8,2.8-2.8c2.1-2,4.7-4.1,7.6-6.3c2.9-2.2,6-4.4,9.1-6.5c6.2-4.3,12.5-8.6,16.6-12.4c1-1,1.8-1.9,2.5-2.8
						c0.6-0.9,1.2-1.7,1.4-2.4c0.1-0.2,0.1-0.3,0.2-0.5c0-0.2,0.1-0.3,0.1-0.4c0.1-0.3,0.1-0.5,0.1-0.7c0-0.4,0.1-0.6,0.1-0.6l0-0.1
						c0-0.4,0.4-0.6,0.7-0.6c0.4,0,0.6,0.3,0.6,0.7c0,0,0,0.3,0,0.8c0,0.3-0.1,0.6-0.1,0.9c0,0.2-0.1,0.4-0.1,0.6
						c-0.1,0.2-0.1,0.4-0.2,0.6c-0.3,0.9-0.9,1.8-1.6,2.8c-0.7,1-1.6,2-2.6,3c-4.1,4.1-10.4,8.5-16.5,13c-3.1,2.2-6.1,4.5-8.8,6.7
						c-2.8,2.2-5.2,4.4-7.2,6.3c-1,1-1.9,1.9-2.6,2.7c-0.4,0.4-0.7,0.8-1,1.2c-0.3,0.4-0.6,0.7-0.8,1c-0.5,0.6-0.9,1.2-1.1,1.5
						c-0.3,0.4-0.4,0.6-0.4,0.6c-0.5,0.6-1.3,0.8-2,0.3C160.7,81,160.5,80.1,161,79.4C161,79.4,161,79.4,161,79.4z"/>
				</g>
				<g>
					<path class="st0" d="M161,83.1c0,0,0.2-0.2,0.5-0.5c0.3-0.4,0.8-0.9,1.5-1.5c0.7-0.7,1.5-1.4,2.4-2.3c0.9-0.9,2-1.8,3.2-2.8
						c4.8-4,11.7-8.6,18.5-13.2c6.8-4.6,13.7-9.2,17.9-13.5c1.1-1.1,1.9-2.1,2.6-3.1c0.3-0.5,0.7-1,0.9-1.4c0.1-0.2,0.2-0.4,0.3-0.7
						c0.1-0.2,0.2-0.4,0.2-0.6c0.2-0.4,0.2-0.7,0.3-1.1c0-0.2,0.1-0.3,0.1-0.4c0-0.1,0-0.3,0-0.4c0-0.4,0-0.7,0-0.7l0-0.1
						c0-0.4,0.3-0.7,0.7-0.7c0.4,0,0.7,0.3,0.7,0.7c0,0,0,0.3,0,0.8c0,0.1,0,0.3,0,0.4c0,0.2-0.1,0.3-0.1,0.5
						c-0.1,0.4-0.1,0.8-0.3,1.3c-0.1,0.2-0.2,0.5-0.2,0.7c-0.1,0.2-0.2,0.5-0.4,0.7c-0.2,0.5-0.6,1-0.9,1.6
						c-0.7,1.1-1.6,2.2-2.7,3.4c-4.4,4.6-11.2,9.3-17.9,14.1c-6.7,4.7-13.4,9.5-18,13.4c-1.2,1-2.2,1.9-3.1,2.8
						c-0.9,0.8-1.6,1.6-2.2,2.2c-0.6,0.6-1.1,1.2-1.4,1.5c-0.3,0.4-0.5,0.6-0.5,0.6c-0.5,0.6-1.4,0.6-2,0.1S160.5,83.7,161,83.1
						C161,83.1,161,83.1,161,83.1z"/>
				</g>
				<g>
					<path class="st0" d="M161.7,86.7c0,0,0.2-0.2,0.6-0.5c0.4-0.3,0.9-0.9,1.7-1.5c0.7-0.7,1.7-1.4,2.7-2.3
						c1.1-0.8,2.3-1.8,3.6-2.8c5.3-4,12.7-8.7,20-13.5c7.3-4.8,14.6-9.7,19-14.4c1.1-1.2,2-2.3,2.7-3.4c0.3-0.5,0.7-1,0.9-1.5
						c0.1-0.2,0.2-0.5,0.3-0.7c0.1-0.2,0.2-0.5,0.2-0.7c0.2-0.4,0.2-0.8,0.3-1.1c0.1-0.3,0.1-0.6,0.1-0.9c0-0.5,0-0.7,0-0.7l0-0.1
						c0-0.4,0.3-0.7,0.7-0.7c0.4,0,0.7,0.3,0.7,0.7c0,0,0,0.3,0,0.9c0,0.3,0,0.6-0.1,1c-0.1,0.4-0.1,0.9-0.3,1.3
						c-0.1,0.2-0.2,0.5-0.2,0.8c-0.1,0.3-0.2,0.5-0.3,0.8c-0.2,0.6-0.6,1.1-0.9,1.7c-0.7,1.2-1.7,2.4-2.8,3.7
						c-4.5,5-11.8,10.1-19,15c-7.3,4.9-14.5,9.8-19.7,13.8c-1.3,1-2.4,1.9-3.5,2.8c-1,0.8-1.9,1.6-2.6,2.2c-0.7,0.6-1.2,1.2-1.6,1.5
						c-0.4,0.4-0.6,0.5-0.6,0.5c-0.5,0.5-1.4,0.5-1.9,0C161.1,88.1,161.1,87.2,161.7,86.7C161.7,86.7,161.7,86.7,161.7,86.7z"/>
				</g>
			</g>
		</g>
		<g>
			<g>
				<path class="st0" d="M59.4,271c-0.1-0.2-0.9-1.9-0.4-4.6c0.4-2.7,1.8-6.2,4.1-10.2c2.3-4,5.7-8.5,10-13.2
					c4.3-4.7,9.5-9.7,15.3-14.8c11.7-10.3,26.2-21.2,41.9-32.6c15.7-11.4,32.7-23.2,49.6-35.2c16.8-12.1,33.5-24.4,48.3-36.9
					c7.4-6.3,14.3-12.6,20.3-19.1c6-6.5,11.2-13.1,14.7-19.9c1.7-3.4,3-6.8,3.3-10.1c0.3-3.3-0.7-6.4-2.8-8.3c-2-2-4.7-2.9-7.2-3.2
					c-2.5-0.3-4.9,0-7,0.5c-4.1,1.1-6.9,3.1-8.6,4.6c-0.8,0.8-1.4,1.4-1.8,1.8c-0.4,0.4-0.6,0.7-0.6,0.7l0,0.1
					c-0.5,0.6-1.5,0.7-2.1,0.2c-0.6-0.5-0.7-1.5-0.2-2.1c0,0,0,0,0,0c0,0,0.2-0.3,0.7-0.8c0.5-0.5,1.1-1.2,2.1-2.1
					c2-1.7,5.2-3.9,9.9-5c2.3-0.5,5-0.8,7.9-0.4c2.9,0.4,6.1,1.5,8.6,4.1c1.2,1.3,2.2,2.9,2.7,4.6c0.6,1.8,0.7,3.7,0.5,5.5
					c-0.3,3.8-1.8,7.4-3.6,10.9c-3.7,7-9.1,13.7-15.2,20.2c-6.2,6.5-13.2,12.8-20.6,19c-14.9,12.5-31.6,24.8-48.5,36.8
					c-16.8,12.1-33.8,23.9-49.5,35.4c-15.7,11.4-30,22.6-41.5,32.9c-5.8,5.2-10.8,10.2-14.9,14.9c-4.1,4.7-7.3,9.1-9.4,13
					c-2.1,3.9-3.3,7.1-3.5,9.3c-0.1,1.1,0,1.8,0.1,2.3c0,0.2,0.1,0.4,0.1,0.4c0,0,0,0.1,0,0c0,0,0,0,0,0c0.4,0.7,0.1,1.6-0.6,2
					C60.7,272,59.8,271.7,59.4,271z"/>
			</g>
			<g>
				<path class="st0" d="M61.8,269.3c0,0,0.2,0.2,0.5,0.6c0.3,0.3,0.8,1.1,1.3,2.1c0.2,0.5,0.4,1,0.6,1.6c0.2,0.6,0.3,1.2,0.4,1.8
					c0.1,0.7,0.2,1.4,0.3,2.1c0.1,0.7,0.1,1.5,0.2,2.3c0.1,1.6,0.1,3.3,0,5.1c-0.1,1.8-0.2,3.7-0.4,5.6c-0.2,1.9-0.4,3.9-0.8,6
					c-0.3,2-0.6,4.1-1,6.1c-3,16.3-7.8,32.2-7.8,32.2c-0.1,0.3-0.5,0.5-0.8,0.4c-0.3-0.1-0.5-0.5-0.4-0.8c0,0,1.1-4,2.5-10
					c1.4-6,3.2-14.1,4.4-22.2c0.3-2,0.6-4.1,0.8-6.1c0.3-2,0.4-4,0.6-5.9c0.2-1.9,0.2-3.7,0.3-5.5c0-1.7,0-3.4-0.1-4.9
					c-0.1-0.7-0.2-1.4-0.2-2.1c-0.1-0.7-0.2-1.3-0.3-1.9c-0.2-0.6-0.3-1.1-0.4-1.6c-0.2-0.5-0.3-0.9-0.5-1.2c-0.3-0.6-0.5-1-0.9-1.4
					c-0.3-0.4-0.5-0.6-0.5-0.6l0,0c-0.5-0.6-0.4-1.6,0.2-2.1S61.3,268.6,61.8,269.3C61.8,269.3,61.8,269.3,61.8,269.3z"/>
			</g>
			<g>
				<path class="st0" d="M259,144.7C259,144.7,259.1,144.7,259,144.7c0.1,0.1,0.2,0.2,0.3,0.2c0.2,0.1,0.5,0.4,0.8,0.7
					c0.6,0.6,1.4,1.7,1.7,3.3c0.3,1.6,0.1,3.5-0.6,5.4c-0.3,0.9-0.8,1.9-1.3,2.9c-0.5,1-1.1,2-1.8,3c-2.7,4.1-6.7,8.5-11.5,13.2
					c-4.9,4.7-10.6,9.6-17,14.8c-12.8,10.4-28.3,21.7-44.9,33.8c-16.6,12.1-34.3,25.1-51.5,38.6c-17.2,13.6-33.9,27.7-48.2,42.5
					c-7.1,7.4-13.6,14.9-18.9,22.6c-2.7,3.8-5.1,7.7-7.1,11.6c-2,3.9-3.7,7.8-4.9,11.6c-1.1,3.8-1.4,7.7-0.5,11.1
					c0.4,1.7,1.2,3.2,2.2,4.4c1,1.2,2.3,1.9,3.7,2.2c1.4,0.3,2.9,0.2,4.2-0.2c1.4-0.4,2.7-1,3.9-1.6c2.4-1.3,4.4-3,6.1-4.6
					c3.4-3.2,5.7-6.1,7.2-8.1c1.5-2,2.3-3.1,2.3-3.1c0.5-0.7,1.4-0.9,2.1-0.4s0.9,1.4,0.4,2.1c0,0,0,0,0,0l0,0c0,0-0.8,1.1-2.4,3.2
					c-1.6,2-4.1,5-7.7,8.3c-1.8,1.6-4,3.4-6.7,4.8c-1.3,0.7-2.8,1.4-4.5,1.8c-1.6,0.4-3.5,0.6-5.4,0.1c-1.9-0.4-3.7-1.5-4.9-3
					c-1.3-1.5-2.1-3.4-2.6-5.4c-0.9-3.9-0.5-8.1,0.6-12.2c2.5-8.1,7-15.9,12.5-23.6c5.5-7.7,12.1-15.2,19.3-22.6
					c14.4-14.8,31.2-28.9,48.5-42.4c17.2-13.6,34.9-26.6,51.4-38.8c16.5-12.2,31.8-23.7,44.5-34.2c6.3-5.2,11.9-10.2,16.6-14.9
					c4.7-4.7,8.4-9.1,10.9-13c0.6-1,1.2-1.9,1.6-2.8c0.5-0.9,0.8-1.7,1.1-2.6c0.5-1.6,0.6-2.9,0.4-3.9c-0.2-1-0.6-1.5-1-1.8
					c-0.2-0.2-0.3-0.3-0.4-0.3c0,0,0,0,0,0c0,0,0,0,0,0l0,0c-0.7-0.4-0.9-1.3-0.5-2.1C257.4,144.5,258.3,144.3,259,144.7
					C259,144.7,259,144.7,259,144.7z"/>
			</g>
			<g>
				<path class="st0" d="M257,146.8c0,0-0.1-0.2-0.3-0.5c-0.2-0.3-0.5-0.9-0.8-1.7c-0.2-0.7-0.5-1.6-0.6-2.6c-0.2-1-0.3-2.1-0.3-3.3
					c-0.1-1.2-0.1-2.5,0-3.9c0.1-1.4,0.1-2.8,0.3-4.3c0.2-2.9,0.6-6.1,1.1-9.1c1.9-12.4,5-24.4,5-24.4c0.1-0.3,0.4-0.6,0.8-0.5
					c0.3,0.1,0.5,0.4,0.5,0.8c0,0-0.7,3-1.5,7.6c-0.9,4.6-1.9,10.7-2.6,16.8c-0.4,3.1-0.6,6.1-0.8,9c-0.1,1.4-0.1,2.8-0.1,4.1
					c0,1.3,0.1,2.5,0.1,3.7c0.1,1.1,0.2,2.1,0.4,3c0.2,0.9,0.4,1.6,0.6,2.1c0.2,0.5,0.3,0.8,0.6,1.1c0.2,0.3,0.3,0.5,0.3,0.5l0,0
					c0.4,0.7,0.2,1.6-0.5,2.1C258.4,147.7,257.5,147.5,257,146.8C257,146.8,257,146.8,257,146.8z"/>
			</g>
			<g>
				<path class="st0" d="M70.7,269.7c0,0,0,0-0.1,0c0,0-0.1,0-0.2,0c-0.1,0-0.3-0.1-0.6-0.1c-0.4-0.1-0.9-0.3-1.4-0.7
					c-0.5-0.4-0.8-1-1-1.6c-0.3-1.2-0.2-2.2,0.1-3.3c0.3-1.1,0.6-2.1,1.1-3.3c0.2-0.5,0.5-1.1,0.8-1.7c0.3-0.6,0.5-1.2,0.9-1.9
					c0.7-1.3,1.4-2.8,2.3-4.2c0.4-0.7,0.9-1.5,1.3-2.2c0.5-0.7,1-1.5,1.5-2.3c1-1.6,2.2-3.2,3.4-4.8c2.4-3.3,5.2-6.8,8.2-10.4
					c3-3.6,6.3-7.2,9.9-10.9c3.6-3.7,7.3-7.4,11.5-10.8c0.3-0.2,0.5-0.4,0.9-0.6c0.3-0.2,0.6-0.4,0.9-0.6c0.3-0.2,0.7-0.3,1.1-0.4
					c0.4-0.1,1-0.2,1.6,0.1c0.6,0.3,0.9,0.9,1,1.3c0.1,0.4,0.2,0.8,0.2,1.2c0,0.8-0.1,1.5-0.2,2.2c-0.5,2.8-1.3,5.4-2.2,8
					c-1.7,5.2-3.8,10.2-5.8,15.2c-2,4.9-4,9.8-5.9,14.5c-3.9,9.4-7.4,18.2-10.2,25.8c-2.8,7.6-4.7,14.1-5.5,18.5
					c-0.4,2.2-0.3,4-0.1,4.6c0.1,0.3,0.2,0.3,0.1,0.3c0,0-0.1-0.1-0.1-0.1c1,0.5,1.4,1.7,0.9,2.7s-1.7,1.4-2.7,0.9
					c0,0-0.1,0-0.2-0.1c-0.2-0.1-0.4-0.2-0.7-0.5c-0.5-0.5-1-1.3-1.2-2.2c-0.4-1.8-0.1-3.8,0.4-6.3c1-4.9,3.4-11.3,6.4-18.8
					c3-7.6,6.9-16.3,10.9-25.6c2-4.7,4.1-9.5,6.1-14.4c2-4.9,4-9.9,5.8-15c0.8-2.5,1.7-5.1,2.1-7.7c0.1-0.6,0.2-1.3,0.1-1.8
					c0-0.3,0-0.6-0.1-0.8c-0.1-0.2-0.1-0.2-0.1-0.2c0-0.1-0.6,0-1.1,0.3c-0.3,0.1-0.5,0.3-0.8,0.5c-0.2,0.2-0.5,0.3-0.8,0.6
					c-4,3.2-7.7,7.1-11.2,10.7c-3.5,3.7-6.6,7.4-9.5,11c-2.9,3.6-5.5,7.1-7.8,10.4c-1.1,1.7-2.2,3.3-3.1,4.8
					c-0.5,0.8-0.9,1.5-1.4,2.3c-0.4,0.8-0.8,1.5-1.2,2.2c-0.8,1.4-1.4,2.8-2,4c-0.1,0.3-0.3,0.6-0.4,0.9c-0.1,0.3-0.2,0.6-0.4,0.9
					c-0.2,0.6-0.5,1.2-0.7,1.7c-0.4,1-0.7,2-0.8,2.7c-0.1,0.7-0.1,1.3,0,1.4c0,0,0-0.1-0.1-0.2c-0.1-0.1-0.2-0.1-0.3-0.2
					c0,0-0.1,0-0.1,0c0.1,0,0.1,0,0.2,0c0.1,0,0.1,0,0.1,0c1.1,0,2,1,1.9,2.1c0,1.1-1,2-2.1,1.9C70.8,269.7,70.7,269.7,70.7,269.7
					L70.7,269.7z"/>
			</g>
			<g>
				<path class="st0" d="M179.1,189.3c0,0,0,0-0.1-0.1c0,0,0,0-0.1,0c0,0-0.1-0.1-0.1-0.1c-0.2-0.1-0.4-0.2-0.5-0.4
					c-0.6-0.5-1.1-1.6-1.2-2.5c-0.1-0.9,0.1-1.8,0.3-2.8c0.1-0.5,0.3-1,0.5-1.5c0.1-0.3,0.2-0.5,0.3-0.8c0.1-0.2,0.2-0.5,0.3-0.7
					c0.4-1,1-2.2,1.6-3.4c0.6-1.2,1.3-2.5,2.1-3.8c1.6-2.7,3.5-5.6,5.7-8.7c4.4-6.2,10-12.9,16.4-19.8c3.2-3.4,6.6-6.9,10.3-10.3
					c0.9-0.8,1.9-1.7,2.8-2.5c1-0.8,2-1.6,3.3-2.2c0.3-0.1,0.7-0.3,1.1-0.4c0.4-0.1,0.9-0.1,1.5,0.1c0.6,0.2,0.9,0.8,1,1.2
					c0.2,0.4,0.2,0.8,0.2,1.2c0.1,1.4-0.2,2.7-0.5,4c-1.2,5-3,9.6-4.8,14.2c-1.8,4.6-3.6,9.1-5.4,13.4c-3.5,8.7-6.8,16.8-9.3,23.8
					c-2.5,7-4.3,13-4.8,17.1c-0.3,2-0.2,3.6,0.1,4.1c0.1,0.3,0.2,0.2,0.2,0.2c0,0,0,0,0,0c1,0.5,1.4,1.7,0.9,2.7
					c-0.5,1-1.7,1.4-2.7,0.9c0,0-0.1,0-0.2-0.1c-0.1-0.1-0.3-0.2-0.6-0.4c-0.5-0.4-1-1.1-1.3-2c-0.5-1.7-0.4-3.7,0-6
					c0.8-4.6,3-10.5,5.8-17.5c2.8-7,6.3-15,10-23.6c1.8-4.3,3.8-8.7,5.6-13.3c1.8-4.6,3.6-9.2,4.8-14c0.3-1.2,0.5-2.4,0.4-3.5
					c0-0.5-0.2-0.9-0.3-0.9c-0.1-0.1-0.6,0-1.1,0.3c-1,0.5-1.9,1.2-2.9,2c-0.9,0.8-1.8,1.6-2.7,2.4c-3.6,3.3-6.9,6.8-10,10.3
					c-6.2,6.9-11.5,13.9-15.7,20c-2.1,3.1-3.8,6-5.2,8.6c-0.7,1.3-1.3,2.6-1.8,3.7c-0.5,1.2-0.9,2.2-1.3,3.2
					c-0.1,0.3-0.2,0.5-0.3,0.8c-0.1,0.2-0.1,0.4-0.2,0.6c-0.1,0.4-0.2,0.8-0.3,1.2c-0.1,0.7-0.1,1.3-0.1,1.5c0.1,0.3,0.1,0-0.1-0.1
					c-0.1-0.1-0.1-0.1-0.2-0.1l0,0l0,0c0,0,0,0,0.1,0c0.1,0,0.1,0,0.1,0c1,0.4,1.5,1.6,1.1,2.6s-1.6,1.5-2.6,1.1
					C179.2,189.3,179.1,189.3,179.1,189.3L179.1,189.3z"/>
			</g>
			<g>
				<path class="st0" d="M130.7,197.9c0,0-0.1,0.4-0.3,1c-0.2,0.7-0.5,1.6-0.9,2.9c-0.4,1.3-0.9,2.8-1.5,4.6c-0.3,0.9-0.6,1.8-1,2.7
					c-0.4,1-0.7,2-1.1,3c-0.8,2.1-1.7,4.4-2.6,6.8c-1,2.4-2,4.9-3,7.5c-1,2.6-2.1,5.3-3.2,8c-1.1,2.7-2.2,5.5-3.3,8.2
					c-1.1,2.8-2.1,5.6-3.2,8.3c-1,2.7-2,5.5-2.9,8.1c-0.9,2.6-1.7,5.2-2.5,7.6c-0.7,2.4-1.4,4.8-1.9,6.9c-1.1,4.3-1.6,7.9-1.7,10.4
					c-0.1,1.2,0,2.2,0.1,2.8c0.1,0.6,0.1,0.9,0.1,0.9l0,0.2c0.2,1.1-0.6,2.1-1.7,2.3c-1.1,0.2-2.1-0.6-2.3-1.7c0-0.1,0-0.2,0-0.2
					c0,0,0-0.4,0-1.2c0-0.4,0-0.9,0.1-1.4c0-0.5,0.1-1.2,0.2-1.9c0.2-1.4,0.5-3,0.9-4.8c0.4-1.8,1-3.8,1.7-6
					c0.7-2.2,1.5-4.5,2.3-6.9c0.8-2.4,1.8-5,2.8-7.6c1-2.6,2.1-5.3,3.1-8c1.1-2.7,2.2-5.5,3.3-8.3c1.1-2.8,2.2-5.5,3.2-8.3
					c1.1-2.7,2.1-5.4,3.1-8c1-2.6,1.9-5.2,2.7-7.6c0.8-2.4,1.6-4.7,2.2-6.8c0.7-2.1,1.2-4.1,1.6-5.8c0.5-1.7,0.8-3.3,1.1-4.5
					c0.3-1.2,0.4-2.3,0.5-2.9c0.1-0.7,0.2-1.1,0.2-1.1c0.2-1.1,1.2-1.8,2.3-1.7c1.1,0.2,1.8,1.2,1.7,2.3
					C130.7,197.7,130.7,197.8,130.7,197.9z"/>
			</g>
			<g>
				<path class="st0" d="M145.2,220c0,0-1.1,2.5-3,6.9c-1,2.2-2.1,4.8-3.5,7.9c-1.3,3-2.9,6.5-4.6,10.2c-0.9,1.9-1.8,3.8-2.7,5.8
					c-0.9,2-1.9,4.1-3,6.1c-2.2,4.2-4.3,8.6-7.3,12.9c-0.4,0.5-0.8,1.1-1.2,1.6c-0.1,0.1-0.2,0.3-0.4,0.4c-0.2,0.1-0.2,0.2-0.4,0.4
					c-0.2,0.1-0.6,0.5-1.4,0.6c-0.1,0-0.2,0-0.3,0c-0.1,0-0.2-0.1-0.4-0.2c-0.2-0.1-0.3-0.3-0.5-0.5c-0.1-0.1-0.1-0.3-0.2-0.4
					l-0.1-0.4c0-0.4,0-0.8,0-1.2c0.1-0.7,0.2-1.4,0.3-2.1c0.5-2.6,1.2-5.2,1.9-7.8c1.4-5.2,3-10.4,4.6-15.6c0.8-2.6,1.6-5.2,2.3-7.8
					c0.7-2.6,1.6-5.2,2.1-7.6c0.1-0.3,0.1-0.6,0.1-0.8c0-0.1,0-0.2,0-0.3c0-0.1,0-0.1,0,0.1c0,0,0.1,0.2,0.1,0.3
					c0,0.1,0.1,0.1,0.1,0.2c0,0,0.2,0.2,0.3,0.3c0.1,0.1,0.3,0.2,0.4,0.2c0.1,0.1,0.9,0.2,0.5,0.1c0,0-0.1,0,0,0c0.1,0,0.2,0,0.4,0
					c0.1,0,0.2,0,0.4-0.1c0.1,0,0,0,0.1,0c0,0,0,0,0,0c0,0,0,0-0.1,0c-0.1,0.1-0.4,0.3-0.6,0.5c-0.8,0.8-1.7,1.8-2.6,2.7
					c-1.7,1.9-3.3,3.9-4.8,5.9c-3,4-5.9,8-8.2,12c-2.4,4-4.3,7.9-6,11.6c-1.6,3.7-3,7.2-3.9,10.3c-1,3.1-1.7,5.9-2.1,8.2
					c-0.4,2.3-0.7,4.1-0.8,5.4c-0.1,1.3-0.2,1.9-0.2,1.9c0,0.5-0.5,0.9-1,0.9s-0.9-0.5-0.9-1c0,0,0,0,0,0l0,0c0,0,0.1-0.7,0.3-2
					c0.2-1.3,0.5-3.2,1-5.5c0.5-2.3,1.2-5.2,2.3-8.4c1-3.2,2.3-6.7,3.9-10.5c1.6-3.8,3.5-7.8,5.7-12c2.2-4.2,4.5-8.6,7.4-12.9
					c1.4-2.2,2.9-4.4,4.6-6.5c0.8-1.1,1.7-2.1,2.8-3.1c0.3-0.3,0.6-0.5,1-0.8l0.4-0.2l0.3-0.1c0.1,0,0,0,0.2-0.1
					c0.1-0.1,0.3-0.1,0.5-0.1c0.2,0,0.3,0,0.5,0l0.1,0c-0.4-0.1,0.5,0.1,0.7,0.2c0.2,0.1,0.3,0.2,0.5,0.3c0.1,0.1,0.3,0.3,0.4,0.4
					c0.1,0.1,0.1,0.2,0.2,0.3c0.1,0.2,0.2,0.4,0.2,0.5c0.1,0.5,0.1,0.8,0.1,1.1c0,0.2,0,0.5,0,0.7c0,0.4-0.1,0.8-0.2,1.1
					c-0.6,2.8-1.5,5.4-2.3,8c-0.9,2.6-1.8,5.1-2.8,7.7c-1.9,5.1-3.8,10.2-5.6,15.2c-0.8,2.5-1.7,5.1-2.2,7.6
					c-0.1,0.6-0.2,1.2-0.3,1.8c0,0.3,0,0.6,0,0.8c0,0,0,0.1,0,0.1c0,0,0,0,0,0c0,0-0.1-0.1-0.1-0.1c-0.1-0.1-0.2-0.1-0.2-0.1
					c-0.2,0,0,0,0.3-0.2l0.3-0.2c0.1-0.1,0.2-0.2,0.3-0.3c0.4-0.4,0.7-0.9,1.1-1.4c1.4-2,2.6-4.2,3.8-6.4c1.2-2.1,2.2-4.3,3.2-6.4
					c2-4.2,3.8-8.2,5.3-12c1.6-3.8,2.9-7.2,4.1-10.3c1.2-3.1,2.1-5.8,2.9-8c0.8-2.2,1.4-4,1.8-5.2c0.4-1.2,0.6-1.9,0.6-1.9l0,0
					c0.4-1,1.5-1.6,2.5-1.3c1,0.4,1.6,1.5,1.3,2.5C145.3,219.9,145.3,220,145.2,220z"/>
			</g>
			<g>
				<path class="st0" d="M176.3,195.4c0,0-0.7,1.6-1.8,4.4c-1.1,2.8-2.8,6.8-4.5,11.6c-0.9,2.4-1.8,5.1-2.7,7.9
					c-0.9,2.8-1.8,5.8-2.5,8.9c-0.3,1.5-0.6,3.1-0.7,4.7c0,0.4,0,0.8,0,1.1c0,0.3,0.1,0.7,0.2,0.7c0,0,0,0,0,0c0,0,0.1,0,0.2,0
					c0.2-0.1,0.6-0.2,0.9-0.4l0.1-0.1l0.1,0l0,0c0.1-0.1-0.1,0,0,0l0.2-0.2c0.2-0.1,0.2-0.2,0.4-0.4c0.3-0.3,0.5-0.6,0.8-0.9
					c0.5-0.7,1-1.3,1.4-2.1c0.9-1.4,1.8-2.9,2.6-4.4c3.3-6,6.3-12.3,8.9-18.1c1.4-2.9,2.6-5.8,3.8-8.5c1.2-2.7,2.3-5.3,3.2-7.7
					c2-4.8,3.5-8.8,4.6-11.6c1.1-2.8,1.7-4.4,1.7-4.4c0.4-1,1.5-1.6,2.6-1.2c1,0.4,1.6,1.5,1.2,2.6c0,0.1,0,0.1-0.1,0.2l0,0
					c0,0-3,6.2-7.5,15.6c-2.2,4.7-4.9,10.1-7.7,16c-1.4,2.9-2.9,5.9-4.4,9c-1.5,3-3.1,6.1-4.8,9.2c-0.9,1.5-1.7,3-2.6,4.5
					c-0.5,0.7-1,1.5-1.5,2.2c-0.3,0.4-0.5,0.7-0.9,1.1c-0.2,0.2-0.4,0.4-0.5,0.5l-0.2,0.2l-0.1,0.1l0,0l-0.1,0.1l-0.1,0.1
					c-0.4,0.3-0.8,0.5-1.4,0.7c-0.3,0.1-0.6,0.1-1.1,0c-0.4-0.1-0.8-0.4-1-0.6c-0.5-0.6-0.5-1.1-0.6-1.6c-0.1-0.5-0.1-0.9-0.1-1.4
					c0-1.8,0.3-3.4,0.6-5.1c0.6-3.2,1.5-6.3,2.2-9.1c0.8-2.9,1.6-5.6,2.4-8.1c3.1-9.9,5.1-16.5,5.1-16.5l0,0
					c0.3-1.1,1.4-1.6,2.5-1.3c1.1,0.3,1.6,1.4,1.3,2.5C176.3,195.2,176.3,195.3,176.3,195.4z"/>
			</g>
			<g>
				<path class="st0" d="M162.9,206.6c0,0-0.7,1.5-1.8,4.1c-1.1,2.7-2.8,6.4-4.6,11c-0.9,2.3-1.9,4.8-2.9,7.4c-1,2.7-2,5.5-3,8.4
					c-0.5,1.5-1,3-1.4,4.5c-0.4,1.5-0.9,3.1-1.1,4.6c-0.1,0.4-0.1,0.8-0.1,1.1c0,0.2,0,0.3,0,0.2c0-0.1-0.1-0.1-0.1-0.1
					c-0.1-0.1-0.2-0.1-0.3-0.1c-0.1,0-0.2,0-0.2,0c0,0,0,0,0,0c0,0,0.1-0.1,0.1,0l0.2-0.2c0.2-0.1,0.3-0.3,0.4-0.4
					c0.2-0.2,0.5-0.5,0.7-0.8c1-1.2,1.8-2.6,2.7-4c1.7-2.8,3.2-5.7,4.6-8.6c1.5-2.9,2.8-5.8,4.1-8.6c2.6-5.6,4.8-10.9,6.7-15.5
					c1.9-4.6,3.2-8.5,4.2-11.2c0.5-1.4,0.8-2.4,1-3.2c0.2-0.7,0.3-1.1,0.3-1.1l0,0c0.3-1.1,1.5-1.6,2.5-1.3c1.1,0.3,1.6,1.5,1.3,2.5
					c0,0.1,0,0.1-0.1,0.2c0,0-0.7,1.5-1.8,4.2c-1.2,2.7-2.9,6.4-5,10.9c-2.1,4.5-4.6,9.7-7.3,15.3c-1.4,2.8-2.8,5.6-4.3,8.5
					c-1.5,2.9-3.1,5.8-4.8,8.7c-0.9,1.4-1.7,2.9-2.8,4.2c-0.3,0.3-0.5,0.7-0.9,1c-0.2,0.2-0.3,0.3-0.5,0.5l-0.2,0.2
					c-0.2,0.2-0.3,0.2-0.4,0.3c-0.1,0-0.2,0.1-0.3,0.1c-0.1,0-0.3,0-0.5,0c-0.2,0-0.4-0.1-0.6-0.3c-0.1-0.1-0.2-0.2-0.3-0.4
					c-0.2-0.4-0.2-0.7-0.2-1c0-0.5,0-0.9,0.1-1.4c0.6-3.4,1.5-6.4,2.4-9.4c1.8-5.9,3.6-11.4,5.2-16.1c3.1-9.4,5.2-15.7,5.2-15.7l0,0
					c0.3-1.1,1.5-1.6,2.5-1.3c1.1,0.3,1.6,1.5,1.3,2.5C163,206.4,163,206.5,162.9,206.6z"/>
			</g>
			<g>
				<path class="st0" d="M145.2,220c0,0-0.7,1.5-1.8,4.1c-1.1,2.6-2.7,6.3-4.4,10.9c-0.9,2.3-1.8,4.7-2.7,7.4
					c-0.9,2.6-1.8,5.4-2.6,8.3c-0.4,1.5-0.7,2.9-1,4.4c-0.1,0.7-0.2,1.5-0.2,2.2c0,0.3,0,0.7,0.1,1c0,0.3,0.2,0.4,0.1,0.3
					c-0.1,0,0.1,0,0.4-0.2c0.1-0.1,0.3-0.2,0.4-0.3l0.1-0.1c0,0,0.1-0.1,0,0l0.1,0l0.2-0.2l0.5-0.4l0.4-0.4l0.4-0.4l0.4-0.5
					c1-1.2,1.9-2.6,2.7-3.9c1.7-2.7,3.2-5.6,4.7-8.4c1.5-2.8,2.8-5.7,4.1-8.4c2.5-5.5,4.8-10.7,6.6-15.2c1.8-4.5,3.2-8.3,4.2-10.9
					c1-2.7,1.5-4.2,1.5-4.2c0.4-1,1.5-1.6,2.5-1.3s1.6,1.5,1.3,2.5c0,0.1-0.1,0.1-0.1,0.2l0,0c0,0-2.8,5.9-7,14.7
					c-2.1,4.4-4.5,9.5-7.2,15c-1.3,2.7-2.8,5.5-4.3,8.4c-1.5,2.8-3.1,5.7-4.8,8.5c-0.9,1.4-1.8,2.8-2.8,4.1c-0.2,0.3-0.5,0.7-0.8,1
					l-0.5,0.5l-0.4,0.4l-0.2,0.2l-0.1,0.1c-0.1,0.1-0.1,0.1-0.1,0.1l-0.1,0.1c-0.2,0.1-0.4,0.3-0.6,0.4c-0.1,0.1-0.2,0.1-0.4,0.2
					c-0.1,0.1-0.3,0.1-0.4,0.1c-0.1,0-0.3,0.1-0.5,0.1c-0.2,0-0.4,0-0.6-0.1c-0.2-0.1-0.4-0.2-0.5-0.4c-0.1-0.1-0.3-0.3-0.3-0.4
					c-0.2-0.3-0.2-0.6-0.3-0.8c-0.1-0.5-0.1-0.9-0.1-1.4c0-0.9,0.1-1.7,0.2-2.5c0.2-1.6,0.6-3.1,0.9-4.6c1.4-6,3.2-11.4,4.6-16.1
					c1.5-4.7,2.7-8.5,3.6-11.2c0.9-2.7,1.4-4.3,1.4-4.3l0,0c0.3-1.1,1.5-1.6,2.5-1.3c1.1,0.3,1.6,1.5,1.3,2.5
					C145.3,219.9,145.3,220,145.2,220z"/>
			</g>
			<g>
				<path class="st0" d="M153.4,195.2c0,0,0-0.1,0.1-0.3c0.1-0.2,0.2-0.4,0.4-0.7c0.3-0.6,0.8-1.5,1.6-2.5c0.4-0.5,0.9-1.1,1.9-1.6
					c0.3-0.1,0.6-0.2,0.8-0.3c0.3,0,0.7-0.1,1.1,0c0.7,0.1,1.6,0.4,2.1,1.5c0.3,0.8,0.3,1.3,0.2,1.8c-0.1,0.5-0.2,0.9-0.3,1.3
					c-0.2,0.8-0.5,1.5-0.8,2.2c-1.3,2.7-2.8,5.1-4,6.9c-1.2,1.8-2,3-2,3c-0.3,0.4-0.8,0.5-1.2,0.2c-0.4-0.3-0.5-0.8-0.3-1.1
					c0,0,0.7-1.2,1.7-3.1c1-1.9,2.2-4.4,3.1-7c0.2-0.6,0.4-1.3,0.5-1.8c0.1-0.3,0.1-0.6,0.1-0.8c0-0.1,0-0.2,0-0.2c0,0,0-0.1,0,0.1
					c0,0,0,0,0,0.1c0,0.1,0.1,0.1,0.1,0.2c0.1,0.1,0.1,0.1,0.2,0.2c0.1,0,0,0,0,0l-0.1,0l-0.1-0.1l0,0l0,0c0.1,0.1-0.3-0.1,0.3,0.1
					l0,0l0,0c0,0,0,0,0.1,0c0,0,0.1,0,0.1,0c0,0,0,0,0,0c-0.1,0.1-0.4,0.4-0.6,0.8c-0.5,0.7-0.8,1.4-1,1.9c-0.1,0.3-0.2,0.5-0.2,0.6
					c0,0.1-0.1,0.2-0.1,0.2l0,0c-0.4,1-1.5,1.6-2.5,1.2c-1-0.4-1.6-1.5-1.2-2.5C153.4,195.4,153.4,195.3,153.4,195.2z"/>
			</g>
			<g>
				<path class="st0" d="M226.5,171.9c0,0,0.1-0.4,0.4-1.1c0.2-0.7,0.6-1.7,1.1-3.1c0.4-1.3,0.9-3,1.4-4.9c0.4-1.9,0.9-4.1,1-6.3
					c0-0.5,0-1.1-0.1-1.5c0-0.2-0.1-0.4-0.1-0.3c0,0,0.1,0.1,0.2,0.2c0.1,0.1,0.3,0.1,0.5,0.1c0.2,0,0.1,0,0,0.1l-0.4,0.3l-0.3,0.2
					c-0.4,0.3-0.9,0.7-1.4,1.2c-1.8,1.8-3.4,4.3-4.9,6.9c-3,5.3-5.5,11.3-7.6,17.5c-1,3.1-2,6.2-2.7,9.4c-0.4,1.6-0.7,3.1-0.9,4.6
					c-0.1,0.8-0.2,1.5-0.2,2.2c0,0.4,0,0.7,0,1c0,0.3,0.1,0.6,0.1,0.7c0,0.1,0,0-0.1,0c-0.1-0.1-0.2-0.1-0.2-0.1c0,0-0.1,0-0.1,0
					c0,0,0,0,0,0c-0.1,0,0.2-0.1,0.4-0.3l0.4-0.3c0.1-0.1,0.3-0.3,0.4-0.4l0.6-0.7c0.9-1.1,1.7-2.3,2.5-3.5c1.5-2.3,2.9-4.7,4.1-6.8
					c2.4-4.3,4.2-8,5.3-10.6c0.6-1.3,1-2.3,1.3-3.1c0.3-0.7,0.4-1.1,0.4-1.1l0,0c0.2-0.4,0.7-0.7,1.1-0.5c0.4,0.2,0.7,0.7,0.5,1.1
					c0,0-0.1,0.4-0.4,1.1c-0.3,0.7-0.7,1.8-1.3,3.2c-1.1,2.7-2.9,6.5-5.2,10.9c-1.2,2.2-2.5,4.6-4,7c-0.8,1.2-1.6,2.5-2.5,3.7
					c-0.3,0.3-0.5,0.7-0.8,1c-0.1,0.2-0.3,0.3-0.4,0.4l-0.2,0.2l-0.1,0.1l-0.1,0.1l0,0l-0.1,0.1c-0.4,0.3-0.8,0.6-1.6,0.8
					c-0.1,0-0.2,0-0.3,0c-0.1,0-0.3,0-0.4,0c-0.3,0-0.5-0.2-0.7-0.3c-0.4-0.3-0.6-0.7-0.8-0.9c-0.3-0.6-0.3-1.1-0.4-1.5
					c-0.1-0.5-0.1-0.9-0.1-1.3c0-0.9,0.1-1.7,0.2-2.5c0.2-1.6,0.5-3.3,0.8-4.9c0.7-3.2,1.6-6.5,2.6-9.7c2-6.4,4.4-12.6,7.4-18.2
					c1.5-2.8,3.2-5.4,5.3-7.7c0.5-0.6,1.1-1.1,1.8-1.6l0.5-0.4l0.4-0.3c0.4-0.2,0.9-0.6,1.8-0.6c0.2,0,0.5,0,0.7,0.1
					c0.2,0.1,0.5,0.2,0.7,0.3c0.4,0.3,0.7,0.6,0.9,0.9c0.4,0.6,0.5,1.1,0.6,1.5c0.2,0.9,0.2,1.6,0.2,2.3c0,2.8-0.5,5-0.9,7.1
					c-0.5,2-0.9,3.8-1.4,5.2c-0.4,1.4-0.8,2.5-1,3.3c-0.3,0.7-0.4,1.1-0.4,1.1c-0.4,1-1.5,1.6-2.5,1.2
					C226.7,174.2,226.1,173,226.5,171.9C226.5,172,226.5,172,226.5,171.9z"/>
			</g>
			<g>
				<path class="st0" d="M241,147.9c0,0-1.8,3.9-4.3,9.9c-1.2,3-2.6,6.5-4,10.3c-0.7,1.9-1.4,3.8-2.1,5.8c-0.7,2-1.4,4-2,6.1
					c-0.6,2.1-1.2,4.1-1.5,6.1c-0.1,0.5-0.1,1-0.2,1.5c0,0.2,0,0.4,0,0.6c0,0.2,0.1,0.2-0.1,0c-0.1-0.1-0.3-0.1-0.3-0.1c0,0,0,0,0,0
					c0,0,0,0,0.1,0c0.1-0.1,0.3-0.2,0.5-0.3c0.2-0.1,0.3-0.3,0.5-0.5l0.1-0.1l0,0l0,0c0-0.1,0,0.1,0,0l0.1-0.1l0.2-0.3
					c1.2-1.5,2.2-3.1,3.1-4.7c0.9-1.6,1.7-3.1,2.4-4.6c1.4-2.9,2.5-5.3,3.2-7.1c0.7-1.7,1.1-2.7,1.1-2.7c0.4-1,1.6-1.6,2.6-1.2
					s1.6,1.6,1.2,2.6c0,0.1-0.1,0.2-0.2,0.3l0,0c0,0-2.2,3.7-5.6,9.3c-0.9,1.4-1.8,2.9-2.8,4.5c-0.5,0.8-1.1,1.6-1.6,2.4
					c-0.6,0.8-1.2,1.7-1.9,2.4l-0.3,0.3l-0.1,0.1l-0.1,0.1l0,0l0,0l-0.1,0.1c-0.2,0.2-0.4,0.4-0.6,0.6c-0.2,0.2-0.5,0.4-0.8,0.5
					l-0.3,0.1c-0.1,0-0.2,0.1-0.4,0.1c-0.3,0-0.7,0-1-0.2c-0.2-0.1-0.3-0.2-0.4-0.4c-0.1-0.1-0.2-0.3-0.2-0.4
					c-0.1-0.2-0.1-0.4-0.2-0.6c0-0.4,0-0.7,0-1c0-0.6,0.1-1.1,0.2-1.7c0.4-2.2,1-4.2,1.6-6.3c0.6-2.1,1.3-4.1,1.9-6.2
					c0.7-2,1.3-4,1.9-5.9c1.3-3.8,2.4-7.4,3.4-10.5c2-6.2,3.1-10.3,3.1-10.3c0.3-1.1,1.4-1.7,2.5-1.4c1.1,0.3,1.7,1.4,1.4,2.5
					C241.1,147.7,241,147.8,241,147.9z"/>
			</g>
			<ellipse transform="matrix(0.9397 0.342 -0.342 0.9397 84.3057 -60.387)" class="st2" cx="213.4" cy="208.9" rx="1.6" ry="4.3"/>
		</g>
	</g>
	<g>
		<g>
			<path class="st0" d="M1.5,221.4l59.4,0.8c0.4,0,0.6,0.3,0.6,0.7c0,0.4-0.3,0.6-0.6,0.6l-59.4,0.8c-0.8,0-1.5-0.7-1.5-1.5
				S0.7,221.4,1.5,221.4C1.5,221.4,1.5,221.4,1.5,221.4z"/>
		</g>
		<g>
			<path class="st0" d="M285.2,224.4l-61.5-0.8c-0.4,0-0.6-0.3-0.6-0.7c0-0.4,0.3-0.6,0.6-0.6l61.5-0.8c0.8,0,1.5,0.7,1.5,1.5
				S286.1,224.4,285.2,224.4C285.3,224.4,285.2,224.4,285.2,224.4z"/>
		</g>
		<g>
			<path class="st0" d="M6.8,163.2l62.1,27.3c0.3,0.1,0.5,0.5,0.3,0.9c-0.1,0.3-0.5,0.5-0.8,0.3L5.7,166c-0.8-0.3-1.1-1.2-0.8-2
				C5.2,163.2,6,162.9,6.8,163.2C6.8,163.2,6.8,163.2,6.8,163.2z"/>
		</g>
		<g>
			<path class="st0" d="M280,282.4l-64-28.1c-0.3-0.1-0.5-0.5-0.3-0.9c0.1-0.3,0.5-0.5,0.8-0.3l64.7,26.5c0.8,0.3,1.1,1.2,0.8,2
				C281.6,282.3,280.8,282.7,280,282.4C280,282.4,280,282.4,280,282.4z"/>
		</g>
		<g>
			<path class="st0" d="M22.7,105.4l57.7,56.2c0.3,0.3,0.3,0.7,0,0.9c-0.2,0.3-0.7,0.3-0.9,0l-58.9-55c-0.6-0.6-0.6-1.5-0.1-2.1
				S22,104.8,22.7,105.4C22.6,105.4,22.7,105.4,22.7,105.4z"/>
		</g>
		<g>
			<path class="st0" d="M264.3,339.9L205,282.2c-0.3-0.3-0.3-0.7,0-0.9c0.2-0.3,0.7-0.3,0.9,0l60.5,56.5c0.6,0.6,0.6,1.5,0.1,2.1
				C265.9,340.5,264.9,340.5,264.3,339.9C264.3,339.9,264.3,339.9,264.3,339.9z"/>
		</g>
		<g>
			<path class="st0" d="M56.1,45.2L98.3,131c0.2,0.3,0,0.7-0.3,0.9c-0.3,0.2-0.7,0-0.9-0.3L53.4,46.5c-0.4-0.7-0.1-1.6,0.6-2
				S55.7,44.4,56.1,45.2C56.1,45.1,56.1,45.1,56.1,45.2z"/>
		</g>
		<g>
			<path class="st0" d="M231.1,400.1L187.8,312c-0.2-0.3,0-0.7,0.3-0.9c0.3-0.2,0.7,0,0.9,0.3l44.9,87.4c0.4,0.7,0.1,1.6-0.6,2
				S231.5,400.9,231.1,400.1C231.2,400.1,231.1,400.1,231.1,400.1z"/>
		</g>
		<g>
			<path class="st0" d="M114,1.3l13.2,99.7c0,0.4-0.2,0.7-0.6,0.7c-0.4,0-0.7-0.2-0.7-0.5L111,1.7c-0.1-0.8,0.4-1.6,1.3-1.7
				C113.1-0.1,113.8,0.5,114,1.3C114,1.3,114,1.3,114,1.3z"/>
		</g>
		<g>
			<path class="st0" d="M173.5,444.3L159.9,342c0-0.4,0.2-0.7,0.6-0.7c0.4,0,0.7,0.2,0.7,0.5l15.3,102.1c0.1,0.8-0.4,1.6-1.3,1.7
				S173.6,445.1,173.5,444.3C173.5,444.3,173.5,444.3,173.5,444.3z"/>
		</g>
	</g>
</g>
</svg>
