<?xml version="1.0" encoding="utf-8"?>
<!-- Generator: Adobe Illustrator 19.0.0, SVG Export Plug-In . SVG Version: 6.00 Build 0)  -->
<svg version="1.1" id="Layer_1" xmlns="http://www.w3.org/2000/svg" xmlns:xlink="http://www.w3.org/1999/xlink" x="0px" y="0px"
	 viewBox="0 0 345.3 441.9" style="enable-background:new 0 0 345.3 441.9;" xml:space="preserve">
<style type="text/css">
	.st0{fill:#FFF9D3;stroke:#FFF9D3;stroke-linecap:round;stroke-linejoin:round;stroke-miterlimit:10;}
</style>
<g>
	<g>
		<path class="st0" d="M68.7,247c-1.8-0.8-3.7-1.8-5.6-2.8c-1.9-1.1-3.6-2.2-5.3-3.4L0.7,339.6c-0.9,1.5,0.8,4.2,3.8,5.9
			s6.2,1.9,7.1,0.4L68.7,247z"/>
		<path class="st0" d="M160.6,142.4c-11.9,20.6-110,55.1-109.2,79.8c4.1,4.3,9.9,9.1,16.8,13.1c13.1-22.8,60.4-37.4,68.8-51.9
			C149.7,161.3,153.9,154,160.6,142.4z"/>
		<path class="st0" d="M148.5,28.9c0,0,25-16.6,30.9-26.9c-8.1-2.1-14.3-1.9-15.3-0.2C161.6,6.2,155.8,16.2,148.5,28.9z"/>
		<path class="st0" d="M129.5,61.8c-8.2,14.1-16.5,28.6-23.6,40.9c11.9-20.6,110-55.1,109.2-79.8c-0.7-0.7-1.5-1.5-2.2-2.2
			c-3.9-3.7-8.8-7.5-14.5-10.8C185.2,32.6,137.9,47.2,129.5,61.8z"/>
		<path class="st0" d="M87.1,243.1c8.1,2.1,14.3,1.9,15.3,0.2l15.6-27C118,216.2,93,232.8,87.1,243.1z"/>
	</g>
	<g>
		<path class="st0" d="M227.6,70.4L88.1,311.9c0,0,18.7-11.8,30.3-12.5L244.8,61L227.6,70.4z"/>
		<path class="st0" d="M237.3,42.8C195.2,99.6,58.9,126.7,24.7,185.9c0,0-3.7,35.4,1.7,38.5c0,0-3.7-4.7,1.2-13.3
			C63.3,149.4,209.3,122.6,244.8,61C239.4,55,237.3,42.8,237.3,42.8z"/>
	</g>
	<path class="st0" d="M205.6,147.9"/>
	<g>
		<path class="st0" d="M222.1,122.6l-89.3,171c0,0,7.8-6,13.2-5.4l83.4-147.7C224.4,134.7,222.1,122.6,222.1,122.6z"/>
		<path class="st0" d="M239.1,203.6c0,0-41.5,63.2-54.9,68.7c-21.9,9,14.5-46.8,14.5-46.8S176,236.6,146,288.1l-1.6-2.5
			c23.7-43.9,52.6-70.2,64.3-75c15.1-6.2-4.7,16.8-18,50c19.5-17.4,47.9-62.3,47.9-62.3L239.1,203.6z"/>
	</g>
	<g>
		<path class="st0" d="M305.9,170.5c-5.9,9.2-36.3,53.7-50.3,63.3l21.1-38.8c-3.6-3-4.4-10.7-4.4-10.7s-5.9,9.2,0,0
			c0,0-42.4,69.1-23.8,61.4c13.9-5.7,50.6-58.5,57.4-68.8L305.9,170.5z"/>
		<path class="st0" d="M272.8,190c-6.8,10.3-44.1,63.9-58,69.7c-18.6,7.7,23.8-61.4,23.8-61.4s1.1,7,4.4,10.7l-21.1,38.8
			c14.1-9.7,44.5-54.1,50.3-63.3L272.8,190z"/>
	</g>
	<g>
		<path class="st0" d="M340.7,154.9l-94.1,161.8c0,0,12.8-9.1,20.6-8.5L344.8,165C341.5,163,340.7,154.9,340.7,154.9z"/>
		<path class="st0" d="M340.7,154.9c0,0-35.7,54.2-51.4,65l21.1-38.8c-3.9-2.7-4.4-10.7-4.4-10.7s-42.4,69.1-23.8,61.4
			c15.4-6.3,58.8-70.9,58.8-70.9L340.7,154.9z"/>
	</g>
	<path class="st0" d="M255.9,160.6l3.8,9.1c0,0,7.4-7.7,8.4-5.1c1,2.5-12.1,23.7-12.1,23.7s23.2-22.3,19.4-31.3
		C271.1,146.6,255.9,160.6,255.9,160.6z"/>
	<ellipse transform="matrix(0.8732 0.4873 -0.4873 0.8732 196.0372 -47.7975)" class="st0" cx="189.9" cy="352.9" rx="4" ry="9.6"/>
	<path class="st0" d="M189.7,280.6c-23.4,33.1-97.5,44.9-115.4,75.9c0,0-3.3,27.1-0.5,28.7l0,0c0,0-1.3-3.7,1.9-9.1
		c16.7-29,60.8-37.2,90.9-56.5L96.3,441.4c0,0,13.9-8.8,23.5-9.7l74-141.6C190.7,287.7,189.7,280.6,189.7,280.6z"/>
	<g>
		<path class="st0" d="M227.8,272.8c-31.2,12.9-61.5,77-35.7,66.3c6.3-2.6,24.5-26.2,34.3-43.3C236.8,278,229.7,272.1,227.8,272.8z
			 M196.9,328.1c-0.9-14.6,22.1-46,29.6-49.1c2.6-1.1,5.1,3.1-3,17.1C215.3,310.3,201.9,326.1,196.9,328.1z"/>
		<path class="st0" d="M248.7,290.8c0,0-13.2,18.4-26,26.8l21.1-38.8c-3.1-2.5-4.4-10.7-4.4-10.7s-42.4,69.1-23.8,61.4
			c10.6-4.4,34.2-36.1,34.2-36.1L248.7,290.8z"/>
	</g>
</g>
</svg>
